<svg xmlns="http://www.w3.org/2000/svg" xmlns:xlink="http://www.w3.org/1999/xlink" width="394.816" height="138.558" viewBox="0 0 394.816 138.558"><defs><clipPath id="a"><rect width="392.577" height="131.726" fill="none" stroke="#000" stroke-width="1.5"/></clipPath></defs><g transform="matrix(1, -0.017, 0.017, 1, -131.597, 10.149)"><g transform="translate(131.635 -1)" clip-path="url(#a)"><path d="M379.516,107.231a31.438,31.438,0,0,0-11.4-12.993c-5.773-3.838-11.706-7.48-18.612-8.435-9.956-1.377-18.556,2.529-26.452,8.232-1.354.979-2.526,3.374-4.369,1.491-1.628-1.663.14-3.375,1.316-4.616,2.258-2.382,4.717-4.572,6.652-6.419,0-4.505.112-8.6-.032-12.692a78.7,78.7,0,0,0-.9-11.844c-1.544-8.149-5.663-14.964-11.1-21.26a75.147,75.147,0,0,0-24.2-18.529,65.475,65.475,0,0,0-30.733-6.392c-6.3.143-12.6.81-18.882,1.4a74.785,74.785,0,0,0-31.881,10.342c-4.191,2.516-8.318,5.167-11.65,8.845,3.278,3.125,6.344,6.022,9.38,8.949a34.744,34.744,0,0,1,8.824,12.672,5.67,5.67,0,0,1-1.625,6.394c-1.336,1.318-4.615,1.4-6.6-.088a20.436,20.436,0,0,1-4.52-4.711c-3.644-5.293-7.439-10.378-12.686-14.259-7.294-5.394-15.311-8.423-24.46-8.358a62.762,62.762,0,0,0-22.417,4.609c-9.512,3.682-17.686,9.322-25.2,16.049a38.119,38.119,0,0,0-3.535,4.3c2.251.841,3.864,1.555,5.542,2.052a39.194,39.194,0,0,1,18.65,11.556,10.062,10.062,0,0,1,2.555,5.921,4.944,4.944,0,0,1-3.264,5.528c-2.885,1.214-6.132.058-7.887-3.362-1.883-3.67-4.973-5.819-8.363-7.669-1.906-1.04-4.031-1.672-6.029-2.551A38.41,38.41,0,0,0,89.892,69.61C81.75,71.7,74.612,75.873,68.083,80.937a34.911,34.911,0,0,0-8.838,9.65,97.877,97.877,0,0,1-5.858,9.3c-1.345,1.819-1.776,4.3-2.737,6.424a18.652,18.652,0,0,1-2.106,2.765c-.6-1-1.305-1.634-1.241-2.175.439-3.775,1.038-7.532,1.672-11.89-3.82-3.182-8.458-3.718-13.127-2.792-13.195,2.619-21.592,11.324-27.744,22.683a3.233,3.233,0,0,0-.159.382c-1.518,3.948-.7,5.126,3.427,4.843,2.332-.16,4.654-.463,6.987-.6q25.3-1.516,50.644-1.015c9.621.2,19.249.115,28.866.4,10.02.294,20.028,1,30.048,1.3,13.035.384,26.075.583,39.115.777,11.672.175,23.346.246,35.019.341,9.725.08,19.45.093,29.173.2,6.953.078,13.905.344,20.858.381,7.527.04,15.055-.145,22.582-.133,13.458.023,26.918.268,40.374.138,10.133-.1,20.262.53,30.4-.031,4.112-.228,8.247-.037,12.36-.256,5.761-.307,11.5-.835,17.257.178a24.563,24.563,0,0,0,4.531.1,1.808,1.808,0,0,0,1.973-2.13c-.569-4.191-.123-8.494-2.04-12.543" transform="translate(-1.746 -3.317)" fill="#d8fffa"/><path d="M335.806,122.87c-3.089,0-6.226-.055-9.26-.108s-6.158-.108-9.234-.108c-.779,0-1.542,0-2.266.011-2.632.025-5.372.038-8.376.038-5.66,0-11.414-.045-16.978-.089-4.926-.039-10.02-.079-15.028-.087h-.719c-3.27,0-6.6.035-9.814.07s-6.552.07-9.829.07c-.762,0-1.51,0-2.222-.006-3.83-.02-7.72-.111-11.483-.2-3.075-.072-6.255-.146-9.38-.182-5.73-.064-11.557-.1-17.193-.126-3.926-.021-7.985-.043-11.978-.076l-6.505-.051c-9.347-.072-19.012-.147-28.519-.29-12.081-.18-25.774-.384-39.126-.777-5.008-.148-10.094-.4-15.011-.649s-10.025-.5-15.036-.65c-5.387-.159-10.871-.2-16.175-.243-4.157-.033-8.456-.066-12.685-.155-4.2-.088-8.482-.133-12.715-.133-12.423,0-25.164.386-37.868,1.147-1.23.074-2.486.2-3.7.314-1.073.1-2.182.212-3.281.288-.41.028-.777.042-1.119.042-2.291,0-3.032-.693-3.39-1.215-.661-.962-.562-2.364.332-4.687l.029-.076a2.991,2.991,0,0,1,.17-.393,51.947,51.947,0,0,1,11.4-14.828A36.361,36.361,0,0,1,26.479,94.6,36.807,36.807,0,0,1,35.7,91.487a21.156,21.156,0,0,1,4.1-.423,14.662,14.662,0,0,1,9.653,3.374l.323.269-.06.415q-.237,1.631-.466,3.157c-.449,3.021-.873,5.876-1.2,8.692a3.749,3.749,0,0,0,.469.736l.08.11c.128-.154.249-.3.364-.433a6.525,6.525,0,0,0,1-1.377c.335-.741.612-1.555.881-2.343a15.2,15.2,0,0,1,1.936-4.218,95.351,95.351,0,0,0,5.735-9.1l.077-.132a35.541,35.541,0,0,1,9.027-9.867A73.754,73.754,0,0,1,78.029,73.5a51.7,51.7,0,0,1,11.677-4.613,43.9,43.9,0,0,1,10.873-1.431A37.881,37.881,0,0,1,115.932,70.7c.734.323,1.507.62,2.255.908a31.582,31.582,0,0,1,3.831,1.672c3.3,1.8,6.634,4.015,8.671,7.985a5.645,5.645,0,0,0,4.95,3.423,5.084,5.084,0,0,0,1.979-.41,4.207,4.207,0,0,0,2.809-4.758,9.336,9.336,0,0,0-2.369-5.5,37.016,37.016,0,0,0-8.34-6.974,41.98,41.98,0,0,0-9.963-4.362c-1.143-.339-2.243-.77-3.517-1.269-.649-.255-1.321-.518-2.074-.8l-.977-.365.657-.81c.441-.543.835-1.068,1.216-1.576a18.915,18.915,0,0,1,2.4-2.807A97.422,97.422,0,0,1,129.4,45.824a72.612,72.612,0,0,1,13.487-6.953,63.482,63.482,0,0,1,22.682-4.66h.295a38.836,38.836,0,0,1,13.015,2.221,44.784,44.784,0,0,1,11.6,6.285c5.488,4.059,9.361,9.358,12.858,14.437a19.586,19.586,0,0,0,4.351,4.535,5.276,5.276,0,0,0,3.1.945,3.692,3.692,0,0,0,2.523-.791,5.987,5.987,0,0,0,1.638-2.588,4.727,4.727,0,0,0-.188-3.007,33.6,33.6,0,0,0-8.643-12.4c-2.1-2.025-4.192-4.014-6.407-6.119q-1.461-1.389-2.971-2.827l-.529-.5.491-.542c3.461-3.821,7.737-6.533,11.82-8.985a74.692,74.692,0,0,1,15.51-7.051,78.435,78.435,0,0,1,16.687-3.395l2.345-.223c5.43-.519,11.045-1.055,16.591-1.181.609-.014,1.223-.021,1.826-.021a71.041,71.041,0,0,1,14.959,1.543,62.51,62.51,0,0,1,14.295,4.946,79.179,79.179,0,0,1,13.148,8.083,75.162,75.162,0,0,1,11.288,10.629,56.9,56.9,0,0,1,7.1,10.068,39.24,39.24,0,0,1,4.168,11.543,67.292,67.292,0,0,1,.864,10.369q.025.8.052,1.589c.1,2.836.077,5.652.054,8.634-.01,1.322-.021,2.688-.021,4.084v.321l-.232.222c-.546.521-1.127,1.064-1.743,1.639-1.535,1.433-3.274,3.057-4.883,4.754l-.147.155c-1.543,1.62-2.08,2.5-1.177,3.421a1.277,1.277,0,0,0,.817.477c.441,0,.985-.55,1.511-1.083a8.86,8.86,0,0,1,1.066-.968,51.941,51.941,0,0,1,10.831-6.189A31.577,31.577,0,0,1,345.5,84.776a30.073,30.073,0,0,1,4.105.285,32.527,32.527,0,0,1,9.959,3.206,79.751,79.751,0,0,1,8.965,5.347,32.179,32.179,0,0,1,11.666,13.3c1.4,2.962,1.595,6.041,1.781,9.018.077,1.235.157,2.513.324,3.745a2.593,2.593,0,0,1-.559,2.077,2.818,2.818,0,0,1-2.148.9c-.343,0-.7.016-1.04.026-.46.014-.936.029-1.408.029h0a12.682,12.682,0,0,1-2.22-.166,42.771,42.771,0,0,0-7.437-.58c-2.48,0-5.015.147-7.466.29-.716.042-1.456.085-2.185.123-2.053.109-4.135.117-6.149.125-2.04.008-4.15.016-6.209.13C342.551,122.795,339.479,122.87,335.806,122.87Zm-18.494-1.716c3.089,0,6.227.055,9.261.108s6.158.108,9.234.108c3.645,0,6.691-.075,9.587-.235,2.1-.116,4.227-.125,6.286-.133,2-.008,4.06-.016,6.076-.123.725-.039,1.463-.081,2.177-.123,2.473-.144,5.03-.292,7.553-.292a44.237,44.237,0,0,1,7.7.6,11.25,11.25,0,0,0,1.96.143h0c.449,0,.912-.015,1.361-.029.35-.011.711-.022,1.068-.027a1.339,1.339,0,0,0,1.031-.384,1.13,1.13,0,0,0,.208-.9c-.175-1.286-.256-2.591-.335-3.853-.185-2.966-.36-5.768-1.639-8.469A30.72,30.72,0,0,0,367.7,94.863c-5.791-3.85-11.549-7.383-18.3-8.316a28.555,28.555,0,0,0-3.9-.27c-7.113,0-14.107,2.659-22.01,8.368a7.7,7.7,0,0,0-.878.807,3.9,3.9,0,0,1-2.578,1.528,2.663,2.663,0,0,1-1.889-.927,2.707,2.707,0,0,1-.587-3.2,8.885,8.885,0,0,1,1.75-2.3l.144-.152c1.64-1.73,3.4-3.371,4.948-4.819q.788-.736,1.5-1.407c0-1.289.011-2.551.021-3.774.023-2.965.046-5.766-.053-8.57q-.028-.8-.052-1.594a66.177,66.177,0,0,0-.838-10.137c-1.367-7.213-4.84-13.857-10.931-20.909a73.657,73.657,0,0,0-11.062-10.417,77.677,77.677,0,0,0-12.9-7.929,61.01,61.01,0,0,0-13.952-4.827A69.541,69.541,0,0,0,261.489,14.5c-.591,0-1.194.007-1.792.02-5.491.124-11.078.658-16.482,1.175l-2.347.223A76.936,76.936,0,0,0,224.5,19.251a73.193,73.193,0,0,0-15.2,6.91,51.115,51.115,0,0,0-10.982,8.17l2.433,2.315c2.216,2.107,4.309,4.1,6.414,6.126a43.217,43.217,0,0,1,5.213,5.942,30.273,30.273,0,0,1,3.792,7.005,6.41,6.41,0,0,1-1.8,7.193,5.106,5.106,0,0,1-3.577,1.223,6.8,6.8,0,0,1-4-1.244A21.1,21.1,0,0,1,202.106,58c-3.425-4.975-7.213-10.161-12.515-14.082a43.288,43.288,0,0,0-11.21-6.077,37.339,37.339,0,0,0-12.514-2.135h-.284a62.014,62.014,0,0,0-22.151,4.558,71.129,71.129,0,0,0-13.211,6.812,95.944,95.944,0,0,0-11.758,9.1,17.578,17.578,0,0,0-2.2,2.59c-.2.265-.4.534-.612.809.394.152.769.3,1.137.443,1.242.487,2.314.907,3.4,1.228a43.477,43.477,0,0,1,10.319,4.52,38.517,38.517,0,0,1,8.678,7.256,10.769,10.769,0,0,1,2.741,6.342,5.688,5.688,0,0,1-3.719,6.3,6.576,6.576,0,0,1-2.561.527,6.433,6.433,0,0,1-3.555-1.087,8.156,8.156,0,0,1-2.73-3.151c-1.852-3.61-4.966-5.667-8.055-7.353a30,30,0,0,0-3.651-1.588c-.764-.294-1.554-.6-2.321-.935a36.391,36.391,0,0,0-14.749-3.124,42.4,42.4,0,0,0-10.5,1.384,50.226,50.226,0,0,0-11.342,4.482,72.286,72.286,0,0,0-10.194,6.711,34.045,34.045,0,0,0-8.648,9.433l-.077.132a96.471,96.471,0,0,1-5.827,9.242,13.892,13.892,0,0,0-1.723,3.81c-.28.821-.57,1.671-.934,2.477a7.657,7.657,0,0,1-1.225,1.728c-.284.336-.605.717-.972,1.188l-.674.868-.562-.944c-.192-.322-.405-.615-.593-.873a2.6,2.6,0,0,1-.749-1.774c.331-2.845.758-5.717,1.21-8.758q.2-1.326.4-2.73A13.238,13.238,0,0,0,39.8,92.564,19.655,19.655,0,0,0,36,92.958a35.306,35.306,0,0,0-8.849,2.988,34.862,34.862,0,0,0-7.319,4.907,50.488,50.488,0,0,0-11.063,14.41,1.845,1.845,0,0,0-.084.2l-.034.09c-.658,1.71-.824,2.82-.5,3.3.257.374.982.564,2.154.564.3,0,.646-.013,1.017-.038,1.077-.074,2.176-.181,3.239-.284,1.228-.12,2.5-.243,3.755-.318,12.734-.763,25.5-1.15,37.957-1.15,4.244,0,8.533.045,12.747.133s8.513.122,12.665.155c5.312.042,10.8.085,16.207.244,5.027.147,10.131.4,15.067.651,4.91.246,9.987.5,14.98.648,13.34.393,27.028.6,39.1.777,9.5.142,19.163.217,28.508.289l6.506.051c3.991.033,8.049.055,11.973.076,5.638.031,11.468.062,17.2.126,3.134.035,6.319.11,9.4.182,3.756.088,7.639.179,11.455.2.71,0,1.455.006,2.214.006,3.27,0,6.6-.035,9.813-.07s6.552-.07,9.83-.07h.721c5.013.008,10.109.048,15.037.087,5.562.044,11.313.089,16.967.089,3,0,5.734-.012,8.362-.038C315.76,121.158,316.527,121.154,317.311,121.154Z" transform="translate(-1.746 -3.317)"/><path d="M335.806,122.87c-3.089,0-6.226-.055-9.26-.108s-6.158-.108-9.234-.108c-.779,0-1.542,0-2.266.011-2.632.025-5.372.038-8.376.038-5.66,0-11.414-.045-16.978-.089-4.926-.039-10.02-.079-15.028-.087h-.719c-3.27,0-6.6.035-9.814.07s-6.552.07-9.829.07c-.762,0-1.51,0-2.222-.006-3.83-.02-7.72-.111-11.483-.2-3.075-.072-6.255-.146-9.38-.182-5.73-.064-11.557-.1-17.193-.126-3.926-.021-7.985-.043-11.978-.076l-6.505-.051c-9.347-.072-19.012-.147-28.519-.29-12.081-.18-25.774-.384-39.126-.777-5.008-.148-10.094-.4-15.011-.649s-10.025-.5-15.036-.65c-5.387-.159-10.871-.2-16.175-.243-4.157-.033-8.456-.066-12.685-.155-4.2-.088-8.482-.133-12.715-.133-12.423,0-25.164.386-37.868,1.147-1.23.074-2.486.2-3.7.314-1.073.1-2.182.212-3.281.288-.41.028-.777.042-1.119.042-2.291,0-3.032-.693-3.39-1.215-.661-.962-.562-2.364.332-4.687l.029-.076a2.991,2.991,0,0,1,.17-.393,51.947,51.947,0,0,1,11.4-14.828A36.361,36.361,0,0,1,26.479,94.6,36.807,36.807,0,0,1,35.7,91.487a21.156,21.156,0,0,1,4.1-.423,14.662,14.662,0,0,1,9.653,3.374l.323.269-.06.415q-.237,1.631-.466,3.157c-.449,3.021-.873,5.876-1.2,8.692a3.749,3.749,0,0,0,.469.736l.08.11c.128-.154.249-.3.364-.433a6.525,6.525,0,0,0,1-1.377c.335-.741.612-1.555.881-2.343a15.2,15.2,0,0,1,1.936-4.218,95.351,95.351,0,0,0,5.735-9.1l.077-.132a35.541,35.541,0,0,1,9.027-9.867A73.754,73.754,0,0,1,78.029,73.5a51.7,51.7,0,0,1,11.677-4.613,43.9,43.9,0,0,1,10.873-1.431A37.881,37.881,0,0,1,115.932,70.7c.734.323,1.507.62,2.255.908a31.582,31.582,0,0,1,3.831,1.672c3.3,1.8,6.634,4.015,8.671,7.985a5.645,5.645,0,0,0,4.95,3.423,5.084,5.084,0,0,0,1.979-.41,4.207,4.207,0,0,0,2.809-4.758,9.336,9.336,0,0,0-2.369-5.5,37.016,37.016,0,0,0-8.34-6.974,41.98,41.98,0,0,0-9.963-4.362c-1.143-.339-2.243-.77-3.517-1.269-.649-.255-1.321-.518-2.074-.8l-.977-.365.657-.81c.441-.543.835-1.068,1.216-1.576a18.915,18.915,0,0,1,2.4-2.807A97.422,97.422,0,0,1,129.4,45.824a72.612,72.612,0,0,1,13.487-6.953,63.482,63.482,0,0,1,22.682-4.66h.295a38.836,38.836,0,0,1,13.015,2.221,44.784,44.784,0,0,1,11.6,6.285c5.488,4.059,9.361,9.358,12.858,14.437a19.586,19.586,0,0,0,4.351,4.535,5.276,5.276,0,0,0,3.1.945,3.692,3.692,0,0,0,2.523-.791,5.987,5.987,0,0,0,1.638-2.588,4.727,4.727,0,0,0-.188-3.007,33.6,33.6,0,0,0-8.643-12.4c-2.1-2.025-4.192-4.014-6.407-6.119q-1.461-1.389-2.971-2.827l-.529-.5.491-.542c3.461-3.821,7.737-6.533,11.82-8.985a74.692,74.692,0,0,1,15.51-7.051,78.435,78.435,0,0,1,16.687-3.395l2.345-.223c5.43-.519,11.045-1.055,16.591-1.181.609-.014,1.223-.021,1.826-.021a71.041,71.041,0,0,1,14.959,1.543,62.51,62.51,0,0,1,14.295,4.946,79.179,79.179,0,0,1,13.148,8.083,75.162,75.162,0,0,1,11.288,10.629,56.9,56.9,0,0,1,7.1,10.068,39.24,39.24,0,0,1,4.168,11.543,67.292,67.292,0,0,1,.864,10.369q.025.8.052,1.589c.1,2.836.077,5.652.054,8.634-.01,1.322-.021,2.688-.021,4.084v.321l-.232.222c-.546.521-1.127,1.064-1.743,1.639-1.535,1.433-3.274,3.057-4.883,4.754l-.147.155c-1.543,1.62-2.08,2.5-1.177,3.421a1.277,1.277,0,0,0,.817.477c.441,0,.985-.55,1.511-1.083a8.86,8.86,0,0,1,1.066-.968,51.941,51.941,0,0,1,10.831-6.189A31.577,31.577,0,0,1,345.5,84.776a30.073,30.073,0,0,1,4.105.285,32.527,32.527,0,0,1,9.959,3.206,79.751,79.751,0,0,1,8.965,5.347,32.179,32.179,0,0,1,11.666,13.3c1.4,2.962,1.595,6.041,1.781,9.018.077,1.235.157,2.513.324,3.745a2.593,2.593,0,0,1-.559,2.077,2.818,2.818,0,0,1-2.148.9c-.343,0-.7.016-1.04.026-.46.014-.936.029-1.408.029h0a12.682,12.682,0,0,1-2.22-.166,42.771,42.771,0,0,0-7.437-.58c-2.48,0-5.015.147-7.466.29-.716.042-1.456.085-2.185.123-2.053.109-4.135.117-6.149.125-2.04.008-4.15.016-6.209.13C342.551,122.795,339.479,122.87,335.806,122.87Zm-18.494-1.716c3.089,0,6.227.055,9.261.108s6.158.108,9.234.108c3.645,0,6.691-.075,9.587-.235,2.1-.116,4.227-.125,6.286-.133,2-.008,4.06-.016,6.076-.123.725-.039,1.463-.081,2.177-.123,2.473-.144,5.03-.292,7.553-.292a44.237,44.237,0,0,1,7.7.6,11.25,11.25,0,0,0,1.96.143h0c.449,0,.912-.015,1.361-.029.35-.011.711-.022,1.068-.027a1.339,1.339,0,0,0,1.031-.384,1.13,1.13,0,0,0,.208-.9c-.175-1.286-.256-2.591-.335-3.853-.185-2.966-.36-5.768-1.639-8.469A30.72,30.72,0,0,0,367.7,94.863c-5.791-3.85-11.549-7.383-18.3-8.316a28.555,28.555,0,0,0-3.9-.27c-7.113,0-14.107,2.659-22.01,8.368a7.7,7.7,0,0,0-.878.807,3.9,3.9,0,0,1-2.578,1.528,2.663,2.663,0,0,1-1.889-.927,2.707,2.707,0,0,1-.587-3.2,8.885,8.885,0,0,1,1.75-2.3l.144-.152c1.64-1.73,3.4-3.371,4.948-4.819q.788-.736,1.5-1.407c0-1.289.011-2.551.021-3.774.023-2.965.046-5.766-.053-8.57q-.028-.8-.052-1.594a66.177,66.177,0,0,0-.838-10.137c-1.367-7.213-4.84-13.857-10.931-20.909a73.657,73.657,0,0,0-11.062-10.417,77.677,77.677,0,0,0-12.9-7.929,61.01,61.01,0,0,0-13.952-4.827A69.541,69.541,0,0,0,261.489,14.5c-.591,0-1.194.007-1.792.02-5.491.124-11.078.658-16.482,1.175l-2.347.223A76.936,76.936,0,0,0,224.5,19.251a73.193,73.193,0,0,0-15.2,6.91,51.115,51.115,0,0,0-10.982,8.17l2.433,2.315c2.216,2.107,4.309,4.1,6.414,6.126a43.217,43.217,0,0,1,5.213,5.942,30.273,30.273,0,0,1,3.792,7.005,6.41,6.41,0,0,1-1.8,7.193,5.106,5.106,0,0,1-3.577,1.223,6.8,6.8,0,0,1-4-1.244A21.1,21.1,0,0,1,202.106,58c-3.425-4.975-7.213-10.161-12.515-14.082a43.288,43.288,0,0,0-11.21-6.077,37.339,37.339,0,0,0-12.514-2.135h-.284a62.014,62.014,0,0,0-22.151,4.558,71.129,71.129,0,0,0-13.211,6.812,95.944,95.944,0,0,0-11.758,9.1,17.578,17.578,0,0,0-2.2,2.59c-.2.265-.4.534-.612.809.394.152.769.3,1.137.443,1.242.487,2.314.907,3.4,1.228a43.477,43.477,0,0,1,10.319,4.52,38.517,38.517,0,0,1,8.678,7.256,10.769,10.769,0,0,1,2.741,6.342,5.688,5.688,0,0,1-3.719,6.3,6.576,6.576,0,0,1-2.561.527,6.433,6.433,0,0,1-3.555-1.087,8.156,8.156,0,0,1-2.73-3.151c-1.852-3.61-4.966-5.667-8.055-7.353a30,30,0,0,0-3.651-1.588c-.764-.294-1.554-.6-2.321-.935a36.391,36.391,0,0,0-14.749-3.124,42.4,42.4,0,0,0-10.5,1.384,50.226,50.226,0,0,0-11.342,4.482,72.286,72.286,0,0,0-10.194,6.711,34.045,34.045,0,0,0-8.648,9.433l-.077.132a96.471,96.471,0,0,1-5.827,9.242,13.892,13.892,0,0,0-1.723,3.81c-.28.821-.57,1.671-.934,2.477a7.657,7.657,0,0,1-1.225,1.728c-.284.336-.605.717-.972,1.188l-.674.868-.562-.944c-.192-.322-.405-.615-.593-.873a2.6,2.6,0,0,1-.749-1.774c.331-2.845.758-5.717,1.21-8.758q.2-1.326.4-2.73A13.238,13.238,0,0,0,39.8,92.564,19.655,19.655,0,0,0,36,92.958a35.306,35.306,0,0,0-8.849,2.988,34.862,34.862,0,0,0-7.319,4.907,50.488,50.488,0,0,0-11.063,14.41,1.845,1.845,0,0,0-.084.2l-.034.09c-.658,1.71-.824,2.82-.5,3.3.257.374.982.564,2.154.564.3,0,.646-.013,1.017-.038,1.077-.074,2.176-.181,3.239-.284,1.228-.12,2.5-.243,3.755-.318,12.734-.763,25.5-1.15,37.957-1.15,4.244,0,8.533.045,12.747.133s8.513.122,12.665.155c5.312.042,10.8.085,16.207.244,5.027.147,10.131.4,15.067.651,4.91.246,9.987.5,14.98.648,13.34.393,27.028.6,39.1.777,9.5.142,19.163.217,28.508.289l6.506.051c3.991.033,8.049.055,11.973.076,5.638.031,11.468.062,17.2.126,3.134.035,6.319.11,9.4.182,3.756.088,7.639.179,11.455.2.71,0,1.455.006,2.214.006,3.27,0,6.6-.035,9.813-.07s6.552-.07,9.83-.07h.721c5.013.008,10.109.048,15.037.087,5.562.044,11.313.089,16.967.089,3,0,5.734-.012,8.362-.038C315.76,121.158,316.527,121.154,317.311,121.154Z" transform="translate(-1.746 -3.317)"/><path d="M383.211,89.043a52.531,52.531,0,0,0-21.056-13.036c-6.976-2.383-14.051-3.732-21.419-1.947a7.91,7.91,0,0,1-2.113-.1,7.427,7.427,0,0,1-.675-1.971c-.147-4.25-.108-8.508-.335-12.753a41.713,41.713,0,0,0-4.185-15.374c-2.535-5.447-6.146-10.14-10.042-14.748C312.1,15.77,297.879,7.3,281.255,2.653A83.831,83.831,0,0,0,256.749.031a123.459,123.459,0,0,0-34.854,5.986A68.031,68.031,0,0,0,190.07,27.331c-15.207-7.357-30.811-7.782-46.574-1.61-15.5,6.07-28.526,15.244-37.165,29.982A46.83,46.83,0,0,0,84.8,57.828a71.836,71.836,0,0,0-19.5,10.542C59.4,72.679,55.081,78.538,50.783,84.387a24.387,24.387,0,0,0-18.306-2.849A41.582,41.582,0,0,0,4.761,102.615c-2.292,4.127-4.268,8.349-3.626,13.309A4.8,4.8,0,0,1,.587,118.2c-1.115,2.654-.764,3.343,2.125,3.656,1.915.207,3.843.344,5.768.41q29.683,1.005,59.367,1.977c10.145.341,20.293.629,30.432,1.093,13.315.61,26.617,1.505,39.935,2.031,14.4.568,28.812.923,43.221,1.237,12.732.277,25.468.378,38.2.538q10.273.13,20.545.194c9.037.061,18.075.037,27.111.167,5.346.077,10.688.451,16.036.562,4.51.095,9.024.022,13.537-.007,8.491-.053,16.983-.206,25.474-.168,7.267.032,14.534.421,21.8.377,6.462-.039,12.885-.264,19.343.649a71.586,71.586,0,0,0,14.787.678c7.349-.5,11.86-1.984,13.762-11.358.978-4.821.491-9.487-.3-14.275a30.789,30.789,0,0,0-8.524-16.918m-5.374,29.545a24.564,24.564,0,0,1-4.531-.1c-5.755-1.012-11.5-.485-17.258-.178-4.113.219-8.247.029-12.359.256-10.134.562-20.264-.067-30.4.031-13.457.13-26.916-.115-40.375-.138-7.527-.013-15.055.172-22.582.133-6.953-.036-13.9-.3-20.857-.381-9.724-.108-19.449-.122-29.173-.2-11.673-.1-23.347-.166-35.019-.341-13.039-.194-26.08-.394-39.114-.778-10.02-.3-20.028-1-30.048-1.3-9.618-.282-19.245-.2-28.866-.4q-25.345-.534-50.643,1.015c-2.333.14-4.655.442-6.987.6-4.126.283-4.946-.9-3.428-4.843a3.314,3.314,0,0,1,.159-.382C12.511,100.23,20.908,91.525,34.1,88.906c4.668-.927,9.307-.391,13.127,2.792-.634,4.359-1.233,8.115-1.672,11.89-.063.541.644,1.172,1.242,2.175A18.707,18.707,0,0,0,48.9,103c.961-2.128,1.392-4.605,2.736-6.424A97.743,97.743,0,0,0,57.5,87.269a34.932,34.932,0,0,1,8.838-9.65C72.867,72.556,80,68.382,88.146,66.294c8.776-2.25,17.368-1.906,25.738,1.779,2,.88,4.123,1.512,6.029,2.551,3.389,1.851,6.479,4,8.363,7.669,1.755,3.421,5,4.577,7.887,3.363a4.945,4.945,0,0,0,3.264-5.529,10.063,10.063,0,0,0-2.556-5.92,39.2,39.2,0,0,0-18.65-11.556c-1.677-.5-3.29-1.211-5.541-2.052a38.038,38.038,0,0,1,3.535-4.3c7.513-6.727,15.687-12.367,25.2-16.049a62.779,62.779,0,0,1,22.417-4.61C172.981,31.58,181,34.608,188.292,40c5.248,3.882,9.043,8.968,12.686,14.26a20.417,20.417,0,0,0,4.52,4.71c1.987,1.483,5.266,1.407,6.6.089a5.671,5.671,0,0,0,1.625-6.394A34.748,34.748,0,0,0,204.9,40c-3.037-2.927-6.1-5.824-9.38-8.949,3.331-3.678,7.459-6.33,11.649-8.846a74.78,74.78,0,0,1,31.882-10.342c6.284-.591,12.579-1.258,18.881-1.4a65.473,65.473,0,0,1,30.733,6.392,75.118,75.118,0,0,1,24.2,18.529c5.438,6.3,9.557,13.111,11.1,21.26a78.593,78.593,0,0,1,.9,11.844c.143,4.089.032,8.187.032,12.691-1.933,1.848-4.393,4.038-6.652,6.42-1.175,1.241-2.943,2.952-1.315,4.616,1.843,1.883,3.014-.512,4.369-1.491,7.895-5.7,16.5-9.609,26.451-8.233,6.907.955,12.839,4.6,18.612,8.436a31.435,31.435,0,0,1,11.4,12.993c1.917,4.048,1.471,8.351,2.039,12.543a1.807,1.807,0,0,1-1.972,2.13" transform="translate(0 0)" fill="#fff"/><path d="M374.278,132.477a78.376,78.376,0,0,1-10.9-.818,87.54,87.54,0,0,0-12.224-.694c-1.422,0-2.871.015-4.272.029-.9.009-1.823.018-2.736.024-.381,0-.775,0-1.169,0-3.6,0-7.262-.1-10.8-.192-3.226-.086-6.562-.175-9.838-.189-.889,0-1.819-.006-2.763-.006-4.654,0-9.388.049-13.967.1-2.863.029-5.823.06-8.736.078q-1.407.009-2.815.022c-1.881.016-3.825.032-5.739.032-1.854,0-3.49-.016-5-.047-2.516-.053-5.069-.165-7.537-.273-2.785-.122-5.665-.249-8.493-.289-5.8-.083-11.7-.1-17.41-.123-3.178-.011-6.463-.022-9.7-.044-7.481-.051-14.2-.114-20.55-.194-3.2-.04-6.461-.077-9.612-.113-9.373-.107-19.065-.217-28.6-.425-13.747-.3-28.5-.656-43.235-1.237-7.528-.3-15.175-.719-22.569-1.127-5.693-.314-11.58-.639-17.37-.9-7.81-.358-15.757-.615-23.443-.864-2.288-.074-4.654-.151-6.981-.229-8.874-.3-17.9-.6-26.623-.885-10.732-.355-21.83-.722-32.745-1.092-1.931-.065-3.891-.2-5.824-.414-1.509-.163-2.618-.447-3.122-1.3s-.226-1.932.386-3.39a4.417,4.417,0,0,0,.5-1.889,16.546,16.546,0,0,1,.741-7.292,36.129,36.129,0,0,1,2.972-6.478A42.34,42.34,0,0,1,32.3,80.808a25.333,25.333,0,0,1,5.864-.7,25.821,25.821,0,0,1,12.4,3.305c4.137-5.627,8.453-11.388,14.295-15.646,7.022-5.118,13.282-8.5,19.7-10.647a48.141,48.141,0,0,1,15.48-2.595,47.389,47.389,0,0,1,5.892.372,64.859,64.859,0,0,1,7.1-9.738,66.1,66.1,0,0,1,8.837-8.287,83.82,83.82,0,0,1,21.344-11.847,60.33,60.33,0,0,1,22.013-4.348,54.932,54.932,0,0,1,12.663,1.49,61.058,61.058,0,0,1,11.977,4.242,71.449,71.449,0,0,1,14.348-12.768A68.956,68.956,0,0,1,221.668,5.3a133.379,133.379,0,0,1,17.28-4.266A117.979,117.979,0,0,1,256.733-.719c.941-.02,1.873-.03,2.771-.03a81,81,0,0,1,21.953,2.68,90.12,90.12,0,0,1,23.262,10.054,80.569,80.569,0,0,1,10.152,7.452,82.614,82.614,0,0,1,9.088,9.2c3.706,4.383,7.5,9.224,10.149,14.916A42.3,42.3,0,0,1,338.362,59.2c.134,2.51.176,5.059.217,7.524.028,1.72.058,3.5.118,5.243a3.17,3.17,0,0,0,.336,1.026c.038.087.077.175.116.265l.308.038a6.386,6.386,0,0,0,.765.069,1.434,1.434,0,0,0,.337-.034,30.366,30.366,0,0,1,7.141-.841A45.037,45.037,0,0,1,362.4,75.3a57.681,57.681,0,0,1,11.458,5.33,50.857,50.857,0,0,1,9.893,7.892,31.539,31.539,0,0,1,8.726,17.319c.755,4.583,1.313,9.517.292,14.546-.945,4.661-2.579,7.671-5.142,9.472-2.422,1.7-5.471,2.225-9.3,2.486C377.015,132.432,375.655,132.477,374.278,132.477Zm-23.125-3.012a88.914,88.914,0,0,1,12.434.709,76.875,76.875,0,0,0,10.69.8c1.342,0,2.668-.044,3.941-.131,3.582-.244,6.406-.714,8.543-2.217,2.229-1.566,3.67-4.281,4.534-8.543.918-4.524.543-8.87-.3-14a30.04,30.04,0,0,0-8.321-16.517,49.352,49.352,0,0,0-9.6-7.659,56.179,56.179,0,0,0-11.159-5.19A43.607,43.607,0,0,0,347.7,73.99a28.867,28.867,0,0,0-6.788.8,2.9,2.9,0,0,1-.69.076,7.554,7.554,0,0,1-.956-.081c-.226-.029-.46-.059-.687-.072l-.5-.028-.167-.468c-.074-.206-.166-.416-.255-.618a4.291,4.291,0,0,1-.463-1.579c-.061-1.758-.09-3.543-.119-5.27-.041-2.452-.082-4.987-.215-7.469a40.837,40.837,0,0,0-4.116-15.1c-2.575-5.531-6.3-10.276-9.935-14.58a81.113,81.113,0,0,0-8.922-9.029,79.058,79.058,0,0,0-9.963-7.313,88.62,88.62,0,0,0-22.875-9.885A79.533,79.533,0,0,0,259.5.751c-.888,0-1.81.01-2.74.03a116.47,116.47,0,0,0-17.558,1.733,131.867,131.867,0,0,0-17.085,4.219,67.459,67.459,0,0,0-17.066,8.154,70.121,70.121,0,0,0-14.415,12.931l-.376.442-.522-.253a59.775,59.775,0,0,0-12.192-4.382,53.431,53.431,0,0,0-12.316-1.45,58.839,58.839,0,0,0-21.466,4.245A82.347,82.347,0,0,0,122.8,38.052a64.6,64.6,0,0,0-8.637,8.1,63.414,63.414,0,0,0-7.186,9.931l-.253.431-.5-.068a45.959,45.959,0,0,0-6.184-.423,46.666,46.666,0,0,0-15,2.518A70.5,70.5,0,0,0,65.749,68.977C59.91,73.232,55.578,79.129,51.388,84.831l-.4.539-.58-.331A24.552,24.552,0,0,0,38.167,81.6a23.832,23.832,0,0,0-5.516.663,42.1,42.1,0,0,0-15.866,7.347A42.533,42.533,0,0,0,5.416,102.979c-2.134,3.843-4.166,8-3.537,12.849a5.443,5.443,0,0,1-.6,2.662c-.465,1.107-.625,1.8-.477,2.048s.819.445,1.991.572c1.9.205,3.818.342,5.713.406,10.914.369,22.012.737,32.744,1.091,8.726.289,17.749.587,26.623.885,2.326.078,4.691.155,6.979.229,7.691.249,15.643.507,23.463.865,5.8.266,11.688.591,17.384.9,7.389.408,15.029.829,22.546,1.126,14.723.581,29.468.938,43.208,1.236,9.524.207,19.213.318,28.582.425,3.151.036,6.409.073,9.614.113,6.344.08,13.063.144,20.541.194,3.23.022,6.514.033,9.691.044,5.711.019,11.616.04,17.426.123,2.85.041,5.742.168,8.538.29,2.46.108,5,.22,7.5.272,1.5.032,3.129.047,4.972.047,1.908,0,3.849-.016,5.726-.032q1.409-.012,2.818-.022c2.909-.018,5.868-.049,8.73-.078,4.582-.047,9.321-.1,13.982-.1.947,0,1.878,0,2.77.006,3.293.014,6.637.1,9.871.19,3.529.094,7.177.191,10.76.191.392,0,.782,0,1.16,0,.91-.005,1.835-.015,2.73-.024C348.271,129.479,349.724,129.465,351.154,129.465Zm-17.094-9.911c-3.09,0-6.227-.055-9.261-.108s-6.158-.108-9.234-.108c-.779,0-1.541,0-2.265.01-2.632.025-5.372.038-8.378.038-5.661,0-11.416-.045-16.981-.089-4.925-.039-10.017-.079-15.025-.087h-.762c-3.269,0-6.595.035-9.811.069s-6.55.07-9.827.07c-.749,0-1.484,0-2.185-.006-3.822-.02-7.7-.111-11.459-.2-3.082-.072-6.27-.147-9.4-.182-5.732-.064-11.562-.1-17.2-.126-3.923-.021-7.98-.043-11.971-.076l-6.791-.054c-9.253-.072-18.821-.146-28.233-.287-12.057-.18-25.723-.383-39.125-.778-5.013-.148-10.1-.4-15.025-.65s-10.016-.5-15.023-.649c-5.382-.158-10.861-.2-16.16-.242-4.162-.033-8.466-.066-12.7-.155-4.205-.089-8.485-.133-12.721-.133-12.415,0-25.154.386-37.862,1.148-1.234.074-2.492.2-3.709.315-1.07.1-2.176.212-3.271.287-.4.028-.78.042-1.118.042-2.293,0-3.035-.693-3.393-1.215-.661-.962-.562-2.364.332-4.687l.03-.08a3.01,3.01,0,0,1,.169-.39A51.95,51.95,0,0,1,17.1,96.4a36.36,36.36,0,0,1,7.634-5.118,36.807,36.807,0,0,1,9.224-3.116,21.141,21.141,0,0,1,4.1-.423,14.661,14.661,0,0,1,9.653,3.374l.323.269-.06.415q-.242,1.661-.474,3.215c-.446,3-.867,5.835-1.193,8.634a3.746,3.746,0,0,0,.469.736l.08.11c.129-.155.251-.3.366-.436a6.516,6.516,0,0,0,1-1.375c.334-.74.611-1.554.88-2.341a15.213,15.213,0,0,1,1.937-4.22,95.13,95.13,0,0,0,5.731-9.094l.082-.141a35.562,35.562,0,0,1,9.027-9.867A73.744,73.744,0,0,1,76.283,70.18,51.709,51.709,0,0,1,87.96,65.567a43.909,43.909,0,0,1,10.874-1.431,37.882,37.882,0,0,1,15.352,3.25c.736.324,1.511.622,2.26.91a31.626,31.626,0,0,1,3.826,1.669c3.3,1.8,6.634,4.016,8.671,7.985a5.646,5.646,0,0,0,4.95,3.424,5.083,5.083,0,0,0,1.979-.41,4.208,4.208,0,0,0,2.809-4.759,9.337,9.337,0,0,0-2.37-5.5,37.016,37.016,0,0,0-8.34-6.974,41.98,41.98,0,0,0-9.963-4.362c-1.142-.339-2.242-.77-3.515-1.269-.65-.255-1.321-.518-2.075-.8l-.977-.365.657-.81c.44-.543.835-1.068,1.216-1.575a18.873,18.873,0,0,1,2.4-2.807,97.422,97.422,0,0,1,11.941-9.236,72.61,72.61,0,0,1,13.487-6.953,63.5,63.5,0,0,1,22.682-4.66h.292a38.849,38.849,0,0,1,13.017,2.221,44.78,44.78,0,0,1,11.6,6.285c5.488,4.059,9.361,9.358,12.858,14.438a19.56,19.56,0,0,0,4.351,4.534,5.278,5.278,0,0,0,3.1.946,3.691,3.691,0,0,0,2.522-.79,5.99,5.99,0,0,0,1.638-2.588,4.727,4.727,0,0,0-.188-3.008,33.6,33.6,0,0,0-8.642-12.4c-2.092-2.016-4.175-4-6.38-6.093q-1.474-1.4-3-2.853l-.529-.5.491-.542c3.46-3.82,7.736-6.534,11.819-8.986A74.7,74.7,0,0,1,222.3,14.506a78.421,78.421,0,0,1,16.687-3.394l2.349-.223c5.429-.519,11.042-1.055,16.586-1.181.609-.014,1.223-.021,1.826-.021A71.045,71.045,0,0,1,274.7,11.23,62.508,62.508,0,0,1,289,16.177a79.161,79.161,0,0,1,13.149,8.083,75.121,75.121,0,0,1,11.287,10.63,56.911,56.911,0,0,1,7.1,10.068A39.227,39.227,0,0,1,324.7,56.5a67.146,67.146,0,0,1,.864,10.362q.025.8.052,1.6c.1,2.836.077,5.652.054,8.634-.01,1.321-.021,2.688-.021,4.083V81.5l-.232.222c-.548.523-1.131,1.068-1.749,1.645-1.533,1.432-3.27,3.054-4.877,4.749l-.148.156c-1.542,1.619-2.077,2.5-1.175,3.419a1.278,1.278,0,0,0,.817.476c.44,0,.984-.55,1.51-1.082a8.87,8.87,0,0,1,1.067-.969,51.932,51.932,0,0,1,10.831-6.189,31.58,31.58,0,0,1,12.059-2.463,30.066,30.066,0,0,1,4.1.284,32.534,32.534,0,0,1,9.959,3.207,79.766,79.766,0,0,1,8.965,5.347,32.177,32.177,0,0,1,11.667,13.3c1.4,2.962,1.595,6.042,1.78,9.02.077,1.235.157,2.511.324,3.744a2.591,2.591,0,0,1-.558,2.076,2.817,2.817,0,0,1-2.148.9c-.343,0-.7.016-1.04.026-.461.014-.937.029-1.41.029a12.683,12.683,0,0,1-2.22-.166,42.8,42.8,0,0,0-7.441-.581c-2.481,0-5.016.147-7.467.29-.714.041-1.453.084-2.18.123-2.054.11-4.138.118-6.154.126-2.038.008-4.146.017-6.2.131C340.846,119.476,337.683,119.554,334.059,119.554Zm-18.495-1.716c3.089,0,6.226.055,9.26.108s6.159.108,9.235.108c3.645,0,6.692-.075,9.587-.235,2.1-.116,4.223-.125,6.281-.133,2-.008,4.063-.016,6.08-.124.724-.038,1.461-.081,2.173-.123,2.473-.144,5.03-.292,7.554-.292a44.269,44.269,0,0,1,7.7.6,11.25,11.25,0,0,0,1.96.143c.449,0,.914-.015,1.363-.029.35-.011.711-.022,1.068-.027a1.339,1.339,0,0,0,1.031-.384,1.129,1.129,0,0,0,.208-.9c-.174-1.286-.256-2.591-.334-3.852-.185-2.967-.36-5.769-1.639-8.471a30.718,30.718,0,0,0-11.141-12.689c-5.791-3.85-11.549-7.383-18.3-8.317a28.555,28.555,0,0,0-3.9-.27c-7.114,0-14.109,2.659-22.012,8.368a7.7,7.7,0,0,0-.879.807,3.894,3.894,0,0,1-2.577,1.528,2.663,2.663,0,0,1-1.889-.927,2.707,2.707,0,0,1-.588-3.2,8.875,8.875,0,0,1,1.748-2.3l.146-.154c1.638-1.728,3.393-3.367,4.942-4.813q.792-.739,1.5-1.413c0-1.289.011-2.551.021-3.774.023-2.965.046-5.766-.053-8.57q-.028-.8-.052-1.6a66.03,66.03,0,0,0-.838-10.13c-1.366-7.212-4.839-13.856-10.931-20.91a73.618,73.618,0,0,0-11.061-10.417,77.657,77.657,0,0,0-12.9-7.928A61.008,61.008,0,0,0,274.386,12.7a69.545,69.545,0,0,0-14.643-1.509c-.591,0-1.194.007-1.792.02-5.489.124-11.075.658-16.477,1.174l-2.351.224a76.918,76.918,0,0,0-16.367,3.329,73.2,73.2,0,0,0-15.2,6.909,51.113,51.113,0,0,0-10.981,8.171l2.46,2.34c2.207,2.1,4.291,4.08,6.387,6.1a43.191,43.191,0,0,1,5.213,5.942,30.285,30.285,0,0,1,3.791,7,6.411,6.411,0,0,1-1.8,7.193,5.105,5.105,0,0,1-3.576,1.222,6.8,6.8,0,0,1-4-1.244,21.078,21.078,0,0,1-4.689-4.886c-3.425-4.975-7.213-10.16-12.515-14.083a43.284,43.284,0,0,0-11.212-6.077,37.351,37.351,0,0,0-12.516-2.135h-.281a62.033,62.033,0,0,0-22.151,4.559,71.131,71.131,0,0,0-13.211,6.812,95.949,95.949,0,0,0-11.758,9.1,17.537,17.537,0,0,0-2.2,2.59c-.2.265-.4.534-.612.809.394.152.77.3,1.138.444,1.241.487,2.314.907,3.395,1.228a43.478,43.478,0,0,1,10.319,4.52,38.515,38.515,0,0,1,8.678,7.256,10.769,10.769,0,0,1,2.742,6.341,5.69,5.69,0,0,1-3.719,6.3,6.575,6.575,0,0,1-2.561.527,6.434,6.434,0,0,1-3.555-1.088,8.157,8.157,0,0,1-2.73-3.151c-1.852-3.608-4.966-5.666-8.055-7.353a30.047,30.047,0,0,0-3.646-1.586c-.766-.294-1.557-.6-2.326-.937a36.39,36.39,0,0,0-14.748-3.123,42.41,42.41,0,0,0-10.5,1.384A50.229,50.229,0,0,0,76.991,71.5,72.262,72.262,0,0,0,66.8,78.212a34.066,34.066,0,0,0-8.648,9.433l-.082.141a96.255,96.255,0,0,1-5.823,9.234,13.906,13.906,0,0,0-1.723,3.812c-.28.821-.569,1.669-.933,2.475a7.645,7.645,0,0,1-1.223,1.725c-.284.337-.607.718-.974,1.191l-.674.869-.563-.945c-.192-.323-.406-.615-.594-.874a2.6,2.6,0,0,1-.749-1.772c.329-2.829.753-5.682,1.2-8.7q.2-1.354.412-2.788a13.237,13.237,0,0,0-8.369-2.765,19.639,19.639,0,0,0-3.808.394A35.3,35.3,0,0,0,25.4,92.629a34.859,34.859,0,0,0-7.319,4.907,50.491,50.491,0,0,0-11.063,14.41,1.86,1.86,0,0,0-.084.2l-.035.093c-.657,1.708-.824,2.818-.494,3.3.257.375.983.564,2.157.564.3,0,.645-.013,1.015-.038,1.074-.074,2.169-.181,3.229-.284,1.231-.12,2.5-.244,3.765-.319,12.738-.763,25.506-1.15,37.951-1.15,4.246,0,8.537.045,12.752.134s8.523.123,12.68.155c5.307.041,10.794.084,16.192.243,5.023.148,10.122.4,15.054.651,4.915.246,10,.5,14.994.649,13.391.394,27.051.6,39.1.778,9.406.141,18.972.215,28.222.287l6.792.054c3.988.033,8.044.055,11.967.076,5.64.03,11.472.062,17.208.126,3.142.035,6.334.11,9.421.182,3.748.088,7.623.179,11.432.2.7,0,1.431.006,2.178.006,3.269,0,6.595-.035,9.811-.069s6.55-.07,9.827-.07h.764c5.012.008,10.107.048,15.034.087,5.562.044,11.314.089,16.969.089,3,0,5.736-.012,8.363-.038C314.014,117.842,314.781,117.838,315.565,117.838Z" transform="translate(0 0)"/></g></g></svg>