<svg xmlns="http://www.w3.org/2000/svg" width="67" height="69" viewBox="0 0 67 69"><g transform="translate(-1242 -2701)"><ellipse cx="33.5" cy="34.5" rx="33.5" ry="34.5" transform="translate(1242 2701)" fill="#d8fffa"/><path d="M33.5,1.5A30.967,30.967,0,0,0,21.059,4.086,31.859,31.859,0,0,0,10.888,11.15,32.966,32.966,0,0,0,4.02,21.641a34.067,34.067,0,0,0,0,25.718A32.967,32.967,0,0,0,10.888,57.85a31.859,31.859,0,0,0,10.171,7.063,31.214,31.214,0,0,0,24.881,0A31.859,31.859,0,0,0,56.112,57.85,32.967,32.967,0,0,0,62.98,47.359a34.067,34.067,0,0,0,0-25.718A32.966,32.966,0,0,0,56.112,11.15,31.859,31.859,0,0,0,45.941,4.086,30.967,30.967,0,0,0,33.5,1.5m0-1.5C52,0,67,15.446,67,34.5S52,69,33.5,69,0,53.554,0,34.5,15,0,33.5,0Z" transform="translate(1242 2701)"/><g transform="translate(1268.993 2721.704) rotate(9)"><g transform="translate(0 0)"><path d="M11.277,11.586c-2.828-1.58-5.352-2.855-7.692-4.353A13.935,13.935,0,0,1,.261,4.157c-.927-1.169.783-3.73,2.4-4.04A5.472,5.472,0,0,1,6.872.926c3.154,2.02,6.359,3.978,9.508,6a4.093,4.093,0,0,1,1.867,4.5,12.716,12.716,0,0,1-2.216,5.228c-1.918,2.765-4.061,5.411-6.158,8.079A4.109,4.109,0,0,1,5.782,26,3.113,3.113,0,0,1,4.1,22.143,16.814,16.814,0,0,1,7.357,16.7c1.32-1.675,2.595-3.379,3.92-5.11" transform="translate(0 0.001)" fill="#a9ebe2"/><path d="M6.711,26.9a3.321,3.321,0,0,1-1.2-.205,3.546,3.546,0,0,1-1.977-1.941,4.168,4.168,0,0,1-.148-2.827,17.726,17.726,0,0,1,3.382-5.7c.911-1.156,1.782-2.3,2.7-3.514l.683-.9q-.88-.485-1.722-.941c-1.85-1.006-3.6-1.956-5.251-3.015A14.714,14.714,0,0,1-.327,4.623,2.385,2.385,0,0,1-.538,2.242,4.664,4.664,0,0,1,2.523-.619,7.109,7.109,0,0,1,3.854-.751,6.194,6.194,0,0,1,7.277.295c1.506.965,3.051,1.932,4.545,2.868C13.453,4.184,15.14,5.24,16.786,6.3a4.846,4.846,0,0,1,2.2,5.247,13.471,13.471,0,0,1-2.34,5.538c-1.613,2.326-3.407,4.6-5.141,6.792q-.522.661-1.043,1.323A5.033,5.033,0,0,1,6.711,26.9ZM3.854.749A5.607,5.607,0,0,0,2.8.854,3.181,3.181,0,0,0,.868,2.764a1.028,1.028,0,0,0-.02.927A13.2,13.2,0,0,0,3.989,6.6C5.6,7.631,7.322,8.569,9.148,9.562c.8.437,1.635.889,2.494,1.369a.75.75,0,0,1,.23,1.111q-.609.8-1.207,1.584c-.885,1.164-1.8,2.368-2.719,3.534a16,16,0,0,0-3.123,5.2A2.372,2.372,0,0,0,6.052,25.3a1.868,1.868,0,0,0,.659.1,3.546,3.546,0,0,0,2.572-1.13q.522-.664,1.046-1.326c1.72-2.177,3.5-4.429,5.086-6.717a11.991,11.991,0,0,0,2.091-4.919,3.34,3.34,0,0,0-1.532-3.75c-1.638-1.054-3.321-2.108-4.949-3.127C9.528,3.5,7.98,2.527,6.467,1.558A4.677,4.677,0,0,0,3.854.749Z" transform="translate(0 0.001)"/></g></g></g></svg>