<svg xmlns="http://www.w3.org/2000/svg" width="67.645" height="39.319" viewBox="0 0 67.645 39.319"><g transform="matrix(0.996, -0.087, 0.087, 0.996, -117.105, -703.573)"><path d="M3909.214,736.013l36.479-17.857s-3.779,9.655-2.181,19.023,3.815,10.613,3.815,10.613l-38.113-6.169Z" transform="translate(-3850)" fill="#a9ebe2"/><path d="M3947.327,718.156c3.321-.776,4.575.31,5.322,9.294s.144,22.562-3.612,21.664-6.574-10.4-6.509-16.5S3944.006,718.931,3947.327,718.156Z" transform="translate(-3850)" fill="#81cccf"/><g transform="translate(55.457 715.962)"><path d="M48.413,15.953c-.031-1-.13-1.993-.222-2.83-.059-.533-.136-1.071-.21-1.592s-.152-1.061-.21-1.591a20.247,20.247,0,0,0-1.616-6.444A7.713,7.713,0,0,0,43.76.569,2.23,2.23,0,0,0,41.193.281l-.087.046a.941.941,0,0,1-.393.148,3.162,3.162,0,0,0-1.647.479l-.2.1-.905.453c-.624.313-1.27.637-1.908.946-.4.191-.8.379-1.195.56-.5.229-1.01.465-1.509.714-.962.478-1.936.972-2.878,1.45-.921.467-1.874.95-2.813,1.417-.766.381-1.551.76-2.309,1.127-.7.336-1.414.683-2.118,1.032-.815.4-1.639.823-2.436,1.228q-.756.385-1.514.767-.645.325-1.292.645c-.593.294-1.206.6-1.806.905q-1.448.739-2.89,1.49l-1.407.728q-.876.453-1.753.9c-1.543.792-3.138,1.611-4.694,2.442a4.442,4.442,0,0,1-1.181.481c-.247-.145-.483-.288-.71-.427a17.374,17.374,0,0,0-1.6-.9,1.275,1.275,0,0,0-1.185.014,1.443,1.443,0,0,0-.711,1.115,2.329,2.329,0,0,0-.009.368l0,.069c.015.633,0,1.281-.021,1.907a17.211,17.211,0,0,0,.234,4.25A9.2,9.2,0,0,0,1.105,27.3a2.923,2.923,0,0,0,1.528,1.224A2.062,2.062,0,0,0,4.987,27.8a9.488,9.488,0,0,0,.5-.857c.049-.09.1-.181.15-.274a42.97,42.97,0,0,0,4.564,1.109c.533.109,1.085.222,1.624.34,1.444.316,2.923.58,4.353.835.58.1,1.161.207,1.741.314,1.238.229,2.588.474,4.128.749.366.065.732.128,1.1.19.525.089,1.068.182,1.6.282.388.073.782.157,1.164.239.442.094.9.192,1.352.274.752.136,1.517.267,2.257.394.875.15,1.779.305,2.666.469.378.07.761.164,1.132.255s.757.186,1.142.258c.65.121,1.313.233,1.954.341.971.164,1.975.334,2.953.539.305.064.616.115.916.165a9.724,9.724,0,0,1,1.938.459,2.8,2.8,0,0,0,1.015.2,3.457,3.457,0,0,0,2.64-1.6,11.042,11.042,0,0,0,1.356-3.22,36.65,36.65,0,0,0,1.242-7.829,38.05,38.05,0,0,0-.016-4.213c-.017-.422-.034-.844-.047-1.265M4.487,25.311,3.4,25.664l-.07-.128a3.211,3.211,0,0,1-.334-.759,19.74,19.74,0,0,1-.565-5.132l.768.149q-.009.106-.018.21c-.023.277-.045.539-.088.793a4.6,4.6,0,0,0,1.4,4.514M38.1,4.852a22.79,22.79,0,0,0-1.417,6.5c-.052.576-.114,1.162-.174,1.73-.118,1.119-.241,2.276-.293,3.421q-.016.357-.035.714a27.256,27.256,0,0,0,.075,5.2c.085.6.2,1.206.306,1.79.069.373.14.758.2,1.137A13.829,13.829,0,0,0,38.24,29.5a3.322,3.322,0,0,1,.174.435l-.4-.052c-.51-.065-.992-.127-1.466-.2-2.011-.33-4.163-.685-6.269-1.055-.6-.106-1.215-.227-1.807-.345-.7-.138-1.414-.281-2.126-.4-1.365-.228-2.754-.443-4.1-.652q-1.325-.206-2.649-.416-1.29-.206-2.578-.422c-1.185-.2-2.411-.4-3.619-.586-2.475-.383-4.527-.682-6.457-.94a1.155,1.155,0,0,1-.979-.613,7.762,7.762,0,0,1-.922-3.917.684.684,0,0,1,.511-.693c2.03-.87,4.078-1.789,6.058-2.678l1.027-.461c1.117-.5,2.305-1.044,3.74-1.709q1.5-.7,3-1.406L22.135,12.1q2.267-1.064,4.533-2.131c1.107-.523,2.081-.989,2.975-1.427.5-.244,1-.493,1.494-.742.735-.368,1.5-.748,2.25-1.107.775-.368,1.572-.726,2.343-1.072q.655-.294,1.309-.591c.319-.146.635-.3,1-.472l.168-.08a2.494,2.494,0,0,1-.1.378m7.288,17.416a34.874,34.874,0,0,1-1.3,7.152,3.117,3.117,0,0,1-.858,1.591,3.832,3.832,0,0,1-1.655-1.82l-.069-.118a16.246,16.246,0,0,1-2.236-7.632c-.02-.51-.062-1.027-.1-1.526-.058-.711-.118-1.446-.112-2.164.01-1.262.08-2.547.149-3.789.026-.48.053-.959.076-1.439.054-1.108.116-2.27.186-3.455l0-.056a.9.9,0,0,1,.068-.377,9.464,9.464,0,0,0,1.128-2.7c.1-.336.2-.684.321-1.019a10.8,10.8,0,0,1,.712-1.578,1.652,1.652,0,0,1,.347-.386l.106-.1a3.045,3.045,0,0,1,1.306,1.687l.086.192a19.472,19.472,0,0,1,1.3,5.588l.015.118c.168,1.29.289,2.565.394,3.752a47.683,47.683,0,0,1,.133,8.075" transform="translate(0 0)"/><path d="M43.238,34.576h0a3.311,3.311,0,0,1-1.2-.232,9.343,9.343,0,0,0-1.838-.431l-.013,0c-.3-.05-.613-.1-.926-.167-.965-.2-1.962-.371-2.926-.534h-.007c-.6-.1-1.289-.217-1.962-.343-.4-.074-.79-.171-1.169-.264l-.008,0c-.361-.089-.735-.181-1.1-.247-.871-.161-1.761-.314-2.622-.461l-.037-.006c-.66-.113-1.482-.254-2.261-.395-.464-.084-.923-.182-1.368-.277-.38-.081-.771-.164-1.152-.236-.525-.1-1.063-.191-1.584-.28l-.054-.009c-.346-.059-.7-.12-1.055-.183-1.555-.278-2.906-.523-4.131-.75-.555-.1-1.12-.2-1.667-.3l-.071-.013c-1.434-.256-2.916-.52-4.372-.839-.525-.115-1.064-.225-1.585-.332l-.032-.007c-1.389-.284-2.821-.577-4.221-1a9.016,9.016,0,0,1-.485.815,2.616,2.616,0,0,1-2.114,1.075,2.093,2.093,0,0,1-.854-.173A3.4,3.4,0,0,1,.668,27.543a9.587,9.587,0,0,1-.9-2.7,17.593,17.593,0,0,1-.246-4.372v-.008c.017-.617.035-1.256.021-1.873l0-.067a2.758,2.758,0,0,1,.013-.445,1.937,1.937,0,0,1,.967-1.49,1.712,1.712,0,0,1,.833-.215,1.878,1.878,0,0,1,.806.187,17.7,17.7,0,0,1,1.64.922c.157.1.342.208.534.323A5.438,5.438,0,0,0,5.2,17.42c1.554-.83,3.146-1.648,4.685-2.438l.134-.069q.817-.42,1.634-.841l1.3-.674.1-.054c.942-.488,1.916-.993,2.892-1.491.624-.319,1.282-.645,1.811-.908l.054-.027c.406-.2.825-.41,1.236-.617.506-.254,1.017-.515,1.512-.767.8-.406,1.623-.825,2.441-1.231.7-.348,1.418-.694,2.11-1.028l.106-.051c.727-.351,1.478-.715,2.211-1.079.922-.459,1.858-.933,2.763-1.392l.047-.024c.892-.452,1.9-.965,2.882-1.451.5-.247,1.006-.482,1.5-.709l.057-.026c.38-.175.774-.357,1.153-.541.625-.3,1.259-.62,1.872-.928l.03-.015.907-.454.195-.1A3.765,3.765,0,0,1,40.6-.029l.095,0c.045-.018.123-.059.172-.086l.1-.052A2.855,2.855,0,0,1,42.27-.5a2.934,2.934,0,0,1,1.8.673,8.2,8.2,0,0,1,2.544,3.113,20.719,20.719,0,0,1,1.659,6.6c.057.518.133,1.048.206,1.561l0,.028c.074.52.151,1.058.21,1.594.094.846.193,1.849.225,2.87.013.419.03.847.047,1.26a38.414,38.414,0,0,1,.015,4.269A37.106,37.106,0,0,1,47.714,29.4a11.435,11.435,0,0,1-1.424,3.362A3.911,3.911,0,0,1,43.238,34.576ZM5.4,26.063l.391.126a42.588,42.588,0,0,0,4.51,1.1l.033.007c.524.107,1.067.218,1.6.335,1.437.315,2.91.577,4.334.831l.071.013c.548.1,1.115.2,1.673.3,1.223.226,2.572.471,4.125.749.348.062.7.123,1.048.182l.054.009c.525.089,1.069.182,1.6.283.393.074.789.159,1.172.24.44.094.892.19,1.34.272.774.14,1.594.281,2.252.393l.038.006c.864.148,1.758.3,2.635.464.39.072.777.167,1.152.26l.008,0c.366.09.743.183,1.114.252.664.124,1.345.239,1.945.34h.008c.973.165,1.98.335,2.965.541.291.061.592.111.883.159l.012,0a10.1,10.1,0,0,1,2.037.486,2.316,2.316,0,0,0,.835.165A2.994,2.994,0,0,0,45.467,32.2a10.653,10.653,0,0,0,1.288-3.077A36.2,36.2,0,0,0,47.978,21.4a37.662,37.662,0,0,0-.017-4.157c-.017-.416-.035-.846-.048-1.27-.03-.986-.128-1.964-.219-2.791-.057-.521-.133-1.05-.206-1.563l0-.028c-.074-.521-.152-1.06-.21-1.593A19.777,19.777,0,0,0,45.7,3.7,7.227,7.227,0,0,0,43.456.965,1.94,1.94,0,0,0,42.27.5a1.842,1.842,0,0,0-.846.225l-.089.047a1.334,1.334,0,0,1-.608.2h-.044l-.083,0a2.889,2.889,0,0,0-1.306.427l-.205.1-.9.452-.03.015c-.616.309-1.253.629-1.884.934-.388.188-.786.372-1.171.549l-.057.026c-.485.224-.987.455-1.471.7-.975.485-1.984,1-2.875,1.448l-.047.024c-.907.459-1.844.934-2.769,1.395-.738.367-1.492.732-2.221,1.084l-.106.051c-.69.333-1.4.678-2.1,1.024-.814.4-1.636.821-2.432,1.226-.5.252-1.008.513-1.516.768-.413.208-.834.417-1.241.619l-.054.027c-.527.261-1.182.586-1.8.9-.974.5-1.946,1-2.887,1.488l-.1.054-1.3.674q-.817.422-1.636.842l-.134.069c-1.536.789-3.124,1.6-4.671,2.431a4.772,4.772,0,0,1-1.333.533l-.179.03L4,18.773c-.261-.153-.514-.307-.718-.432a17.008,17.008,0,0,0-1.55-.873.781.781,0,0,0-.731,0,.951.951,0,0,0-.456.739,1.927,1.927,0,0,0-.005.29l0,.071c.015.646,0,1.3-.021,1.928V20.5a16.834,16.834,0,0,0,.223,4.127,8.814,8.814,0,0,0,.793,2.427,2.462,2.462,0,0,0,1.294,1.009,1.118,1.118,0,0,0,.449.087,1.636,1.636,0,0,0,1.29-.641,9.1,9.1,0,0,0,.478-.813l.015-.027c.045-.083.091-.166.138-.251Zm37.916,5.531-.285-.125a4.267,4.267,0,0,1-1.887-2.026l-.068-.118a16.74,16.74,0,0,1-2.3-7.864c-.019-.5-.061-1.012-.1-1.5v-.009c-.058-.719-.119-1.462-.113-2.2.01-1.276.081-2.566.15-3.813v-.008c.026-.468.052-.952.075-1.427.054-1.112.117-2.276.186-3.46l0-.054a1.216,1.216,0,0,1,.154-.63,9.084,9.084,0,0,0,1.062-2.563l0-.008c.1-.339.207-.689.326-1.032A11.294,11.294,0,0,1,41.266,3.1a2.035,2.035,0,0,1,.45-.518l.1-.092.26-.247.317.166a3.481,3.481,0,0,1,1.53,1.926l.086.191a19.847,19.847,0,0,1,1.336,5.728l.015.118c.17,1.3.291,2.582.4,3.772a48.164,48.164,0,0,1,.133,8.159,35.374,35.374,0,0,1-1.317,7.255,3.572,3.572,0,0,1-1.015,1.831ZM39.989,8.873c-.007.046-.011.123-.013.168l0,.057c-.07,1.182-.132,2.343-.186,3.451-.023.479-.05.964-.076,1.434v.008c-.068,1.236-.139,2.513-.148,3.766-.005.693.053,1.414.11,2.111v.009c.041.5.083,1.024.1,1.547a15.751,15.751,0,0,0,2.168,7.4l.069.118a4.236,4.236,0,0,0,1.125,1.447,3.608,3.608,0,0,0,.476-1.11,34.372,34.372,0,0,0,1.278-7.05,47.2,47.2,0,0,0-.133-7.992c-.1-1.18-.225-2.448-.392-3.731l-.015-.118A19.1,19.1,0,0,0,43.1,4.941l-.087-.194a3.216,3.216,0,0,0-.793-1.257.473.473,0,0,0-.07.088,10.314,10.314,0,0,0-.68,1.5c-.112.321-.214.661-.312.99l0,.008A9.993,9.993,0,0,1,39.989,8.873Zm-.836,21.666-.8-.1-.4-.052c-.487-.062-.991-.126-1.483-.207-2.019-.331-4.176-.688-6.275-1.056-.607-.106-1.221-.228-1.814-.346l-.038-.007c-.68-.135-1.384-.275-2.077-.39-1.367-.228-2.752-.443-4.093-.651l-.086-.013c-.841-.131-1.711-.266-2.566-.4-.871-.139-1.74-.283-2.58-.422-1.179-.2-2.4-.4-3.614-.585-2.475-.383-4.524-.682-6.447-.939a1.639,1.639,0,0,1-1.341-.85,8.206,8.206,0,0,1-.995-4.162,1.174,1.174,0,0,1,.814-1.167c2.02-.866,4.061-1.782,6.034-2.667l1.044-.468c1.119-.5,2.305-1.044,3.735-1.706.981-.455,1.976-.923,2.938-1.376l2.817-1.324c1.53-.718,3.027-1.421,4.532-2.131,1.108-.523,2.079-.989,2.969-1.424.483-.236.973-.481,1.447-.718l.043-.022c.734-.368,1.494-.748,2.259-1.111s1.57-.725,2.338-1.07l.015-.007c.43-.193.873-.392,1.306-.59.31-.142.618-.289.974-.46l1.112-.533-.222,1a2.934,2.934,0,0,1-.128.455A22.312,22.312,0,0,0,37.184,11.4c-.053.585-.115,1.171-.175,1.737-.117,1.112-.239,2.261-.291,3.391q-.016.355-.035.71v.006a26.879,26.879,0,0,0,.07,5.1c.084.59.195,1.189.3,1.768.066.355.14.756.206,1.147a13.348,13.348,0,0,0,1.422,4.011,3.752,3.752,0,0,1,.2.5Zm-1.8-25.108-.107.049c-.436.2-.88.4-1.31.592l-.017.008c-.764.343-1.554.7-2.319,1.061s-1.51.737-2.241,1.1l-.044.022c-.476.238-.968.484-1.455.722-.894.437-1.869.905-2.981,1.43-1.506.711-3,1.414-4.534,2.132l-2.816,1.323c-.964.453-1.96.922-2.943,1.378-1.433.665-2.624,1.209-3.746,1.712L11.8,17.43c-1.977.887-4.022,1.8-6.049,2.674-.212.091-.211.134-.208.219A7.321,7.321,0,0,0,6.391,24a.672.672,0,0,0,.618.377c1.93.258,3.985.557,6.467.942,1.22.189,2.442.391,3.624.587.839.139,1.706.282,2.575.421.853.137,1.721.272,2.561.4l.086.013c1.343.209,2.731.424,4.1.653.708.118,1.42.259,2.107.4l.034.007c.592.118,1.2.239,1.8.343,2.094.367,4.248.723,6.264,1.054.316.052.64.1.963.139a13.862,13.862,0,0,1-1.315-3.9c-.064-.383-.138-.779-.2-1.129-.109-.591-.222-1.2-.309-1.811a27.628,27.628,0,0,1-.079-5.292v-.007q.018-.353.034-.707c.053-1.159.176-2.324.3-3.45.06-.563.121-1.144.173-1.722A24.509,24.509,0,0,1,37.355,5.432ZM3.154,26.268l-.2-.367-.049-.09-.019-.036a3.645,3.645,0,0,1-.381-.882,20.216,20.216,0,0,1-.579-5.261l.014-.591,1.79.348-.039.448q-.009.1-.017.207c-.024.288-.046.559-.093.836A4.087,4.087,0,0,0,4.822,24.94l.645.58Z" transform="translate(0 0)"/><path d="M359.347,162.812q-1.542-.267-3.087-.522l-.707-.119c-.732-.123-1.488-.251-2.236-.363-.855-.127-1.725-.246-2.567-.36l-1.107-.151-.223-.019-.011.082-.1,0a5.428,5.428,0,0,0-.776.019.766.766,0,0,0-.6.44.758.758,0,0,0,.27.719,3.535,3.535,0,0,0,1,.488c2.577.729,5.575,1.573,8.538,2.365a4.062,4.062,0,0,0,1.054.125q.255,0,.537-.023a1.275,1.275,0,0,0,1.244-1.328,1.42,1.42,0,0,0-1.227-1.353" transform="translate(-296.225 -137.318)"/><path d="M358.793,166.016a4.532,4.532,0,0,1-1.183-.142c-2.96-.791-5.962-1.637-8.544-2.367a4.031,4.031,0,0,1-1.148-.555,1.124,1.124,0,0,1,.551-2.07,4.319,4.319,0,0,1,.5-.028l.015-.113.724.061.995.136.126.017c.838.114,1.7.232,2.557.359.739.11,1.486.236,2.208.358l.744.125c.937.156,2.026.339,3.089.523a1.923,1.923,0,0,1,1.641,1.853,1.764,1.764,0,0,1-1.7,1.819C359.169,166.007,358.974,166.016,358.793,166.016Zm-10.31-3.89a3.034,3.034,0,0,0,.855.418c2.579.729,5.577,1.574,8.53,2.363a3.552,3.552,0,0,0,.924.108c.154,0,.321-.007.5-.022a.78.78,0,0,0,.785-.837.931.931,0,0,0-.812-.853c-1.06-.184-2.148-.366-3.084-.522l-.746-.125c-.717-.121-1.459-.246-2.189-.355-.846-.126-1.71-.243-2.544-.357l-.127-.017-.722-.1-.005.038-.551-.01c-.093,0-.2,0-.3,0a3.425,3.425,0,0,0-.408.021.423.423,0,0,0-.175.088A.351.351,0,0,0,348.483,162.126Z" transform="translate(-296.225 -137.318)"/><path d="M361.161,87.418a1.683,1.683,0,0,0-1.237-.539l-.2.006a12.029,12.029,0,0,0-1.351.09c-2.6.371-5.266.764-7.912,1.168a5.032,5.032,0,0,0-.87.24c-.083.029-.167.057-.25.084a.88.88,0,0,0-.541.419.573.573,0,0,0-.02.458,1.129,1.129,0,0,0,.71.626,3.254,3.254,0,0,0,.817.087c.13,0,.256,0,.371-.008.416-.014.837-.042,1.244-.069.284-.019.568-.038.853-.052,1.408-.071,2.871-.14,4.351-.206.6-.027,1.2-.049,1.773-.07l.719-.027.081.014c.058.011.1.017.137.021a1.6,1.6,0,0,0,1.208-.316,1.457,1.457,0,0,0,.486-1.032,1.184,1.184,0,0,0-.369-.895" transform="translate(-296.932 -73.972)"/><path d="M350.307,90.558a3.675,3.675,0,0,1-.943-.1,1.633,1.633,0,0,1-1.053-.938,1.077,1.077,0,0,1,.04-.848,1.371,1.371,0,0,1,.836-.676c.074-.024.146-.049.219-.074l.023-.008a5.494,5.494,0,0,1,.956-.262c2.633-.4,5.3-.8,7.917-1.169a12.4,12.4,0,0,1,1.407-.095l.2-.006h.063a2.2,2.2,0,0,1,1.55.695,1.674,1.674,0,0,1,.506,1.279,1.944,1.944,0,0,1-.662,1.375,2.009,2.009,0,0,1-1.316.444h0c-.085,0-.173,0-.261-.013-.062-.006-.116-.015-.179-.027l-.027,0-.731.027c-.556.02-1.13.041-1.7.067-1.461.065-2.924.135-4.348.206-.28.014-.567.033-.845.052-.411.027-.835.056-1.261.069h-.021C350.564,90.554,350.438,90.558,350.307,90.558Zm9.666-3.179h-.03l-.2.006a11.653,11.653,0,0,0-1.3.085c-2.617.373-5.277.766-7.907,1.168a4.656,4.656,0,0,0-.783.219l-.023.008c-.079.027-.157.054-.236.079a.416.416,0,0,0-.245.163.074.074,0,0,0,0,.067.648.648,0,0,0,.368.313,2.724,2.724,0,0,0,.689.071c.115,0,.227,0,.335-.007h.021c.408-.013.824-.041,1.227-.068.281-.019.572-.038.861-.053,1.426-.072,2.891-.141,4.354-.206.577-.026,1.154-.047,1.712-.067l.837-.031.134.024c.05.009.078.014.1.016.056.005.112.008.166.008a1.015,1.015,0,0,0,.672-.209.99.99,0,0,0,.309-.689.711.711,0,0,0-.233-.51A1.2,1.2,0,0,0,359.973,87.379Z" transform="translate(-296.932 -73.972)"/><path d="M343.681,8.829a1.305,1.305,0,0,0,.624-1.576,1.2,1.2,0,0,0-1.48-.775,4.615,4.615,0,0,0-.722.238l-.816.344c-1.271.535-2.586,1.088-3.871,1.652-.8.351-1.6.732-2.38,1.1l-.7.332a.829.829,0,0,0-.48.434.514.514,0,0,0,.044.412.773.773,0,0,0,.442.315.851.851,0,0,1,.093.039l.07.039.079-.015.238-.043c.137-.024.246-.043.357-.073,2.8-.765,5.133-1.4,7.555-2.075a5.522,5.522,0,0,0,.949-.344" transform="translate(-284.234 -5.481)"/><path d="M334.42,11.906l-.219-.12-.024-.009-.019-.007a1.236,1.236,0,0,1-.7-.55,1.02,1.02,0,0,1-.075-.8,1.323,1.323,0,0,1,.741-.727l.629-.3.074-.035c.778-.369,1.583-.75,2.393-1.105,1.3-.568,2.609-1.12,3.878-1.654l.816-.344a5.117,5.117,0,0,1,.8-.263,1.97,1.97,0,0,1,.456-.055,1.67,1.67,0,0,1,1.611,1.151A1.8,1.8,0,0,1,343.9,9.28a6,6,0,0,1-1.033.376c-2.433.674-4.763,1.311-7.557,2.075-.136.037-.265.06-.4.084l-.231.042Zm-.083-1.156a.816.816,0,0,0,.182.087l.015.006.039.015.16-.028c.123-.022.221-.039.311-.063,2.792-.763,5.121-1.4,7.553-2.074a5.043,5.043,0,0,0,.865-.313.8.8,0,0,0,.37-.961.678.678,0,0,0-.667-.481.971.971,0,0,0-.224.028,4.114,4.114,0,0,0-.643.212l-.816.344c-1.266.533-2.574,1.083-3.864,1.649-.8.349-1.595.727-2.367,1.093l-.074.035-.631.3a.6.6,0,0,0-.216.136A.119.119,0,0,0,334.337,10.75Z" transform="translate(-284.234 -5.481)"/></g></g></svg>