<svg xmlns="http://www.w3.org/2000/svg" width="373.633" height="83.925" viewBox="0 0 373.633 83.925">
  <g id="Group_244" data-name="Group 244" transform="translate(-8.175 -81.06)">
    <path id="Path_258" data-name="Path 258" d="M-6.853-1.707l-9.7,60.752L338.833,55.6l8.451-60.247Z" transform="translate(31.784 104.609) rotate(-2)" fill="#ec385a" stroke="#000" stroke-width="1.5"/>
    <path id="Path_320" data-name="Path 320" d="M-6.853-1.707l-9.7,60.752L338.833,55.6l8.451-60.247Z" transform="translate(25.784 98.609) rotate(-2)" fill="#f494bc" stroke="#000" stroke-width="1.5"/>
    <path id="Path_548" data-name="Path 548" d="M1.86,0H7.68V-7.98h7.47V0h5.82V-21H15.15v7.86H7.68V-21H1.86ZM35.28.42A11,11,0,0,0,46.62-10.5v-.06A10.9,10.9,0,0,0,35.34-21.42,11,11,0,0,0,24-10.5v.06A10.9,10.9,0,0,0,35.28.42Zm.06-5.25a5.457,5.457,0,0,1-5.4-5.67v-.06a5.358,5.358,0,0,1,5.34-5.61,5.415,5.415,0,0,1,5.37,5.67v.06A5.352,5.352,0,0,1,35.34-4.83ZM53.85,0h5.82V-15.9h6.3V-21H47.58v5.1h6.27ZM76.83,0h8.01c7.53,0,11.94-4.5,11.94-10.56v-.06C96.78-16.68,92.43-21,84.96-21H76.83Zm8.19-15.87c3.51,0,5.82,1.98,5.82,5.34v.06c0,3.39-2.31,5.31-5.82,5.31H82.65V-15.87ZM99.96,0h5.82V-21H99.96Zm20.37.42a13.987,13.987,0,0,0,9.12-3.27v-9.42h-9.63v4.26h4.11v2.55a5.8,5.8,0,0,1-3.36.87,5.555,5.555,0,0,1-5.7-5.85v-.06a5.49,5.49,0,0,1,5.37-5.73,7.354,7.354,0,0,1,5.07,1.98l3.42-4.14a12.233,12.233,0,0,0-8.52-3.03A10.894,10.894,0,0,0,108.93-10.5v.06C108.93-4.08,113.79.42,120.33.42Zm23.07,0a13.987,13.987,0,0,0,9.12-3.27v-9.42h-9.63v4.26H147v2.55a5.8,5.8,0,0,1-3.36.87,5.555,5.555,0,0,1-5.7-5.85v-.06a5.49,5.49,0,0,1,5.37-5.73,7.354,7.354,0,0,1,5.07,1.98l3.42-4.14a12.233,12.233,0,0,0-8.52-3.03A10.894,10.894,0,0,0,132-10.5v.06C132-4.08,136.86.42,143.4.42ZM155.91,0h5.82V-21h-5.82ZM170.7,0h5.82V-15.9h6.3V-21H164.43v5.1h6.27Zm20.76,0h5.82V-7.95L205.26-21h-6.51l-4.35,7.65L190.08-21h-6.63l8.01,13.14Zm23.91,0h8.01c7.53,0,11.94-4.5,11.94-10.56v-.06c0-6.06-4.35-10.38-11.82-10.38h-8.13Zm8.19-15.87c3.51,0,5.82,1.98,5.82,5.34v.06c0,3.39-2.31,5.31-5.82,5.31h-2.37V-15.87ZM248.94.42A11,11,0,0,0,260.28-10.5v-.06A10.9,10.9,0,0,0,249-21.42,11,11,0,0,0,237.66-10.5v.06A10.9,10.9,0,0,0,248.94.42ZM249-4.83a5.457,5.457,0,0,1-5.4-5.67v-.06a5.358,5.358,0,0,1,5.34-5.61,5.415,5.415,0,0,1,5.37,5.67v.06A5.352,5.352,0,0,1,249-4.83ZM272.73.39c5.97,0,9.84-3,9.84-9.75V-21h-5.88V-9.18c0,2.94-1.53,4.32-3.9,4.32-2.34,0-3.87-1.44-3.87-4.47V-21h-5.88V-9.21C263.04-2.64,266.79.39,272.73.39Zm24,.03a13.987,13.987,0,0,0,9.12-3.27v-9.42h-9.63v4.26h4.11v2.55a5.8,5.8,0,0,1-3.36.87,5.555,5.555,0,0,1-5.7-5.85v-.06a5.49,5.49,0,0,1,5.37-5.73,7.354,7.354,0,0,1,5.07,1.98l3.42-4.14a12.233,12.233,0,0,0-8.52-3.03A10.894,10.894,0,0,0,285.33-10.5v.06C285.33-4.08,290.19.42,296.73.42Z" transform="translate(41.066 137.802) rotate(-2.6)"/>
  </g>
</svg>
