<svg xmlns="http://www.w3.org/2000/svg" width="111.952" height="60.483" viewBox="0 0 111.952 60.483">
  <g id="Group_204" data-name="Group 204" transform="translate(-909.812 -353.248)">
    <g id="Path_262" data-name="Path 262" transform="matrix(0.999, -0.035, 0.035, 0.999, 917.044, 363.237)" fill="#ec385a">
      <path d="M -0.3744564950466156 49.72708511352539 L 6.335812568664551 1.013325452804565 L 102.1579971313477 0.8182927966117859 L 95.35487365722656 49.26701354980469 L -0.3744564950466156 49.72708511352539 Z" stroke="none"/>
      <path d="M 101.2950820922852 1.570056915283203 L 6.989761352539062 1.761997222900391 L 0.48651123046875 48.97292709350586 L 94.70240020751953 48.5201301574707 L 101.2950820922852 1.570056915283203 M 103.0209197998047 0.06653594970703125 L 96.00736236572266 50.01388168334961 L -1.235420227050781 50.48122406005859 L 5.681846618652344 0.2646522521972656 L 103.0209197998047 0.06653594970703125 Z" stroke="none" fill="#000"/>
    </g>
    <g id="Path_261" data-name="Path 261" transform="matrix(0.999, -0.035, 0.035, 0.999, 911.044, 356.777)" fill="#fd7757">
      <path d="M -0.3744564950466156 49.72708511352539 L 6.335812568664551 1.013325452804565 L 102.1579971313477 0.8182927966117859 L 95.35487365722656 49.26701354980469 L -0.3744564950466156 49.72708511352539 Z" stroke="none"/>
      <path d="M 101.2950820922852 1.570056915283203 L 6.989761352539062 1.761997222900391 L 0.48651123046875 48.97292709350586 L 94.70240020751953 48.5201301574707 L 101.2950820922852 1.570056915283203 M 103.0209197998047 0.06653594970703125 L 96.00736236572266 50.01388168334961 L -1.235420227050781 50.48122406005859 L 5.681846618652344 0.2646522521972656 L 103.0209197998047 0.06653594970703125 Z" stroke="none" fill="#000"/>
    </g>
    <path id="Path_514" data-name="Path 514" d="M2.077,0H8.091V-21.7H2.077ZM17.36,0h6.014V-16.43h6.51V-21.7h-19v5.27H17.36ZM31.806-10.478c3.875-.124,6.355-1.705,6.355-6.293V-21.7H32.054v6.045h2.387c.062,1.674-1.023,2.666-3.1,2.914ZM49.848.372c5.27,0,8.773-2.635,8.773-7.068v-.062c0-4.061-3.1-5.673-8.06-6.758-3.038-.682-3.782-1.116-3.782-2.108v-.062c0-.806.713-1.395,2.17-1.395a10.653,10.653,0,0,1,6.076,2.139l3.007-4.247A13.658,13.658,0,0,0,49.1-22.072c-5.208,0-8.4,2.914-8.4,6.944v.062c0,4.433,3.565,5.735,8.184,6.789,2.976.713,3.689,1.178,3.689,2.108v.062c0,.93-.868,1.488-2.511,1.488a11.242,11.242,0,0,1-7.037-2.6l-3.348,4A15.215,15.215,0,0,0,49.848.372Z" transform="matrix(0.999, -0.035, 0.035, 0.999, 936.138, 392)"/>
  </g>
</svg>
