<svg xmlns="http://www.w3.org/2000/svg" width="670.596" height="175.928" viewBox="0 0 670.596 175.928"><defs><clipPath id="clip-path"><path id="Rectangle_785" data-name="Rectangle 785" class="cls-1" d="M0 0h450.612v146.918H0z"/></clipPath><clipPath id="clip-path-2"><path id="Rectangle_865" data-name="Rectangle 865" class="cls-1" d="M0 0h12.339v12.407H0z"/></clipPath><style>.cls-1{fill:none}</style></defs><g id="Group_262" data-name="Group 262" transform="translate(-596.073 -388.403)"><path id="Path_260" data-name="Path 260" d="M14.577 0 0 142.389l636.852.357L655.986 0Z" transform="rotate(-2 12359.1090553 -17125.98235414)" style="stroke:#000;stroke-width:1.5px;fill:#ec385a"/><path id="Path_259" data-name="Path 259" d="M14.577 0 0 142.389l636.852.357L655.986 0Z" transform="rotate(-2 12102.37361448 -16892.98175314)" style="fill:#fec62e;stroke:#000;stroke-width:1.5px"/><g id="Group_30" data-name="Group 30" transform="matrix(.999 -.035 .035 .999 752.811 410.162)"><g id="Group_29" data-name="Group 29" style="clip-path:url(#clip-path)"><path id="Path_568" data-name="Path 568" d="M19.575 3.375a32.338 32.338 0 0 0 22.41-6.48c4.59-3.375 8.235-7.83 9.72-13.5.405-1.485.675-2.97 1.08-4.59C54-26.46 55.62-31.86 54.81-37.4a2.761 2.761 0 0 1 0-1.485c1.08-3.915.81-7.965 1.755-11.745a21.953 21.953 0 0 0-.27-10.665 36.5 36.5 0 0 1-1.08-5.535 10.623 10.623 0 0 0-2.835-5.94 14.667 14.667 0 0 1-3.1-3.375 15.4 15.4 0 0 0-8.78-6.07c-7.155-2.025-13.77-5.265-20.925-7.425-2.835-.81-4.185-.4-5.13 2.43-.4 1.215-1.08 1.755-2.295 1.485a5.47 5.47 0 0 0-1.485 0c-2.3 0-2.835.81-2.16 2.97a7.265 7.265 0 0 1 .54 2.97c-.4 4.05-.675 7.965-1.35 11.88-1.215 8.1-2.025 16.2-2.97 24.3a246.7 246.7 0 0 0-1.89 26.865 36.355 36.355 0 0 0 .27 7.56C3.375-3.915 6.21-.405 11.07 1.485a26.762 26.762 0 0 0 8.505 1.89Zm3.915-8.5a3.847 3.847 0 0 1-3.51-3.915 20.221 20.221 0 0 1-.27-2.97 19.87 19.87 0 0 1 0-2.835c.405-6.21.54-12.285 1.485-18.36.4-2.835.54-5.535.675-8.37 0-3.375.135-6.615.27-9.99a34.838 34.838 0 0 0-.405-6.48c-.4-3.915.135-7.83 0-11.745a24.436 24.436 0 0 0-.54-5.4c-.27-1.485-.135-2.97 1.215-3.915a4.374 4.374 0 0 1 4.59-.68 36.858 36.858 0 0 1 12.015 10.26c1.62 2.16 3.105 4.455 4.59 6.615a4.714 4.714 0 0 1 1.08 3.24 28.851 28.851 0 0 0 .4 8.37 9.038 9.038 0 0 1 0 2.7c-1.485 7.7-2.835 15.255-4.32 22.815a73.585 73.585 0 0 1-4.99 14.175C33.48-6.21 28.62-4.725 23.49-5.13ZM88.56 3.51a10.016 10.016 0 0 0 2.84-.945 17.533 17.533 0 0 1 3.91-1.89 10.309 10.309 0 0 0 5-5.4 36.425 36.425 0 0 0 2.025-10.8c0-2.295.27-4.59.27-6.75-.135-3.78.54-7.56 0-11.34-.135-1.755-.81-3.375-.945-5.13-.4-6.48-.135-12.96-1.755-19.44-1.08-4.05-1.08-8.5-1.89-12.825-.945-5.535-2.565-7.155-7.02-8.775-4.05-1.35-8.1-1.755-12.285-3.1-2.16-.54-3.105 0-4.185 2.16-.945 1.89-1.755 3.915-3.78 4.995-.4.135-.675.81-.945 1.215a18.78 18.78 0 0 0-2.84 7.015c-1.08 4.86-1.215 9.99-2.97 14.58 0 .135-.135.27-.135.4-.4 7.425-1.62 14.715-1.215 21.6v3.78c.135 7.965 1.215 15.8 4.725 23.22a12.56 12.56 0 0 0 8.505 7.16c4.185 1.08 8.505.81 12.69.27Zm-3.78-6.615a11.749 11.749 0 0 1-2.16-4.05 79.246 79.246 0 0 1-2.565-11.205 114.3 114.3 0 0 1-1.08-15.255c0-1.62-.135-3.375-.27-5-.4-4.32.81-8.505 1.08-12.825.27-2.565-.135-5.265.675-7.695l.81-3.105c.54-2.835 2.025-5.265 2.43-8.37a1.366 1.366 0 0 1 .54-.945c.27-.54.54-1.35 1.215-1.215.675 0 .675.81.945 1.35 2.16 4.05 1.755 8.64 2.16 14.85 0 4.725.135 11.2 0 17.685-.135 2.97-.54 5.94-.54 8.91-.135 7.965-.945 15.66-1.62 23.49a21.221 21.221 0 0 1-.54 3.105c-.135.815-.675.815-1.08.275Zm44.01 4.455A7.608 7.608 0 0 0 135-1.755a24.372 24.372 0 0 0 4.59-11.34c.54-3.375.4-6.885.81-10.26a28.5 28.5 0 0 0 .54-6.75c-.54-6.75.81-13.23 1.215-19.98.4-7.02 1.62-14.04.945-21.06 0-1.215-.27-2.43-.27-3.78.135-4.185.135-8.37.135-12.555 0-2.16-.4-2.565-2.835-2.7-3.375-.135-4.86.54-4.86 2.565 0 3.51-.27 7.02-.405 10.665a200.186 200.186 0 0 1-2.97 25.38c-2.295 11.475-4.86 22.95-4.86 34.56a38 38 0 0 1-.945 8.775c-.27.4-.4.945-.54.945-.54 0-.54-.54-.81-.81-.135-.27-.135-.54-.27-.81-2.7-7.425-2.7-15.255-1.755-22.815 1.89-14.175 3.645-28.35 4.05-42.525a93.779 93.779 0 0 0-.27-10.665 7.577 7.577 0 0 0-7.695-7.56c-2.835 0-3.51.4-3.51 2.97 0 .81-.135 1.62-.135 2.295-.675 4.05-1.215 8.235-1.485 12.285-.27 4.725-.675 9.315-1.215 14.04-.81 6.075-1.89 12.15-3.105 18.36a111.84 111.84 0 0 0-1.08 17.82c0 3.1 0 6.345.27 9.45.4 3.375.945 6.885 2.7 9.99a7.943 7.943 0 0 0 4.86 4.185c4.05 1.35 8.235 2.565 12.69 2.43Zm46.17.135c3.105-.27 6.345-.945 8.64-3.24 4.185-4.05 7.155-8.775 7.425-14.85a78.669 78.669 0 0 1 .81-9.855 82.663 82.663 0 0 0 .4-19.17 2.029 2.029 0 0 0-1.755-2.025 36.375 36.375 0 0 0-12.015-.81 16.613 16.613 0 0 0-4.455.4 3.3 3.3 0 0 0-2.565 2.97c-.27 1.89.135 2.565 1.89 3.645 2.025 1.215 4.32 2.3 6.345 3.51a3.627 3.627 0 0 1 1.89 3.78 113.459 113.459 0 0 1-1.75 19.04 35.046 35.046 0 0 1-1.22 6.345c-.675 1.89-1.62 2.295-3.51 1.62a6.008 6.008 0 0 1-2.835-1.62 18.157 18.157 0 0 1-6.075-10.935c-.675-4.32-1.485-8.64-1.755-12.96-.4-5-1.08-9.99-.4-14.985a128.364 128.364 0 0 1 4.185-21.465c.81-2.565 2.025-5.13 2.7-7.83.675-3.105 2.835-5.4 4.59-7.83.675-.81 1.215-.675 1.62.27a13.6 13.6 0 0 1 1.215 5.13c.135 1.89 0 3.78 0 5.535h.4v5.67c0 1.485.135 3.24 1.35 4.185a47.216 47.216 0 0 0 5.8 4.455c.135.135.4 0 .675 0 1.755.135 4.725-2.835 4.86-4.86a9.215 9.215 0 0 0-.675-5 5.6 5.6 0 0 1-.4-2.16c.135-1.485.135-2.97.135-4.59 0-4.185-1.89-7.695-4.32-10.8a7.649 7.649 0 0 0-4.59-2.97 4.717 4.717 0 0 1-1.755-.675c-2.835-2.025-6.075-1.89-9.315-1.485-2.565.27-5.4.4-7.29 2.7a42.829 42.829 0 0 0-6.345 9.18 91.624 91.624 0 0 0-7.29 25.92 84.973 84.973 0 0 0-.945 14.31c.135 5.13.675 10.26 1.215 15.39a44.813 44.813 0 0 0 6.885 19.71 12.882 12.882 0 0 0 8.91 5.94 26.914 26.914 0 0 0 9.32.41Z" transform="translate(0 114.105)"/><path id="Path_567" data-name="Path 567" d="M8.246 3.99c.133 0 .266-.133.4-.133C11.571 3.857 13.7 2 15.96.665a7.15 7.15 0 0 0 3.591-5.32c.266-1.6.133-3.192.931-4.655 1.862-3.458 1.862-7.182 1.33-10.906-.4-3.192-1.064-6.251-.8-9.31 0-2.261.532-4.522.266-6.783v-3.724c0-.8.266-1.2 1.064-.931a6.676 6.676 0 0 1 1.6.266c5.586.8 11.039.532 15.96-2.926A74.269 74.269 0 0 0 52.4-54.4a55.84 55.84 0 0 0 4.921-6.517 7.353 7.353 0 0 0 .931-3.325c.4-4.788-1.6-8.645-4.389-12.1C46.55-85.253 36.708-89.11 25.27-88.977a12.133 12.133 0 0 0-6.384 1.729c-6.386 3.724-10.108 9.31-11.97 16.359-.8 3.192-.665 6.517-1.463 9.842a29.412 29.412 0 0 0-.8 8.379 92.905 92.905 0 0 1-.532 17.157 168.286 168.286 0 0 0-1.2 29.526 21.385 21.385 0 0 1-.133 4.123c-.394 4.921-.261 5.719 5.458 5.852Zm15.827-58.254c-2.394.266-2.793 0-2.793-2.394l.133-.931a17.882 17.882 0 0 1 1.064-6.384c.665-2.527.665-5.32 1.729-7.847a14.61 14.61 0 0 1 8.911-8.38c1.33-.532 2.527.133 3.724.665 4.123 1.862 5.719 5.586 4.123 9.842-.931 2.261-1.995 4.256-3.059 6.384-3.059 5.454-7.714 8.247-13.832 9.045ZM81.13 1.33a7.5 7.5 0 0 0 6.118-3.059A24.011 24.011 0 0 0 91.77-12.9c.532-3.325.4-6.783.8-10.108a28.074 28.074 0 0 0 .532-6.65c-.532-6.65.8-13.034 1.2-19.684.4-6.916 1.6-13.832.931-20.748 0-1.2-.266-2.394-.266-3.724.133-4.123.133-8.246.133-12.369 0-2.128-.4-2.527-2.793-2.66-3.325-.133-4.788.532-4.788 2.527 0 3.458-.266 6.916-.4 10.507a197.22 197.22 0 0 1-2.926 25C81.928-39.5 79.4-28.2 79.4-16.758a37.437 37.437 0 0 1-.931 8.645c-.266.4-.4.931-.532.931-.532 0-.532-.532-.8-.8-.133-.266-.133-.532-.266-.8-2.66-7.315-2.66-15.029-1.729-22.477 1.862-13.965 3.591-27.93 3.99-41.9a92.391 92.391 0 0 0-.266-10.507 7.465 7.465 0 0 0-7.581-7.448c-2.793 0-3.458.4-3.458 2.926 0 .8-.133 1.6-.133 2.261-.665 3.99-1.2 8.113-1.463 12.1-.266 4.655-.665 9.177-1.2 13.832-.8 5.985-1.862 11.97-3.059 18.088a110.183 110.183 0 0 0-1.064 17.556c0 3.059 0 6.251.266 9.31.4 3.325.931 6.783 2.66 9.842a7.826 7.826 0 0 0 4.788 4.123C72.618.266 76.741 1.463 81.13 1.33Zm45.486.133c3.059-.266 6.251-.931 8.512-3.192 4.123-3.99 7.049-8.645 7.315-14.63a77.5 77.5 0 0 1 .8-9.709 81.439 81.439 0 0 0 .4-18.886 2 2 0 0 0-1.729-1.995 35.836 35.836 0 0 0-11.837-.8 16.367 16.367 0 0 0-4.389.4 3.246 3.246 0 0 0-2.527 2.926c-.266 1.862.133 2.527 1.862 3.591 1.995 1.2 4.256 2.261 6.251 3.458a3.573 3.573 0 0 1 1.862 3.724A111.779 111.779 0 0 1 131.4-14.9a34.527 34.527 0 0 1-1.2 6.251c-.665 1.862-1.6 2.261-3.458 1.6a5.919 5.919 0 0 1-2.793-1.6 17.888 17.888 0 0 1-5.985-10.773c-.665-4.256-1.463-8.512-1.729-12.768-.4-4.921-1.064-9.842-.4-14.763a126.461 126.461 0 0 1 4.131-21.147c.8-2.527 2-5.054 2.66-7.714.665-3.059 2.793-5.32 4.522-7.714.665-.8 1.2-.665 1.6.266a13.394 13.394 0 0 1 1.2 5.054c.133 1.862 0 3.724 0 5.453h.4v5.586c0 1.463.133 3.192 1.33 4.123a46.515 46.515 0 0 0 5.719 4.389c.133.133.4 0 .665 0 1.729.133 4.655-2.793 4.788-4.788a9.079 9.079 0 0 0-.665-4.921 5.514 5.514 0 0 1-.4-2.128c.133-1.463.133-2.926.133-4.522 0-4.123-1.862-7.581-4.256-10.64a7.536 7.536 0 0 0-4.522-2.926 4.647 4.647 0 0 1-1.729-.665c-2.793-1.995-5.985-1.862-9.177-1.463-2.527.266-5.32.4-7.182 2.66a42.194 42.194 0 0 0-6.258 9.05 90.266 90.266 0 0 0-7.182 25.536 83.714 83.714 0 0 0-.931 14.1c.133 5.054.665 10.108 1.2 15.162a44.149 44.149 0 0 0 6.783 19.418 12.691 12.691 0 0 0 8.778 5.852 26.515 26.515 0 0 0 9.174.395Z" transform="translate(300.375 112.105)"/></g></g><path id="Path_566" data-name="Path 566" d="m7.921 4.895 2.937-.534c2.4-.356 4.272-2.136 5.34-5.073a8.935 8.935 0 0 0 .356-2.136 3.651 3.651 0 0 1 .089-.979 18.762 18.762 0 0 1 .445-3.115c.089 0 1.424-5.073 1.424-5.073.979-3.026 2.937-5.785 3.115-8.9 0-.8-.89-2.848-2.225-2.759-.8.089-2.136 2.314-2.492 2.848l-2.4 6.319-4.364 8.544c-.089.267-.089.8-.445.8s-.267-.534-.356-.8c-1.424-4.183-.089-6.764-.623-11.125-.356-2.937-.267-5.963-.89-8.9-.89-3.916-.445-7.921-1.068-11.837-.089-.623.267-.89.8-.8a6.371 6.371 0 0 0 4.361-1.157 1.474 1.474 0 0 0 .445-1.157c-.089-.445-.445-.534-.8-.623a14.344 14.344 0 0 0-3.382.089c-1.691 0-1.958-.267-2.047-1.869a20.9 20.9 0 0 0-.441-3.294 1.563 1.563 0 0 0-1.962-1.424A2.666 2.666 0 0 0 1.6-46.013l-.534 3.026C.89-41.652.712-41.563-.712-41.741a4.713 4.713 0 0 0-2.225.089.789.789 0 0 0-.534.89c0 .445.267.623.623.8l2.225.623a1.332 1.332 0 0 1 1.157 1.78 22.993 22.993 0 0 0-.178 6.052c.089.356-.089 4.984 0 6.141.356 3.471.356 6.853.712 10.324.356 4.005.534 8.1.8 12.1a35.366 35.366 0 0 0 1.78 5.162c.891 2.141 2.137 2.942 4.273 2.675ZM20.47 1.958a1.984 1.984 0 0 0 2.136-1.78 9.679 9.679 0 0 0 0-3.2 6.753 6.753 0 0 1 .356-3.478c.267-1.068.623-2.225.8-3.382a29.56 29.56 0 0 1 3.026-8.366 17.951 17.951 0 0 0 1.6-3.2c.089-.178.089-.623.267-.623.356.089.267.445.178.623-.267 3.382-.534 6.675-.712 9.968a13.812 13.812 0 0 0 1.068 6.052 4.251 4.251 0 0 0 2.136 2.492 6.923 6.923 0 0 0 3.56.712 5.048 5.048 0 0 0 3.56-2.136c1.78-2.4 8.633-10.68 9.612-12.46a7.9 7.9 0 0 0 1.157-4.272c-.267-1.513-1.513-2.67-2.937-1.958-1.335.712-2.314 2.136-3.827 4.984-1.869 2.67-3.738 5.34-5.34 8.1-.178.267-.267.712-.623.623-.445-.089-.178-.534-.178-.89.267-2.848.623-5.607.8-8.544.356-4.361.979-8.811 0-13.35-.445-1.424-.445-1.78-1.869-2.136-1.78-.356-3.471 0-5.073-.178a2.1 2.1 0 0 0-.712.178 22.283 22.283 0 0 0-4.094 4.094 28.331 28.331 0 0 0-2.047 3.56c-.089.178-.089.356-.356.356 0 0-.178-.178-.178-.267a9.067 9.067 0 0 1 .356-3.471c.979-2.67 1.78-5.34 2.67-8.01 1.157-3.916 2.136-7.743.445-11.748a2.009 2.009 0 0 0-2.136-1.6 23.453 23.453 0 0 1-2.492.178 3.715 3.715 0 0 0-2.848 1.424 2.757 2.757 0 0 1-1.6 1.424c-.445.089-.534.445-.623.89a95.87 95.87 0 0 0-2.136 21.449v6.942c0 3.293.089 6.5.178 9.79a8.143 8.143 0 0 1-.089 1.513c.534 2.136-.445 4.361.267 6.408a8.044 8.044 0 0 0 1.869 2.67h.089a6.811 6.811 0 0 0 3.74.619Zm.979-40.317c-.623 0-.445-1.246-.623-2.314v-.627c.356-1.068.979-2.759 1.691-2.492 1.246.178 0 1.691.178 2.492a2.258 2.258 0 0 1-.178 1.068c-.267.632 0 1.873-1.068 1.873ZM54.824-3.916c4.984.178 9.523-2.67 12.46-5.874 2.67-3.026 4.45-6.675 6.675-10.057a8.748 8.748 0 0 0 .445-1.424 1.278 1.278 0 0 0-.445-1.335 2.732 2.732 0 0 0-2.848 0A11.158 11.158 0 0 0 66.75-18.6a42.825 42.825 0 0 1-3.916 5.073 15.424 15.424 0 0 1-3.916 3.293 4.942 4.942 0 0 1-6.408-1.157 16.578 16.578 0 0 1-1.691-3.026 1.18 1.18 0 0 1 .445-1.424l1.424-.979a19.26 19.26 0 0 0 3.56-3.56 42.371 42.371 0 0 0 5.518-7.12 40.32 40.32 0 0 0 2.314-5.34 8.51 8.51 0 0 0-.18-7.21 2.715 2.715 0 0 0-1.424-1.691c-1.6-.534-3.2-1.335-4.984-1.246a1.363 1.363 0 0 1-1.157-.178 2.419 2.419 0 0 0-2.937.356 36.739 36.739 0 0 0-7.743 8.01 19.726 19.726 0 0 0-3.827 9.345 18.04 18.04 0 0 0-.089 4.9c.445 7.921.979 8.366 1.246 9.256C44.322-8.633 46.013-6.5 48.95-5.34l.623.267a11.013 11.013 0 0 0 5.251 1.157Zm-4.005-22.517c-.089-.089 0-.178 0-.267l.712-2.225a29.1 29.1 0 0 1 4.984-7.921c.534-.623.623-.534.979.178a6.67 6.67 0 0 1 .445 1.424 10.119 10.119 0 0 1-1.157 2.67 37.041 37.041 0 0 1-5.34 5.874l-.267.178c-.089 0-.175.178-.356.089Z" transform="matrix(.999 -.035 .035 .999 971.017 492.074)"/><g id="Group_116" data-name="Group 116" transform="matrix(.998 -.07 .07 .998 1203.563 415.627)"><g id="Group_115" data-name="Group 115" transform="translate(0 .001)" style="clip-path:url(#clip-path-2)"><path id="Path_397" data-name="Path 397" d="M0 6.238V6.2a6.169 6.169 0 1 1 12.339-.034V6.2A6.169 6.169 0 1 1 0 6.238M11.623 6.2v-.031A5.454 5.454 0 1 0 .716 6.2v.034a5.394 5.394 0 0 0 5.436 5.47 5.441 5.441 0 0 0 5.47-5.5M3.46 2.744h3.067a2.987 2.987 0 0 1 2.2.733 2.018 2.018 0 0 1 .562 1.5v.033A2.049 2.049 0 0 1 7.942 7L9.51 9.3h-2.1L6.084 7.311h-.8v1.994H3.46ZM6.476 5.9c.63 0 .988-.307.988-.784v-.037c0-.511-.392-.784-.988-.784H5.283V5.9Z"/></g></g></g></svg>