<svg xmlns="http://www.w3.org/2000/svg" width="696.471" height="127.539" viewBox="0 0 696.471 127.539">
  <g id="Group_204" data-name="Group 204" transform="translate(-567.219 -258.165)">
    <path id="Path_258" data-name="Path 258" d="M12.442-.1-42.2,93.475l589.017-4.988L559.88-4.645Z" transform="translate(700 290.006) rotate(-2)" fill="#ec385a" stroke="#000" stroke-width="1.5"/>
    <path id="Path_257" data-name="Path 257" d="M-124.185-1.1l69.4,93.6,601.6-4L559.88-4.645Z" transform="translate(693 283.13) rotate(-2)" fill="#f494bc" stroke="#000" stroke-width="1.5"/>
    <path id="Path_514" data-name="Path 514" d="M3.038,0h9.506V-13.034h12.2V0h9.506V-34.3H24.745v12.838h-12.2V-34.3H3.038ZM57.624.686C68.208.686,76.146-7.3,76.146-17.15v-.1c0-9.849-7.84-17.738-18.424-17.738S39.2-27,39.2-17.15v.1C39.2-7.2,47.04.686,57.624.686Zm.1-8.575c-5.243,0-8.82-4.312-8.82-9.261v-.1c0-4.949,3.479-9.163,8.722-9.163S66.4-22.148,66.4-17.15v.1C66.4-12.1,62.916-7.889,57.722-7.889ZM87.955,0h9.506V-25.97h10.29V-34.3H77.714v8.33H87.955Zm37.534,0h13.083c12.3,0,19.5-7.35,19.5-17.248v-.1c0-9.9-7.105-16.954-19.306-16.954H125.489Zm13.377-25.921c5.733,0,9.506,3.234,9.506,8.722v.1c0,5.537-3.773,8.673-9.506,8.673h-3.871V-25.921ZM163.268,0h9.506V-34.3h-9.506Zm33.271.686a22.846,22.846,0,0,0,14.9-5.341V-20.041H195.706v6.958h6.713v4.165A9.475,9.475,0,0,1,196.931-7.5c-5.439,0-9.31-3.969-9.31-9.555v-.1c0-5.243,3.822-9.359,8.771-9.359a12.012,12.012,0,0,1,8.281,3.234l5.586-6.762a19.98,19.98,0,0,0-13.916-4.949c-10.584,0-18.424,7.84-18.424,17.836v.1C177.919-6.664,185.857.686,196.539.686Zm37.681,0a22.846,22.846,0,0,0,14.9-5.341V-20.041H233.387v6.958H240.1v4.165A9.475,9.475,0,0,1,234.612-7.5c-5.439,0-9.31-3.969-9.31-9.555v-.1c0-5.243,3.822-9.359,8.771-9.359a12.012,12.012,0,0,1,8.281,3.234l5.586-6.762a19.98,19.98,0,0,0-13.916-4.949c-10.584,0-18.424,7.84-18.424,17.836v.1C215.6-6.664,223.538.686,234.22.686ZM254.653,0h9.506V-34.3h-9.506ZM278.81,0h9.506V-25.97h10.29V-34.3H268.569v8.33H278.81Zm33.908,0h9.506V-12.985L335.258-34.3H324.625L317.52-21.805,310.464-34.3H299.635l13.083,21.462Zm39.053,0h13.083c12.3,0,19.5-7.35,19.5-17.248v-.1c0-9.9-7.105-16.954-19.306-16.954H351.771Zm13.377-25.921c5.733,0,9.506,3.234,9.506,8.722v.1c0,5.537-3.773,8.673-9.506,8.673h-3.871V-25.921ZM406.6.686c10.584,0,18.522-7.987,18.522-17.836v-.1c0-9.849-7.84-17.738-18.424-17.738S388.178-27,388.178-17.15v.1C388.178-7.2,396.018.686,406.6.686Zm.1-8.575c-5.243,0-8.82-4.312-8.82-9.261v-.1c0-4.949,3.479-9.163,8.722-9.163s8.771,4.263,8.771,9.261v.1C415.373-12.1,411.894-7.889,406.7-7.889ZM445.459.637c9.751,0,16.072-4.9,16.072-15.925V-34.3h-9.6v19.306c0,4.8-2.5,7.056-6.37,7.056-3.822,0-6.321-2.352-6.321-7.3V-34.3h-9.6v19.257C429.632-4.312,435.757.637,445.459.637Zm39.2.049a22.846,22.846,0,0,0,14.9-5.341V-20.041H483.826v6.958h6.713v4.165A9.475,9.475,0,0,1,485.051-7.5c-5.439,0-9.31-3.969-9.31-9.555v-.1c0-5.243,3.822-9.359,8.771-9.359a12.012,12.012,0,0,1,8.281,3.234l5.586-6.762a19.98,19.98,0,0,0-13.916-4.949c-10.584,0-18.424,7.84-18.424,17.836v.1C466.039-6.664,473.977.686,484.659.686Z" transform="translate(711.72 343.254) rotate(-2)"/>
  </g>
</svg>
