<svg id="Group_191" data-name="Group 191" xmlns="http://www.w3.org/2000/svg" xmlns:xlink="http://www.w3.org/1999/xlink" width="275.357" height="87.982" viewBox="0 0 275.357 87.982">
  <defs>
    <clipPath id="clip-path">
      <rect id="Rectangle_868" data-name="Rectangle 868" width="275.357" height="87.982" fill="none" stroke="#000" stroke-width="1.5"/>
    </clipPath>
  </defs>
  <g id="Group_134" data-name="Group 134" clip-path="url(#clip-path)">
    <path id="Path_411" data-name="Path 411" d="M273.756,81.062c.841-5.127-.994-9.818-2.623-14.5a31.977,31.977,0,0,0-10.188-14.651,25.241,25.241,0,0,0-11.492-4.887c-3.855-.693-7.712-1.357-11.645-.752-1.223.189-1.739-.634-2.2-1.475-.784-1.423-1.465-2.9-2.239-4.332A35.726,35.726,0,0,0,221.178,27c-7.371-4.678-15.386-6.836-24.244-5.532a33.567,33.567,0,0,0-12.652,4.269,20.157,20.157,0,0,1-2.2.982c-20.4-22.469-44.53-25.738-71.467-13.98C107.267,10.458,104,7.979,100.49,5.892a44.019,44.019,0,0,0-17.1-5.46C75.693-.581,68.173.3,60.69,1.864c-4.484.935-8.944,2.027-13.349,3.281a79.719,79.719,0,0,0-9.109,3.291,54.8,54.8,0,0,0-7.9,3.933A73.182,73.182,0,0,0,14.393,25.761,50.1,50.1,0,0,0,3.286,47.694a120.967,120.967,0,0,0-2.8,18.7C.146,70.32.1,74.277,0,78.223A6.868,6.868,0,0,0,.523,80.4a14.4,14.4,0,0,1,1.025,2.947c.191,2.22,1.518,3.116,3.442,3.64a19.042,19.042,0,0,0,6.234.543c3.614-.208,7.254.041,10.883.092,5.6.079,11.211.448,16.784.119,3.438-.2,6.844-.041,10.264-.1,2.949-.05,5.9.066,8.849.04,4.926-.044,9.851-.234,14.776-.2,5.532.043,11.063.3,16.594.407,2.536.051,5.075,0,7.611-.034,3.9-.056,7.8-.141,11.7-.213a3.759,3.759,0,0,1,.575-.022c5.132.709,10.26.174,15.395.021,2.668-.079,5.374.5,8.015.26,6.4-.586,12.79.3,19.189-.162,3.8-.272,7.643.046,11.467.045,5.826,0,11.653-.062,17.479-.07,4.579-.005,9.158.061,13.736.045,6.105-.021,12.21-.122,18.316-.128,4.1,0,8.2.179,12.3.125,5.048-.066,10.093-.3,15.14-.442,6.8-.194,13.6-.305,20.392-.582,3.813-.155,7.617-.561,11.423-.882a6.2,6.2,0,0,0,1.677-.4c1.821-.7,2.063-1.97.695-3.5-.127-.142-.307-.237-.427-.383a3.593,3.593,0,0,1-.3-.509M106.163,15.508c-.938.746-1.636,1.362-2.393,1.894-4.987,3.5-10.053,6.864-14.184,11.483a8.5,8.5,0,0,0-2.161,7.048,3.21,3.21,0,0,0,3.02,2.941c2.9.484,4.578-1.442,6.345-3.183,1.011-1,1.922-2.1,2.971-3.053a102.35,102.35,0,0,1,12.6-9.38,39.224,39.224,0,0,1,13.043-5.64A91.166,91.166,0,0,1,136.1,16.053c6.822-.705,13.445.357,20.036,2.188a60.981,60.981,0,0,1,15.022,6.978c2.175,1.307,4.14,2.963,6.336,4.559-2.308,1.939-4.434,3.563-6.359,5.4a19.773,19.773,0,0,0-3.847,4.561,4.381,4.381,0,0,0,4.293,6.6,8.983,8.983,0,0,0,3.771-1.924c2.758-2.059,5.331-4.365,8.1-6.4,4.794-3.524,9.82-6.5,15.925-7.354a28.018,28.018,0,0,1,18.75,3.466c5.1,3.014,9.072,7.287,12.946,11.662a3.192,3.192,0,0,1,.385.991c-1.107.449-2.071.863-3.051,1.234-4.608,1.743-7.406,5.266-9.216,9.632-1.02,2.46.556,4.349,3.142,3.783a13.119,13.119,0,0,0,4.455-1.874A26.355,26.355,0,0,1,240,55.35c4.3-.281,8.786-.056,12.908,1.9a21.133,21.133,0,0,1,8.385,6.692c2.791,3.838,4.624,8.151,6.592,12.39.61,1.313,1.656,2.842.79,4.523-3.373-.26-6.609-.627-9.853-.74q-14.2-.495-28.4-.809c-7.907-.163-15.819-.167-23.728-.271-1.035-.013-2.067-.284-3.1-.291-4.006-.025-8.013.036-12.018.014q-10.3-.058-20.6-.18c-7.426-.085-14.85-.227-22.276-.288-4.862-.041-9.724.03-14.587.029-3.24,0-6.48-.014-9.72-.07-6.684-.115-13.368-.267-20.053-.393-6.176-.116-12.359.6-18.532-.216a14.562,14.562,0,0,0-3.144.234,14.49,14.49,0,0,1-1.7.178c-5.4-.155-10.8-.439-16.2-.481-6.1-.048-12.206.136-18.31.178-2.355.016-4.71-.105-7.065-.112-1.133,0-2.268.173-3.4.165q-9.171-.058-18.34-.177c-2.345-.033-4.73.288-7.1-.43a18.713,18.713,0,0,1-.212-2.467,78.3,78.3,0,0,0,.477-8.236c-.3-5.456,1.29-10.622,2.232-15.856,1.1-6.12,3.19-12,7.515-16.763q3.269-3.6,6.67-7.075c.63-.641,1.6-.941,2.255-1.567a34.774,34.774,0,0,1,9.9-6.608c2.69-1.21,5.49-2.177,8.25-3.228a128.771,128.771,0,0,1,24.9-6.42,47.982,47.982,0,0,1,33.636,6.535" transform="translate(0 0)" fill="#fff" stroke="#000" stroke-width="1.5"/>
    <path id="Path_412" data-name="Path 412" d="M107.857,22.887A47.982,47.982,0,0,0,74.22,16.352a128.771,128.771,0,0,0-24.9,6.42c-2.76,1.051-5.56,2.018-8.25,3.228a34.774,34.774,0,0,0-9.9,6.608c-.652.626-1.625.926-2.255,1.567q-3.406,3.468-6.67,7.075c-4.326,4.76-6.414,10.644-7.515,16.763-.943,5.234-2.531,10.4-2.232,15.856a78.3,78.3,0,0,1-.477,8.236,18.713,18.713,0,0,0,.212,2.467c2.373.719,4.759.4,7.1.43q9.169.128,18.34.177c1.133.007,2.267-.169,3.4-.165,2.355.007,4.71.128,7.065.112,6.1-.042,12.208-.226,18.31-.178,5.4.042,10.8.325,16.2.481a14.49,14.49,0,0,0,1.7-.178,14.562,14.562,0,0,1,3.144-.234c6.174.82,12.357.1,18.532.216,6.684.126,13.368.278,20.053.393,3.24.055,6.48.069,9.72.07,4.863,0,9.725-.069,14.587-.029,7.426.061,14.85.2,22.276.288q10.3.117,20.6.18c4.006.022,8.012-.039,12.018-.014,1.034.006,2.066.277,3.1.291,7.909.1,15.82.108,23.728.271q14.2.294,28.4.809c3.244.113,6.48.479,9.853.74.866-1.681-.18-3.21-.79-4.523-1.968-4.239-3.8-8.552-6.592-12.39a21.133,21.133,0,0,0-8.385-6.692c-4.123-1.953-8.612-2.177-12.908-1.9a26.355,26.355,0,0,0-13.212,4.2,13.119,13.119,0,0,1-4.455,1.874c-2.587.565-4.163-1.323-3.143-3.783,1.81-4.366,4.609-7.889,9.216-9.632.98-.371,1.943-.785,3.051-1.234a3.192,3.192,0,0,0-.385-.991c-3.874-4.375-7.849-8.648-12.946-11.662a28.018,28.018,0,0,0-18.75-3.466c-6.105.85-11.131,3.829-15.925,7.354-2.772,2.038-5.346,4.344-8.1,6.4a8.983,8.983,0,0,1-3.771,1.924,4.381,4.381,0,0,1-4.293-6.6,19.773,19.773,0,0,1,3.847-4.561c1.926-1.834,4.051-3.457,6.359-5.4-2.2-1.6-4.161-3.252-6.336-4.559a60.981,60.981,0,0,0-15.022-6.978c-6.591-1.831-13.215-2.893-20.036-2.188A91.166,91.166,0,0,0,127.1,25a39.224,39.224,0,0,0-13.043,5.64,102.349,102.349,0,0,0-12.6,9.38c-1.05.952-1.96,2.057-2.971,3.053-1.767,1.741-3.445,3.667-6.345,3.183a3.21,3.21,0,0,1-3.02-2.941,8.5,8.5,0,0,1,2.161-7.048c4.131-4.619,9.2-7.978,14.184-11.483.757-.532,1.455-1.148,2.393-1.894" transform="translate(-1.694 -7.379)" fill="#d8fffa" stroke="#000" stroke-width="1.5"/>
  </g>
</svg>
