<svg xmlns="http://www.w3.org/2000/svg" width="256.966" height="256.999" viewBox="0 0 256.966 256.999"><g transform="translate(-165.25 -317.375)"><g transform="translate(166 318.124)"><path d="M91.778,232.05c-.494-3.822-.941-7.275-1.443-11.162,10.23,0,20.084.067,29.936-.024,5.982-.055,11.962-.372,17.943-.54,4.684-.132,9.37-.153,14.051-.336,8.189-.321,16.373-.789,24.563-1.082,7.26-.259,14.536-.187,21.786-.581,7.906-.43,15.873-.558,23.572-2.818,3.962-1.163,7.937-2.283,12.382-3.56a46.254,46.254,0,0,1-1.155,6.542c-1.615,4.924-3.277,9.853-5.306,14.616-3.117,7.314-6.486,14.524-9.885,21.713a163.628,163.628,0,0,1-7.776,15.34c-3.847,6.315-9.433,11.064-15.7,14.946a89.548,89.548,0,0,1-20.593,9.284A92.752,92.752,0,0,1,159.2,297.24a149.709,149.709,0,0,1-28.449.7,128.864,128.864,0,0,1-24.222-3.934c-1.959-.486-3.914-.991-5.871-1.488,0-.263,0-.525-.005-.787a23.221,23.221,0,0,1,2.7-.556c2.96-.268,5.958-.263,8.882-.73,4.537-.726,6.829-4.656,5.959-9.257-1.4-7.416-2.768-14.846-3.854-22.312a62.035,62.035,0,0,1-.605-11.659,9.214,9.214,0,0,0-4.971-9.007,43.222,43.222,0,0,0-14.487-5.554c-.756-.137-1.5-.361-2.5-.609" transform="translate(-23.492 -56.121)" fill="#a9ebe2"/><path d="M142.433,298.79c-3.522,0-7.351-.113-11.706-.346a128.239,128.239,0,0,1-24.316-3.948c-1.354-.336-2.728-.687-4.056-1.026l-1.817-.463a.5.5,0,0,1-.377-.482q0-.2,0-.4t0-.389a.5.5,0,0,1,.4-.492c.274-.058.555-.127.827-.194a13.074,13.074,0,0,1,1.933-.371c1.09-.1,2.2-.161,3.273-.222a55.325,55.325,0,0,0,5.575-.5,6.567,6.567,0,0,0,4.477-2.666,7.82,7.82,0,0,0,1.07-6c-1.338-7.08-2.738-14.636-3.857-22.333a62.366,62.366,0,0,1-.61-11.753,8.726,8.726,0,0,0-4.728-8.555,42.386,42.386,0,0,0-14.32-5.492c-.521-.094-1.023-.226-1.6-.378-.292-.076-.593-.155-.928-.238a.5.5,0,0,1-.376-.421l-.421-3.257c-.337-2.608-.666-5.147-1.022-7.905a.5.5,0,0,1,.5-.564c3.063,0,6.132.006,9.1.012,2.9.006,5.895.012,8.817.012,4.661,0,8.479-.015,12.015-.048,3.809-.035,7.685-.179,11.433-.318,2.13-.079,4.333-.161,6.5-.222,1.9-.053,3.833-.089,5.7-.124,2.737-.051,5.566-.1,8.345-.212,3.737-.146,7.536-.327,11.21-.5,4.376-.208,8.9-.422,13.355-.581,3.019-.108,6.088-.159,9.056-.209,4.174-.07,8.489-.142,12.721-.372.988-.054,1.992-.1,2.964-.152,6.791-.337,13.813-.685,20.5-2.646,2.7-.791,5.393-1.561,8.248-2.377,1.341-.383,2.715-.775,4.137-1.184a.5.5,0,0,1,.631.564c-.125.741-.221,1.475-.314,2.184a24.188,24.188,0,0,1-.859,4.431c-1.564,4.768-3.263,9.827-5.321,14.656-3.218,7.55-6.794,15.176-9.893,21.731-.362.766-.728,1.548-1.083,2.3a136.166,136.166,0,0,1-6.719,13.083c-3.478,5.711-8.668,10.654-15.864,15.111a90.254,90.254,0,0,1-20.708,9.337,89.218,89.218,0,0,1-14.382,2.78l-.65.089A123.075,123.075,0,0,1,142.433,298.79Zm-41.271-6.656,1.441.367c1.327.339,2.7.689,4.05,1.024a127.272,127.272,0,0,0,24.128,3.92c4.337.232,8.148.345,11.652.345a122.1,122.1,0,0,0,16.7-1.046l.65-.089a88.472,88.472,0,0,0,14.22-2.744,89.254,89.254,0,0,0,20.479-9.232c7.06-4.373,12.142-9.208,15.537-14.781a135.416,135.416,0,0,0,6.667-12.987c.355-.757.721-1.539,1.084-2.307,3.1-6.547,6.667-14.162,9.877-21.7,2.042-4.793,3.733-9.829,5.291-14.576a23.461,23.461,0,0,0,.817-4.249c.062-.47.125-.951.2-1.44l-3.384.968c-2.853.815-5.549,1.585-8.241,2.375-6.8,1.995-13.878,2.346-20.727,2.686-.97.048-1.974.1-2.959.151-4.25.231-8.575.3-12.758.374-2.964.05-6.028.1-9.037.208-4.448.159-8.97.374-13.343.581-3.676.174-7.477.355-11.218.5-2.789.109-5.624.162-8.366.213-1.866.035-3.8.07-5.691.124-2.164.061-4.364.143-6.492.222-3.755.139-7.637.284-11.46.319-3.54.033-7.36.048-12.025.048-2.923,0-5.921-.006-8.819-.012-2.783-.006-5.655-.011-8.528-.012.329,2.542.635,4.912.949,7.341l.377,2.918c.213.054.413.107.609.158.561.147,1.046.274,1.529.361a43.969,43.969,0,0,1,14.654,5.617,10.748,10.748,0,0,1,4,3.865,10.035,10.035,0,0,1,1.211,5.595,61.362,61.362,0,0,0,.6,11.564c1.117,7.678,2.514,15.223,3.85,22.292a8.806,8.806,0,0,1-1.235,6.765,7.544,7.544,0,0,1-5.137,3.079,56.078,56.078,0,0,1-5.676.515c-1.065.06-2.166.122-3.24.219a12.136,12.136,0,0,0-1.785.347Z" transform="translate(-23.492 -56.121)" fill="#a9ebe2"/><path d="M76.074,199.261c-.226-1.3-.325-2.208-.544-3.082-1.216-4.853-5.218-5.947-8.91-2.43a8.765,8.765,0,0,0-1.826,2.1c-1.438,2.747-3.874,2.853-6.468,2.653-3.429-.265-6.853-.675-10.287-.785-7.494-.241-14.592-2.467-21.782-4.2-1.346-.326-2.51-1.4-4.533-2.591,3.878-.784,6.952-1.651,10.084-1.994,10.408-1.141,20.833-2.144,31.26-3.1,11.469-1.057,22.941-2.1,34.426-2.957,4.342-.324,8.725-.086,13.089-.151,6.886-.1,13.771-.336,20.657-.347,12.189-.019,24.38.007,36.567.172q10.689.146,21.369.8a76.985,76.985,0,0,1,21.191,4.754c2.094.748,4.15,1.6,6.539,2.533a12.333,12.333,0,0,1-7.234,4.492,100.342,100.342,0,0,1-13.662,2.492c-7.254.635-14.553.8-21.837,1.044-5.139.172-10.285.151-15.428.206-3.96.042-7.922.038-11.883.105-8.077.137-16.154.4-24.232.431-5,.017-10-.329-15-.467-1.3-.036-2.607.171-3.908.132-7.642-.234-15.286,1.022-22.936-.083a23.274,23.274,0,0,0-4.708.282" transform="translate(-5.826 -48.911)" fill="#ec385a"/><path d="M88.008,199.941a50.2,50.2,0,0,1-7.3-.467,6.159,6.159,0,0,0-.887-.059,17.623,17.623,0,0,0-2.121.178c-.515.063-1.048.129-1.593.167a.5.5,0,0,1-.527-.413c-.078-.45-.142-.859-.2-1.22-.111-.711-.2-1.272-.338-1.826a6.425,6.425,0,0,0-1.64-3.105,3.445,3.445,0,0,0-2.447-1.008,6,6,0,0,0-3.993,1.924l-.179.17a7.523,7.523,0,0,0-1.548,1.8,5.529,5.529,0,0,1-5.457,2.986c-.431,0-.905-.021-1.493-.067-1.122-.087-2.261-.19-3.362-.291-2.263-.206-4.6-.419-6.9-.493-6.072-.2-11.957-1.7-17.649-3.155-1.387-.355-2.822-.722-4.235-1.063a9.257,9.257,0,0,1-2.853-1.491c-.528-.351-1.126-.75-1.816-1.154a.5.5,0,0,1,.154-.921c1.272-.257,2.451-.522,3.591-.778a59.158,59.158,0,0,1,6.537-1.223c11.4-1.249,22.7-2.316,31.268-3.106,11.688-1.077,23.117-2.113,34.434-2.958,1.635-.122,3.387-.176,5.679-.176.957,0,1.929.009,2.869.018s1.908.018,2.861.018c.62,0,1.179,0,1.71-.012,2.562-.038,5.168-.1,7.688-.15,4.252-.093,8.648-.19,12.975-.2,2.3,0,4.422-.005,6.5-.005,11.567,0,21.125.056,30.08.177,7.1.1,14.3.367,21.393.8a76.552,76.552,0,0,1,21.329,4.783c1.429.51,2.844,1.072,4.343,1.667.709.282,1.443.573,2.208.871a.5.5,0,0,1,.211.777,12.715,12.715,0,0,1-3.533,3.119,13.777,13.777,0,0,1-3.981,1.55l-.015,0a100.984,100.984,0,0,1-13.715,2.5c-6.229.545-12.586.748-18.734.944q-1.565.05-3.129.1c-3.71.124-7.482.149-11.129.172-1.413.009-2.874.019-4.31.034-1.546.016-3.117.026-4.637.035-2.375.014-4.83.029-7.243.07-2.842.048-5.731.113-8.526.177-5.149.116-10.473.237-15.713.255h-.356c-3.074,0-6.194-.133-9.211-.262-1.787-.076-3.636-.155-5.452-.206-.1,0-.2,0-.3,0-.525,0-1.068.035-1.594.069-.541.035-1.1.072-1.658.072-.122,0-.243,0-.358-.005-.641-.02-1.32-.03-2.019-.03-2.267,0-4.578.1-6.814.2S90.3,199.941,88.008,199.941Zm-8.185-1.527a7.142,7.142,0,0,1,1.031.07,49.235,49.235,0,0,0,7.154.457c2.269,0,4.581-.1,6.817-.2s4.569-.2,6.858-.2c.709,0,1.4.01,2.05.03.1,0,.215,0,.327,0,.525,0,1.068-.035,1.594-.069.541-.035,1.1-.072,1.658-.072.112,0,.222,0,.327,0,1.824.05,3.676.13,5.467.206,3.007.128,6.116.261,9.168.261h.353c5.23-.018,10.549-.138,15.694-.254,2.8-.063,5.687-.128,8.531-.177,2.419-.041,4.877-.056,7.254-.07,1.518-.009,3.089-.019,4.632-.035,1.438-.015,2.9-.025,4.314-.034,3.641-.024,7.406-.048,11.1-.172q1.565-.052,3.131-.1c6.134-.2,12.477-.4,18.679-.941a100.238,100.238,0,0,0,13.578-2.478l.015,0a11.783,11.783,0,0,0,6.518-3.792q-.806-.317-1.568-.62c-1.49-.591-2.9-1.15-4.311-1.655a75.594,75.594,0,0,0-21.054-4.726c-7.08-.435-14.261-.7-21.345-.8-8.949-.121-18.5-.177-30.066-.177-2.073,0-4.2,0-6.494.005-4.317.007-8.708.1-12.955.2-2.522.055-5.129.113-7.7.15-.536.008-1.1.012-1.725.012-.957,0-1.93-.009-2.87-.018s-1.908-.018-2.86-.018c-2.266,0-3.995.054-5.6.174-11.309.844-22.733,1.88-34.417,2.956-8.568.79-19.864,1.856-31.251,3.1a58.44,58.44,0,0,0-6.427,1.2c-.77.173-1.558.35-2.382.526.28.181.541.355.788.519a8.626,8.626,0,0,0,2.534,1.351c1.419.343,2.857.711,4.248,1.066,5.639,1.442,11.47,2.933,17.433,3.125,2.329.075,4.684.289,6.962.5,1.1.1,2.233.2,3.348.29.561.043,1.011.064,1.416.064a6.045,6.045,0,0,0,2.618-.477,4.223,4.223,0,0,0,1.953-1.973,8.244,8.244,0,0,1,1.747-2.061l.177-.168a6.962,6.962,0,0,1,4.683-2.2c2.4,0,4.293,1.821,5.057,4.87.15.6.245,1.208.355,1.914.038.242.077.489.12.753.367-.035.732-.08,1.089-.124A18.345,18.345,0,0,1,79.823,198.415Z" transform="translate(-5.826 -48.911)" fill="#707070"/><path d="M97.272,288.98l-29.4.858c-.686-6.2-1.11-11.965-2.018-17.653a15.569,15.569,0,0,1,3.389-12.854c2.986-3.8,5.449-8.017,8.292-12.276,2.143,1.584,3.772,2.91,5.521,4.052,2.978,1.946,5.974,3.878,9.071,5.622,2.522,1.42,2.651,1.769,2.587,4.647a79.159,79.159,0,0,0,.423,10.637c.563,4.982,1.477,9.924,2.215,14.887a13.9,13.9,0,0,1-.079,2.08" transform="translate(-17.598 -66.263)" fill="#f494bc"/><path d="M67.871,290.339a.5.5,0,0,1-.5-.445c-.212-1.914-.4-3.8-.583-5.627-.415-4.156-.807-8.082-1.433-12a16.079,16.079,0,0,1,3.489-13.241c2.05-2.611,3.831-5.384,5.716-8.32.823-1.282,1.674-2.608,2.554-3.925a.5.5,0,0,1,.713-.125c.7.518,1.341,1,1.959,1.473,1.274.967,2.374,1.8,3.538,2.562,2.871,1.876,5.934,3.854,9.042,5.6a5.64,5.64,0,0,1,2.457,1.974,6.293,6.293,0,0,1,.384,3.12,78,78,0,0,0,.42,10.569c.373,3.3.911,6.647,1.431,9.882.263,1.633.534,3.322.782,4.988a5.372,5.372,0,0,1-.012,1.234c-.021.267-.045.57-.062.942a.5.5,0,0,1-.485.478l-12.852.375-16.549.483Zm9.788-42.567c-.772,1.166-1.524,2.336-2.253,3.472-1.9,2.956-3.691,5.748-5.77,8.4a16.19,16.19,0,0,0-3.047,5.872,15.623,15.623,0,0,0-.242,6.594c.63,3.949,1.024,7.889,1.44,12.06.167,1.677.34,3.406.531,5.158l16.088-.47,12.392-.362c.012-.188.026-.356.038-.513a4.683,4.683,0,0,0,.02-1.008c-.247-1.659-.518-3.345-.78-4.976-.522-3.246-1.062-6.6-1.438-9.928a78.983,78.983,0,0,1-.426-10.7c.061-2.745-.026-2.9-2.332-4.2-3.135-1.765-6.214-3.754-9.1-5.639-1.194-.78-2.307-1.625-3.6-2.6C78.7,248.552,78.194,248.17,77.659,247.771Z" transform="translate(-17.598 -66.263)" fill="#707070"/><path d="M60.689,221.734a94.524,94.524,0,0,0-1,9.417c-.048,4.489-2.238,7.548-5.216,10.677a142.622,142.622,0,0,0-11.051,13.681c-1.952,2.639-1.849,5.8-1.461,9.064a83.206,83.206,0,0,1,.325,16.172c-1.056-1.036-2.157-2.031-3.162-3.113-5.809-6.254-9.81-13.584-13.421-21.289a238.716,238.716,0,0,1-11.6-29.113c-1.667-5.259-2.5-10.785-3.83-16.737a11.875,11.875,0,0,1,2.764.776,34.181,34.181,0,0,0,13.056,4.978c5.194.987,10.332,2.31,15.553,3.111,5.488.842,11.047,1.233,16.571,1.843.689.076,1.363.289,2.478.534" transform="translate(-4.369 -59.962)" fill="#a9ebe2"/><path d="M42.282,281.244a.5.5,0,0,1-.35-.143c-.333-.326-.677-.655-1.01-.974-.724-.691-1.472-1.406-2.168-2.156-6.174-6.648-10.293-14.557-13.508-21.417A238.714,238.714,0,0,1,13.62,227.38a106.783,106.783,0,0,1-2.683-11.242c-.362-1.8-.736-3.652-1.158-5.537a.5.5,0,0,1,.618-.592c.522.141.948.232,1.324.312a4.367,4.367,0,0,1,1.59.533,33.461,33.461,0,0,0,12.869,4.9c2.043.388,4.108.835,6.106,1.267,3.083.667,6.271,1.356,9.43,1.841,3.682.565,7.466.933,11.124,1.289,1.779.173,3.619.352,5.426.551a11.91,11.91,0,0,1,1.51.3c.3.072.634.154,1.02.239a.5.5,0,0,1,.39.545c-.115,1.015-.254,2.024-.389,3a50.428,50.428,0,0,0-.612,6.366c-.048,4.524-2.175,7.676-5.354,11.017A140.1,140.1,0,0,0,43.82,255.806a8.132,8.132,0,0,0-1.513,4.056,20.885,20.885,0,0,0,.146,4.651,83.889,83.889,0,0,1,.327,16.268.5.5,0,0,1-.5.463ZM10.929,211.171c.354,1.624.676,3.219.988,4.769a106.051,106.051,0,0,0,2.656,11.137A237.731,237.731,0,0,0,26.151,256.13c5.67,12.1,9.923,17.487,13.335,21.161.676.728,1.413,1.432,2.126,2.114l.243.233a82.427,82.427,0,0,0-.4-15.006c-.363-3.05-.571-6.545,1.556-9.42a140.9,140.9,0,0,1,11.09-13.728,21.452,21.452,0,0,0,3.629-4.721,11.822,11.822,0,0,0,1.449-5.616,51.162,51.162,0,0,1,.621-6.492c.114-.827.232-1.677.334-2.531-.217-.051-.416-.1-.6-.144a11.243,11.243,0,0,0-1.384-.281c-1.8-.2-3.637-.377-5.413-.55-3.672-.357-7.469-.726-11.179-1.3-3.188-.49-6.391-1.182-9.489-1.852-1.991-.431-4.05-.876-6.081-1.262a34.416,34.416,0,0,1-13.242-5.055,3.761,3.761,0,0,0-1.238-.384C11.339,211.262,11.144,211.22,10.929,211.171Z" transform="translate(-4.369 -59.962)" fill="#707070"/><path d="M225.776,195.7c3.234,0,6.056-.386,8.734.072,7.974,1.366,14.4,5.242,18.257,12.631a11.753,11.753,0,0,1,1.313,4.12c.566,5.526,1.145,11.063,1.368,16.609A20.9,20.9,0,0,1,248.4,245.8a62.3,62.3,0,0,1-21,12.378c-7.81,2.853-15.522,5.975-23.272,8.993-3.672,1.431-7.364,2.817-10.977,4.386a12.511,12.511,0,0,0-3.174,2.331c-8.18,7.361-17.75,12.286-27.735,16.762-18.547,8.313-37.913,10.453-57.889,8.938a196.021,196.021,0,0,1-46.137-9.656c-3.9-1.276-7.812-2.561-11.607-4.113-6.807-2.783-12.48-7.294-17.818-12.254a73.5,73.5,0,0,1-11.248-13.138,77.511,77.511,0,0,1-4.945-8.983c-3.841-7.88-6.228-16.3-8.811-24.634A74.648,74.648,0,0,1,.015,206.14c-.1-5.148.268-10.3.427-15.457A12.222,12.222,0,0,0,.5,187.944c-.918-4.5,2.722-9.849,7.22-10.982,5.776-1.456,11.511-3.149,17.358-4.226A135.961,135.961,0,0,1,49.257,170.8c5.246-.02,10.484-1.046,15.733-1.532,7.371-.683,14.746-1.358,22.129-1.89q8.107-.584,16.241-.776c9.319-.206,18.642-.291,27.964-.358,11.517-.083,23.037.01,34.552-.171a116.44,116.44,0,0,1,36.845,4.943,124.144,124.144,0,0,1,12.273,4.438,16.146,16.146,0,0,1,9.049,9.9c1.293,3.484,1.168,6.949,1.734,10.345m-158.2,24.388c1.023.252,1.775.48,2.544.619a43.963,43.963,0,0,1,14.734,5.649c3.44,2.048,5.249,4.888,5.056,9.16a63.1,63.1,0,0,0,.615,11.858c1.1,7.594,2.494,15.149,3.919,22.691.884,4.68-1.446,8.677-6.061,9.414-2.974.476-6.023.471-9.033.743a23.829,23.829,0,0,0-2.747.566c0,.266,0,.533.006.8,1.99.506,3.978,1.019,5.97,1.514a131.07,131.07,0,0,0,24.635,4,152.255,152.255,0,0,0,28.933-.716,94.339,94.339,0,0,0,15.205-2.9,91.056,91.056,0,0,0,20.944-9.442c6.374-3.948,12.055-8.777,15.968-15.2a166.594,166.594,0,0,0,7.908-15.6c3.456-7.312,6.883-14.644,10.053-22.082,2.064-4.844,3.753-9.857,5.4-14.865a47.061,47.061,0,0,0,1.175-6.653c-4.521,1.3-8.563,2.437-12.593,3.619-7.831,2.3-15.933,2.429-23.973,2.866-7.374.4-14.773.329-22.157.592-8.329.3-16.653.774-24.981,1.1-4.761.186-9.528.207-14.29.342-6.083.171-12.165.492-18.249.549-10.02.093-20.041.026-30.446.026.512,3.952.966,7.464,1.469,11.352m2.674-25.2a23.273,23.273,0,0,1,4.708-.282c7.65,1.1,15.294-.151,22.936.083,1.3.04,2.607-.168,3.908-.132,5,.138,10,.483,15,.466,8.077-.027,16.154-.293,24.232-.431,3.96-.067,7.922-.063,11.883-.1,5.143-.055,10.289-.034,15.428-.206,7.283-.244,14.582-.409,21.836-1.044a100.355,100.355,0,0,0,13.662-2.492,12.33,12.33,0,0,0,7.234-4.493c-2.389-.929-4.444-1.784-6.538-2.533a77.012,77.012,0,0,0-21.191-4.754q-10.669-.655-21.369-.8c-12.188-.165-24.379-.191-36.567-.172-6.886.01-13.771.245-20.657.347-4.364.064-8.746-.174-13.089.15-11.485.858-22.957,1.9-34.426,2.957-10.427.961-20.852,1.965-31.26,3.106-3.132.343-6.207,1.21-10.085,1.994,2.024,1.185,3.188,2.265,4.534,2.591,7.191,1.737,14.289,3.964,21.782,4.2,3.434.11,6.858.52,10.287.785,2.595.2,5.031.094,6.469-2.653a8.776,8.776,0,0,1,1.826-2.1c3.692-3.517,7.694-2.423,8.91,2.43.219.874.318,1.778.544,3.082m-16.2,14.061c-1.028-.226-1.651-.422-2.287-.493-5.1-.563-10.229-.924-15.294-1.7-4.818-.74-9.56-1.961-14.354-2.872a31.546,31.546,0,0,1-12.05-4.594,10.923,10.923,0,0,0-2.551-.716c1.229,5.494,2,10.593,3.535,15.447A220.416,220.416,0,0,0,21.755,240.89c3.333,7.111,7.026,13.876,12.388,19.649.928,1,1.943,1.917,2.918,2.872a76.787,76.787,0,0,0-.3-14.925c-.358-3.011-.453-5.93,1.349-8.365a131.64,131.64,0,0,1,10.2-12.627c2.749-2.888,4.771-5.712,4.814-9.854a87.24,87.24,0,0,1,.926-8.691m25.625,58.306a13.875,13.875,0,0,0,.078-2.081c-.738-4.963-1.651-9.9-2.215-14.887a79.157,79.157,0,0,1-.422-10.637c.064-2.878-.065-3.226-2.587-4.646-3.1-1.745-6.093-3.677-9.071-5.622-1.749-1.142-3.378-2.468-5.521-4.051-2.843,4.258-5.306,8.472-8.292,12.275a15.57,15.57,0,0,0-3.39,12.854c.909,5.688,1.333,11.454,2.019,17.653l29.4-.858m125.069-15.39c4.034-1.25,7.177-2.108,10.239-3.194,8.236-2.92,16.435-5.961,23.47-11.351a9.966,9.966,0,0,0,2.44-3c3.041-5.369,1.976-10.949.825-16.574-.5-2.446-1.763-3.8-4.153-4.07-4.6-.514-9.218-.947-13.828-1.4A2.442,2.442,0,0,0,221,214.1c-.912,2.609-1.6,5.308-2.688,7.841-2.44,5.7-5.052,11.326-7.616,16.972-1.85,4.072-3.737,8.127-5.958,12.953" transform="translate(0 -44.538)" fill="#81cccf"/><path d="M115.922,300.788c-3.753,0-7.664-.152-11.627-.453-14.6-1.107-29.75-4.277-46.313-9.691-3.638-1.19-7.761-2.538-11.658-4.132a47.214,47.214,0,0,1-9.612-5.394,84.357,84.357,0,0,1-8.433-7,74.523,74.523,0,0,1-11.362-13.272,78.794,78.794,0,0,1-4.994-9.069c-3.406-6.987-5.706-14.487-7.93-21.741-.3-.984-.614-2-.923-3a74.7,74.7,0,0,1-3.8-20.877c-.066-3.584.09-7.22.242-10.737.067-1.56.137-3.173.185-4.757.01-.316.039-.63.068-.933a5.8,5.8,0,0,0,.009-1.633,9.9,9.9,0,0,1,1.69-7.318,10.694,10.694,0,0,1,6.082-4.541c1.6-.4,3.229-.833,4.8-1.249,4.107-1.084,8.353-2.2,12.6-2.988a135.78,135.78,0,0,1,24.308-1.945,82.88,82.88,0,0,0,10.134-.884c1.811-.233,3.683-.474,5.533-.645,7.869-.729,14.967-1.374,22.144-1.891,5.569-.4,11.046-.663,16.278-.778,9.7-.214,19.524-.3,27.975-.358,4.515-.033,9.1-.038,13.543-.044,6.885-.009,14-.017,21-.127.771-.012,1.548-.018,2.31-.018a128.126,128.126,0,0,1,17.562,1.169,107.525,107.525,0,0,1,17.208,3.826,122.452,122.452,0,0,1,12.347,4.465,16.409,16.409,0,0,1,5.769,4.051,18.863,18.863,0,0,1,3.686,6.272,27.722,27.722,0,0,1,1.367,7.149c.092.929.179,1.817.306,2.7.806-.012,1.59-.043,2.353-.074.926-.037,1.8-.073,2.671-.073a18.7,18.7,0,0,1,3.194.235A28.082,28.082,0,0,1,245.6,199.2a23.63,23.63,0,0,1,7.832,8.851,12.558,12.558,0,0,1,1.394,4.391l.049.481c.543,5.293,1.1,10.765,1.322,16.174a21.62,21.62,0,0,1-7.289,17.255,57.742,57.742,0,0,1-9.991,7.3,70.945,70.945,0,0,1-11.262,5.225c-5.621,2.053-11.288,4.284-16.769,6.442-2.125.837-4.323,1.7-6.488,2.545q-1.078.42-2.158.837c-2.9,1.122-5.9,2.283-8.793,3.538a11.465,11.465,0,0,0-2.866,2.106l-.1.094c-8.5,7.652-18.449,12.639-27.93,16.889a105.861,105.861,0,0,1-22.965,7.258A123.745,123.745,0,0,1,115.922,300.788Zm52.252-133.981c-.754,0-1.524.006-2.287.018-7.009.11-14.134.119-21.024.127-4.436.006-9.024.011-13.534.044-8.446.061-18.267.144-27.953.358-5.207.115-10.659.375-16.2.775-7.162.516-14.252,1.161-22.113,1.889-1.823.169-3.682.408-5.48.639a84,84,0,0,1-10.32.9,134.341,134.341,0,0,0-24.042,1.92c-4.194.773-8.412,1.886-12.491,2.963-1.578.416-3.21.847-4.819,1.253a9.184,9.184,0,0,0-5.2,3.917,8.4,8.4,0,0,0-1.469,6.188,6.985,6.985,0,0,1,.014,2.074c-.028.293-.054.57-.062.839-.049,1.593-.119,3.21-.186,4.775-.15,3.494-.306,7.107-.24,10.645A73.269,73.269,0,0,0,4.5,226.588c.31,1,.622,2.019.924,3,2.207,7.2,4.489,14.641,7.844,21.523a77.49,77.49,0,0,0,4.9,8.9,73.023,73.023,0,0,0,11.134,13,82.925,82.925,0,0,0,8.284,6.882,45.737,45.737,0,0,0,9.308,5.227c3.847,1.574,7.942,2.913,11.556,4.095,16.447,5.376,31.481,8.523,45.961,9.621,3.925.3,7.8.448,11.513.448a122.244,122.244,0,0,0,23.373-2.169,104.358,104.358,0,0,0,22.639-7.154c9.37-4.2,19.191-9.122,27.54-16.635l.1-.093a12.548,12.548,0,0,1,3.274-2.368c2.92-1.267,5.934-2.433,8.849-3.561q1.078-.417,2.154-.835c2.163-.842,4.359-1.707,6.483-2.543,5.489-2.161,11.165-4.4,16.8-6.455a69.442,69.442,0,0,0,11.024-5.113,56.241,56.241,0,0,0,9.731-7.114,20.162,20.162,0,0,0,6.8-16.088c-.216-5.362-.775-10.811-1.315-16.081l-.049-.481a11.053,11.053,0,0,0-1.232-3.849,22.147,22.147,0,0,0-7.337-8.3,26.6,26.6,0,0,0-10.382-3.941,17.264,17.264,0,0,0-2.941-.214c-.84,0-1.7.035-2.61.071-.979.039-1.992.08-3.056.08a.75.75,0,0,1-.74-.627c-.191-1.145-.306-2.308-.417-3.432a26.56,26.56,0,0,0-1.28-6.775,15.387,15.387,0,0,0-8.644-9.468,121.044,121.044,0,0,0-12.2-4.41,106.019,106.019,0,0,0-16.967-3.772A126.624,126.624,0,0,0,168.174,166.807ZM119.1,288.2h0c-3.588,0-7.488-.115-11.924-.353A130.688,130.688,0,0,1,82.4,283.827c-1.4-.348-2.826-.712-4.2-1.063l-1.772-.452a.75.75,0,0,1-.565-.721q0-.2,0-.41t0-.39a.75.75,0,0,1,.594-.74c.276-.059.549-.126.837-.2a13.517,13.517,0,0,1,2-.383c1.114-.1,2.244-.165,3.337-.226a56.087,56.087,0,0,0,5.645-.51,6.441,6.441,0,0,0,4.392-2.611,7.717,7.717,0,0,0,1.05-5.924c-1.361-7.2-2.785-14.886-3.925-22.723a63.673,63.673,0,0,1-.622-12,8.989,8.989,0,0,0-1.067-5.008A9.715,9.715,0,0,0,84.469,227a42.872,42.872,0,0,0-14.483-5.555c-.539-.1-1.054-.232-1.65-.388-.3-.077-.6-.157-.94-.241a.75.75,0,0,1-.565-.632c-.5-3.887-.957-7.4-1.469-11.351a.75.75,0,0,1,.744-.846c3.1,0,6.21.006,9.215.012,2.935.006,5.97.012,8.929.012,4.773,0,8.68-.016,12.295-.049,3.873-.036,7.816-.182,11.628-.323,2.165-.08,4.4-.163,6.606-.225,1.947-.055,3.925-.092,5.838-.127,2.769-.051,5.633-.1,8.444-.214,3.792-.149,7.649-.332,11.378-.509,4.458-.212,9.068-.43,13.606-.592,3.071-.11,6.192-.162,9.211-.213,4.244-.071,8.632-.145,12.932-.379,1-.054,2.022-.1,3.008-.154,6.894-.341,14.024-.695,20.794-2.683,2.725-.8,5.449-1.578,8.333-2.4q2.063-.589,4.263-1.22a.75.75,0,0,1,.947.845c-.126.749-.224,1.493-.318,2.212a24.787,24.787,0,0,1-.883,4.55c-1.593,4.855-3.323,10.006-5.419,14.925-3.257,7.642-6.758,15.113-10.065,22.109-.371.784-.746,1.584-1.108,2.358A138.588,138.588,0,0,1,188.9,259.23c-3.557,5.841-8.861,10.894-16.213,15.448a92.011,92.011,0,0,1-21.116,9.521,90.969,90.969,0,0,1-14.673,2.837l-.653.09A125.362,125.362,0,0,1,119.1,288.2Zm-40.979-7,.447.114c1.374.351,2.795.714,4.193,1.061a129.24,129.24,0,0,0,24.494,3.979c4.409.236,8.283.351,11.843.351h0a123.881,123.881,0,0,0,16.945-1.061l.654-.09a89.86,89.86,0,0,0,14.431-2.784A90.514,90.514,0,0,0,171.9,273.4c7.148-4.427,12.29-9.318,15.722-14.953a137.453,137.453,0,0,0,6.76-13.169c.363-.775.739-1.576,1.111-2.362,3.3-6.983,6.8-14.438,10.041-22.056,2.073-4.865,3.791-9.981,5.374-14.8a23.7,23.7,0,0,0,.821-4.278c.047-.36.1-.726.147-1.1l-3.14.9c-2.882.823-5.6,1.6-8.323,2.4-6.941,2.038-14.161,2.4-21.143,2.741-.984.049-2,.1-3,.153-4.328.235-8.731.309-12.988.381-3.012.051-6.126.1-9.183.212-4.529.162-9.134.38-13.588.591-3.732.177-7.592.36-11.391.509-2.826.11-5.7.164-8.475.215-1.91.035-3.884.072-5.824.127-2.2.062-4.432.145-6.593.225-3.823.142-7.776.288-11.67.324-3.62.034-7.531.049-12.309.049-2.961,0-6-.006-8.932-.012-2.729-.005-5.542-.011-8.359-.012.446,3.443.853,6.588,1.294,10l.462.12c.566.148,1.055.276,1.537.363a44.959,44.959,0,0,1,14.984,5.742,11.165,11.165,0,0,1,4.158,4.018,10.438,10.438,0,0,1,1.264,5.82,62.168,62.168,0,0,0,.608,11.716c1.135,7.807,2.556,15.475,3.914,22.66a9.2,9.2,0,0,1-1.3,7.065,7.906,7.906,0,0,1-5.382,3.229,57.2,57.2,0,0,1-5.8.527c-1.081.061-2.2.124-3.286.223A9.44,9.44,0,0,0,78.119,281.2ZM50.273,268.864a.75.75,0,0,1-.745-.667c-.212-1.914-.4-3.8-.582-5.624-.415-4.155-.806-8.079-1.432-11.993a16.315,16.315,0,0,1,3.54-13.435c2.042-2.6,3.819-5.367,5.7-8.3.825-1.284,1.677-2.612,2.559-3.932a.75.75,0,0,1,1.069-.187c.705.521,1.347,1.008,1.968,1.479,1.268.962,2.363,1.793,3.518,2.547,2.87,1.875,5.931,3.852,9.028,5.6a6.052,6.052,0,0,1,2.554,2.071,6.445,6.445,0,0,1,.415,3.245,77.767,77.767,0,0,0,.418,10.536c.373,3.3.91,6.638,1.43,9.87.263,1.634.534,3.324.782,4.991a5.652,5.652,0,0,1-.01,1.293c-.021.265-.045.565-.061.931a.75.75,0,0,1-.727.717l-11.885.347-17.516.511Zm9.85-42.458c-.721,1.092-1.424,2.187-2.108,3.252-1.9,2.96-3.7,5.755-5.782,8.412a15.941,15.941,0,0,0-3,5.782A15.384,15.384,0,0,0,49,250.343c.632,3.958,1.026,7.9,1.443,12.081.16,1.6.324,3.25.505,4.92l16.824-.491,11.2-.327c.008-.1.015-.2.022-.286a4.582,4.582,0,0,0,.022-.955c-.246-1.658-.517-3.343-.779-4.973-.522-3.249-1.062-6.609-1.439-9.939a79.238,79.238,0,0,1-.427-10.738c.058-2.6.06-2.7-2.2-3.976-3.138-1.767-6.222-3.759-9.113-5.648-1.2-.783-2.313-1.629-3.6-2.608C61.018,227.08,60.582,226.749,60.124,226.406ZM37.061,264.161a.75.75,0,0,1-.525-.214c-.3-.3-.617-.6-.921-.887-.674-.644-1.37-1.309-2.022-2.011-5.725-6.163-9.54-13.488-12.517-19.841a220.7,220.7,0,0,1-10.743-26.961,98.808,98.808,0,0,1-2.484-10.406c-.334-1.656-.679-3.367-1.067-5.1a.75.75,0,0,1,.927-.888c.473.128.861.21,1.2.283a4.232,4.232,0,0,1,1.572.536,30.607,30.607,0,0,0,11.769,4.479c1.893.359,3.8.773,5.652,1.173,2.838.614,5.773,1.249,8.675,1.694,3.385.519,6.866.858,10.233,1.185,1.649.16,3.354.326,5.03.511a11.288,11.288,0,0,1,1.441.289c.27.066.576.14.925.217a.75.75,0,0,1,.584.817c-.106.94-.235,1.874-.36,2.776a46.324,46.324,0,0,0-.562,5.839c-.045,4.27-2.04,7.231-5.021,10.363a129.026,129.026,0,0,0-10.139,12.556c-1.534,2.073-1.6,4.533-1.207,7.831a77.706,77.706,0,0,1,.3,15.069.75.75,0,0,1-.748.695ZM8.5,199.579c.29,1.349.557,2.675.818,3.967a97.7,97.7,0,0,0,2.444,10.249,219.223,219.223,0,0,0,10.672,26.777c2.928,6.248,6.674,13.445,12.258,19.456.547.589,1.14,1.164,1.724,1.722a75.533,75.533,0,0,0-.4-13.175c-.341-2.87-.535-6.162,1.491-8.9a130.206,130.206,0,0,1,10.259-12.7,20.267,20.267,0,0,0,3.3-4.3,10.628,10.628,0,0,0,1.3-5.049,47.436,47.436,0,0,1,.576-6.028c.094-.679.19-1.376.277-2.076l-.294-.071a10.287,10.287,0,0,0-1.251-.255c-1.666-.184-3.366-.349-5.01-.509-3.387-.329-6.89-.67-10.315-1.2-2.948-.453-5.905-1.092-8.765-1.711-1.839-.4-3.741-.809-5.615-1.165a32.039,32.039,0,0,1-12.33-4.709A3.4,3.4,0,0,0,8.6,199.6Zm196.242,53.037a.75.75,0,0,1-.681-1.064c.72-1.564,1.4-3.047,2.064-4.476,1.359-2.943,2.643-5.724,3.892-8.474.552-1.215,1.115-2.45,1.66-3.644,1.985-4.35,4.037-8.848,5.949-13.312.681-1.591,1.218-3.295,1.738-4.943.3-.936.6-1.9.931-2.851a3.171,3.171,0,0,1,3.1-2.346c.134,0,.273.007.412.021l3.155.31c3.5.343,7.123.7,10.682,1.095,2.652.3,4.224,1.822,4.8,4.665a44.756,44.756,0,0,1,1.174,8.525,16.555,16.555,0,0,1-2.082,8.569,10.564,10.564,0,0,1-2.636,3.225,58.071,58.071,0,0,1-11.43,6.689c-3.994,1.815-8.071,3.294-12.245,4.773-2.066.733-4.136,1.353-6.532,2.071-1.182.354-2.4.72-3.736,1.133A.749.749,0,0,1,204.743,252.616ZM223.4,213.007a1.664,1.664,0,0,0-1.685,1.341c-.323.924-.625,1.881-.917,2.807-.531,1.683-1.08,3.423-1.789,5.082-1.918,4.481-3.975,8.987-5.963,13.345-.545,1.193-1.108,2.428-1.659,3.642-1.252,2.755-2.536,5.537-3.9,8.482l-1.363,2.953c.739-.224,1.449-.437,2.145-.646,2.377-.712,4.43-1.327,6.461-2.048,4.142-1.468,8.186-2.935,12.126-4.725A56.6,56.6,0,0,0,238,236.725a9.106,9.106,0,0,0,2.243-2.773,14.9,14.9,0,0,0,1.887-7.813,43.59,43.59,0,0,0-1.144-8.241c-.452-2.212-1.5-3.251-3.5-3.475-3.549-.4-7.165-.75-10.661-1.092l-3.157-.31C223.572,213.011,223.483,213.007,223.4,213.007ZM82.181,195.818a50.477,50.477,0,0,1-7.333-.47,5.908,5.908,0,0,0-.852-.057,17.439,17.439,0,0,0-2.09.176c-.519.064-1.055.13-1.606.168a.75.75,0,0,1-.791-.62c-.078-.452-.143-.862-.2-1.224-.11-.7-.2-1.262-.333-1.8-.625-2.494-2.026-3.924-3.845-3.924a5.763,5.763,0,0,0-3.821,1.855l-.18.171a7.36,7.36,0,0,0-1.5,1.732,5.426,5.426,0,0,1-2.529,2.525,7.227,7.227,0,0,1-3.15.6c-.438,0-.918-.021-1.512-.067-1.124-.087-2.264-.191-3.366-.291-2.259-.206-4.6-.419-6.888-.492-6.1-.2-11.993-1.7-17.694-3.161-1.389-.355-2.826-.723-4.24-1.064a9.417,9.417,0,0,1-2.93-1.524c-.526-.35-1.122-.747-1.807-1.148a.75.75,0,0,1,.23-1.382c1.269-.257,2.447-.521,3.586-.777a60.263,60.263,0,0,1,6.566-1.228c11.435-1.253,22.719-2.319,31.273-3.107,11.665-1.075,23.077-2.11,34.439-2.958,1.639-.122,3.393-.177,5.685-.177.961,0,1.937.009,2.88.018s1.913.018,2.867.018c.617,0,1.173,0,1.7-.012,2.56-.038,5.165-.1,7.683-.15,4.254-.094,8.653-.19,12.984-.2,2.317,0,4.456-.005,6.539-.005,11.572,0,21.118.056,30.04.177,7.088.1,14.29.366,21.4.8a76.822,76.822,0,0,1,21.4,4.8c1.424.509,2.831,1.068,4.321,1.659.718.285,1.461.58,2.236.881a.75.75,0,0,1,.316,1.165,12.962,12.962,0,0,1-3.6,3.18,14.015,14.015,0,0,1-4.052,1.579l-.012,0a101.207,101.207,0,0,1-13.753,2.506c-6.22.545-12.566.747-18.7.944q-1.587.051-3.174.1c-3.7.124-7.453.148-11.086.172-1.429.009-2.907.019-4.359.034-1.552.016-3.129.026-4.655.035-2.368.014-4.817.029-7.224.07-2.825.048-5.7.113-8.476.176-5.166.117-10.508.238-15.766.255h-.358c-3.08,0-6.2-.133-9.225-.262-1.785-.076-3.631-.155-5.443-.2-.1,0-.2,0-.3,0-.516,0-1.031.033-1.576.069s-1.108.072-1.672.072c-.124,0-.247,0-.364-.005-.647-.02-1.306-.029-2.012-.029-2.262,0-4.57.1-6.8.2C86.8,195.714,84.478,195.818,82.181,195.818ZM74,193.792a7.39,7.39,0,0,1,1.066.072,49.025,49.025,0,0,0,7.118.454c2.263,0,4.573-.1,6.806-.2,2.249-.1,4.574-.2,6.869-.2.722,0,1.4.01,2.058.03.1,0,.209,0,.318,0,.516,0,1.03-.033,1.575-.069s1.108-.072,1.673-.072c.116,0,.23,0,.339,0,1.824.05,3.675.129,5.466.206,3.005.128,6.113.261,9.161.261h.353c5.244-.018,10.578-.138,15.737-.255,2.78-.063,5.655-.128,8.484-.176,2.415-.041,4.868-.056,7.24-.07,1.524-.009,3.1-.018,4.648-.035,1.455-.016,2.935-.025,4.365-.034,3.623-.023,7.369-.048,11.046-.171q1.588-.053,3.176-.1c6.116-.2,12.44-.4,18.619-.939a100.079,100.079,0,0,0,13.547-2.473l.012,0a11.566,11.566,0,0,0,6.146-3.449l-1.262-.5c-1.477-.586-2.873-1.14-4.272-1.641a75.384,75.384,0,0,0-20.985-4.711c-7.091-.436-14.269-.7-21.333-.8-8.915-.121-18.454-.177-30.019-.177-2.082,0-4.22,0-6.537.005-4.315.006-8.706.1-12.953.2-2.521.055-5.128.113-7.694.151-.535.008-1.1.012-1.723.012-.961,0-1.937-.009-2.882-.018s-1.912-.018-2.866-.018c-2.254,0-3.973.053-5.574.173-11.35.848-22.754,1.882-34.413,2.956-8.547.788-19.823,1.852-31.247,3.1a58.292,58.292,0,0,0-6.4,1.2c-.587.132-1.184.266-1.8.4l.293.2a8.472,8.472,0,0,0,2.451,1.314c1.424.344,2.865.713,4.259,1.069,5.623,1.438,11.438,2.925,17.371,3.115,2.336.075,4.694.29,6.975.5,1.1.1,2.231.2,3.345.289.555.043,1,.063,1.4.063,2.229,0,3.489-.671,4.35-2.316A8.565,8.565,0,0,1,60.1,189l.177-.168a7.2,7.2,0,0,1,4.855-2.269c2.525,0,4.506,1.892,5.3,5.06.152.608.249,1.224.36,1.936.026.169.053.341.082.519.286-.03.57-.065.849-.1A18.814,18.814,0,0,1,74,193.792Z" transform="translate(0 -44.538)"/><path d="M137.186,90.6c.39-5.576,1.614-9.57,4.39-12.96,4.112-5.022,8.378-9.92,12.382-15.025,2.609-3.326,4.877-6.921,7.286-10.4,3.566-5.157,2.365-10.058-.965-14.722-2.376-3.327-5.068-6.431-7.419-9.775a24.539,24.539,0,0,1-3.872-20.066c.634-2.99,2.517-4.929,4.686-6.664,2.43-1.943,5-.9,5.594,2.161a27.377,27.377,0,0,1,.321,3.565,26.03,26.03,0,0,0,5.129,14.748,58.725,58.725,0,0,1,5.129,7.035c4.092,7.4,7.536,15.074,3.761,23.658a56.128,56.128,0,0,1-5.529,9.15c-4.387,6.321-9.811,11.708-15.478,16.888a36.766,36.766,0,0,0-5.673,6.634,10.587,10.587,0,0,0-1.514,8.009,44.071,44.071,0,0,0,5.645,13.963c.264.457.772.808.923,1.285.181.575.363,1.546.075,1.787a3.2,3.2,0,0,1-2.086.567,3.579,3.579,0,0,1-1.782-.808,26.856,26.856,0,0,1-11-19.029" transform="translate(-36.795 0)" fill="#a9ebe2"/><path d="M150.163,111.191c-.078,0-.156,0-.233-.006a4.161,4.161,0,0,1-2.193-.958,29.3,29.3,0,0,1-7.971-8.977,26.619,26.619,0,0,1-3.327-10.578.751.751,0,0,1,0-.125c.419-5.991,1.782-9.993,4.558-13.383,1.531-1.869,3.107-3.751,4.632-5.57,2.572-3.07,5.232-6.244,7.74-9.442,1.83-2.333,3.526-4.851,5.166-7.287.682-1.012,1.386-2.059,2.093-3.08a10.076,10.076,0,0,0,1.975-7.037,14.629,14.629,0,0,0-2.933-6.823c-1.134-1.589-2.367-3.158-3.559-4.676-1.294-1.649-2.633-3.353-3.863-5.1A25.16,25.16,0,0,1,148,18.271a27.446,27.446,0,0,1,.25-10.778,10.08,10.08,0,0,1,1.905-4.1A17.173,17.173,0,0,1,153.206.4a4.761,4.761,0,0,1,2.942-1.148,3.5,3.5,0,0,1,2.5,1.036A5.133,5.133,0,0,1,160,3a21.428,21.428,0,0,1,.3,2.975c.012.229.024.459.038.687A25.228,25.228,0,0,0,165.314,21c.435.567.892,1.14,1.335,1.695A39.938,39.938,0,0,1,170.5,28.13a45.755,45.755,0,0,1,4.905,11.579A19.654,19.654,0,0,1,174.3,52.453a56.637,56.637,0,0,1-5.582,9.25l-.018.026c-4.625,6.664-10.475,12.34-15.588,17.014a36.251,36.251,0,0,0-5.556,6.5,9.869,9.869,0,0,0-1.4,7.455,44.007,44.007,0,0,0,5.557,13.725,2.876,2.876,0,0,0,.327.413,2.843,2.843,0,0,1,.661,1.022,6.062,6.062,0,0,1,.245,1.175,1.639,1.639,0,0,1-.4,1.413A3.792,3.792,0,0,1,150.163,111.191Zm-12.224-20.6a25.126,25.126,0,0,0,3.134,9.924,27.816,27.816,0,0,0,7.569,8.517,2.863,2.863,0,0,0,1.371.658c.049,0,.1,0,.15,0a2.613,2.613,0,0,0,1.3-.313,3.776,3.776,0,0,0-.192-1.072,1.842,1.842,0,0,0-.353-.477,4.062,4.062,0,0,1-.5-.657,45.4,45.4,0,0,1-5.733-14.2,11.339,11.339,0,0,1,1.628-8.564,37.245,37.245,0,0,1,5.79-6.771c5.051-4.618,10.828-10.22,15.368-16.762l.018-.026a55.521,55.521,0,0,0,5.441-9,18.2,18.2,0,0,0,1.026-11.8,44.445,44.445,0,0,0-4.756-11.189,38.824,38.824,0,0,0-3.716-5.225c-.446-.56-.908-1.139-1.351-1.716a26.677,26.677,0,0,1-5.283-15.16c-.014-.233-.026-.466-.038-.7a20,20,0,0,0-.27-2.767c-.308-1.589-1.2-2.538-2.383-2.538a3.3,3.3,0,0,0-2.006.82c-1.938,1.549-3.815,3.376-4.421,6.234a25.957,25.957,0,0,0-.243,10.191,23.672,23.672,0,0,0,3.995,9.288c1.208,1.717,2.534,3.406,3.816,5.039,1.2,1.531,2.446,3.115,3.6,4.731,4.016,5.625,4.333,10.722.971,15.585-.7,1.014-1.4,2.057-2.082,3.065-1.655,2.458-3.367,5-5.23,7.375-2.524,3.218-5.191,6.4-7.771,9.48-1.522,1.816-3.1,3.695-4.621,5.557C139.6,81.233,138.339,84.966,137.939,90.588Z" transform="translate(-36.795 0)"/><path d="M69.966,109.005c.588-5.466,1.821-10.268,5.563-14.083C79.87,90.5,84.112,85.969,88.6,81.7a12.1,12.1,0,0,0,3.444-6.548,62.106,62.106,0,0,1,1.569-6.159c1.022-3.059,3.357-3.631,5.817-1.453a11.665,11.665,0,0,1,3.867,9.643c-.219,5.213-2.874,9.3-6.717,12.573-3.518,3-7.262,5.725-10.9,8.583-5.005,3.935-7.117,8.934-6.021,15.346.762,4.463,1.449,8.873,4.016,12.768a2.673,2.673,0,0,1,.107,2.462,2.635,2.635,0,0,1-2.429.623,14.281,14.281,0,0,1-4.323-2.691c-3.357-3.254-4.885-7.537-6.015-11.945-.521-2.029-.747-4.135-1.054-5.9" transform="translate(-18.766 -17.764)" fill="#a9ebe2"/><path d="M81.918,130.385a2.176,2.176,0,0,1-.854-.155,14.74,14.74,0,0,1-4.552-2.842,19,19,0,0,1-4-5.762,36.925,36.925,0,0,1-2.219-6.535,43.456,43.456,0,0,1-.8-4.3c-.088-.585-.172-1.137-.263-1.66a.75.75,0,0,1-.007-.209,33.481,33.481,0,0,1,1.639-7.834A18.063,18.063,0,0,1,74.994,94.4c1.233-1.257,2.479-2.544,3.684-3.788,3.04-3.14,6.184-6.387,9.409-9.452a11.247,11.247,0,0,0,3.228-6.168l.141-.634a55.833,55.833,0,0,1,1.449-5.6,5.543,5.543,0,0,1,1.438-2.382,3.3,3.3,0,0,1,2.25-.894,5.191,5.191,0,0,1,3.338,1.5,11.925,11.925,0,0,1,3.274,4.672,13.789,13.789,0,0,1,.845,5.564,16.247,16.247,0,0,1-2.1,7.35,21.556,21.556,0,0,1-4.885,5.762c-2.387,2.033-4.912,3.97-7.354,5.843-1.173.9-2.386,1.831-3.566,2.758-4.891,3.845-6.77,8.631-5.745,14.63l.074.432c.736,4.326,1.432,8.412,3.829,12.049a2.656,2.656,0,0,1-2.388,4.344Zm-11.2-21.4c.087.507.166,1.033.25,1.588a41.663,41.663,0,0,0,.773,4.148c1.057,4.12,2.492,8.376,5.811,11.593a13.3,13.3,0,0,0,4.1,2.54.726.726,0,0,0,.265.035,2.058,2.058,0,0,0,1.282-.436,2.135,2.135,0,0,0-.146-1.583c-2.571-3.9-3.326-8.334-4.055-12.623l-.073-.431a16.5,16.5,0,0,1,.766-9.007,17.175,17.175,0,0,1,5.531-7.055c1.187-.933,2.4-1.867,3.58-2.769,2.427-1.862,4.936-3.787,7.294-5.8a20.069,20.069,0,0,0,4.55-5.355,14.76,14.76,0,0,0,1.9-6.678,10.884,10.884,0,0,0-3.615-9.05,3.762,3.762,0,0,0-2.344-1.122c-1.317,0-1.984,1.41-2.265,2.251A54.709,54.709,0,0,0,92.92,74.68l-.141.636a12.8,12.8,0,0,1-3.659,6.928c-3.2,3.043-6.335,6.279-9.365,9.408-1.207,1.246-2.455,2.535-3.691,3.8A16.6,16.6,0,0,0,72.27,101.6,31.846,31.846,0,0,0,70.723,108.982Z" transform="translate(-18.766 -17.764)"/><path d="M205.227,102.775c-.419-7.292,3.046-12.879,7.387-18.076,3.324-3.98,6.675-7.908,7.593-13.248.246-1.428.378-2.879.686-4.292.76-3.477,1.51-6.961,2.428-10.4.458-1.718,1.417-3.307,3.522-3.228a3.959,3.959,0,0,1,3.734,3.128,36.871,36.871,0,0,1,1.641,8.528c.192,9.032-3.484,16.557-9.744,22.925a32.8,32.8,0,0,0-7.526,11.064,12.581,12.581,0,0,0-.64,3.487c-.421,5.147-.795,10.3-1.153,15.452-.083,1.192-.5,2.286-1.756,2.2a3.885,3.885,0,0,1-2.577-1.355,8.323,8.323,0,0,1-1.224-3.323c-.845-4.279-1.589-8.577-2.371-12.868" transform="translate(-55.035 -14.358)" fill="#a9ebe2"/><path d="M211.531,121.076c-.06,0-.121,0-.182-.006a4.6,4.6,0,0,1-3.128-1.655,9.028,9.028,0,0,1-1.359-3.627c-.618-3.128-1.191-6.316-1.745-9.4-.205-1.141-.417-2.321-.628-3.48a.75.75,0,0,1-.011-.091,20.99,20.99,0,0,1,1.976-10.179,37.9,37.9,0,0,1,5.584-8.42l.194-.233c3.276-3.921,6.37-7.624,7.235-12.661.095-.549.174-1.117.251-1.665.122-.872.248-1.773.441-2.659l.122-.56c.708-3.246,1.441-6.6,2.314-9.871.461-1.728,1.545-3.787,4.1-3.787.058,0,.117,0,.177,0a4.711,4.711,0,0,1,4.431,3.684q.091.341.183.683a34.155,34.155,0,0,1,1.483,8.023,29.87,29.87,0,0,1-2.516,12.78,36.208,36.208,0,0,1-7.443,10.687,31.635,31.635,0,0,0-7.362,10.809,11.891,11.891,0,0,0-.592,3.278c-.362,4.434-.718,9.2-1.153,15.442a4.125,4.125,0,0,1-.518,1.876A2.079,2.079,0,0,1,211.531,121.076Zm-5.558-18.389c.209,1.146.418,2.311.621,3.438.553,3.077,1.125,6.258,1.74,9.373a7.75,7.75,0,0,0,1.089,3.02,3.161,3.161,0,0,0,2.025,1.056l.083,0c.211,0,.77,0,.875-1.51.435-6.252.791-11.02,1.154-15.46a13.1,13.1,0,0,1,.689-3.7A33.071,33.071,0,0,1,221.94,87.59a34.719,34.719,0,0,0,7.14-10.241,28.381,28.381,0,0,0,2.389-12.143,33.049,33.049,0,0,0-1.432-7.665q-.092-.344-.184-.686a3.218,3.218,0,0,0-3.038-2.572l-.121,0c-1.735,0-2.342,1.526-2.648,2.674-.864,3.236-1.593,6.575-2.3,9.8l-.122.56c-.181.83-.3,1.7-.421,2.547-.078.56-.159,1.14-.258,1.712-.934,5.435-4.3,9.468-7.562,13.369l-.194.232a36.478,36.478,0,0,0-5.372,8.084A19.527,19.527,0,0,0,205.974,102.687Z" transform="translate(-55.035 -14.358)"/></g></g></svg>