<?xml version="1.0" encoding="utf-8"?>
<!-- Generator: Adobe Illustrator 27.9.0, SVG Export Plug-In . SVG Version: 6.00 Build 0)  -->
<svg version="1.1" id="Layer_1" xmlns="http://www.w3.org/2000/svg" xmlns:xlink="http://www.w3.org/1999/xlink" x="0px" y="0px"
	 viewBox="0 0 68.7 51.8" style="enable-background:new 0 0 68.7 51.8;" xml:space="preserve">
<style type="text/css">
	.st0{fill:#F495BB;stroke:#000000;stroke-width:3;}
	.st1{clip-path:url(#SVGID_00000077302810890307358090000004383625768118812551_);}
	.st2{fill-rule:evenodd;clip-rule:evenodd;fill:#0C0D0C;}
</style>
<g id="Group_265" transform="translate(-52.486 -655.49)">
	<g id="Group_264" transform="translate(0 -9)">
		<path id="Path_563" class="st0" d="M98.4,713.3c-26.5,2.9-33.2,0.1-41.2-9.1c-8-9.1,0.1-36.1,18.8-37.6s29.5,2.2,37.6,9.1
			S124.9,710.4,98.4,713.3z"/>
		<g id="Group_247" transform="translate(61.808 685.435)">
			<g>
				<defs>
					<rect id="SVGID_1_" x="-0.2" y="-0.1" width="50.4" height="12.6"/>
				</defs>
				<clipPath id="SVGID_00000103986237475715624280000017452892871758342064_">
					<use xlink:href="#SVGID_1_"  style="overflow:visible;"/>
				</clipPath>
				<g id="Group_263" style="clip-path:url(#SVGID_00000103986237475715624280000017452892871758342064_);">
					<path id="Path_584" class="st2" d="M48,8.2c0,1.6-0.5,2.3-1.6,2.3c-1.1,0-1.5-0.7-1.5-2.3V4.2c0-1.6,0.5-2.3,1.5-2.3
						c1.1,0,1.6,0.7,1.6,2.3V8.2z M46.5-0.1c-1-0.1-2,0.3-2.8,1c-0.7,0.7-0.9,1.6-0.9,3.5v3.8c0,1.9,0.2,2.7,0.9,3.5
						c1.6,1.3,3.9,1.3,5.5,0c0.7-0.7,0.9-1.5,0.9-3.5V4.3c0-1.9-0.2-2.7-0.9-3.5C48.5,0.2,47.5-0.2,46.5-0.1"/>
					<path id="Path_585" class="st2" d="M3.6-0.1c-1.2-0.1-2.3,0.4-3,1.3c-0.6,1-0.9,2.1-0.8,3.3V8c-0.1,1.1,0.1,2.3,0.8,3.3
						c0.7,0.9,1.9,1.4,3,1.3c1.1,0.1,2.1-0.3,2.9-1.1c0.7-0.8,1-1.9,0.8-2.9V8.1H5.1v0.3c0,1.5-0.5,2.2-1.6,2.2
						c-0.5,0-1.1-0.2-1.3-0.7C2,9.2,1.8,8.4,1.9,7.7v-3c0-2.2,0.4-2.9,1.6-2.9c1.1,0,1.6,0.7,1.6,2.2v0.3h2.2V3.9
						c0.1-1-0.2-2.1-0.8-2.9C5.7,0.2,4.6-0.2,3.6-0.1"/>
					<path id="Path_586" class="st2" d="M35.5,3.9c0-1.5,0.5-2.1,1.6-2.1c1.1,0,1.5,0.6,1.6,2v0l0,0l-3.1,1.7L35.5,3.9z M38.6,9.5
						c-0.1,0.7-0.8,1.1-1.5,1.1c-1,0-1.4-0.4-1.6-1.6c0-0.4-0.1-1.1-0.1-1.2v0l0,0l5.3-2.9V4.6c0-1.9-0.2-2.8-0.9-3.6
						c-0.7-0.8-1.8-1.2-2.8-1.1c-1,0-2,0.3-2.7,1c-0.8,0.7-1,1.5-1,3.5V8c-0.1,1.2,0.2,2.3,0.8,3.3c0.7,0.9,1.9,1.4,3,1.3
						c1.3,0.1,2.6-0.5,3.2-1.6c0.3-0.6,0.4-1.2,0.5-2.8h-2.2C38.7,8.5,38.7,9,38.6,9.5"/>
					<path id="Path_587" class="st2" d="M27.7-0.1L27.7-0.1c-1,0-1.9,0.3-2.7,0.9l0,0l0,0c-0.7-0.6-1.7-0.9-2.6-0.9h-0.1
						c-1.1-0.1-2.2,0.4-3,1.3c-0.6,1-0.9,2.1-0.8,3.3v7.8h2.2V4.6c0,0,0-0.8,0.1-1.2c0.2-1.1,0.6-1.6,1.5-1.6c0.9,0,1.4,0.5,1.5,1.6
						c0,0.4,0.1,1.1,0.1,1.2v7.7h2.2V4.6c0,0,0-0.8,0.1-1.2c0.2-1.1,0.6-1.6,1.5-1.6c0.9,0,1.4,0.5,1.5,1.6c0,0.4,0.1,1.1,0.1,1.2
						v7.7h2.1V4.4c0.1-1.2-0.2-2.3-0.8-3.3C30,0.3,28.9-0.2,27.7-0.1"/>
					<path id="Path_588" class="st2" d="M14.5,8.5c0,1.5-0.5,2.1-1.6,2.1c-1.1,0-1.5-0.6-1.6-2v0l0,0l3.1-1.7V8.5z M12.8-0.1
						c-1.3-0.1-2.6,0.5-3.2,1.6C9.2,2.1,9.2,2.7,9.1,4.3h2.1c0-0.5,0-0.9,0.1-1.4c0.1-0.7,0.8-1.1,1.5-1.1c1,0,1.4,0.4,1.6,1.6
						c0,0.4,0.1,1.1,0.1,1.2v0l0,0L9.2,7.5v0.3c0,1.9,0.2,2.8,0.9,3.6c0.7,0.8,1.8,1.2,2.8,1.1c1,0,2-0.3,2.7-1c0.8-0.7,1-1.5,1-3.5
						V4.4c0.1-1.2-0.2-2.3-0.8-3.3C15.1,0.2,14-0.2,12.8-0.1"/>
				</g>
			</g>
		</g>
	</g>
</g>
</svg>
