<svg xmlns="http://www.w3.org/2000/svg" xmlns:xlink="http://www.w3.org/1999/xlink" width="62.446" height="84.991" viewBox="0 0 62.446 84.991">
  <defs>
    <clipPath id="clip-path">
      <path id="Path_398" data-name="Path 398" d="M0,0H41.772V54.994H0Z" fill="#ec385a" stroke="#000" stroke-width="1.5"/>
    </clipPath>
    <clipPath id="clip-path-2">
      <path id="Path_398-2" data-name="Path 398" d="M0,0H31.131V40.984H0Z" fill="#ec385a" stroke="#000" stroke-width="1.5"/>
    </clipPath>
  </defs>
  <g id="Group_260" data-name="Group 260" transform="translate(-955 -3454.573)">
    <path id="Path_399" data-name="Path 399" d="M2394.3,3495.575s3.022,12.161,6.791,14.875,2.187,4.4-1.281,6.842a14.239,14.239,0,0,0-5.51,10.6c.009,3.321-3.025-12.825-7.041-13.8s-4.565-2.463-4.565-2.463,9.017-4.176,10.339-8.788A27.333,27.333,0,0,0,2394.3,3495.575Z" transform="translate(-1396.194 -0.017)" fill="#fec62e" stroke="#000" stroke-width="1"/>
    <path id="Path_400" data-name="Path 400" d="M2391.347,3495.575s2.252,9.063,5.061,11.086,1.63,3.281-.955,5.1a10.611,10.611,0,0,0-4.105,7.9c.007,2.475-2.255-9.558-5.247-10.286s-3.4-1.835-3.4-1.835,6.72-3.112,7.705-6.55A20.365,20.365,0,0,0,2391.347,3495.575Z" transform="translate(-1419.627 -32.813)" fill="#fec62e" stroke="#000" stroke-width="1"/>
    <g id="Group_97" data-name="Group 97" transform="translate(975.674 3484.571)">
      <g id="Mask_Group_1" data-name="Mask Group 1" transform="translate(0 0)" clip-path="url(#clip-path)">
        <path id="Path_302" data-name="Path 302" d="M18.247,3.244c.353,3.128.581,6.278,1.1,9.378a8.744,8.744,0,0,0,3.5,5.668,30.016,30.016,0,0,0,5.925,3.9,2.854,2.854,0,0,1,1.172,4.148c-.529.805-1.443.9-2.266,1.174-1.715.566-3.433,1.129-5.13,1.745A6.9,6.9,0,0,0,18.2,34.7a28.945,28.945,0,0,0-.91,7.608c.058,1.161-.063,2.482-1.491,3.162-1.267.6-3.177.061-3.586-1.284a20.767,20.767,0,0,1-.623-3.177,39.337,39.337,0,0,0-1.248-6.833c-.3-.924-.526-1.873-.866-2.78-.97-2.588-3.17-3.833-5.487-4.943-.839-.4-1.673-.822-2.48-1.284C.544,24.618-.248,23.253.072,22.355A3.619,3.619,0,0,1,2.1,20.016c2.367-1,4.885-1.686,6.979-3.3A5.6,5.6,0,0,0,11.321,13.3Q12.5,7.44,13.658,1.579A2.408,2.408,0,0,1,16.468.094c1.5.588,2.015,1.411,1.779,3.15M22.168,24.2c-.434-.343-.635-.5-.839-.663-2.5-1.946-4.832-4.034-6.241-6.958a5.4,5.4,0,0,0-.443-.687,27.7,27.7,0,0,1-2.715,4.142,27.05,27.05,0,0,1-3.943,2.958,15.2,15.2,0,0,1,6.82,7.68c1.619-3.391,4.142-5.177,7.361-6.472" transform="translate(7.119 4.529)" fill="#ec385a" stroke="#000" stroke-width="1.5"/>
      </g>
    </g>
    <g id="Group_118" data-name="Group 118" transform="translate(955 3454.573)">
      <g id="Mask_Group_1-2" data-name="Mask Group 1" transform="translate(0 0)" clip-path="url(#clip-path-2)">
        <path id="Path_302-2" data-name="Path 302" d="M13.6,2.417c.263,2.331.433,4.678.821,6.989a6.517,6.517,0,0,0,2.609,4.224,22.37,22.37,0,0,0,4.416,2.905,2.127,2.127,0,0,1,.873,3.092c-.394.6-1.076.673-1.688.875-1.278.422-2.558.841-3.823,1.3a5.139,5.139,0,0,0-3.241,4.06,21.571,21.571,0,0,0-.678,5.67,2.173,2.173,0,0,1-1.111,2.356A1.993,1.993,0,0,1,9.1,32.932a15.477,15.477,0,0,1-.464-2.368,29.316,29.316,0,0,0-.93-5.092c-.224-.688-.392-1.4-.646-2.072C6.34,21.471,4.7,20.544,2.974,19.716c-.626-.3-1.246-.613-1.848-.957a2.082,2.082,0,0,1-1.072-2.1,2.7,2.7,0,0,1,1.508-1.743,22.207,22.207,0,0,0,5.2-2.456,4.174,4.174,0,0,0,1.674-2.55q.876-4.366,1.741-8.734A1.794,1.794,0,0,1,12.273.07,1.853,1.853,0,0,1,13.6,2.417m2.922,15.618c-.323-.256-.473-.376-.625-.494a15.046,15.046,0,0,1-4.651-5.185,4.027,4.027,0,0,0-.33-.512,20.642,20.642,0,0,1-2.024,3.087,20.159,20.159,0,0,1-2.938,2.2,11.326,11.326,0,0,1,5.082,5.723,9.437,9.437,0,0,1,5.486-4.823" transform="translate(5.306 3.376)" fill="#ec385a" stroke="#000" stroke-width="1.5"/>
      </g>
    </g>
    <path id="Path_511" data-name="Path 511" d="M2394.3,3495.575s3.022,12.161,6.791,14.875,2.187,4.4-1.281,6.842a14.239,14.239,0,0,0-5.51,10.6c.009,3.321-3.025-12.825-7.041-13.8s-4.565-2.463-4.565-2.463,9.017-4.176,10.339-8.788A27.333,27.333,0,0,0,2394.3,3495.575Z" transform="translate(-1396.194 -0.017)" fill="#fec62e" stroke="#000" stroke-width="1"/>
    <path id="Path_512" data-name="Path 512" d="M2391.347,3495.575s2.252,9.063,5.061,11.086,1.63,3.281-.955,5.1a10.611,10.611,0,0,0-4.105,7.9c.007,2.475-2.255-9.558-5.247-10.286s-3.4-1.835-3.4-1.835,6.72-3.112,7.705-6.55A20.365,20.365,0,0,0,2391.347,3495.575Z" transform="translate(-1419.627 -32.813)" fill="#fec62e" stroke="#000" stroke-width="1"/>
    <g id="Group_201" data-name="Group 201" transform="translate(975.674 3484.571)">
      <g id="Mask_Group_1-3" data-name="Mask Group 1" transform="translate(0 0)" clip-path="url(#clip-path)">
        <path id="Path_302-3" data-name="Path 302" d="M18.247,3.244c.353,3.128.581,6.278,1.1,9.378a8.744,8.744,0,0,0,3.5,5.668,30.016,30.016,0,0,0,5.925,3.9,2.854,2.854,0,0,1,1.172,4.148c-.529.805-1.443.9-2.266,1.174-1.715.566-3.433,1.129-5.13,1.745A6.9,6.9,0,0,0,18.2,34.7a28.945,28.945,0,0,0-.91,7.608c.058,1.161-.063,2.482-1.491,3.162-1.267.6-3.177.061-3.586-1.284a20.767,20.767,0,0,1-.623-3.177,39.337,39.337,0,0,0-1.248-6.833c-.3-.924-.526-1.873-.866-2.78-.97-2.588-3.17-3.833-5.487-4.943-.839-.4-1.673-.822-2.48-1.284C.544,24.618-.248,23.253.072,22.355A3.619,3.619,0,0,1,2.1,20.016c2.367-1,4.885-1.686,6.979-3.3A5.6,5.6,0,0,0,11.321,13.3Q12.5,7.44,13.658,1.579A2.408,2.408,0,0,1,16.468.094c1.5.588,2.015,1.411,1.779,3.15M22.168,24.2c-.434-.343-.635-.5-.839-.663-2.5-1.946-4.832-4.034-6.241-6.958a5.4,5.4,0,0,0-.443-.687,27.7,27.7,0,0,1-2.715,4.142,27.05,27.05,0,0,1-3.943,2.958,15.2,15.2,0,0,1,6.82,7.68c1.619-3.391,4.142-5.177,7.361-6.472" transform="translate(7.119 4.529)" fill="#ec385a" stroke="#000" stroke-width="1.5"/>
      </g>
    </g>
    <g id="Group_202" data-name="Group 202" transform="translate(955 3454.573)">
      <g id="Mask_Group_1-4" data-name="Mask Group 1" transform="translate(0 0)" clip-path="url(#clip-path-2)">
        <path id="Path_302-4" data-name="Path 302" d="M13.6,2.417c.263,2.331.433,4.678.821,6.989a6.517,6.517,0,0,0,2.609,4.224,22.37,22.37,0,0,0,4.416,2.905,2.127,2.127,0,0,1,.873,3.092c-.394.6-1.076.673-1.688.875-1.278.422-2.558.841-3.823,1.3a5.139,5.139,0,0,0-3.241,4.06,21.571,21.571,0,0,0-.678,5.67,2.173,2.173,0,0,1-1.111,2.356A1.993,1.993,0,0,1,9.1,32.932a15.477,15.477,0,0,1-.464-2.368,29.316,29.316,0,0,0-.93-5.092c-.224-.688-.392-1.4-.646-2.072C6.34,21.471,4.7,20.544,2.974,19.716c-.626-.3-1.246-.613-1.848-.957a2.082,2.082,0,0,1-1.072-2.1,2.7,2.7,0,0,1,1.508-1.743,22.207,22.207,0,0,0,5.2-2.456,4.174,4.174,0,0,0,1.674-2.55q.876-4.366,1.741-8.734A1.794,1.794,0,0,1,12.273.07,1.853,1.853,0,0,1,13.6,2.417m2.922,15.618c-.323-.256-.473-.376-.625-.494a15.046,15.046,0,0,1-4.651-5.185,4.027,4.027,0,0,0-.33-.512,20.642,20.642,0,0,1-2.024,3.087,20.159,20.159,0,0,1-2.938,2.2,11.326,11.326,0,0,1,5.082,5.723,9.437,9.437,0,0,1,5.486-4.823" transform="translate(5.306 3.376)" fill="#ec385a" stroke="#000" stroke-width="1.5"/>
      </g>
    </g>
  </g>
</svg>
