<svg xmlns="http://www.w3.org/2000/svg" width="145.068" height="125.03" viewBox="0 0 145.068 125.03"><g transform="translate(12.435 -3.098) rotate(7)"><path d="M57.575,4.96,73.944,38.51h33.362l-5.651,9.4L81.589,65.681l17.04,29.736L60.057,77.709,45.132,93.215,33.283,103.8s1.875-17.931,5.159-29.364,0-13.491,0-13.491L9.292,45.161l12.037-3.245h23.8Z" transform="translate(5.41 2.888)" fill="#fff9de"/><path d="M57.447,2.989,74.413,37.76h34.219l-6.393,10.635L82.543,65.838l17.9,31.238L60.228,78.613,45.672,93.735l-.041.039-13.3,11.88.2-1.931c.019-.18,1.92-18.128,5.185-29.493,2.9-10.082.532-12.459.314-12.651L7.283,44.926l13.947-3.76H44.593ZM105.98,39.26h-32.5L57.7,6.932,45.671,42.666H21.428L11.3,45.4,38.84,60.311c.182.114,1.114.792,1.567,2.939.57,2.7.152,6.535-1.244,11.4-2.6,9.039-4.326,22.337-4.913,27.287l10.361-9.257L59.474,77.233a.752.752,0,0,1,.864-.22l.033.014L96.814,93.759,80.635,65.524l20.437-18.1Z" transform="translate(5.41 2.888)"/><path d="M78.333,87.728c-1.118,1.169-2.22,2.183-3.16,3.329A71.177,71.177,0,0,1,63.819,102.3c-4.149,3.215-8.661,5.963-13.039,8.879a9.878,9.878,0,0,1-1.867.738,1.413,1.413,0,0,1-2.051-.8,4.053,4.053,0,0,0-1.009-1.312c-.673-.563-1.78-.867-2.081-1.553a5.786,5.786,0,0,1-.426-3.415c.881-3.727,1.894-7.432,3.069-11.076,1.615-5.007,3.41-9.955,5.153-14.919.827-2.355,1.727-4.683,2.556-7.037a4.484,4.484,0,0,0,.159-1.139c-6.92-3.984-13.644-7.848-20.36-11.726C31.1,57.315,28.289,55.683,25.5,54a16.574,16.574,0,0,1-2.622-1.935c-1.218-1.115-2.075-2.4-1.375-4.2a4.755,4.755,0,0,1,4.27-2.971c6.191-.067,12.384-.058,18.573-.2,5.338-.127,10.672-.428,16.212-.66.968-3.482,1.891-7.107,2.989-10.677,1.7-5.51,3.5-10.986,5.284-16.469,1.007-3.1,2.062-6.18,3.089-9.271.608-1.831,1.53-2.188,2.867-.81a39.765,39.765,0,0,1,4.657,5.584,85.643,85.643,0,0,1,8.595,16.943c1.53,4.008,3.095,8,4.79,12.383a12.724,12.724,0,0,0,2,.193c6.762-.189,13.523-.51,20.286-.584a50.191,50.191,0,0,1,8.945.7c3.707.632,4.638,3.5,2.307,6.376-2.311,2.856-4.569,5.757-6.95,8.553a33.435,33.435,0,0,1-3.47,3.276c-3.827,3.37-7.631,6.769-11.542,10.038a28.735,28.735,0,0,1-4.186,2.435c1.579,1.762,3.078,3.321,4.447,4.987q5.957,7.248,11.822,14.569c2.039,2.539,3.972,5.164,6.028,7.687a4.229,4.229,0,0,1,.487,4.928,4.49,4.49,0,0,1-4.683,2.3,23.349,23.349,0,0,1-4.565-1.263c-2.424-.887-4.84-1.823-7.187-2.895-6.076-2.774-12.17-5.52-18.14-8.512a69.875,69.875,0,0,1-7.317-4.785c-.894-.6-1.754-1.25-2.774-1.981m28.73,5.953.452-.566c-.355-.632-.673-1.289-1.073-1.891-2.485-3.737-5.007-7.45-7.479-11.2-1.47-2.227-2.789-4.56-4.331-6.735s-1.616-3.193.22-5.24a12.272,12.272,0,0,1,2.262-1.833c1.24-.846,2.592-1.536,3.794-2.431q5.685-4.236,11.287-8.585c2.429-1.879,4.8-3.831,7.517-6.006-1.929-.254-3.385-.534-4.854-.625-6.733-.419-13.468-.817-20.206-1.137a6.226,6.226,0,0,0-2.832.625c-2.807,1.327-5.326.273-6.215-2.765-.4-1.354-.689-2.739-1.04-4.106-2.044-7.951-5.413-15.443-8.06-23.186a42.155,42.155,0,0,0-1.949-4.11,13.337,13.337,0,0,0-.589,1.668q-1.543,9.147-3.055,18.3c-.345,2.062-.591,4.15-1.095,6.174-.68,2.732-1.592,5.406-2.352,8.12-.657,2.346-1.994,3.628-4.38,3.662-2.08.03-4.162-.336-6.244-.348-5.256-.033-10.517-.072-15.767.129-1.531.059-3.261-.611-4.952.722,4.293,2.27,8.377,4.486,12.514,6.6,3.855,1.969,7.786,3.79,11.646,5.75a5.219,5.219,0,0,1,2.705,6.31c-.8,2.544-1.669,5.068-2.576,7.577-1.192,3.3-2.513,6.545-3.665,9.854-1.451,4.171-2.81,8.375-4.166,12.578-.494,1.53-.864,3.1-1.378,4.967A139.2,139.2,0,0,0,68.127,88.034c1.435-1.839,2.775-3.758,4.3-5.517a12.6,12.6,0,0,1,3.481-3.11c1.87-.954,3.6-.043,5.3,1.1,4.835,3.249,9.577,6.671,15.072,8.824,2.01.787,3.869,1.956,5.867,2.782,1.583.655,3.273,1.054,4.914,1.566" transform="translate(-11.429 -3.207)" fill="#ec385a"/><path d="M48.136,112.837a2.117,2.117,0,0,1-1.949-1.391,3.309,3.309,0,0,0-.816-1.063,5.1,5.1,0,0,0-.761-.479,3.187,3.187,0,0,1-1.525-1.347,6.522,6.522,0,0,1-.469-3.889c.923-3.9,1.961-7.649,3.085-11.134C46.961,89.629,48.352,85.7,49.7,81.9c.383-1.083.779-2.2,1.166-3.3.422-1.2.87-2.414,1.3-3.587.417-1.13.848-2.3,1.254-3.45a1.949,1.949,0,0,0,.088-.472l-5.036-2.9c-5.131-2.952-9.977-5.741-14.922-8.6-2.721-1.571-5.613-3.247-8.434-4.947a17.3,17.3,0,0,1-2.741-2.024c-1.116-1.021-2.492-2.654-1.568-5.028a5.51,5.51,0,0,1,4.96-3.449c2.045-.022,4.123-.036,6.133-.05,4.076-.028,8.29-.056,12.43-.155,3.682-.088,7.293-.255,11.117-.432,1.481-.069,3.006-.139,4.536-.2.247-.9.494-1.808.734-2.7.663-2.451,1.349-4.985,2.116-7.476,1.388-4.508,2.873-9.065,4.309-13.472q.49-1.5.979-3.008c.639-1.966,1.308-3.957,1.955-5.882.374-1.112.76-2.262,1.136-3.394.476-1.434,1.2-2.161,2.137-2.161a2.864,2.864,0,0,1,1.98,1.065,39.673,39.673,0,0,1,4.743,5.691,85.717,85.717,0,0,1,8.671,17.09c1.051,2.753,2.111,5.481,3.233,8.37.457,1.176.922,2.373,1.4,3.6a8.843,8.843,0,0,0,1.31.126l.124,0c2.362-.066,4.764-.149,7.087-.23,4.328-.15,8.8-.306,13.211-.354q.281,0,.563,0a50.765,50.765,0,0,1,8.516.711c2.019.345,3.429,1.324,3.97,2.758.554,1.469.125,3.184-1.207,4.829-.7.862-1.4,1.743-2.084,2.6-1.578,1.973-3.209,4.013-4.878,5.972a27,27,0,0,1-2.92,2.807q-.314.273-.625.546-1.026.9-2.051,1.809c-3.091,2.729-6.286,5.551-9.507,8.241a15.151,15.151,0,0,1-2.874,1.753c-.2.1-.4.2-.6.31q.43.473.848.929c1.049,1.146,2.04,2.229,2.984,3.378,3.584,4.361,7.343,8.993,11.828,14.576.946,1.177,1.882,2.391,2.787,3.564,1.05,1.361,2.137,2.768,3.238,4.12a5.2,5.2,0,0,1,1.214,2.889,5.08,5.08,0,0,1-.653,2.876,5.223,5.223,0,0,1-4.614,2.737,5.74,5.74,0,0,1-.834-.062,24.434,24.434,0,0,1-4.714-1.3c-2-.733-4.633-1.726-7.241-2.917l-1.961-.894c-5.341-2.435-10.864-4.953-16.2-7.629A41.187,41.187,0,0,1,82.8,91.8c-.69-.49-1.4-1-2.112-1.471-.617-.413-1.216-.85-1.851-1.312l-.418-.3c-.211.215-.42.425-.625.631-.734.738-1.427,1.436-2.042,2.185a71.351,71.351,0,0,1-11.474,11.36c-3.067,2.377-6.372,4.527-9.568,6.606-1.155.752-2.35,1.529-3.514,2.3a5.424,5.424,0,0,1-1.41.606c-.211.067-.411.131-.6.2A2.844,2.844,0,0,1,48.136,112.837ZM73.348,6.714c-.125,0-.416.239-.714,1.134-.377,1.134-.764,2.285-1.138,3.4-.646,1.922-1.313,3.909-1.95,5.868q-.489,1.5-.979,3.009c-1.434,4.4-2.917,8.953-4.3,13.449-.759,2.467-1.442,4.989-2.1,7.427-.288,1.064-.586,2.164-.882,3.23l-.146.526-.545.023c-1.709.072-3.42.151-5.075.228-3.832.177-7.452.345-11.151.433-4.153.1-8.374.127-12.456.155-2.009.014-4.085.028-6.127.05A4.032,4.032,0,0,0,22.2,48.137c-.468,1.2-.125,2.181,1.183,3.378a15.8,15.8,0,0,0,2.5,1.846c2.809,1.693,5.695,3.365,8.409,4.933,4.944,2.855,9.789,5.643,14.92,8.6l5.44,3.131.433.249-.063.5c0,.021-.006.09-.008.141a4.02,4.02,0,0,1-.187,1.153c-.41,1.163-.843,2.336-1.261,3.471-.431,1.167-.876,2.374-1.294,3.565-.387,1.1-.784,2.223-1.167,3.307-1.341,3.79-2.727,7.709-3.98,11.594-1.112,3.447-2.139,7.154-3.053,11.018a5.035,5.035,0,0,0,.383,2.941c.086.2.527.442.881.639a6.24,6.24,0,0,1,1,.64,4.794,4.794,0,0,1,1.2,1.562c.261.542.48.542.6.542a1.419,1.419,0,0,0,.5-.118c.233-.092.467-.167.693-.239a4.267,4.267,0,0,0,1.035-.426c1.171-.78,2.369-1.559,3.528-2.313,3.171-2.063,6.449-4.2,9.467-6.534A69.878,69.878,0,0,0,74.593,90.582c.66-.805,1.378-1.527,2.138-2.292.346-.348.7-.709,1.059-1.08l.45-.471.529.379c.333.238.647.467.951.689.623.453,1.211.882,1.8,1.279.725.486,1.447,1,2.145,1.494a40.07,40.07,0,0,0,5.09,3.244c5.315,2.664,10.825,5.176,16.154,7.606l1.961.895c2.561,1.169,5.158,2.15,7.134,2.873a22.684,22.684,0,0,0,4.417,1.225,4.237,4.237,0,0,0,.615.046,3.741,3.741,0,0,0,3.3-1.965,3.475,3.475,0,0,0-.412-4.09c-1.114-1.366-2.206-2.782-3.262-4.151-.9-1.167-1.833-2.375-2.769-3.541-4.482-5.578-8.237-10.206-11.817-14.563-.918-1.118-1.9-2.186-2.932-3.317-.485-.53-.987-1.078-1.494-1.645l-.62-.692.807-.46c.5-.287,1-.542,1.479-.789a14.073,14.073,0,0,0,2.6-1.57c3.2-2.678,6.392-5.493,9.475-8.215q1.026-.906,2.052-1.81.315-.277.633-.552a25.884,25.884,0,0,0,2.762-2.647c1.654-1.942,3.278-3.973,4.849-5.937.683-.854,1.389-1.737,2.089-2.6a3.569,3.569,0,0,0,.969-3.356,3.373,3.373,0,0,0-2.819-1.809,49.261,49.261,0,0,0-8.264-.69l-.547,0c-4.389.048-8.856.2-13.176.354-2.326.081-4.731.164-7.1.23l-.166,0a10.361,10.361,0,0,1-1.584-.15c-.141-.022-.263-.04-.345-.049l-.456-.047-.166-.428c-.53-1.369-1.048-2.7-1.555-4.008-1.123-2.891-2.184-5.622-3.236-8.378a84.238,84.238,0,0,0-8.519-16.8,38.266,38.266,0,0,0-4.57-5.476C73.688,6.743,73.4,6.714,73.348,6.714ZM49.814,108.169l.664-2.411c.167-.607.319-1.183.466-1.739.3-1.137.583-2.21.921-3.259,1.257-3.9,2.681-8.312,4.171-12.594.656-1.883,1.376-3.773,2.072-5.6.531-1.4,1.081-2.838,1.6-4.262,1-2.758,1.837-5.226,2.566-7.547a4.443,4.443,0,0,0-.132-3.117,4.6,4.6,0,0,0-2.2-2.3c-1.86-.944-3.771-1.873-5.619-2.771-1.982-.963-4.031-1.959-6.029-2.98-2.875-1.469-5.671-2.959-8.631-4.536-1.267-.675-2.578-1.374-3.892-2.068l-1.019-.539.905-.713a4.716,4.716,0,0,1,3.053-1c.41,0,.8.033,1.183.065.345.029.67.056.977.056.06,0,.119,0,.174,0,2.784-.107,5.842-.157,9.622-.157,1.923,0,3.877.012,5.767.024l.411,0c1.012.006,2.027.093,3.008.178s2,.172,2.989.172l.232,0c1.942-.027,3.073-.988,3.669-3.114.3-1.087.637-2.181.959-3.24.483-1.589.983-3.232,1.388-4.859.355-1.429.586-2.933.809-4.387.087-.567.177-1.152.273-1.729q.546-3.268,1.089-6.536c.642-3.856,1.305-7.843,1.966-11.764a4.987,4.987,0,0,1,.322-1.005c.086-.219.184-.468.3-.791l.606-1.686.776,1.615c.261.542.512,1.03.754,1.5a20.12,20.12,0,0,1,1.229,2.691c.93,2.719,1.968,5.457,2.972,8.105A144.818,144.818,0,0,1,85.291,41c.128.5.25,1.008.368,1.5.205.854.417,1.736.665,2.584.526,1.8,1.66,2.789,3.193,2.789a4.663,4.663,0,0,0,1.982-.492,7.068,7.068,0,0,1,2.944-.7c.082,0,.163,0,.243.006,7.241.344,14.283.768,20.218,1.137,1.009.063,1.988.208,3.121.376.563.083,1.144.17,1.784.254l1.744.23-1.373,1.1q-1.285,1.029-2.481,2c-1.737,1.4-3.378,2.726-5.045,4.016-4.1,3.174-7.8,5.985-11.3,8.594-.713.532-1.475.992-2.211,1.437-.536.324-1.091.66-1.608,1.012a11.58,11.58,0,0,0-2.127,1.714c-1.528,1.7-1.553,2.348-.166,4.305.933,1.316,1.794,2.7,2.626,4.044.556.9,1.131,1.822,1.718,2.712,1.413,2.141,2.868,4.308,4.274,6.4,1.052,1.568,2.14,3.189,3.2,4.789.294.442.541.9.781,1.349.1.2.213.4.321.59l.248.441-1.088,1.361-.489-.153c-.5-.155-1.009-.3-1.505-.446a32.7,32.7,0,0,1-3.473-1.143c-.974-.4-1.918-.886-2.831-1.353-.983-.5-2-1.023-3.023-1.424-4.93-1.931-9.3-4.891-13.523-7.754-.555-.376-1.129-.765-1.694-1.145a6.235,6.235,0,0,0-3.271-1.374,2.744,2.744,0,0,0-1.271.317,11.822,11.822,0,0,0-3.255,2.934c-.994,1.146-1.931,2.393-2.838,3.6-.467.621-.95,1.263-1.438,1.888A139.534,139.534,0,0,1,51.7,106.522ZM37.749,52.335c.885.47,1.762.937,2.619,1.394,2.954,1.574,5.745,3.061,8.608,4.524,1.985,1.014,4.027,2.007,6,2.966,1.854.9,3.771,1.833,5.642,2.783a5.969,5.969,0,0,1,3.081,7.2c-.736,2.341-1.582,4.829-2.587,7.607C60.6,80.25,60.044,81.7,59.51,83.1c-.692,1.818-1.409,3.7-2.057,5.56-1.484,4.266-2.906,8.673-4.16,12.562-.259.8-.487,1.631-.718,2.5A139.067,139.067,0,0,0,67.536,87.573c.48-.615.958-1.251,1.421-1.867.922-1.226,1.875-2.494,2.9-3.68a13.416,13.416,0,0,1,3.707-3.287,4.267,4.267,0,0,1,1.952-.481,7.66,7.66,0,0,1,4.108,1.629c.568.381,1.143.771,1.7,1.148,4.157,2.817,8.455,5.73,13.229,7.6,1.093.428,2.143.965,3.159,1.485.886.454,1.8.923,2.721,1.3a31.578,31.578,0,0,0,3.314,1.088l.692.2c-.2-.377-.4-.735-.624-1.071-1.062-1.6-2.149-3.217-3.2-4.784-1.408-2.1-2.864-4.268-4.28-6.413-.6-.907-1.179-1.843-1.741-2.747-.82-1.322-1.669-2.688-2.576-3.968a5.34,5.34,0,0,1-1.291-3.113,4.829,4.829,0,0,1,1.564-3.061,12.764,12.764,0,0,1,2.4-1.952c.551-.376,1.124-.722,1.678-1.057.738-.446,1.435-.868,2.091-1.356,3.494-2.6,7.182-5.409,11.276-8.577,1.655-1.281,3.29-2.6,5.021-4l1.136-.916-.087-.013c-1.1-.163-2.049-.3-2.995-.363-5.929-.369-12.964-.793-20.2-1.136-.056,0-.114,0-.172,0a5.623,5.623,0,0,0-2.3.558,6.143,6.143,0,0,1-2.623.636c-2.192,0-3.924-1.446-4.632-3.868-.258-.882-.475-1.783-.684-2.654-.117-.485-.237-.987-.363-1.476A143.69,143.69,0,0,0,78.783,26.4c-1.008-2.66-2.051-5.41-2.988-8.152a18.558,18.558,0,0,0-1.111-2.428c-.654,3.876-1.309,7.816-1.943,11.628q-.544,3.269-1.089,6.537c-.095.567-.184,1.148-.27,1.709-.228,1.488-.464,3.026-.836,4.522-.414,1.665-.919,3.326-1.408,4.933-.319,1.051-.65,2.137-.949,3.208a6.043,6.043,0,0,1-1.773,3.063A5.028,5.028,0,0,1,63.1,52.568c-1.133.016-2.272-.082-3.371-.176-.952-.082-1.936-.166-2.888-.172l-.411,0c-1.887-.012-3.839-.024-5.757-.024-3.761,0-6.8.049-9.565.156-.074,0-.152,0-.232,0-.37,0-.742-.031-1.1-.061s-.711-.059-1.058-.059A4.062,4.062,0,0,0,37.749,52.335Z" transform="translate(-11.429 -3.207)"/><path d="M2.781,185.3c-.582-.337-1.7-.629-2.184-1.347a3.608,3.608,0,0,1-.11-3.806A12.274,12.274,0,0,1,6.2,174.787c4.718-2.3,9.6-4.279,14.428-6.343a18.738,18.738,0,0,1,2.659-.705c.786-.2,1.537-.2,1.976.606.514.942-.064,1.612-.732,2.157-1.234,1-2.476,2-3.775,2.921-4.428,3.128-8.879,6.222-13.326,9.322-1.081.753-2.167,1.5-3.278,2.207a5.854,5.854,0,0,1-1.376.343" transform="translate(0 -90.144)" fill="#ec385a"/><path d="M2.664,186.095l-.259-.15c-.131-.076-.323-.161-.528-.251a4.219,4.219,0,0,1-1.9-1.323A4.371,4.371,0,0,1-.18,179.8a12.937,12.937,0,0,1,6.055-5.687c3.737-1.823,7.628-3.467,11.391-5.056,1.008-.426,2.05-.866,3.072-1.3a10.414,10.414,0,0,1,1.928-.549c.291-.063.566-.122.837-.192a3.765,3.765,0,0,1,.949-.137,2.162,2.162,0,0,1,1.973,3.011,3.522,3.522,0,0,1-1.016,1.2c-1.258,1.024-2.5,2.02-3.816,2.953-3.763,2.659-7.606,5.336-11.322,7.926l-2.007,1.4c-1.039.725-2.159,1.5-3.3,2.225a2.575,2.575,0,0,1-.97.31c-.181.033-.386.071-.635.13Zm21.388-17.718a2.315,2.315,0,0,0-.571.088c-.3.078-.605.144-.9.207a9.159,9.159,0,0,0-1.655.462c-1.025.438-2.068.878-3.077,1.3-3.744,1.582-7.616,3.217-11.317,5.022a11.473,11.473,0,0,0-5.379,5.024,2.878,2.878,0,0,0,.063,3.042,3.193,3.193,0,0,0,1.266.794c.139.061.274.121.4.182.166-.035.31-.061.435-.084a2.455,2.455,0,0,0,.435-.1c1.121-.714,2.225-1.474,3.251-2.19l2.008-1.4c3.714-2.588,7.555-5.264,11.315-7.92,1.281-.9,2.5-1.883,3.734-2.89.777-.634.717-.9.547-1.216A.544.544,0,0,0,24.052,168.377Z" transform="translate(0 -90.144)"/><path d="M47.6,20.758c.067-2.817,2.319-4.657,4.374-4.054a6.756,6.756,0,0,1,3.189,1.83A97.615,97.615,0,0,1,65.781,33.344c.466.832,1.009,1.61.1,2.466-.875.822-1.745.33-2.54-.109a24.182,24.182,0,0,1-2.282-1.543c-4.151-2.958-8.317-5.92-11.588-9.88a16.711,16.711,0,0,1-1.872-3.52" transform="translate(-25.596 -8.921)" fill="#ec385a"/><path d="M64.853,37A3.875,3.875,0,0,1,63,36.37l-.022-.012a18.634,18.634,0,0,1-1.9-1.264c-.15-.109-.3-.218-.451-.325l-.051-.036c-4.11-2.929-8.36-5.957-11.68-9.977a11.829,11.829,0,0,1-1.61-2.882c-.132-.306-.247-.571-.35-.772l-.088-.17,0-.191a5.387,5.387,0,0,1,1.328-3.489,4.088,4.088,0,0,1,3-1.412,3.575,3.575,0,0,1,1.007.145,7.606,7.606,0,0,1,3.552,2.067c2.269,2.7,4.076,4.989,5.687,7.195a76.974,76.974,0,0,1,5.014,7.731l.091.161a3.99,3.99,0,0,1,.577,1.408,2.022,2.022,0,0,1-.711,1.811A2.2,2.2,0,0,1,64.853,37ZM48.354,20.6c.1.206.2.438.3.68A10.467,10.467,0,0,0,50.047,23.8c3.195,3.868,7.363,6.838,11.394,9.711l.051.036q.231.165.461.332A17.244,17.244,0,0,0,63.7,35.045l.022.012a2.807,2.807,0,0,0,1.13.447.709.709,0,0,0,.511-.24c.37-.347.352-.515-.142-1.384l-.1-.169a98.479,98.479,0,0,0-10.542-14.7,5.978,5.978,0,0,0-2.826-1.593,2.076,2.076,0,0,0-.585-.084A3.194,3.194,0,0,0,48.354,20.6Z" transform="translate(-25.596 -8.921)"/><path d="M269.132,155.294a51.674,51.674,0,0,1-6.231-1.267c-4.436-1.43-8.8-3.092-13.18-4.689a4.319,4.319,0,0,1-1.727-.967,2.177,2.177,0,0,1-.6-1.714,2.03,2.03,0,0,1,1.5-1.032,14.926,14.926,0,0,1,3.5.161c5.351.785,10.8.982,16.017,2.587a25.218,25.218,0,0,1,3.97,1.439,2.481,2.481,0,0,1,1.637,2.8,3.13,3.13,0,0,1-2.75,2.516c-.577.082-1.165.092-2.131.163" transform="translate(-133.021 -78.289)" fill="#ec385a"/><path d="M269.087,156.05l-.1-.019c-.54-.106-1.12-.2-1.733-.3a31.207,31.207,0,0,1-4.584-.99c-3.483-1.123-6.97-2.406-10.342-3.647-.939-.346-1.909-.7-2.865-1.051a4.943,4.943,0,0,1-2.027-1.169,2.871,2.871,0,0,1-.755-2.454,2.721,2.721,0,0,1,2.142-1.542c.339-.031.7-.047,1.066-.047a17.987,17.987,0,0,1,2.609.213c1.564.229,3.17.412,4.722.588a62.542,62.542,0,0,1,11.406,2.023l.374.115a23.263,23.263,0,0,1,3.713,1.372c2.082,1.05,2.255,2.55,2.033,3.624a3.877,3.877,0,0,1-1.159,2.087,4.1,4.1,0,0,1-2.219,1.02c-.407.058-.8.082-1.308.112-.255.015-.544.032-.874.057Zm-20.979-9.159a1.784,1.784,0,0,0,.443.978,3.774,3.774,0,0,0,1.427.765c.958.349,1.929.707,2.869,1.053,3.358,1.236,6.83,2.514,10.284,3.627a29.6,29.6,0,0,0,4.364.937c.589.1,1.147.186,1.682.289.3-.021.561-.037.795-.051.469-.028.839-.05,1.186-.1a2.377,2.377,0,0,0,2.121-1.925c.118-.572.084-1.314-1.24-1.982a22.145,22.145,0,0,0-3.476-1.277l-.377-.115a61.41,61.41,0,0,0-11.134-1.967c-1.564-.178-3.182-.362-4.771-.595a16.52,16.52,0,0,0-2.391-.2c-.322,0-.635.014-.929.041A1.465,1.465,0,0,0,248.108,146.891Z" transform="translate(-133.021 -78.289)"/><path d="M192.526,17.7a39.066,39.066,0,0,1,2.283-4.18q3.626-5.091,7.475-10.021a15.979,15.979,0,0,1,2.931-2.71c1.346-1.032,2.348-1.018,3.409-.178a2.756,2.756,0,0,1,.758,3.8,16.192,16.192,0,0,1-2.816,4.119c-3.288,3.064-6.731,5.967-10.208,8.818-.892.731-2.028,1.638-3.831.349" transform="translate(-103.535 0)" fill="#ec385a"/><path d="M194.258,19.1a3.75,3.75,0,0,1-2.167-.788l-.537-.384.313-.582c.245-.456.476-.92.7-1.369a20.969,20.969,0,0,1,1.633-2.891c2.4-3.376,4.926-6.756,7.495-10.047A16.76,16.76,0,0,1,204.759.2a3.879,3.879,0,0,1,2.34-.947,3.165,3.165,0,0,1,1.991.776,3.49,3.49,0,0,1,.949,4.753L209.915,5a15.8,15.8,0,0,1-2.838,4.081c-3.55,3.307-7.17,6.329-10.244,8.849A4.049,4.049,0,0,1,194.258,19.1Zm-.738-1.68a1.785,1.785,0,0,0,.738.18,2.781,2.781,0,0,0,1.624-.828c3.055-2.5,6.653-5.508,10.172-8.786A14.714,14.714,0,0,0,208.6,4.281l.125-.226a2.011,2.011,0,0,0-.566-2.852A1.722,1.722,0,0,0,207.1.751a2.5,2.5,0,0,0-1.427.637,15.489,15.489,0,0,0-2.8,2.576c-2.556,3.274-5.064,6.636-7.455,9.994a19.871,19.871,0,0,0-1.512,2.689C193.781,16.9,193.653,17.161,193.519,17.422Z" transform="translate(-103.535 0)"/><path d="M146.4,232a25.914,25.914,0,0,1,1.778-9.521c.166-.448.8-1.023,1.192-1a1.656,1.656,0,0,1,1.157,1.067c.914,4.427,1.715,8.875.572,13.391a5.247,5.247,0,0,1-.577,1.382c-.836,1.4-2.423,1.473-3.151.012a14.448,14.448,0,0,1-.951-3.586A8.923,8.923,0,0,1,146.4,232" transform="translate(-78.712 -119.1)" fill="#ec385a"/><path d="M148.883,239.14a2.471,2.471,0,0,1-2.181-1.483,11.659,11.659,0,0,1-.885-3.1c-.042-.223-.085-.453-.13-.674a5.43,5.43,0,0,1-.052-1.379c.009-.176.017-.343.017-.5a26.53,26.53,0,0,1,1.824-9.787,2.4,2.4,0,0,1,1.876-1.493h.057a2.348,2.348,0,0,1,1.854,1.664c.993,4.809,1.72,9.16.565,13.727a6.006,6.006,0,0,1-.661,1.582A2.732,2.732,0,0,1,148.883,239.14Zm.472-16.9a1.3,1.3,0,0,0-.47.5,25.061,25.061,0,0,0-1.731,9.246V232c0,.2-.01.4-.019.585a4.267,4.267,0,0,0,.024,1.007c.047.232.091.467.134.695a10.4,10.4,0,0,0,.753,2.706.991.991,0,0,0,.838.652,1.269,1.269,0,0,0,1-.714,4.487,4.487,0,0,0,.494-1.181c1.077-4.256.375-8.428-.579-13.05A1.185,1.185,0,0,0,149.355,222.239Z" transform="translate(-78.712 -119.1)"/></g></svg>