<svg xmlns="http://www.w3.org/2000/svg" width="45.189" height="65.813" viewBox="0 0 45.189 65.813">
  <defs>
    <clipPath id="a">
      <path data-name="Rectangle 841" fill="none" stroke="#000" stroke-width="1.5" d="M0 0h45.189v65.813H0z"/>
    </clipPath>
  </defs>
  <g data-name="Group 81">
    <g data-name="Group 86">
      <g data-name="Group 78">
        <g data-name="Group 77" clip-path="url(#a)" transform="translate(-.001)">
          <path data-name="Path 318" d="M22.594 6.846s2.21 12.023 7.769 18.2 9.836 11.643 9.836 11.643-14.539 4.849-15.822 13.59l-1.283 8.738s-.428-19.428-13.258-22.33c0 0 12.259-18.718 12.758-29.841" fill="#fdc541" stroke="#000" stroke-width="1.5"/>
        </g>
      </g>
      <g data-name="Group 80">
        <g data-name="Group 123">
          <path data-name="Path 319" d="M1.876 34.161a27.625 27.625 0 0 1 6.178-4.209 14.183 14.183 0 0 0 7.308-7.591c1.254-3.235 4.673-17.174 4.908-17.794.261-.688.492-1.387.749-2.079A2.239 2.239 0 0 1 23.392.981a2.348 2.348 0 0 1 2.368 1.5 33.618 33.618 0 0 1 1.056 3.425c.449 1.939.757 3.91 1.208 5.849a25.01 25.01 0 0 0 .958 2.78c1.292 3.57 2.395 7.242 4.642 10.364a17.437 17.437 0 0 0 3.212 3.246c1.451 1.172 3.091 2.109 4.585 3.234a4.612 4.612 0 0 1 2.128 2.78c.488 2.533.022 3.7-2.332 4.863-2.568 1.266-5.158 2.5-7.787 3.633a8.282 8.282 0 0 0-4.838 5.323 88.714 88.714 0 0 0-1.876 8.749c-.328 1.7-.449 3.435-.824 5.118a3.284 3.284 0 0 1-2.885 2.909c-1.9.364-3.571-1.174-4.008-3.106-.6-2.65-.828-5.383-1.275-8.07a35.164 35.164 0 0 0-2.906-9.3c-1.088-2.295-3.349-3.131-5.622-3.846-1.772-.558-3.535-1.151-5.288-1.765-1.6-.559-2.419-1.6-2.033-3.387a12.522 12.522 0 0 0 .3-2.054m10.666 1.718a14.3 14.3 0 0 1 2.191 1 18.647 18.647 0 0 1 4.1 3.1 16.109 16.109 0 0 1 3.245 6.115c.091.341.5.6.847.993.24-.467.375-.7.48-.937a15.923 15.923 0 0 1 8.912-8.709 27.246 27.246 0 0 0 2.645-1.417c-1.33-1.159-2.524-2.2-3.714-3.237-2.927-2.555-4.7-5.915-6.372-9.319a53.165 53.165 0 0 1-1.823-5.027 9.432 9.432 0 0 0-.793-1.319 58.716 58.716 0 0 1-1.526 7.23c-.765 2.234-1.186 4.706-2.967 6.485-1.676 1.675-3.408 3.292-5.23 5.044" fill="#fff" stroke="#000" stroke-linecap="round" stroke-width="1.5"/>
        </g>
      </g>
    </g>
  </g>
</svg>
