<?xml version="1.0" encoding="UTF-8"?>
<svg id="Layer_1" data-name="Layer 1" xmlns="http://www.w3.org/2000/svg" xmlns:xlink="http://www.w3.org/1999/xlink" viewBox="0 0 138.1 102.87">
  <defs>
    <style>
      .cls-1 {
        fill: #ffc72f;
        stroke: #000;
        stroke-miterlimit: 4;
        stroke-width: 1.5px;
      }

      .cls-2 {
        clip-path: url(#clippath);
      }

      .cls-3 {
        fill: none;
      }

      .cls-3, .cls-4 {
        stroke-width: 0px;
      }

      .cls-4 {
        fill: #0c0d0c;
        fill-rule: evenodd;
      }
    </style>
    <clipPath id="clippath">
      <rect class="cls-3" x="24.62" y="41.05" width="88.43" height="22.18"/>
    </clipPath>
  </defs>
  <path id="Path_583" data-name="Path 583" class="cls-1" d="m92.52,98.98c-54.61,6.03-68.62.11-85.12-18.69C-9.1,61.48,7.61,5.77,46.16,2.73,84.71-.31,107.12,7.34,123.71,21.42c16.59,14.07,23.42,71.54-31.18,77.57Z"/>
  <g id="Group_264" data-name="Group 264">
    <g class="cls-2">
      <g id="Group_263" data-name="Group 263">
        <path id="Path_584" data-name="Path 584" class="cls-4" d="m109.27,55.72c0,2.82-.84,4.08-2.73,4.08s-2.69-1.26-2.69-4.08v-7.16c0-2.82.83-4.08,2.69-4.08s2.73,1.22,2.73,4.08v7.16Zm-2.69-14.67c-1.78-.09-3.52.52-4.86,1.7-1.25,1.3-1.65,2.77-1.65,6.07v6.64c0,3.3.4,4.77,1.66,6.07,2.83,2.26,6.84,2.26,9.67,0,1.27-1.27,1.65-2.68,1.65-6.07v-6.65c0-3.38-.39-4.8-1.65-6.07-1.32-1.17-3.05-1.78-4.82-1.7"/>
        <path id="Path_585" data-name="Path 585" class="cls-4" d="m31.26,41.05c-2.42,0-4.26.76-5.32,2.2-.97,1.32-1.32,2.83-1.32,5.79v6.25c0,2.92.34,4.43,1.32,5.74,1.06,1.44,2.9,2.2,5.32,2.2,1.88.12,3.72-.6,5.03-1.95,1.06-1.14,1.48-2.64,1.48-5.16v-.69h-3.77v.48c0,2.67-.87,3.91-2.74,3.91-.95.05-1.84-.42-2.33-1.24-.4-.76-.54-1.72-.54-3.79v-5.21c0-3.85.7-5.08,2.87-5.08,1.87,0,2.74,1.2,2.74,3.78v.61h3.77v-.82c0-2.5-.42-3.92-1.48-5.08-1.32-1.34-3.15-2.04-5.03-1.91"/>
        <path id="Path_586" data-name="Path 586" class="cls-4" d="m87.38,48.08c0-2.62.83-3.73,2.78-3.73s2.71,1.03,2.77,3.46v.08l-.07.04-5.48,3v-2.84Zm5.42,9.8c-.25,1.19-1.35,2.01-2.56,1.92-1.7,0-2.47-.78-2.74-2.77-.09-.63-.12-1.98-.12-2.04v-.08l.07-.04,9.27-5.03v-.59c0-3.29-.41-4.87-1.62-6.25-1.29-1.35-3.11-2.06-4.98-1.95-1.77-.08-3.49.53-4.81,1.7-1.32,1.27-1.7,2.63-1.7,6.07v6.42c0,2.82.37,4.44,1.32,5.78,1.06,1.44,2.9,2.2,5.32,2.2,2.72,0,4.69-.98,5.7-2.84.61-1.02.76-2.06.81-4.97h-3.77c.05.83-.01,1.65-.18,2.47"/>
        <path id="Path_587" data-name="Path 587" class="cls-4" d="m73.68,41.05h-.11c-1.66-.08-3.29.46-4.57,1.51l-.09.08-.09-.08c-1.29-1.05-2.91-1.59-4.57-1.51h-.11c-2.37.02-4.17.78-5.21,2.2-.95,1.34-1.32,2.96-1.32,5.78v13.76h3.77v-13.5c0-.06.04-1.42.12-2.04.27-1.98,1.02-2.76,2.69-2.77,1.67.02,2.42.8,2.69,2.77.08.63.12,1.98.12,2.04v13.5h3.8v-13.5c0-.06.04-1.41.12-2.04.27-1.98,1.02-2.76,2.69-2.77,1.67.02,2.42.8,2.69,2.77.09.63.12,1.98.12,2.04v13.5h3.77v-13.76c0-2.82-.37-4.45-1.32-5.78-1.04-1.41-2.84-2.17-5.21-2.2"/>
        <path id="Path_588" data-name="Path 588" class="cls-4" d="m50.43,56.2c0,2.62-.83,3.73-2.78,3.73s-2.71-1.03-2.77-3.46v-.08l.07-.04,5.48-3v2.85Zm-2.87-15.15c-2.72,0-4.69.98-5.7,2.84-.61,1.02-.76,2.06-.81,4.97h3.77c-.05-.83.01-1.65.18-2.47.25-1.19,1.35-2.01,2.56-1.92,1.7,0,2.47.78,2.74,2.78.09.63.12,1.98.12,2.04v.08l-.07.04-9.26,5.03v.59c0,3.29.41,4.87,1.62,6.25,1.29,1.35,3.12,2.07,4.98,1.95,1.77.08,3.49-.53,4.81-1.7,1.32-1.27,1.7-2.64,1.7-6.07v-6.42c0-2.82-.37-4.44-1.32-5.78-1.06-1.44-2.9-2.2-5.32-2.2"/>
      </g>
    </g>
  </g>
</svg>