<svg xmlns="http://www.w3.org/2000/svg" xmlns:xlink="http://www.w3.org/1999/xlink" width="65.04" height="64.97" viewBox="0 0 65.04 64.97">
  <defs>
    <clipPath id="clip-path">
      <rect id="Rectangle_1034" data-name="Rectangle 1034" width="65.04" height="64.97" transform="translate(-1 -1)" fill="none"/>
    </clipPath>
  </defs>
  <g id="Group_248" data-name="Group 248" transform="translate(1 1)" clip-path="url(#clip-path)">
    <path id="Path_554" data-name="Path 554" d="M63.943,33.3A30.937,30.937,0,1,1,33.007,2.359,30.936,30.936,0,0,1,63.943,33.3" transform="translate(-1.485 -1.692)" fill="#a9eae2"/>
    <path id="Path_555" data-name="Path 555" d="M62.076,65.184a12.292,12.292,0,0,0-.014-1.68,3.535,3.535,0,0,1,.562-2.232A25.447,25.447,0,0,1,64.7,58.323a6.108,6.108,0,0,1,2.29-1.532,9.977,9.977,0,0,1,4.9-.993,5.838,5.838,0,0,1,2.585.638,9.792,9.792,0,0,1,2.36,1.679c.421.411.807.859,1.261,1.347l.605-.411a8.783,8.783,0,0,1,2.265-1.314,1.728,1.728,0,0,1,2.017.956,1.9,1.9,0,0,1,.038,1.594,9.174,9.174,0,0,0-.578,2.537,3.042,3.042,0,0,1-.2.95,4.2,4.2,0,0,0-.17,2.632,8.5,8.5,0,0,1-.03,3.171,40.5,40.5,0,0,1-1.064,4.291A13.462,13.462,0,0,1,79.3,77.488c-.45.588-.807,1.247-1.24,1.849-.214.3-.535.516-.754.809-.411.55-.781,1.13-1.175,1.694a2.788,2.788,0,0,1-1.448,1.3c-.34.1-.606.442-.914.662-.259.186-.524.365-.8.527-.509.3-1.015.612-1.543.878a14.091,14.091,0,0,1-1.711.759c-1.048.363-2.125.643-3.171,1.01a18.294,18.294,0,0,1-5.525.549,14.049,14.049,0,0,1-1.645.075,21.217,21.217,0,0,1-2.532-.363,10.915,10.915,0,0,1-2.918-1.224c-.369-.2-.795-.287-1.185-.448a6.57,6.57,0,0,1-1.077-.506,12.829,12.829,0,0,1-4.332-4.014,11.342,11.342,0,0,1-.894-1.913,1.731,1.731,0,0,1,.194-1.455,10.175,10.175,0,0,1,1.62-.257,11.092,11.092,0,0,1,1.711.245c-.052-.185-.048-.285-.094-.318a3.839,3.839,0,0,1-1-1.189,7.994,7.994,0,0,1-1.239-3.8,2.291,2.291,0,0,1,.742-1.646c-.2-.644-.389-1.321-.627-1.98a3.733,3.733,0,0,1-.205-1.7,10.515,10.515,0,0,0,.03-1.365,3.106,3.106,0,0,1,.359-1.519c.245-.487.529-.829,1.12-.816.112,0,.227-.1.384-.172,0-1.28-.022-2.565.011-3.85a10.816,10.816,0,0,1,.229-1.55c.056-.322.145-.639.21-.96a3.572,3.572,0,0,1,1.3-2.459,1.123,1.123,0,0,0,.326-.5.713.713,0,0,1,.831-.461c.4.029.746.078.863.55.191.777.4,1.548.6,2.323a6.351,6.351,0,0,0,1.324,2.757c.587.655,1.263,1.233,1.819,1.911a13.452,13.452,0,0,0,1.855,1.952c.579.471,1.149.956,1.754,1.392.443.319.937.569,1.512.911m1.9,3.272a3.543,3.543,0,0,0-.7-.289,14.11,14.11,0,0,0-1.807-.189,3.485,3.485,0,0,1-1.7-.439c-1.058-.616-2.07-1.317-3.072-2.023a3.631,3.631,0,0,1-.893-.917c-.726-1.076-1.4-2.188-2.114-3.271-.227-.343-.52-.643-.841-1.033a8.821,8.821,0,0,0,.187,4.088c.266.9-.265,1.513-.6,2.2-.06.123-.339.149-.521.2-.255.071-.514.124-.763.182.018.4.056.713.042,1.023a3.672,3.672,0,0,0,.578,2.138,17.548,17.548,0,0,1,1.281,2.622.935.935,0,0,1-.221,1.135c-.163.141-.35.256-.587.427A14.67,14.67,0,0,0,54.1,76.133a9.163,9.163,0,0,1,1.19,1.044c.675.713.66,1.163-.031,1.828a2.66,2.66,0,0,1-1.254.7,7.328,7.328,0,0,1-3.635.334,1.794,1.794,0,0,0-.544.062c.146.16.212.279.314.337,1,.564,2,1.133,3.013,1.67.812.431,1.683.763,2.461,1.247a8.762,8.762,0,0,0,2.76.958,14.623,14.623,0,0,0,3.759.182c.955-.027,1.908-.175,2.859-.3a15.223,15.223,0,0,0,4.16-1.292,13.663,13.663,0,0,0,2.053-1.095,30.027,30.027,0,0,0,2.675-1.965,8.826,8.826,0,0,0,1.854-2.055c.414-.653.751-1.358,1.192-1.974a8.038,8.038,0,0,0,1.282-2.535c.25-.893.613-1.759.81-2.662a9.27,9.27,0,0,0,.229-2.84,2.618,2.618,0,0,1,.2-1.629.611.611,0,0,0-.013-.5,2.216,2.216,0,0,1,.049-2c.22-.5.4-1.007.6-1.511a1.081,1.081,0,0,0-.5.349c-.4.411-.785.829-1.195,1.226a2.488,2.488,0,0,1-1.87.128.55.55,0,0,1-.117-.094c-.571-.665-1.111-1.361-1.721-1.988a5.444,5.444,0,0,0-1.41-1.288,3.178,3.178,0,0,1-.657-.338,4.928,4.928,0,0,0-3.161-.791,2.262,2.262,0,0,0-1.07.13,4.319,4.319,0,0,0-.857.79,7.307,7.307,0,0,0-2.4,6.439.865.865,0,0,1-.2.742c-.313.355-.652.687-.954,1" transform="translate(-33.242 -38.287)"/>
    <path id="Path_556" data-name="Path 556" d="M62.076,65.184a12.292,12.292,0,0,0-.014-1.68,3.535,3.535,0,0,1,.562-2.232A25.447,25.447,0,0,1,64.7,58.323a6.108,6.108,0,0,1,2.29-1.532,9.977,9.977,0,0,1,4.9-.993,5.838,5.838,0,0,1,2.585.638,9.792,9.792,0,0,1,2.36,1.679c.421.411.807.859,1.261,1.347l.605-.411a8.783,8.783,0,0,1,2.265-1.314,1.728,1.728,0,0,1,2.017.956,1.9,1.9,0,0,1,.038,1.594,9.174,9.174,0,0,0-.578,2.537,3.042,3.042,0,0,1-.2.95,4.2,4.2,0,0,0-.17,2.632,8.5,8.5,0,0,1-.03,3.171,40.5,40.5,0,0,1-1.064,4.291A13.462,13.462,0,0,1,79.3,77.488c-.45.588-.807,1.247-1.24,1.849-.214.3-.535.516-.754.809-.411.55-.781,1.13-1.175,1.694a2.788,2.788,0,0,1-1.448,1.3c-.34.1-.606.442-.914.662-.259.186-.524.365-.8.527-.509.3-1.015.612-1.543.878a14.091,14.091,0,0,1-1.711.759c-1.048.363-2.125.643-3.171,1.01a18.294,18.294,0,0,1-5.525.549,14.049,14.049,0,0,1-1.645.075,21.217,21.217,0,0,1-2.532-.363,10.915,10.915,0,0,1-2.918-1.224c-.369-.2-.795-.287-1.185-.448a6.57,6.57,0,0,1-1.077-.506,12.829,12.829,0,0,1-4.332-4.014,11.342,11.342,0,0,1-.894-1.913,1.731,1.731,0,0,1,.194-1.455,10.175,10.175,0,0,1,1.62-.257,11.092,11.092,0,0,1,1.711.245c-.052-.185-.048-.285-.094-.318a3.839,3.839,0,0,1-1-1.189,7.994,7.994,0,0,1-1.239-3.8,2.291,2.291,0,0,1,.742-1.646c-.2-.644-.389-1.321-.627-1.98a3.733,3.733,0,0,1-.205-1.7,10.515,10.515,0,0,0,.03-1.365,3.106,3.106,0,0,1,.359-1.519c.245-.487.529-.829,1.12-.816.112,0,.227-.1.384-.172,0-1.28-.022-2.565.011-3.85a10.816,10.816,0,0,1,.229-1.55c.056-.322.145-.639.21-.96a3.572,3.572,0,0,1,1.3-2.459,1.123,1.123,0,0,0,.326-.5.713.713,0,0,1,.831-.461c.4.029.746.078.863.55.191.777.4,1.548.6,2.323a6.351,6.351,0,0,0,1.324,2.757c.587.655,1.263,1.233,1.819,1.911a13.452,13.452,0,0,0,1.855,1.952c.579.471,1.149.956,1.754,1.392C61.008,64.593,61.5,64.842,62.076,65.184Zm1.9,3.272a3.543,3.543,0,0,0-.7-.289,14.11,14.11,0,0,0-1.807-.189,3.485,3.485,0,0,1-1.7-.439c-1.058-.616-2.07-1.317-3.072-2.023a3.631,3.631,0,0,1-.893-.917c-.726-1.076-1.4-2.188-2.114-3.271-.227-.343-.52-.643-.841-1.033a8.821,8.821,0,0,0,.187,4.088c.266.9-.265,1.513-.6,2.2-.06.123-.339.149-.521.2-.255.071-.514.124-.763.182.018.4.056.713.042,1.023a3.672,3.672,0,0,0,.578,2.138,17.548,17.548,0,0,1,1.281,2.622.935.935,0,0,1-.221,1.135c-.163.141-.35.256-.587.427A14.67,14.67,0,0,0,54.1,76.133a9.163,9.163,0,0,1,1.19,1.044c.675.713.66,1.163-.031,1.828a2.66,2.66,0,0,1-1.254.7,7.328,7.328,0,0,1-3.635.334,1.794,1.794,0,0,0-.544.062c.146.16.212.279.314.337,1,.564,2,1.133,3.013,1.67.812.431,1.683.763,2.461,1.247a8.762,8.762,0,0,0,2.76.958,14.623,14.623,0,0,0,3.759.182c.955-.027,1.908-.175,2.859-.3a15.223,15.223,0,0,0,4.16-1.292,13.663,13.663,0,0,0,2.053-1.095,30.027,30.027,0,0,0,2.675-1.965,8.826,8.826,0,0,0,1.854-2.055c.414-.653.751-1.358,1.192-1.974a8.038,8.038,0,0,0,1.282-2.535c.25-.893.613-1.759.81-2.662a9.27,9.27,0,0,0,.229-2.84,2.618,2.618,0,0,1,.2-1.629.611.611,0,0,0-.013-.5,2.216,2.216,0,0,1,.049-2c.22-.5.4-1.007.6-1.511a1.081,1.081,0,0,0-.5.349c-.4.411-.785.829-1.195,1.226a2.488,2.488,0,0,1-1.87.128.55.55,0,0,1-.117-.094c-.571-.665-1.111-1.361-1.721-1.988a5.444,5.444,0,0,0-1.41-1.288,3.178,3.178,0,0,1-.657-.338,4.928,4.928,0,0,0-3.161-.791,2.262,2.262,0,0,0-1.07.13,4.319,4.319,0,0,0-.857.79,7.307,7.307,0,0,0-2.4,6.439.865.865,0,0,1-.2.742C64.62,67.81,64.281,68.142,63.979,68.456Z" transform="translate(-33.242 -38.287)" fill="none" stroke="#000" stroke-miterlimit="10" stroke-width="0.5"/>
    <path id="Path_557" data-name="Path 557" d="M25.818.393C26.968.282,27.831.182,28.7.12A25.372,25.372,0,0,1,34.353.2c1.274.193,2.57.269,3.826.538a12.223,12.223,0,0,1,2.486.689c.891.4,1.866.6,2.787.939.634.232,1.243.535,1.853.826a16.545,16.545,0,0,1,1.506.779c1,.611,1.989,1.252,2.977,1.888.419.27.838.544,1.238.841.568.422,1.133.849,1.669,1.31a3.471,3.471,0,0,1,.5.691c.056.081.083.222.153.245A2.048,2.048,0,0,1,54.7,10.228a.289.289,0,0,0,.157.166c.564.149.708.76,1.154,1.036a.217.217,0,0,1,.051.06c.672.922,1.371,1.827,2.01,2.772a26.811,26.811,0,0,1,2.9,5.483,31.776,31.776,0,0,1,1.616,5.816,28.736,28.736,0,0,1,.451,4.4c.027,1.351-.026,2.706-.1,4.056a20.262,20.262,0,0,1-.717,4.285,49.4,49.4,0,0,1-1.545,4.872,33.406,33.406,0,0,1-1.814,3.746,4.977,4.977,0,0,1-1.269,1.923c-.242.173-.259.555-.473.836q-1.135,1.49-2.4,2.863a7.116,7.116,0,0,1-1.793,1.787c-.216.113-.328.408-.524.577-.471.406-.991.757-1.44,1.185a18.111,18.111,0,0,1-2.33,1.674,12.927,12.927,0,0,1-2.6,1.5c-.568.223-1.065.621-1.629.855a33.28,33.28,0,0,1-3.278,1.226c-.767.227-1.528.451-2.285.718a14.755,14.755,0,0,1-2.441.462,7.847,7.847,0,0,1-1.32.183,16.422,16.422,0,0,0-2.7.176,9.548,9.548,0,0,1-2.654-.022,3.861,3.861,0,0,1-1.582-.247c-.319-.178-.8-.068-1.2-.1a13.748,13.748,0,0,1-3.365-.634,23.608,23.608,0,0,1-2.63-.7c-.793-.381-1.632-.613-2.429-.953A29.143,29.143,0,0,1,15.47,58.64a24.607,24.607,0,0,1-2.2-1.444c-.8-.581-1.584-1.189-2.334-1.832a31.286,31.286,0,0,1-4.366-4.6,29.889,29.889,0,0,1-2.554-3.837,35.822,35.822,0,0,1-1.957-4.283A31.234,31.234,0,0,1,0,31.626a30.031,30.031,0,0,1,.8-7.364A52.034,52.034,0,0,1,2.513,18.98c.4-1.039,1.069-1.968,1.55-2.979a20.079,20.079,0,0,1,1.9-3.053A25.054,25.054,0,0,1,9.7,8.708c.769-.678,1.514-1.386,2.318-2.02a24,24,0,0,1,4.163-2.814c1.366-.674,2.7-1.412,4.1-2.008A9.928,9.928,0,0,1,23.245.947,2.663,2.663,0,0,0,24.33.616,3.232,3.232,0,0,1,25.818.393M23.9,4.539c-.347.153-.557.247-.769.337a5.076,5.076,0,0,1-.694.279A15.152,15.152,0,0,0,18.7,6.624c-.655.371-1.362.651-2.043.976a1.4,1.4,0,0,0-.186.14c-.53.378-1.063.751-1.591,1.132a24.279,24.279,0,0,0-2.132,1.574c-.807.729-1.534,1.549-2.271,2.352A21.4,21.4,0,0,0,7.8,16.312c-.417.7-1.148,1.2-1.264,2.114-.045.354-.446.648-.592,1.007-.363.89-.69,1.8-1,2.7-.372,1.091-.684,2.2-1.074,3.287-.244.677-.251,1.393-.437,2.085a24.12,24.12,0,0,0-.189,2.772,17.058,17.058,0,0,0,.116,4.48A26.488,26.488,0,0,0,5.054,41.6,25.436,25.436,0,0,0,6.66,45.1,30.764,30.764,0,0,0,8.332,47.8a31.935,31.935,0,0,0,3.4,3.985A30.256,30.256,0,0,0,16.3,55.372c.541.352,1.1.68,1.664.991.427.235.876.431,1.318.639q1.164.547,2.332,1.085a1.559,1.559,0,0,0,.234.044c.427.117.859.219,1.279.36a9.11,9.11,0,0,0,1.519.545,40.181,40.181,0,0,0,4.9.657c1.176.019,2.351.11,3.528.124.327,0,.654-.221.983-.227a20.12,20.12,0,0,0,5.163-.908A31.445,31.445,0,0,0,42.739,57.4a26.838,26.838,0,0,0,7.585-4.856,32.038,32.038,0,0,0,3.225-3.506A19.908,19.908,0,0,0,55.784,45.7a29.477,29.477,0,0,0,2.261-5.07,30.516,30.516,0,0,0,1.219-5.544,24.2,24.2,0,0,0-.028-6.44,23.126,23.126,0,0,0-.46-2.935c-.452-1.58-1-3.139-1.6-4.671a22.88,22.88,0,0,0-3.39-6.077,3.43,3.43,0,0,1-.806-1.138c-.178-.757-1.051-.892-1.23-1.59-.578-.211-.815-.765-1.185-1.184-.085-.1-.127-.312-.205-.32-.607-.065-.914-.559-1.284-.918-.534-.518-1.339-.72-1.672-1.479-.062-.141-.359-.183-.552-.261a1.725,1.725,0,0,1-.366-.118,19.5,19.5,0,0,0-3.379-2.03A8.144,8.144,0,0,0,40.269,4.9a4.464,4.464,0,0,1-1.34-.52c-.581-.249-1.221-.231-1.824-.483a2.238,2.238,0,0,0-1.7-.215c-.152.059-.363-.048-.547-.054A29.358,29.358,0,0,0,31.9,3.4c-.853.056-1.706.1-2.56.128a3.764,3.764,0,0,0-.749-.038c-.939.247-1.862.551-2.8.8-.234.063-.581-.088-.734.036a1.187,1.187,0,0,1-1.155.21" transform="translate(0 0)"/>
  </g>
</svg>
