<svg xmlns="http://www.w3.org/2000/svg" width="379.346" height="184.644" viewBox="0 0 379.346 184.644">
  <g id="Group_247" data-name="Group 247" transform="translate(-6.29 -2039.267)">
    <g id="Group_246" data-name="Group 246">
      <path id="Path_427" data-name="Path 427" d="M8.471,2.566,0,55.635l310.44-3.008L317.823,0Z" transform="translate(37.835 2056.387) rotate(-2)" fill="#ec385a" stroke="#000" stroke-width="1.5"/>
      <path id="Path_428" data-name="Path 428" d="M8.471,2.566,0,55.635l310.44-3.008L317.823,0Z" transform="translate(32.594 2051.146) rotate(-2)" fill="#fec62e" stroke="#000" stroke-width="1.5"/>
      <path id="Path_553" data-name="Path 553" d="M.175,0H5.25L6.5-3.15h6.775L14.525,0h5.2l-7.45-17.625H7.6Zm7.75-6.925L9.9-11.875l1.95,4.95ZM21.425,0h4.8V-9.6l7.5,9.6H37.95V-17.5h-4.8v9.25l-7.2-9.25H21.425ZM41.05,0h6.675c6.275,0,9.95-3.75,9.95-8.8v-.05c0-5.05-3.625-8.65-9.85-8.65H41.05Zm6.825-13.225c2.925,0,4.85,1.65,4.85,4.45v.05C52.725-5.9,50.8-4.3,47.875-4.3H45.9v-8.925ZM75.95.35a9.167,9.167,0,0,0,9.45-9.1V-8.8A9.084,9.084,0,0,0,76-17.85a9.167,9.167,0,0,0-9.45,9.1v.05A9.084,9.084,0,0,0,75.95.35ZM76-4.025A4.548,4.548,0,0,1,71.5-8.75V-8.8a4.465,4.465,0,0,1,4.45-4.675A4.513,4.513,0,0,1,80.425-8.75v.05A4.46,4.46,0,0,1,76-4.025ZM87.9,0h4.85V-6.25h8.275v-4.025H92.75V-13.25h9.15V-17.5h-14Zm31.6.35a8.811,8.811,0,0,0,7.725-3.95l-3.65-2.6a4.779,4.779,0,0,1-3.95,2.125c-2.45,0-4.175-2.05-4.175-4.675V-8.8c0-2.55,1.725-4.65,4.175-4.65a4.751,4.751,0,0,1,3.825,2.05l3.65-2.825a8.612,8.612,0,0,0-7.425-3.625,8.969,8.969,0,0,0-9.2,9.1v.05A8.886,8.886,0,0,0,119.5.35Zm18.15,0a9.167,9.167,0,0,0,9.45-9.1V-8.8a9.084,9.084,0,0,0-9.4-9.05,9.167,9.167,0,0,0-9.45,9.1v.05A9.084,9.084,0,0,0,137.65.35Zm.05-4.375a4.548,4.548,0,0,1-4.5-4.725V-8.8a4.465,4.465,0,0,1,4.45-4.675,4.513,4.513,0,0,1,4.475,4.725v.05A4.46,4.46,0,0,1,137.7-4.025ZM157.475.325c4.975,0,8.2-2.5,8.2-8.125v-9.7h-4.9v9.85c0,2.45-1.275,3.6-3.25,3.6-1.95,0-3.225-1.2-3.225-3.725V-17.5h-4.9v9.825C149.4-2.2,152.525.325,157.475.325ZM168.55,0h4.85V-5.3h2.15L179.075,0h5.575l-4.175-6.1a5.544,5.544,0,0,0,3.6-5.4v-.05a5.464,5.464,0,0,0-1.55-4.075c-1.175-1.175-3.025-1.875-5.7-1.875H168.55Zm4.85-9.1v-4.225h3.2c1.6,0,2.625.7,2.625,2.1v.05c0,1.275-.975,2.075-2.6,2.075Zm20,9.4c4.25,0,7.075-2.125,7.075-5.7v-.05c0-3.275-2.5-4.575-6.5-5.45-2.45-.55-3.05-.9-3.05-1.7v-.05c0-.65.575-1.125,1.75-1.125a8.591,8.591,0,0,1,4.9,1.725L200-15.475a11.014,11.014,0,0,0-7.2-2.325c-4.2,0-6.775,2.35-6.775,5.6v.05c0,3.575,2.875,4.625,6.6,5.475,2.4.575,2.975.95,2.975,1.7v.05c0,.75-.7,1.2-2.025,1.2a9.066,9.066,0,0,1-5.675-2.1L185.2-2.6A12.27,12.27,0,0,0,193.4.3Zm9.425-.3h14.2V-4.125h-9.4V-6.9h8.4v-3.825h-8.4V-13.4H216.9v-4.1H202.825Zm30.25,0H237.9V-4.8h-4.825Zm-7,0H230.9V-4.8h-4.825Zm-7,0H223.9V-4.8h-4.825Z" transform="translate(72.898 2088) rotate(-2.6)"/>
      <path id="Path_429" data-name="Path 429" d="M8.1,0-3,97.511l353.939.244L364.573,0Z" transform="matrix(0.999, -0.044, 0.044, 0.999, 16.253, 2125.332)" fill="#ec385a" stroke="#000" stroke-width="1.5"/>
      <path id="Path_430" data-name="Path 430" d="M8.1,0-3,97.511l353.939.244L364.573,0Z" transform="matrix(0.999, -0.044, 0.044, 0.999, 10.157, 2118.782)" fill="#a9ebe2" stroke="#000" stroke-width="1.5"/>
      <path id="Path_554" data-name="Path 554" d="M-144.956,2.17c.248,0,.5.062.682-.062,1.054-.744,1.984-1.55,1.984-2.976a12.929,12.929,0,0,1,0-1.55,26.5,26.5,0,0,0,.434-7.006,10.867,10.867,0,0,1,.248-2.852c.062-.434.248-.744.682-.744a32.844,32.844,0,0,1,3.41-.62c.5,0,.744.124.806.558l.186,1.24c.124,1.054.186,5.58.682,6.572a1.919,1.919,0,0,0,2.356,1.426c1.116-.124,2.232-.124,3.348-.248.682-.062.93-.31.992-.93a20.965,20.965,0,0,0-.062-2.79c-.372-3.844-1.426-10.974-1.736-14.818-.062-1.426-.868-2.666-.992-4.154-.124-2.046-.806-4.03-1.054-6.138a15.876,15.876,0,0,0-2.232-6.2,3.157,3.157,0,0,0-2.294-1.86c-1.116-.124-2.294-.124-3.41-.186a1.321,1.321,0,0,0-1.3.806,8.936,8.936,0,0,0-.806,2.48c-.434,2.418-.806,4.836-1.178,7.254-.5,3.038-1.054,6.076-1.426,9.114-.5,4.464-1.116,8.928-1.426,13.392-.124,1.984-.186,3.906-.372,5.828a18.118,18.118,0,0,1-.248,3.162c-.186.806.062,1.054.93,1.178C-146.134,2.108-145.514,2.108-144.956,2.17Zm5.084-21.328q-.558.093-.558-.558v-.31c.5-2.418.434-4.96.992-7.44a.786.786,0,0,0,.062-.372c.062-.124.062-.372.186-.372.186,0,.186.248.186.372l.558,3.658.558,3.286a1.728,1.728,0,0,1,.062.62.657.657,0,0,1-.558.744A13.048,13.048,0,0,1-139.872-19.158ZM-105.152.186c.93-.062,1.8-.186,2.728-.248a2.524,2.524,0,0,0,1.55-.806A5.405,5.405,0,0,0-99.758-2.79a35.552,35.552,0,0,0,.806-4.34c.248-1.674.434-3.348.682-5.022l.558-4.154c.248-1.8.5-3.6.682-5.332.124-1.054.434-2.046.62-3.1.5-2.666,1.24-5.208,1.984-7.812a41.29,41.29,0,0,0,1.364-5.456,3.379,3.379,0,0,0-.062-1.364c-.124-.682-.434-.93-1.116-.868a12.2,12.2,0,0,0-1.488.186,1.972,1.972,0,0,0-1.55.93,6.156,6.156,0,0,0-1.054,2.232c-.248.868-.372,1.8-.558,2.666-.372,1.736-.806,4.836-1.116,6.572-.31,1.674-1.426,6.634-1.86,8.308-.62,2.294-.992,4.588-1.426,6.944l-.372,2.232c0,.062,0,.248-.124.248-.062,0-.062-.186-.062-.248-.062-.868-.124-1.736-.124-2.6a28.261,28.261,0,0,1-.062-3.968,10.908,10.908,0,0,0-.248-3.162c-.248-1.364.744-5.89.744-7.254a40.387,40.387,0,0,0-.186-7.254,3.493,3.493,0,0,1,0-.806,10.123,10.123,0,0,0-.5-4.526,14.9,14.9,0,0,1-.682-1.426,2.942,2.942,0,0,0-2.108-1.612,6.542,6.542,0,0,0-3.286.124c-.744.186-.992.5-.806,1.24a4.017,4.017,0,0,1,.124,1.24c-.124,2.418-.062,4.836-.062,7.44.124,1.612.062,3.41.124,5.208.062,1.86.186,3.658.31,5.518.124,2.046.124,4.154.186,6.262a15.109,15.109,0,0,0,.062,1.674c.186,1.674.372,3.348.62,5.022a41,41,0,0,0,1.054,6.634A3.217,3.217,0,0,0-105.152.186Zm24.428,2.232c2.418.248,3.1-.5,3.162-2.79V-.744c0-.93-.186-1.116-1.116-1.178-.992-.062-1.984-.124-2.976-.124a3.341,3.341,0,0,1-1.86-.62,1.387,1.387,0,0,1-.62-1.426,10.015,10.015,0,0,0,.124-1.922c.186-2.79.124-5.518.5-8.246.124-.558.31-.868.868-.806a12.2,12.2,0,0,0,3.968-.434,1.613,1.613,0,0,0,1.426-1.612,6.832,6.832,0,0,0-.124-1.116,1.045,1.045,0,0,0-1.054-1.054,16.7,16.7,0,0,0-2.48-.186H-82.4c-.744-.062-.93-.248-.992-.992-.062-1.24-.062-2.48-.062-3.72-.062-4.03.5-8-.062-12.028a.638.638,0,0,1,.682-.806,11.7,11.7,0,0,1,3.6-.186,8.727,8.727,0,0,0,3.1-.186.809.809,0,0,0,.806-.744,1.171,1.171,0,0,0-.558-1.3,1.716,1.716,0,0,0-.806-.186c-1.426-.248-2.852-.5-4.278-.806a18.508,18.508,0,0,0-4.526-.248c-.558,0-1.116.062-1.24.744-.248,2.17-.806,4.216-1.116,6.386-.5,3.534-.868,7.068-1.24,10.6-.434,3.968-.806,8-1.24,11.966A42.514,42.514,0,0,0-90.4-4.092c.186,2.48,1.178,4.092,3.534,4.9A25.572,25.572,0,0,0-80.724,2.418Zm12.4-.5c.93.124,1.24-.124,1.24-1.054-.124-2.48.062-4.9-.186-7.378-.062-.682-.124-1.364-.124-2.046.248-2.976-.062-5.89-.062-8.8,0-1.054-.062-2.108-.124-3.1,0-.248-.124-.682.062-.682.31-.062.372.372.434.62,1.426,3.286,2.79,6.572,4.092,9.92A28.514,28.514,0,0,0-61.07-6.386,6.931,6.931,0,0,0-59.334-4.34a1.483,1.483,0,0,0,2.542-.93,4.107,4.107,0,0,0-.434-3.162,82.3,82.3,0,0,1-3.968-7.254l-4.278-8.556-.744-1.364c-.186-.372-.124-.62.248-.744,1.24-.372,2.232-1.24,3.472-1.55,1.488-.434,2.728-1.178,3.038-2.914a1.97,1.97,0,0,1,.186-.558,5.525,5.525,0,0,0-.868-5.58c-.682-.868-1.426-1.674-2.17-2.48a4.978,4.978,0,0,0-2.976-1.55,10.231,10.231,0,0,0-4.34-.062,4.727,4.727,0,0,1-1.86.124c-.868-.062-1.116.186-.93,1.054a2.2,2.2,0,0,0,.186.682,3.882,3.882,0,0,1,.186,1.674A22.275,22.275,0,0,0-72.23-34.6c-.062,2.666-.186,5.332-.062,7.936.062,1.922-.248,3.844-.186,5.766,0,2.232.062,4.526-.124,6.758a25.162,25.162,0,0,0-.186,4.34c.186,1.55.124,3.162.186,4.774,0,1.364.124,2.728.186,4.092a2.165,2.165,0,0,0,2.232,2.294,2.6,2.6,0,0,1,.992.248A3.585,3.585,0,0,0-68.324,1.922Zm.992-33.294c-.31.186-.558.124-.62-.248-.124-.682-.31-1.3-.372-1.984a19.076,19.076,0,0,0-.124-2.046c-.062-.93,0-.992.744-1.054.62,0,1.24-.062,1.86-.124A3.431,3.431,0,0,1-62.5-35.4c.372.558.372.868-.186,1.054a23.761,23.761,0,0,0-4.154,2.666A2.175,2.175,0,0,1-67.332-31.372Zm20.4,33.356a3.5,3.5,0,0,1,.806,0A4.466,4.466,0,0,0-42.284.248,14.818,14.818,0,0,0-39.308-6.51c.682-3.472.5-7.068.682-10.6.062-2.356-.062-4.712.124-7.068a43.07,43.07,0,0,0,.124-4.9,37.125,37.125,0,0,0-.31-5.89,17.25,17.25,0,0,1-.31-3.6c.062-1.178-1.054-1.674-1.674-2.48,0-.062-.124-.062-.248-.062-.868,0-1.736-.062-2.6-.124-.682-.062-.868.248-.868.93a3.076,3.076,0,0,0,.186.806,14.132,14.132,0,0,1,.682,2.542,21.829,21.829,0,0,1,.248,4.9,18.139,18.139,0,0,1-.5,5.208,21.093,21.093,0,0,0-.434,2.108A37.53,37.53,0,0,1-46-18.352a3.558,3.558,0,0,1-.93,1.426,2.541,2.541,0,0,1-.558-1.736,35.046,35.046,0,0,1-.372-6.262,32.428,32.428,0,0,1,0-3.472,32.874,32.874,0,0,0,.124-4.278c0-1.116-.186-2.17-.186-3.286a4.588,4.588,0,0,0-1.364-2.852,3.544,3.544,0,0,1-.434-.5A3.093,3.093,0,0,0-52.886-40.8c-.682.062-.93.248-.868.992a20.1,20.1,0,0,1-.062,5.456c-.186,1.736-.124,3.41-.248,5.146A48.036,48.036,0,0,0-54-21.886a12.256,12.256,0,0,0,1.674,5.208,5,5,0,0,0,3.41,2.6,11.367,11.367,0,0,1,3.534.868c.93.372.992.372.806,1.364A35,35,0,0,1-46-7.316a15.446,15.446,0,0,1-1.3,2.914c-.124.186-.248.5-.5.372-.248-.062-.186-.372-.124-.558.062-1.3-.124-2.542-.062-3.844a1.939,1.939,0,0,0-.248-1.178,16.585,16.585,0,0,1-1.116-1.736,1.017,1.017,0,0,0-.744-.434,8.383,8.383,0,0,0-2.48-.186c-1.054.124-1.364.434-1.116,1.426a6.75,6.75,0,0,1,.062,2.232c-.31,2.294.248,4.526.31,6.82,0,1.054.186,1.178,1.24,1.426a2.591,2.591,0,0,1,.62.248,23.632,23.632,0,0,0,2.79,1.426A3.383,3.383,0,0,0-46.934,1.984ZM-13.64-1.674a11.416,11.416,0,0,0,6.758,0A3.491,3.491,0,0,0-4.216-4.216a12.549,12.549,0,0,0,.434-3.41A23.7,23.7,0,0,0-4.464-11.9c-.186-.682-.558-1.426-.062-2.046A1.686,1.686,0,0,0-4.4-16a10.031,10.031,0,0,1-.62-1.116c-.62-.992-.93-1.178-2.108-.992a14.433,14.433,0,0,1-3.286.372,1.99,1.99,0,0,0-1.488,1.86,5.067,5.067,0,0,1-.062,1.674,1.419,1.419,0,0,0,1.426,1.612h.372c.93,0,1.116.124,1.116,1.116v1.922A16.248,16.248,0,0,1-9.486-4.96c-.186.5-.372,1.054-.868,1.178s-.744-.5-1.054-.806c-1.612-1.922-1.922-4.278-2.046-6.634-.124-2.852.124-5.642.062-8.494,0-1.488.434-2.914.434-4.4a32.2,32.2,0,0,1,.62-6.51,7.032,7.032,0,0,0,.186-1.55,23.166,23.166,0,0,1,.93-4.588c.062-.062.062-.124.062-.248q.186-.279.372,0a4.824,4.824,0,0,0,4.216,1.922c.806,0,1.116-.31,1.364-1.116a9.454,9.454,0,0,0,.248-3.72A3.472,3.472,0,0,0-7.378-42.9c-.868-.248-1.674-.62-2.542-.93a3.272,3.272,0,0,0-3.968.992c-.62.806-1.178,1.612-1.86,2.418a13.877,13.877,0,0,0-2.79,6.572c-.62,2.852-.558,5.828-.992,8.68-.248,1.984-.248,3.968-.434,5.89a35.436,35.436,0,0,0-.248,8.494,12.938,12.938,0,0,0,3.1,6.944A8.461,8.461,0,0,0-13.64-1.674Zm24.3,3.286a4.6,4.6,0,0,0,1.3-.434,8.052,8.052,0,0,1,1.8-.868,4.734,4.734,0,0,0,2.294-2.48,16.728,16.728,0,0,0,.93-4.96c0-1.054.124-2.108.124-3.1a48.642,48.642,0,0,0,0-5.208c-.062-.806-.372-1.55-.434-2.356-.186-2.976-.062-5.952-.806-8.928-.5-1.86-.5-3.906-.868-5.89-.434-2.542-1.178-3.286-3.224-4.03-1.86-.62-3.72-.806-5.642-1.426-.992-.248-1.426,0-1.922.992A4.566,4.566,0,0,1,2.48-34.782c-.186.062-.31.372-.434.558A8.625,8.625,0,0,0,.744-31c-.5,2.232-.558,4.588-1.364,6.7,0,.062-.062.124-.062.186-.186,3.41-.744,6.758-.558,9.92v1.736A25.465,25.465,0,0,0,.93-1.8,5.768,5.768,0,0,0,4.836,1.488,15.367,15.367,0,0,0,10.664,1.612ZM8.928-1.426a5.4,5.4,0,0,1-.992-1.86A36.4,36.4,0,0,1,6.758-8.432a52.491,52.491,0,0,1-.5-7.006c0-.744-.062-1.55-.124-2.294-.186-1.984.372-3.906.5-5.89a16.662,16.662,0,0,1,.31-3.534l.372-1.426c.248-1.3.93-2.418,1.116-3.844a.628.628,0,0,1,.248-.434c.124-.248.248-.62.558-.558.31,0,.31.372.434.62.992,1.86.806,3.968.992,6.82,0,2.17.062,5.146,0,8.122-.062,1.364-.248,2.728-.248,4.092-.062,3.658-.434,7.192-.744,10.788A9.746,9.746,0,0,1,9.424-1.55C9.362-1.178,9.114-1.178,8.928-1.426ZM31.682,1.612a4.6,4.6,0,0,0,1.3-.434,8.052,8.052,0,0,1,1.8-.868,4.734,4.734,0,0,0,2.294-2.48,16.728,16.728,0,0,0,.93-4.96c0-1.054.124-2.108.124-3.1a48.642,48.642,0,0,0,0-5.208c-.062-.806-.372-1.55-.434-2.356-.186-2.976-.062-5.952-.806-8.928-.5-1.86-.5-3.906-.868-5.89-.434-2.542-1.178-3.286-3.224-4.03-1.86-.62-3.72-.806-5.642-1.426-.992-.248-1.426,0-1.922.992A4.566,4.566,0,0,1,23.5-34.782c-.186.062-.31.372-.434.558A8.625,8.625,0,0,0,21.762-31c-.5,2.232-.558,4.588-1.364,6.7,0,.062-.062.124-.062.186-.186,3.41-.744,6.758-.558,9.92v1.736A25.465,25.465,0,0,0,21.948-1.8a5.768,5.768,0,0,0,3.906,3.286A15.367,15.367,0,0,0,31.682,1.612ZM29.946-1.426a5.4,5.4,0,0,1-.992-1.86,36.4,36.4,0,0,1-1.178-5.146,52.491,52.491,0,0,1-.5-7.006c0-.744-.062-1.55-.124-2.294-.186-1.984.372-3.906.5-5.89a16.662,16.662,0,0,1,.31-3.534l.372-1.426c.248-1.3.93-2.418,1.116-3.844a.628.628,0,0,1,.248-.434c.124-.248.248-.62.558-.558.31,0,.31.372.434.62.992,1.86.806,3.968.992,6.82,0,2.17.062,5.146,0,8.122-.062,1.364-.248,2.728-.248,4.092C31.372-10.106,31-6.572,30.69-2.976a9.745,9.745,0,0,1-.248,1.426C30.38-1.178,30.132-1.178,29.946-1.426ZM48.36.186A16.965,16.965,0,0,0,51.894-.5a28.248,28.248,0,0,0,4.96-2.418,5.525,5.525,0,0,0,1.736-1.86A20.593,20.593,0,0,0,60.7-9.734c.62-2.356,1.116-4.712,1.8-7.068,1.116-3.844,1.3-7.812,1.55-12.09a12.325,12.325,0,0,0-.5-3.162,20.644,20.644,0,0,1-.806-2.79,6.263,6.263,0,0,0-.434-1.426,14.13,14.13,0,0,0-2.728-3.6,7.036,7.036,0,0,0-2.232-1.488,24.434,24.434,0,0,0-4.278-1.3,10.633,10.633,0,0,0-2.79-.248,1.674,1.674,0,0,0-1.364.806,5.834,5.834,0,0,0-.744,1.364c-.124.372-.372.434-.744.31a5.081,5.081,0,0,0-1.922-.186c-.744.062-.992.372-.992,1.054a26.371,26.371,0,0,1-.372,4.4,45.9,45.9,0,0,0-.5,5.022,55.488,55.488,0,0,1-.558,6.386,29.089,29.089,0,0,0-.31,5.7,46.25,46.25,0,0,1-.248,6.572,29.3,29.3,0,0,1-1.55,6.51,4.665,4.665,0,0,0-.124,2.6A5.629,5.629,0,0,1,41.044-.93a.435.435,0,0,0,.434.558c.62.062,1.178.372,1.736.434A23.819,23.819,0,0,0,48.36.186Zm-.434-3.472c-.062-.062,0-.186.062-.31.186-.806.372-1.612.5-2.356A3.27,3.27,0,0,1,48.67-6.7a14.98,14.98,0,0,0,1.054-5.456c.062-.868.062-1.674.062-2.542a5.349,5.349,0,0,1,.248-1.736,20.7,20.7,0,0,0,.744-3.906c.062-.682.248-1.3.31-1.922a14.963,14.963,0,0,0-.124-3.72,5.484,5.484,0,0,1,0-1.426,33.883,33.883,0,0,0-.186-4.34c-.062-.372-.186-.682-.248-1.054-.186-.744-.186-1.426.62-1.86a1.887,1.887,0,0,0,.5-.5c.372-.868.93-1.612,1.3-2.48a7.134,7.134,0,0,1,.744-1.55c.5-.682.744-.682,1.178,0a12.076,12.076,0,0,1,1.488,2.79,10.491,10.491,0,0,1,.434,2.356,11.813,11.813,0,0,0,.5,3.348,8.507,8.507,0,0,1,.31,2.48c-.062,1.426-.124,2.852-.248,4.278-.124,1.736-.248,3.41-.5,5.146a27.651,27.651,0,0,1-1.24,4.96c-.558,1.736-1.116,3.472-1.8,5.208l-.372.868A7.722,7.722,0,0,1,48.3-3.286C48.174-3.286,48.05-3.162,47.926-3.286ZM90.768.372A10.741,10.741,0,0,0,93.93.124a6.874,6.874,0,0,0,4.9-4.4c.31-.744.558-1.55.806-2.294a25.051,25.051,0,0,0,.744-9.362c-.186-1.736-.5-3.472-.744-5.27a7.526,7.526,0,0,0-1.8-4.278c-.248-.248-.248-.5.062-.744a3.454,3.454,0,0,0,1.178-1.86.989.989,0,0,1,.186-.5,7.311,7.311,0,0,0,.558-2.852,7.173,7.173,0,0,1,.31-2.79v-.31a9.448,9.448,0,0,0-.434-3.72,4.167,4.167,0,0,0-1.054-1.922A6.88,6.88,0,0,0,95.666-42.1a11.961,11.961,0,0,0-6.262-.434,2.182,2.182,0,0,1-1.24.186,5.886,5.886,0,0,0-2.542.062c-1.054.124-1.3.434-1.488,1.488-.372,2.79-.62,5.518-.806,8.308-.124,2.17-.31,4.34-.372,6.448-.062,2.294-.31,4.588-.5,6.82-.124,1.178-.062,2.356-.186,3.534-.186,2.294-.186,4.65-.248,6.448v4.092A20.164,20.164,0,0,0,82.15-1.8c.186,1.24.682,1.674,1.922,1.674.93,0,1.922.062,2.852.124A38.442,38.442,0,0,1,90.768.372Zm1.116-29.326c-.186.124-.31.062-.248-.186.062-.682.062-1.364.186-2.046a21.022,21.022,0,0,0,.062-5.58c-.062-.558-.062-1.178-.124-1.736a.8.8,0,0,1,.868-.992l1.178.186a1.284,1.284,0,0,1,.806.682,4.224,4.224,0,0,1,.5,2.108,11,11,0,0,1-.5,2.48c-.248.868-.5,1.736-.806,2.6A4.482,4.482,0,0,1,91.884-28.954ZM89.838-2.976A6.832,6.832,0,0,1,88.722-3.1c-1.178-.248-1.178-.248-.93-1.426a27.288,27.288,0,0,0,.31-3.162c.124-.806.248-1.674.434-2.48a12.526,12.526,0,0,0,.5-3.72,8.252,8.252,0,0,1,.31-2.48,1.82,1.82,0,0,0,.186-.62A38.03,38.03,0,0,1,90.4-22.2l.186-1.054a1,1,0,0,1,.186-.558c.248-.248.434-.31.682-.062a1.3,1.3,0,0,1,.248.372,13.014,13.014,0,0,1,.93,1.86q.558,1.86,1.3,3.72a6.671,6.671,0,0,1,.62,2.728,31.015,31.015,0,0,1-1.86,9.92,4.842,4.842,0,0,1-2.418,2.294A.53.53,0,0,1,89.838-2.976Zm25.11,4.588a4.6,4.6,0,0,0,1.3-.434,8.052,8.052,0,0,1,1.8-.868,4.734,4.734,0,0,0,2.294-2.48,16.728,16.728,0,0,0,.93-4.96c0-1.054.124-2.108.124-3.1a48.642,48.642,0,0,0,0-5.208c-.062-.806-.372-1.55-.434-2.356-.186-2.976-.062-5.952-.806-8.928-.5-1.86-.5-3.906-.868-5.89-.434-2.542-1.178-3.286-3.224-4.03-1.86-.62-3.72-.806-5.642-1.426-.992-.248-1.426,0-1.922.992a4.566,4.566,0,0,1-1.736,2.294c-.186.062-.31.372-.434.558a8.625,8.625,0,0,0-1.3,3.224c-.5,2.232-.558,4.588-1.364,6.7,0,.062-.062.124-.062.186-.186,3.41-.744,6.758-.558,9.92v1.736A25.465,25.465,0,0,0,105.214-1.8a5.768,5.768,0,0,0,3.906,3.286A15.367,15.367,0,0,0,114.948,1.612Zm-1.736-3.038a5.4,5.4,0,0,1-.992-1.86,36.4,36.4,0,0,1-1.178-5.146,52.49,52.49,0,0,1-.5-7.006c0-.744-.062-1.55-.124-2.294-.186-1.984.372-3.906.5-5.89a16.662,16.662,0,0,1,.31-3.534l.372-1.426c.248-1.3.93-2.418,1.116-3.844a.628.628,0,0,1,.248-.434c.124-.248.248-.62.558-.558.31,0,.31.372.434.62.992,1.86.806,3.968.992,6.82,0,2.17.062,5.146,0,8.122-.062,1.364-.248,2.728-.248,4.092-.062,3.658-.434,7.192-.744,10.788a9.746,9.746,0,0,1-.248,1.426C113.646-1.178,113.4-1.178,113.212-1.426Zm18.042,3.41a3.5,3.5,0,0,1,.806,0A4.466,4.466,0,0,0,135.9.248,14.817,14.817,0,0,0,138.88-6.51c.682-3.472.5-7.068.682-10.6.062-2.356-.062-4.712.124-7.068a43.069,43.069,0,0,0,.124-4.9,37.126,37.126,0,0,0-.31-5.89,17.25,17.25,0,0,1-.31-3.6c.062-1.178-1.054-1.674-1.674-2.48,0-.062-.124-.062-.248-.062-.868,0-1.736-.062-2.6-.124-.682-.062-.868.248-.868.93a3.076,3.076,0,0,0,.186.806,14.133,14.133,0,0,1,.682,2.542,21.829,21.829,0,0,1,.248,4.9,18.139,18.139,0,0,1-.5,5.208,21.089,21.089,0,0,0-.434,2.108,37.529,37.529,0,0,1-1.8,6.386,3.558,3.558,0,0,1-.93,1.426,2.541,2.541,0,0,1-.558-1.736,35.045,35.045,0,0,1-.372-6.262,32.434,32.434,0,0,1,0-3.472,32.873,32.873,0,0,0,.124-4.278c0-1.116-.186-2.17-.186-3.286a4.588,4.588,0,0,0-1.364-2.852,3.544,3.544,0,0,1-.434-.5A3.093,3.093,0,0,0,125.3-40.8c-.682.062-.93.248-.868.992a20.1,20.1,0,0,1-.062,5.456c-.186,1.736-.124,3.41-.248,5.146a48.035,48.035,0,0,0,.062,7.316,12.256,12.256,0,0,0,1.674,5.208,5,5,0,0,0,3.41,2.6,11.367,11.367,0,0,1,3.534.868c.93.372.992.372.806,1.364a35,35,0,0,1-1.426,4.526,15.445,15.445,0,0,1-1.3,2.914c-.124.186-.248.5-.5.372-.248-.062-.186-.372-.124-.558.062-1.3-.124-2.542-.062-3.844a1.939,1.939,0,0,0-.248-1.178,16.586,16.586,0,0,1-1.116-1.736,1.017,1.017,0,0,0-.744-.434,8.383,8.383,0,0,0-2.48-.186c-1.054.124-1.364.434-1.116,1.426a6.75,6.75,0,0,1,.062,2.232c-.31,2.294.248,4.526.31,6.82,0,1.054.186,1.178,1.24,1.426a2.591,2.591,0,0,1,.62.248,23.632,23.632,0,0,0,2.79,1.426A3.383,3.383,0,0,0,131.254,1.984Zm13.578-13.206a1.6,1.6,0,0,1,.93-.062c.93.062,1.3-.372,1.24-1.488-.062-1.364.186-2.728,0-4.03v-.186a20.167,20.167,0,0,0,.186-2.728,2.57,2.57,0,0,1,.186-.992,12.2,12.2,0,0,0,.31-2.17c.062-2.79.124-5.58.062-8.37a43.026,43.026,0,0,0-.62-6.882,4.652,4.652,0,0,0-2.108-3.534,6.567,6.567,0,0,1-.744-.62,1.587,1.587,0,0,0-1.178-.248.714.714,0,0,0-.558.806c-.062,1.364-.248,2.728-.248,4.092v9.92c0,2.48.062,4.96.124,7.44,0,1.8,0,3.6.124,5.394a5.994,5.994,0,0,0,.93,2.914A1.216,1.216,0,0,0,144.832-11.222Zm1.612,8.928c.744,0,1.116-.31,1.054-1.054a15.935,15.935,0,0,0-.5-3.844,1.979,1.979,0,0,0-.868-1.116l-1.3-.682a2.388,2.388,0,0,0-1.612-.062.879.879,0,0,0-.682.992c0,.5.062.992.062,1.488.062.806.062,1.612.186,2.418a1.975,1.975,0,0,0,1.736,1.674C145.142-2.356,145.824-2.356,146.444-2.294Z" transform="matrix(0.999, -0.035, 0.035, 0.999, 191.073, 2182.45)"/>
    </g>
  </g>
</svg>
