<svg xmlns="http://www.w3.org/2000/svg" xmlns:xlink="http://www.w3.org/1999/xlink" width="59.727" height="59.661" viewBox="0 0 59.727 59.661">
  <defs>
    <clipPath id="clip-path">
      <rect id="Rectangle_1035" data-name="Rectangle 1035" width="59.727" height="59.661" fill="none"/>
    </clipPath>
  </defs>
  <g id="Group_251" data-name="Group 251" transform="translate(0)">
    <g id="Group_250" data-name="Group 250" transform="translate(0)" clip-path="url(#clip-path)">
      <path id="Path_558" data-name="Path 558" d="M60.692,31.251A29.311,29.311,0,1,1,31.381,1.94,29.311,29.311,0,0,1,60.692,31.251" transform="translate(-1.515 -1.42)" fill="#fc7857"/>
      <path id="Path_559" data-name="Path 559" d="M56.824,60.658c1.6.07,3.193.162,4.791.2.943.023,1.887-.034,2.831-.06,1.668-.046,3.337-.133,5-.13a28.606,28.606,0,0,1,2.976.23c1.036.111,2.074.231,3.1.419a2.126,2.126,0,0,1,1.412.843c.226.308.294.758.589.928a1.336,1.336,0,0,1,.6.884c.232.769.371,1.565.6,2.335a24.519,24.519,0,0,1,.6,5c.145,1.741.046,3.487.149,5.229a5.035,5.035,0,0,1-.17,1.377,10.79,10.79,0,0,0-.065,1.978,6.351,6.351,0,0,1-1.065,3.978c-.221.277-.392.629-.809.679-.482.756-1.378.882-2.068,1.315a5.118,5.118,0,0,1-2.476.536,7.952,7.952,0,0,0-2,.285,8.436,8.436,0,0,1-1.491.248c-.577.076-1.156.139-1.736.2a5.51,5.51,0,0,1-.572,0c-.123,0-.274-.05-.364,0-.226.135-.393.327-.723.244-.23-.058-.5.074-.752.07-.349-.006-.7-.088-1.047-.084-.328,0-.765.231-.961.091-.569-.407-1.034-.133-1.574-.009a11.261,11.261,0,0,1-1.737.139c-.364.025-.711.428-1.1.04-.038-.038-.19.027-.285.059a6.515,6.515,0,0,1-3.025.219.655.655,0,0,0-.3-.018c-.937.371-1.835-.053-2.751-.114-.39-.026-.784.015-1.173-.02a20.213,20.213,0,0,0-2.215-.233c-.984.021-1.8-.53-2.749-.644a1.9,1.9,0,0,1-.984-.7,6.064,6.064,0,0,1-1.137-2.071,16.269,16.269,0,0,1-.657-3.967,10.721,10.721,0,0,1,.125-2c.084-.885-.036-1.768,0-2.651.017-.4,0-.8.049-1.2a7.373,7.373,0,0,0-.194-1.586,6.359,6.359,0,0,1,.092-1.811,13.706,13.706,0,0,0,.135-3.567,4.121,4.121,0,0,1,.96-3.142c.412-.482.739-1.027,1.208-1.485a2.987,2.987,0,0,1,1.669-.753c1.219-.225,2.446-.414,3.668-.621a29.928,29.928,0,0,1,5.629-.664m14.9,22.381a5.671,5.671,0,0,0,3.29-.53.838.838,0,0,0,.561-.851c-.008-1.31.043-2.62.049-3.93.005-.987-.012-1.975-.039-2.961-.038-1.382-.07-2.765-.153-4.145a17.86,17.86,0,0,0-.313-2.475c-.1-.508-.461-.967-.546-1.475a2.1,2.1,0,0,0-.859-1.324,8.446,8.446,0,0,0-1.366-.737.235.235,0,0,0-.142-.039c-.934.239-1.847-.181-2.805-.046A25.694,25.694,0,0,1,66.31,64.5c-.587.01-1.171-.07-1.745-.053a8.33,8.33,0,0,1-2.1.005,3.685,3.685,0,0,0-1.456.007A12.837,12.837,0,0,1,58.1,64.4c-.631-.018-1.283-.122-1.932-.114a9.746,9.746,0,0,1-1.625.014,5.7,5.7,0,0,0-2.62.318c-.82.253-1.622.567-2.422.881-.545.214-1.063.494-1.607.709a1.259,1.259,0,0,0-.8,1.364c.017,1.606.029,3.211.024,4.817,0,.338-.13.679-.113,1.014.061,1.191.166,2.379.242,3.569.043.681.1,1.365.079,2.046-.026.751.323,1.506-.051,2.26a1.082,1.082,0,0,0,.022.655c.1.4.249.784.349,1.183.2.8.358.966,1.156,1.093a20.382,20.382,0,0,0,2.4.329c.522.02,1.027.107,1.54.145a9.285,9.285,0,0,0,.957-.136,37.112,37.112,0,0,0,5.128-.134c.782-.136,1.574-.225,2.366-.29a11.207,11.207,0,0,1,3.043-.061,1.365,1.365,0,0,0,.511-.057c.681-.144,1.355-.323,2.04-.438.552-.093,1.118-.106,1.676-.167,1.146-.124,2.292-.256,3.261-.364" transform="translate(-31.798 -44.404)"/>
      <path id="Path_560" data-name="Path 560" d="M24.461.372c1.09-.1,1.907-.2,2.728-.259a24.039,24.039,0,0,1,5.359.072c1.207.183,2.435.255,3.625.509a11.581,11.581,0,0,1,2.356.652c.844.376,1.768.571,2.64.89.6.22,1.178.507,1.756.783a15.676,15.676,0,0,1,1.427.738c.951.579,1.884,1.186,2.82,1.788.4.256.794.515,1.173.8.538.4,1.074.8,1.581,1.241a3.288,3.288,0,0,1,.475.655c.053.076.079.21.145.232A1.94,1.94,0,0,1,51.821,9.69a.274.274,0,0,0,.149.158c.535.141.671.72,1.094.981a.206.206,0,0,1,.049.057c.637.874,1.3,1.731,1.9,2.626a25.4,25.4,0,0,1,2.745,5.2,30.1,30.1,0,0,1,1.531,5.51,27.227,27.227,0,0,1,.427,4.171c.025,1.28-.024,2.564-.1,3.843a19.2,19.2,0,0,1-.68,4.06,46.8,46.8,0,0,1-1.464,4.616,31.648,31.648,0,0,1-1.719,3.549,4.716,4.716,0,0,1-1.2,1.822c-.229.164-.246.526-.448.792q-1.075,1.412-2.272,2.713a6.742,6.742,0,0,1-1.7,1.693c-.2.107-.311.387-.5.547-.446.385-.939.717-1.364,1.123a17.16,17.16,0,0,1-2.208,1.586,12.248,12.248,0,0,1-2.46,1.419c-.538.211-1.009.588-1.544.81a31.535,31.535,0,0,1-3.106,1.162c-.727.215-1.448.427-2.165.68a13.98,13.98,0,0,1-2.313.438,7.434,7.434,0,0,1-1.25.173,15.559,15.559,0,0,0-2.557.167,9.046,9.046,0,0,1-2.514-.021,3.658,3.658,0,0,1-1.5-.234c-.3-.169-.754-.064-1.138-.094a13.025,13.025,0,0,1-3.188-.6,22.372,22.372,0,0,1-2.492-.668c-.751-.361-1.546-.581-2.3-.9a27.612,27.612,0,0,1-2.886-1.5,23.316,23.316,0,0,1-2.084-1.368c-.758-.551-1.5-1.126-2.212-1.736a29.642,29.642,0,0,1-4.137-4.361,28.318,28.318,0,0,1-2.42-3.636A33.941,33.941,0,0,1,1.951,40.4,29.593,29.593,0,0,1,0,29.964a28.453,28.453,0,0,1,.762-6.977,49.3,49.3,0,0,1,1.618-5C2.755,17,3.394,16.117,3.849,15.16a19.024,19.024,0,0,1,1.8-2.893A23.737,23.737,0,0,1,9.187,8.25c.728-.642,1.434-1.313,2.2-1.914A22.739,22.739,0,0,1,15.328,3.67c1.294-.639,2.562-1.338,3.888-1.9A9.406,9.406,0,0,1,22.023.9,2.523,2.523,0,0,0,23.051.583a3.062,3.062,0,0,1,1.41-.211M22.647,4.3c-.329.145-.528.234-.728.319a4.81,4.81,0,0,1-.657.264,14.356,14.356,0,0,0-3.548,1.392c-.621.352-1.29.617-1.936.925a1.325,1.325,0,0,0-.176.133c-.5.358-1.007.712-1.507,1.072A23,23,0,0,0,12.074,9.9c-.764.691-1.453,1.468-2.151,2.228A20.28,20.28,0,0,0,7.39,15.455c-.4.666-1.088,1.137-1.2,2-.042.335-.422.614-.561.954-.344.843-.654,1.7-.948,2.563-.352,1.034-.648,2.087-1.018,3.114-.231.641-.238,1.32-.414,1.975a22.853,22.853,0,0,0-.179,2.627,16.162,16.162,0,0,0,.11,4.245A25.1,25.1,0,0,0,4.788,39.41,24.1,24.1,0,0,0,6.31,42.725,29.148,29.148,0,0,0,7.894,45.29a30.257,30.257,0,0,0,3.222,3.776,28.666,28.666,0,0,0,4.325,3.4c.512.333,1.041.644,1.576.939.4.223.83.408,1.249.605q1.1.518,2.209,1.028a1.477,1.477,0,0,0,.221.042c.4.11.814.208,1.212.341a8.631,8.631,0,0,0,1.44.517,38.07,38.07,0,0,0,4.645.622c1.114.018,2.228.1,3.342.117.309,0,.62-.21.931-.215a19.062,19.062,0,0,0,4.892-.861,29.791,29.791,0,0,0,3.334-1.218,25.427,25.427,0,0,0,7.186-4.6,30.355,30.355,0,0,0,3.055-3.322A18.862,18.862,0,0,0,52.852,43.3a27.928,27.928,0,0,0,2.142-4.8,28.913,28.913,0,0,0,1.155-5.252,22.932,22.932,0,0,0-.027-6.1,21.911,21.911,0,0,0-.436-2.781c-.428-1.5-.945-2.974-1.513-4.425a21.678,21.678,0,0,0-3.212-5.757A3.25,3.25,0,0,1,50.2,13.1c-.168-.718-1-.845-1.165-1.506-.548-.2-.772-.725-1.123-1.122-.081-.091-.121-.3-.195-.3-.575-.062-.866-.529-1.216-.87-.506-.491-1.269-.682-1.584-1.4-.059-.133-.34-.174-.523-.247a1.635,1.635,0,0,1-.346-.112,18.471,18.471,0,0,0-3.2-1.924,7.716,7.716,0,0,0-2.69-.974,4.23,4.23,0,0,1-1.27-.492c-.551-.236-1.157-.219-1.728-.458a2.12,2.12,0,0,0-1.608-.2c-.144.056-.343-.046-.518-.051a27.816,27.816,0,0,0-2.805-.215c-.808.053-1.617.091-2.425.121a3.566,3.566,0,0,0-.709-.036c-.889.234-1.764.522-2.652.761-.222.06-.551-.083-.7.034a1.125,1.125,0,0,1-1.094.2" transform="translate(0 0)"/>
      <path id="Path_561" data-name="Path 561" d="M102.505,97.491a2.745,2.745,0,0,0-1.546.9,4.57,4.57,0,0,1-1.465.988c-.869.413-1.685.938-2.564,1.3a15.878,15.878,0,0,0-2.339,1.345,14.5,14.5,0,0,1-2.246,1.064l-1.753-.634a1,1,0,0,0-.229-.371,1.512,1.512,0,0,1-.533-1.319,38.452,38.452,0,0,1,.539-5.262c.147-.9.185-1.823.251-2.737a.714.714,0,0,0-.162-.405,1.129,1.129,0,0,1,.076-1.372.868.868,0,0,1,1.133-.3c1.269.437,2.643.471,3.862,1.129.677.365,1.516.419,2.223.742a5.216,5.216,0,0,1,1.833.933c.076.08.226.088.338.136.655.281,1.31.559,1.961.848.132.059.236.212.368.234.46.079.674.28.5.764a.312.312,0,0,0,.028.219,1.082,1.082,0,0,1-.2,1.4c-.07.068-.046.234-.072.4m-9.453,1.3c.82-.394,1.565-.723,2.282-1.105a5.314,5.314,0,0,0,2.1-1.286,32.322,32.322,0,0,1-4.85-2.511c-.183,1.6.583,3.018.332,4.5-.018.1.072.226.135.4" transform="translate(-65.762 -66.323)"/>
    </g>
  </g>
</svg>
