<svg xmlns="http://www.w3.org/2000/svg" xmlns:xlink="http://www.w3.org/1999/xlink" width="41.833" height="60.925" viewBox="0 0 41.833 60.925"><defs><clipPath id="a"><rect width="41.833" height="60.925" fill="none" stroke="#000" stroke-width="1.5"/></clipPath></defs><g transform="translate(41.833 60.925) rotate(180)"><g transform="translate(-0.001)"><g transform="translate(0)"><g clip-path="url(#a)"><path d="M34.811,16.008S36.856,27.138,42,32.855s9.106,10.778,9.106,10.778S37.648,48.125,36.461,56.215L35.273,64.3S34.877,46.319,23,43.633c0,0,11.349-17.328,11.811-27.625" transform="translate(-13.894 -9.67)" fill="#fdc541"/><path d="M36.015,64.414l-1.488-.092h0a35.708,35.708,0,0,0-1.656-9.144,20.5,20.5,0,0,0-3.528-6.717,11.683,11.683,0,0,0-6.5-4.1l-1.054-.238.592-.9c.028-.043,2.855-4.374,5.7-9.9,2.6-5.056,5.757-12.171,5.99-17.351l1.487-.1a52.494,52.494,0,0,0,1.647,6.2,29.52,29.52,0,0,0,5.365,10.28c5.105,5.67,9.1,10.767,9.139,10.818l.655.837-1.008.336c-.13.043-13.037,4.443-14.144,11.98ZM24.182,43.174a13.263,13.263,0,0,1,6.325,4.344,22.022,22.022,0,0,1,3.8,7.225,34.579,34.579,0,0,1,1.034,3.964l.382-2.6A10.968,10.968,0,0,1,38.7,50.329a23.518,23.518,0,0,1,5.143-4.08,39.542,39.542,0,0,1,6.035-2.963c-1.323-1.652-4.553-5.624-8.43-9.93-2.2-2.448-4.116-6.093-5.681-10.834-.3-.917-.562-1.783-.779-2.564a41.536,41.536,0,0,1-1.511,4.969,81.84,81.84,0,0,1-4.076,9.1C27.273,38.152,25.156,41.623,24.182,43.174Z" transform="translate(-13.894 -9.67)"/></g></g><g transform="translate(0 0)"><g transform="translate(0)"><path d="M4.2,32.751a24.93,24.93,0,0,1,5.772-3.658,13.13,13.13,0,0,0,6.765-7.027c1.162-3,4.326-15.9,4.545-16.473.242-.637.456-1.284.694-1.924a2.073,2.073,0,0,1,2.2-1.4,2.174,2.174,0,0,1,2.192,1.389,31.119,31.119,0,0,1,.976,3.172c.415,1.8.7,3.62,1.118,5.414a23.152,23.152,0,0,0,.887,2.574c1.2,3.3,2.217,6.7,4.3,9.594a16.142,16.142,0,0,0,2.973,3.005c1.343,1.085,2.861,1.953,4.244,2.993a4.269,4.269,0,0,1,1.97,2.573c.451,2.345.021,3.428-2.159,4.5-2.377,1.172-4.775,2.311-7.209,3.363a7.667,7.667,0,0,0-4.479,4.928,82.124,82.124,0,0,0-1.735,8.1c-.3,1.57-.415,3.18-.763,4.738a3.04,3.04,0,0,1-2.67,2.693,3.394,3.394,0,0,1-3.71-2.875c-.555-2.453-.766-4.983-1.181-7.47a32.552,32.552,0,0,0-2.69-8.611c-1.007-2.124-3.1-2.9-5.2-3.56-1.641-.516-3.273-1.065-4.9-1.634a2.467,2.467,0,0,1-1.882-3.135A5.024,5.024,0,0,0,4.2,32.751m10.2.963a13.239,13.239,0,0,1,2.028.923,17.262,17.262,0,0,1,3.8,2.866,14.913,14.913,0,0,1,3,5.661c.084.316.462.553.784.919.222-.432.347-.645.445-.867a14.741,14.741,0,0,1,8.254-8.055,25.223,25.223,0,0,0,2.448-1.312c-1.232-1.073-2.337-2.032-3.438-3-2.71-2.366-4.354-5.476-5.9-8.627a49.216,49.216,0,0,1-1.688-4.657,8.732,8.732,0,0,0-.734-1.221,54.356,54.356,0,0,1-1.413,6.693c-.708,2.068-1.1,4.356-2.747,6-1.551,1.551-3.155,3.048-4.842,4.67" transform="translate(-2.516 -1.366)" fill="#fff"/><path d="M23.309,62.109A4.244,4.244,0,0,1,19.374,58.6c-.357-1.576-.576-3.194-.788-4.758-.123-.906-.25-1.844-.4-2.754a31.8,31.8,0,0,0-2.628-8.414c-.861-1.816-2.661-2.508-4.751-3.165-1.541-.485-3.15-1.022-4.919-1.642a3.776,3.776,0,0,1-2.013-1.443,3.273,3.273,0,0,1-.365-2.508,4.279,4.279,0,0,0-.049-1.039l-.072-.422.327-.277A25.676,25.676,0,0,1,9.66,28.411a12.329,12.329,0,0,0,6.379-6.621c.8-2.069,2.594-9.02,3.667-13.175.6-2.326.8-3.095.874-3.288.128-.338.252-.689.372-1.028.1-.289.207-.587.316-.882a2.84,2.84,0,0,1,2.917-1.9,2.9,2.9,0,0,1,2.879,1.873l0,.01a32,32,0,0,1,1,3.249l0,.013c.209.9.386,1.819.558,2.706s.35,1.8.556,2.691a22.489,22.489,0,0,0,.854,2.474l.012.03c.174.48.346.968.513,1.441a31.157,31.157,0,0,0,3.682,7.963,15.4,15.4,0,0,0,2.829,2.858l.012.009c.725.586,1.495,1.1,2.309,1.645.633.424,1.288.861,1.915,1.333a5.177,5.177,0,0,1,2.106,6.216A4.7,4.7,0,0,1,41,38.165c-2.778,1.37-5.079,2.443-7.243,3.378l-.017.007a6.882,6.882,0,0,0-4.038,4.436A81.71,81.71,0,0,0,27.989,54l0,.023c-.133.685-.231,1.4-.325,2.091-.12.875-.244,1.779-.442,2.667a3.788,3.788,0,0,1-3.261,3.266A3.441,3.441,0,0,1,23.309,62.109ZM5,33.064a5.769,5.769,0,0,1,0,1.025l0,.048-.01.047c-.254,1.176.151,1.834,1.4,2.269,1.754.615,3.348,1.147,4.873,1.627a15.1,15.1,0,0,1,3.171,1.3,6.052,6.052,0,0,1,2.486,2.652,33.3,33.3,0,0,1,2.752,8.81c.155.932.284,1.881.408,2.8.208,1.532.422,3.117.764,4.629a2.635,2.635,0,0,0,2.838,2.3,2.31,2.31,0,0,0,2.08-2.121c.184-.826.3-1.66.419-2.543.1-.708.2-1.44.337-2.162a83.208,83.208,0,0,1,1.749-8.16l.006-.02a8.374,8.374,0,0,1,4.908-5.406c2.138-.924,4.415-1.987,7.166-3.344,1.809-.892,2.153-1.615,1.754-3.688a3.564,3.564,0,0,0-1.684-2.116c-.593-.446-1.23-.872-1.846-1.284-.8-.538-1.637-1.094-2.412-1.72a16.9,16.9,0,0,1-3.105-3.14l-.011-.015a32.253,32.253,0,0,1-3.885-8.348c-.164-.465-.333-.945-.5-1.414a23.993,23.993,0,0,1-.91-2.642l-.008-.032c-.214-.92-.4-1.857-.572-2.763-.169-.872-.344-1.773-.546-2.646a30.49,30.49,0,0,0-.949-3.083,1.415,1.415,0,0,0-1.434-.906l-.07.005-.07-.008a1.331,1.331,0,0,0-1.4.89l-.007.021c-.106.286-.211.582-.311.868-.122.346-.248.7-.382,1.057-.067.2-.436,1.623-.826,3.135-1.081,4.19-2.891,11.2-3.722,13.348l0,.011a13.821,13.821,0,0,1-7.152,7.428A24.17,24.17,0,0,0,5,33.064ZM24.176,45.4l-.727-.826c-.086-.1-.182-.189-.284-.285a2.05,2.05,0,0,1-.66-.931,14.26,14.26,0,0,0-2.852-5.373l-.005-.006a11.5,11.5,0,0,0-2.722-2.128c-.293-.187-.6-.381-.89-.578a12.525,12.525,0,0,0-1.887-.856l.252-.706-.522-.543c.517-.5,1.031-.987,1.528-1.461,1.148-1.095,2.233-2.129,3.3-3.2a9.86,9.86,0,0,0,2.142-4.369c.134-.443.273-.9.426-1.346a28.306,28.306,0,0,0,.981-4.367c.124-.72.251-1.465.406-2.231L23,14.511l1,1.4a9.513,9.513,0,0,1,.8,1.326l.027.055.018.058c.473,1.544,1.03,3.08,1.654,4.566,1.532,3.125,3.124,6.116,5.709,8.373.783.686,1.568,1.369,2.4,2.092l1.039.9.773.673-.875.533a26.077,26.077,0,0,1-2.521,1.351l-.045.019A13.991,13.991,0,0,0,25.149,43.5l-.005.012c-.073.166-.155.321-.259.517-.058.109-.125.236-.205.392ZM20.8,37.021a15.778,15.778,0,0,1,3.071,5.66,15.491,15.491,0,0,1,8.545-8.21c.493-.231.981-.48,1.461-.744l-.248-.216c-.832-.724-1.617-1.407-2.4-2.094-2.8-2.444-4.472-5.586-6.078-8.861l-.018-.039c-.516-1.227-.988-2.488-1.406-3.759A28.932,28.932,0,0,1,22.7,23.283c-.144.421-.273.846-.41,1.3a11.142,11.142,0,0,1-2.517,4.995C18.688,30.656,17.6,31.7,16.442,32.8l-.689.657q.533.243,1.044.529l.052.032c.287.193.591.387.885.575A12.782,12.782,0,0,1,20.8,37.021Z" transform="translate(-2.516 -1.366)"/></g></g></g></g></svg>