<?xml version="1.0" encoding="UTF-8"?>
<svg id="Capa_1" xmlns="http://www.w3.org/2000/svg" version="1.1" xmlns:xlink="http://www.w3.org/1999/xlink" viewBox="0 0 145.9 141.3">
  <!-- Generator: Adobe Illustrator 29.1.0, SVG Export Plug-In . SVG Version: 2.1.0 Build 142)  -->
  <defs>
    <style>
      .st0 {
        fill: #8d6c9f;
      }

      .st1 {
        fill: #f494bc;
      }

      .st2 {
        fill: none;
      }

      .st3 {
        fill: #ec385a;
      }

      .st4 {
        fill: #fff8ee;
      }

      .st5 {
        fill: #85cbf8;
      }

      .st6 {
        clip-path: url(#clippath);
      }
    </style>
    <clipPath id="clippath">
      <rect class="st2" x="29.7" y="23.6" width="87.2" height="95" transform="translate(-.3 141.9) rotate(-88)"/>
    </clipPath>
  </defs>
  <g>
    <path class="st1" d="M46.2,4.8c58.5-9.8,73.7-1.8,91.7,24.2,18.1,26.1,1.2,104.9-40.2,110.1s-65.5-5-83.6-24.4S-12.3,14.6,46.2,4.8Z"/>
    <path d="M85.6,0c6.1,0,12.2.5,18.2,1.8,4.9,1.1,9.5,2.9,13.8,5.4,4.1,2.5,7.8,5.5,11,9,3.6,3.9,6.9,8.1,9.9,12.5,5.2,7.5,7.8,19.7,7.3,34.3-.3,7.2-1.2,14.3-2.9,21.3-1.6,7.2-3.9,14.1-6.9,20.9-2,4.4-4.3,8.7-7,12.8-2.5,3.8-5.4,7.4-8.7,10.6-6.8,6.6-14.4,10.4-22.5,11.5-6.7.9-13.5,1.3-20.3,1.4-6.8,0-13.6-.6-20.3-1.8-5.9-1.1-11.6-2.8-17.1-5.2-10.1-4.4-19.1-10.9-26.5-19.1-5.7-6.1-10.3-18-12.4-31.7C-1.1,68.4,0,53,4.3,40.2c2.8-8.8,7.8-16.8,14.5-23.2,7.3-6.8,16.4-11.1,27.3-12.9,8.2-1.4,15.4-2.4,21.9-3,5.9-.6,11.8-1,17.7-1ZM77.5,139.8c6.7,0,13.5-.5,20.1-1.4,7.8-1,15.1-4.7,21.7-11.1,3.2-3.1,6-6.6,8.5-10.4,2.6-4,4.9-8.2,6.8-12.6,2.9-6.6,5.2-13.5,6.8-20.6,1.6-6.9,2.5-14,2.8-21,.3-6.4-.1-12.7-1.3-19-.9-5.1-2.8-10-5.6-14.4-2.9-4.3-6.2-8.5-9.7-12.3-3.1-3.4-6.8-6.3-10.7-8.7-4.2-2.4-8.7-4.2-13.4-5.2-5.9-1.2-11.8-1.8-17.8-1.7-5.9,0-11.7.4-17.5,1-6.5.7-13.6,1.7-21.8,3-10.5,1.8-19.5,6-26.5,12.5-6.5,6.2-11.4,14-14.1,22.6-2.3,6.9-3.6,14.1-4,21.4-.4,7.1,0,14.3,1,21.3.9,6.3,2.5,12.4,4.8,18.4,1.6,4.6,4.1,8.8,7.3,12.5,7.2,8,16.1,14.4,26,18.7,5.4,2.3,11,4,16.8,5.1,6.6,1.2,13.3,1.8,20.1,1.8h0Z"/>
    <g class="st6">
      <g>
        <path d="M74.9,107c-.5,0-.9-.1-1.3-.4-1.2-.9-2.5-1.7-3.9-2.2-.9-.4-1.7-.8-2.5-1.2-3.2-1.9-6.1-4.1-8.7-6.6-2.8-2.6-5.5-5.3-7.9-8.3-2.2-2.8-4.2-5.9-5.7-9.1-1.3-2.6-2.4-5.3-3.3-8.1-.9-3.1-1.3-6.2-1.3-9.4,0-3,.5-5.9,1.5-8.7.9-2.4,2.4-4.6,4.4-6.4,2-1.7,4.3-3,6.7-3.8,1.8-.6,3.8-.9,5.7-.9,2.8.2,5.6.9,8.1,2.2,3.6,1.7,6,4.4,8.3,7.1.2.2.4.5.6.7,1.9-2.7,4.3-4.9,7.1-6.7,3.6-2.2,7.8-3.3,12-3.3.7,0,1.4,0,2.1.2,2.1.4,4.2,1.3,6,2.5,3.4,2.1,5.8,5.3,7.4,10.1,1.2,3.6,1.3,7.4.4,12.3-.6,2.4-1.4,4.7-2.5,6.9-.2.5-.5,1.1-.7,1.6-1.9,4.4-4.8,8.3-7.6,12l-.6.8c-2.5,3.2-5.3,6.2-8.4,9-.8.7-1.7,1.4-2.5,2.1-.8.6-1.6,1.3-2.4,2-1.9,1.6-4,3.1-6.2,4.2-1.2.6-2.5,1-3.8,1.3h0c-.3,0-.6.1-.9,0ZM58.5,42.8c-1.8,0-3.6.2-5.3.8-5.2,1.8-8.7,4.9-10.5,9.6-1,2.7-1.5,5.5-1.4,8.3,0,3.1.5,6.2,1.3,9.2.8,2.7,1.9,5.4,3.2,7.9,1.5,3.2,3.4,6.2,5.6,8.9,2.4,2.9,5,5.6,7.8,8.2,2.6,2.5,5.5,4.7,8.6,6.5.8.4,1.6.8,2.4,1.2,1.5.6,2.9,1.4,4.2,2.4.2.1.4.2.7.2.2,0,.4,0,.6,0h0c1.2-.2,2.4-.7,3.6-1.2,2.2-1.1,4.2-2.5,6-4.1.8-.7,1.6-1.4,2.5-2s1.7-1.3,2.4-2c3-2.7,5.8-5.7,8.2-8.9l.6-.8c2.8-3.7,5.7-7.4,7.5-11.7.2-.6.5-1.1.7-1.6,1-2.1,1.8-4.4,2.4-6.7.9-4.8.8-8.4-.3-11.8-1.6-4.5-3.8-7.6-7-9.6-1.7-1.2-3.6-2-5.6-2.3-.7,0-1.3-.2-2-.2-4,0-8,1-11.5,3.1-2.9,1.8-5.3,4.1-7.2,6.9l-.4.5-.4-.5c-.1-.2-.3-.3-.4-.5-.2-.3-.4-.5-.6-.8-2.2-2.6-4.6-5.3-8-6.9-2.4-1.2-5-1.9-7.7-2.1ZM76.5,100.1h0c-.3,0-.7,0-1-.2-3.7-1.3-7.3-2.9-10.8-4.9-2.3-1.5-4.4-3.4-6.1-5.6-1-1.2-1.9-2.4-2.8-3.6-.5-.6-.9-1.2-1.4-1.9-3.2-4.1-5.7-8.7-7.3-13.6-1-3.1-1.6-6.4-1.7-9.7h0s0,0,0,0c.3-3,.6-5.3,1.8-7.5,1.1-1.8,2.7-3.4,4.6-4.4,1.9-1.1,4.1-1.7,6.4-1.6,1,0,2,.2,2.9.6,3.9,1.4,6.4,3.2,8.3,5.9,1.4,1.9,2.6,4,3.4,6.3.4,1.1.9,2.2,2,2.5.3,0,.6.1.9.1,1.2,0,2.1-.6,2.5-2.1.6-2.1,1.6-4.2,2.7-6h0c.5-.9,1-1.6,1.7-2.2,3.5-2.8,6.7-4.2,10.2-4.4.3,0,.6,0,.8,0,4.6.2,8.6,3.2,10.1,7.5.8,2.1,1.2,4.3,1,6.6-.2,2.1-.6,4.1-1.2,6.1-1.1,3.5-2.7,6.8-4.8,9.8-2.1,3.4-4.4,6.5-7.1,9.4-.7.7-1.4,1.5-2.1,2.2-1.1,1.2-2.2,2.4-3.4,3.6-.7.8-1.5,1.4-2.4,2.1-1.1.8-2.3,1.7-3.4,2.5-.9.7-1.8,1.3-2.7,2-.5.4-1.1.6-1.7.6ZM46.5,60.6c0,3.2.6,6.3,1.6,9.4,1.6,4.8,4,9.3,7.2,13.3.5.6,1,1.3,1.4,1.9.9,1.2,1.8,2.4,2.8,3.5,1.6,2.1,3.6,3.9,5.8,5.4,3.4,1.9,6.9,3.5,10.6,4.8.2,0,.5.1.7.1h0c.4,0,.7-.1,1-.4.9-.7,1.8-1.4,2.7-2,1.1-.8,2.2-1.7,3.4-2.5.8-.6,1.6-1.2,2.3-2,1.1-1.2,2.3-2.4,3.3-3.6.7-.7,1.4-1.5,2.1-2.2,2.6-2.8,5-5.9,7-9.3,2-3,3.6-6.2,4.7-9.6.6-1.9,1-3.9,1.1-5.9.1-2.1-.2-4.2-1-6.2-1.4-3.9-5.1-6.6-9.2-6.9-.2,0-.5,0-.8,0-3.3.1-6.4,1.4-9.6,4.1-.6.5-1.1,1.2-1.5,1.8h0c-1.1,1.9-2,3.9-2.6,5.9-.8,2.4-2.4,2.8-3.5,2.8-.4,0-.8,0-1.1-.2-1.8-.5-2.4-2.1-2.7-3.1-.8-2.1-1.9-4.2-3.3-6-2-2.6-4.7-4.5-7.9-5.5-.8-.3-1.7-.5-2.6-.5-2,0-4.1.5-5.8,1.5-1.7.9-3.2,2.3-4.2,4-1.1,2-1.4,4.2-1.7,7.1Z"/>
        <path class="st3" d="M30.6,56.7c-1.8-.3-2.2-.6-2.2-2.3,0-2.9.4-5.7,1.5-8.4.8-2.5,2.2-4.8,4-6.8,1.7-1.9,4.1-3.1,6.6-3.4.4,0,.7,0,1.1.1,1,.3,1.8.9,1.9,2,0,1.1-.5,2-1.4,2.6-.9.6-1.8,1-2.7,1.5-1.9,1-3.5,2.5-4.5,4.3-1.7,3.1-3,6.3-4,9.7,0,.2-.2.4-.3.6"/>
        <path d="M30.9,57.3h-.3c-.7,0-1.5-.4-2-.8-.4-.6-.7-1.3-.6-2,0-2.9.4-5.8,1.5-8.6.9-2.6,2.2-5,4.1-7,1.8-2,4.3-3.3,7-3.5.1,0,.2,0,.3,0,.3,0,.6,0,.9.2,1.2.3,2.1,1.2,2.2,2.4,0,1.2-.6,2.4-1.6,3-.8.5-1.6.9-2.4,1.3l-.4.2c-1.8.9-3.3,2.4-4.3,4.1-1.7,3.1-3,6.3-3.9,9.6,0,.2-.1.3-.2.5,0,0,0,.1-.1.2l-.2.3ZM40.8,36.3c0,0-.2,0-.2,0-2.4.2-4.7,1.4-6.3,3.2-1.7,1.9-3,4.2-3.8,6.7-1,2.6-1.5,5.4-1.5,8.2,0,.8.1,1.1.3,1.4.3.2.7.4,1.2.4,0,0,0-.1,0-.2,1-3.4,2.3-6.7,4-9.8,1.1-2,2.7-3.5,4.7-4.6l.4-.2c.8-.4,1.6-.8,2.3-1.3.8-.5,1.2-1.3,1.2-2.2,0-1-1.2-1.4-1.6-1.6-.2,0-.4-.1-.6-.1Z"/>
        <path class="st3" d="M121.6,49.3c0,.6-.2,1.3-.4,1.9-.2.8-1,1.2-1.7,1-.2,0-.4-.2-.6-.3-.5-.4-.9-.8-1.2-1.3-1.1-1.8-2.1-3.7-3.2-5.5-2.4-4-5.7-7.2-9.7-9.5-1-.6-2.1-1.2-3.2-1.7-.5-.2-.9-.7-.8-1.3,0-.6.6-1.1,1.3-1.1.5,0,1.1,0,1.6.2,4.9,1.4,9.2,4.2,12.4,8.1,1.9,2.1,3.5,4.5,4.7,7,.3.8.6,1.6.8,2.5"/>
        <path d="M119.8,52.8c-.4,0-.9-.2-1.2-.5-.5-.4-1-.9-1.3-1.4-.6-1-1.2-2-1.7-3-.5-.8-.9-1.7-1.4-2.5-1.1-1.9-2.5-3.7-4.2-5.3-1.6-1.6-3.4-2.9-5.4-4.1-1.1-.7-2.2-1.2-3.2-1.7-.7-.3-1.2-1-1.1-1.8,0-.9.8-1.5,1.7-1.5.2,0,.3,0,.5,0,.4,0,.9,0,1.3.2,5,1.4,9.4,4.3,12.7,8.2,2,2.1,3.6,4.5,4.8,7.2.2.6.4,1.3.6,1.9,0,.2.1.4.2.6h0c0,.1,0,.2,0,.2,0,.3,0,.5-.1.8,0,.4-.1.8-.3,1.2-.2.8-1,1.4-1.9,1.4ZM102.5,32c-.1,0-.3,0-.4,0-.7,0-.8.5-.8.6,0,.3,0,.5.5.8,1,.5,2.1,1.1,3.2,1.8,2,1.2,3.9,2.6,5.6,4.2,1.7,1.6,3.1,3.5,4.3,5.5.5.8,1,1.7,1.4,2.5.6,1,1.1,2,1.7,3,.3.5.7.8,1.1,1.2.2.1.4.2.6.2.4,0,.8-.3.9-.7.1-.3.2-.7.2-1.1,0-.2,0-.4.1-.7,0-.2,0-.4-.1-.5-.1-.6-.3-1.2-.6-1.8-1.2-2.5-2.7-4.9-4.6-6.9-1.6-1.9-3.5-3.5-5.5-4.9-2.1-1.3-4.3-2.4-6.7-3-.3,0-.7-.1-1-.2Z"/>
        <path class="st3" d="M32.4,81c.3.2.5.4.7.6,3.9,5.7,8.7,10.5,13.4,15.5,2,2.2,4.2,4.2,6.3,6.3.4.5.8.9,1.1,1.5.5.6.5,1.5,0,2.1-.5.6-1.3.8-2,.5-2.9-.8-5.5-2.5-7.4-4.8-3.8-4.1-7.1-8.7-9.7-13.7-1-2.1-2-4.2-2.8-6.4-.1-.5-.2-1-.1-1.6l.5-.2"/>
        <path d="M52.6,108.1c-.2,0-.5,0-.7-.1-3-.8-5.7-2.5-7.6-4.9-3.8-4.2-7.1-8.8-9.8-13.8-.9-1.7-1.6-3.5-2.3-5.2-.2-.4-.3-.8-.5-1.2-.1-.4-.2-.8-.2-1.2,0-.2,0-.3,0-.5v-.4s.3-.1.3-.1l.5-.2h.3c0,0,.2,0,.2,0,0,0,.1.1.2.2.2.1.4.3.6.5,3.6,4.9,7.5,9.4,11.7,13.7.5.6,1.1,1.2,1.6,1.7,1.3,1.3,2.6,2.7,3.9,3.9.8.8,1.6,1.6,2.4,2.4.4.5.8,1,1.2,1.5.6.8.7,1.9,0,2.7-.4.6-1.1.9-1.8.8ZM32.4,81.6h0c0,.3,0,.6,0,.9.2.4.3.8.5,1.2.7,1.8,1.4,3.5,2.3,5.1,2.6,4.9,5.9,9.5,9.7,13.6,1.9,2.2,4.3,3.8,7.1,4.6.2,0,.3,0,.5,0,.4,0,.8-.1,1-.4.3-.5.3-1.1-.1-1.5-.3-.5-.7-1-1.1-1.4-.8-.8-1.6-1.6-2.4-2.4-1.3-1.3-2.6-2.6-3.9-4-.5-.6-1.1-1.2-1.6-1.7-4.3-4.3-8.2-8.9-11.8-13.8,0,0-.2-.2-.3-.2Z"/>
        <path class="st3" d="M95.9,106.7c.3-.6.6-1.2,1-1.7,4-4.4,8-8.7,11.9-13.1,1.1-1.2,2.2-2.5,3.4-3.7.5-.5,1.2-.9,1.9-1.1,2.1-.7,3.5.4,3.1,2.3-.4,1.8-1.4,3.4-2.9,4.6-3.4,3-6.8,6.1-10.4,9-1.8,1.4-3.6,2.6-5.6,3.7-.7.3-1.5.4-2.2.5l-.4-.5"/>
        <path d="M96.1,107.7l-.8-1,.2-.3c0-.2.2-.3.3-.5.2-.4.5-.9.8-1.2,2.8-3.1,5.7-6.2,8.5-9.3,1.2-1.3,2.3-2.5,3.5-3.8.4-.4.7-.8,1.1-1.2.7-.8,1.5-1.7,2.3-2.5.6-.6,1.3-1,2.1-1.2.5-.2,1-.2,1.4-.2.7,0,1.4.3,1.8.9.5.7.6,1.5.5,2.3-.4,1.9-1.5,3.6-3,4.8l-1.6,1.4c-2.9,2.5-5.8,5.1-8.8,7.6-1.8,1.4-3.7,2.6-5.6,3.8-.5.3-1.1.4-1.7.4-.2,0-.5,0-.7,0h-.3ZM115.5,87.4c-.4,0-.8,0-1.1.2-.6.2-1.2.5-1.7,1-.8.8-1.6,1.6-2.3,2.5-.4.4-.7.8-1.1,1.2-1.2,1.3-2.3,2.5-3.5,3.8-2.8,3-5.7,6.2-8.5,9.3-.3.3-.5.7-.7,1,0,0,0,.2-.1.3.1,0,.3,0,.4,0,.5,0,.9-.1,1.3-.3,1.9-1.1,3.8-2.3,5.5-3.7,3-2.5,5.9-5.1,8.8-7.6l1.6-1.4c1.4-1.1,2.3-2.6,2.7-4.3.1-.5,0-1-.2-1.5-.3-.3-.7-.5-1.1-.5Z"/>
        <path class="st3" d="M53.7,73.3c0-1.1.8-2,1.9-2,.5,0,1,.2,1.3.5,1.3,1.1,2.1,2.5,2.4,4.2.2,1.1-1.2,2.1-2.4,1.8-1.2-.3-3.4-3.3-3.3-4.5"/>
        <path d="M57.3,78.4c-.1,0-.3,0-.4,0-1-.5-1.8-1.2-2.4-2.1-.3-.4-1.3-1.9-1.2-2.9,0-.7.3-1.3.8-1.8.4-.4,1.1-.7,1.7-.7.6,0,1.1.2,1.6.6,1.4,1.1,2.3,2.7,2.6,4.4.1.5,0,1.1-.4,1.5-.5.6-1.3,1-2.1,1Z"/>
      </g>
    </g>
  </g>
  <path class="st5" d="M72.9,10.9c-32.3,0-58.5,26.2-58.5,58.5s26.2,58.5,58.5,58.5,58.5-26.2,58.5-58.5S105.2,10.9,72.9,10.9Z"/>
  <path class="st0" d="M72.9,130c-33.4,0-60.6-27.2-60.6-60.6S39.5,8.8,72.9,8.8s60.6,27.2,60.6,60.6-27.2,60.6-60.6,60.6ZM72.9,13c-31.1,0-56.4,25.3-56.4,56.4s25.3,56.4,56.4,56.4,56.4-25.3,56.4-56.4S104,13,72.9,13Z"/>
  <path class="st0" d="M26.9,85.3c-.9,0-1.7-.6-2-1.5-.3-1.1.3-2.3,1.4-2.6l4-1.2c1.1-.3,2.3.3,2.6,1.4s-.3,2.3-1.4,2.6l-4,1.2c-.2,0-.4,0-.6,0ZM31.7,96.1c-.7,0-1.4-.4-1.8-1-.6-1-.3-2.3.7-2.9l3.6-2.1c1-.6,2.3-.3,2.9.7.6,1,.3,2.3-.7,2.9l-3.6,2.1c-.3.2-.7.3-1.1.3ZM38.9,105.4c-.5,0-1.1-.2-1.5-.6-.8-.8-.8-2.1,0-3l3-3c.8-.8,2.1-.8,3,0,.8.8.8,2.1,0,3l-3,3c-.4.4-.9.6-1.5.6ZM48.2,112.7c-.4,0-.7,0-1.1-.3-1-.6-1.3-1.9-.7-2.9l2.2-3.6c.6-1,1.9-1.3,2.9-.7,1,.6,1.3,1.9.7,2.9l-2.2,3.6c-.4.7-1.1,1-1.8,1ZM59,117.4c-.2,0-.4,0-.6,0-1.1-.3-1.7-1.5-1.4-2.6l1.2-4c.3-1.1,1.5-1.7,2.6-1.4,1.1.3,1.7,1.5,1.4,2.6l-1.2,4c-.3.9-1.1,1.5-2,1.5Z"/>
  <path class="st0" d="M72.9,117.4c-1.2,0-2.1-.9-2.1-2.1s.9-2.1,2.1-2.1c24.2,0,43.9-19.7,43.9-43.9s-19.7-43.9-43.9-43.9-43.9,19.7-43.9,43.9-.9,2.1-2.1,2.1-2.1-.9-2.1-2.1c0-26.5,21.6-48,48-48s48,21.6,48,48-21.6,48-48,48Z"/>
  <path class="st4" d="M90.7,46.7c-1.5.6-45.1,19-45.1,19,0,0-2.1.7-1.9,2.1.2,1.3,1.9,1.9,1.9,1.9l11.2,3.8s3.4,11.1,4,13.2c.7,2.1,1.2,2.2,1.2,2.2.6.3,1.2-.2,1.2-.2l7.2-6.6,11.3,8.7c3.1,1.3,4.2-1.4,4.2-1.4l7.8-39.8c.7-3.1-1.4-3.3-3-2.7Z"/>
  <path class="st0" d="M83.3,93.1c-.7,0-1.5-.1-2.4-.5l-.4-.3-9.9-7.6-5.9,5.4c-.8.6-2,1-3.2.6-1.6-.5-2.3-2.7-2.5-3.5-.5-1.7-2.9-9.4-3.7-12.2l-10.2-3.4c-.3-.1-3-1.1-3.3-3.7-.3-2.2,1.6-3.7,3.3-4.3,1.6-.7,43.4-18.3,45-18.9h0c1.8-.7,3.5-.5,4.7.5.8.7,1.7,2.1,1.1,4.6l-7.9,40.1c0,.2-.8,2-2.7,2.8-.5.2-1.1.3-1.8.3ZM82.8,88.8c.2,0,.5.2.7,0,.2,0,.3-.3.4-.4l7.7-39.5c0-.2,0-.3,0-.4,0,0-.2,0-.2,0-1.2.5-30,12.6-45,18.9,0,0-.1,0-.2,0,0,0,0,0,0,0l12.2,4.1.3,1s3.4,11.1,4,13.2c0,0,0,0,0,.1l7.5-6.8,12.4,9.5Z"/>
  <path class="st0" d="M85.2,56.3c0-.9-1.3-.3-1.3-.3l-27.4,16.9s3.6,11.5,4.3,13.6c.7,2.1,1.6,2.5,1.6,2.5l2-13s19.3-18,20.2-18.8c.8-.8.6-.9.6-.9Z"/>
</svg>