<?xml version="1.0" encoding="UTF-8"?>
<svg id="Capa_1" xmlns="http://www.w3.org/2000/svg" version="1.1" viewBox="0 0 145.9 141.3">
  <!-- Generator: Adobe Illustrator 29.1.0, SVG Export Plug-In . SVG Version: 2.1.0 Build 142)  -->
  <defs>
    <style>
      .st0 {
        fill: #8ce7f2;
      }

      .st1 {
        fill: #f8c1c6;
      }

      .st2 {
        fill: #18193f;
      }

      .st3 {
        fill: none;
        stroke: #18193f;
        stroke-linecap: round;
        stroke-linejoin: round;
        stroke-width: 3px;
      }
    </style>
  </defs>
  <g>
    <path class="st1" d="M46.2,4.8c58.5-9.8,73.7-1.8,91.7,24.2,18.1,26.1,1.2,104.9-40.2,110.1s-65.5-5-83.6-24.4S-12.3,14.6,46.2,4.8Z"/>
    <path d="M85.6,0c6.1,0,12.2.5,18.2,1.8,4.9,1.1,9.5,2.9,13.8,5.4,4.1,2.5,7.8,5.5,11,9,3.6,3.9,6.9,8.1,9.9,12.5,5.2,7.5,7.8,19.7,7.3,34.3-.3,7.2-1.2,14.3-2.9,21.3-1.6,7.2-3.9,14.1-6.9,20.9-2,4.4-4.3,8.7-7,12.8-2.5,3.8-5.4,7.4-8.7,10.6-6.8,6.6-14.4,10.4-22.5,11.5-6.7.9-13.5,1.3-20.3,1.4-6.8,0-13.6-.6-20.3-1.8-5.9-1.1-11.6-2.8-17.1-5.2-10.1-4.4-19.1-10.9-26.5-19.1-5.7-6.1-10.3-18-12.4-31.7C-1.1,68.4,0,53,4.3,40.2c2.8-8.8,7.8-16.8,14.5-23.2,7.3-6.8,16.4-11.1,27.3-12.9,8.2-1.4,15.4-2.4,21.9-3,5.9-.6,11.8-1,17.7-1ZM77.5,139.8c6.7,0,13.5-.5,20.1-1.4,7.8-1,15.1-4.7,21.7-11.1,3.2-3.1,6-6.6,8.5-10.4,2.6-4,4.9-8.2,6.8-12.6,2.9-6.6,5.2-13.5,6.8-20.6,1.6-6.9,2.5-14,2.8-21,.3-6.4-.1-12.7-1.3-19-.9-5.1-2.8-10-5.6-14.4-2.9-4.3-6.2-8.5-9.7-12.3-3.1-3.4-6.8-6.3-10.7-8.7-4.2-2.4-8.7-4.2-13.4-5.2-5.9-1.2-11.8-1.8-17.8-1.7-5.9,0-11.7.4-17.5,1-6.5.7-13.6,1.7-21.8,3-10.5,1.8-19.5,6-26.5,12.5-6.5,6.2-11.4,14-14.1,22.6-2.3,6.9-3.6,14.1-4,21.4-.4,7.1,0,14.3,1,21.3.9,6.3,2.5,12.4,4.8,18.4,1.6,4.6,4.1,8.8,7.3,12.5,7.2,8,16.1,14.4,26,18.7,5.4,2.3,11,4,16.8,5.1,6.6,1.2,13.3,1.8,20.1,1.8h0Z"/>
  </g>
  <path class="st0" d="M135.9,41.2c-.8-.8-1.8-1-2.8-.5l-.5.3c-.3.3-.8.3-1,.5,1-1.5,1.8-3.4,2.6-5.4.3-1,0-2.1-.8-2.8s-2.1-.8-2.8-.3c-4.1,2.6-8,4.1-12.1,4.9l-2.3.5h0c-3.6-2.6-8-4.4-12.9-4.4-12.1,0-21.9,9.8-21.9,21.9v3.9c-31.5-1.8-40-23.2-40-23.2,0,0-3.9,5.2-3.9,12.9,0,12.9,10.3,18,10.3,18-7.7,0-12.9-2.6-12.9-2.6,0,0,1.3,14.2,18,20.6l-10.3,2.6s5.2,9,20.6,12.9c0,0-9,7.7-30.9,7.7,0,0,9,10.3,33.5,10.3,42,0,58.8-38.9,59.3-62.1l.3-.3c8-6.7,10.8-12.1,11.1-12.4.5-1,.3-2.3-.5-3.1Z"/>
  <path class="st2" d="M125.6,30.9c-.8-.8-1.8-1-2.8-.5l-.5.3c-.3.3-.8.3-1,.5,1-1.5,1.8-3.4,2.6-5.4.3-1,0-2.1-.8-2.8s-2.1-.8-2.8-.3c-4.1,2.6-8,4.1-12.1,4.9l-2.3.5c5.4,3.9,9,10.3,9,17.5v1l.3-.3c8-6.7,10.8-12.1,11.1-12.4.5-1,.3-2.3-.5-3.1Z"/>
  <path class="st3" d="M52.9,90.7s-9,7.7-30.9,7.7c0,0,9,10.3,33.5,10.3s29.9-6.4,39.2-15.5"/>
  <path class="st3" d="M43.6,40.7c-9.5-6.4-12.6-14.4-12.6-14.4,0,0-3.9,5.2-3.9,12.9,0,12.9,10.3,18,10.3,18-7.7,0-12.9-2.6-12.9-2.6,0,0,1.3,14.2,18,20.6l-10.3,2.6s5.2,9,20.6,12.9"/>
  <path class="st3" d="M105.8,78.6c6.2-11.1,9-23.5,9-33s-9.8-21.9-21.9-21.9-21.9,9.8-21.9,21.9v3.9c-5.2-.3-9.5-1-13.4-2.1"/>
</svg>