<svg xmlns="http://www.w3.org/2000/svg" xmlns:xlink="http://www.w3.org/1999/xlink" width="298.81" height="103.104" viewBox="0 0 298.81 103.104"><defs><clipPath id="a"><rect width="298.81" height="103.104" transform="translate(-2 -3)" fill="none" stroke="#000" stroke-width="1.5"/></clipPath></defs><g transform="translate(2 3)"><g clip-path="url(#a)"><path d="M253.672,60.524c-8-.78-15.29,1.9-22.252,5.541-4.044,2.114-7.992,4.41-12.042,6.509-.625.324-1.572.025-2.37.014a6.563,6.563,0,0,1,.232-2.3c.421-.843,1.344-1.427,1.8-2.26a3.155,3.155,0,0,0,.455-2.275c-2.49-6.236-5.565-12.23-10.732-16.626-5.109-4.349-10.876-7.761-17.815-8.387-5.065-.456-10.12-.95-15.132.673-5.678,1.839-10.708,4.579-14.436,9.378-.682.877-1.433,1.974-2.657,1.291-1.431-.8-.732-2.089-.269-3.215.092-.225.2-.444.311-.661a4.007,4.007,0,0,0-.076-4.1,19.408,19.408,0,0,1-2.019-5.8A37.728,37.728,0,0,0,151.75,25.5c-3.422-5.82-8.507-8.275-14.851-8.875-7.134-.674-14.034.689-20.794,2.723a65.2,65.2,0,0,0-19.951,9.368c-4.661,3.4-10.011,6.03-12.812,11.522-.257.5-.871.827-1.319,1.233a21.2,21.2,0,0,0-6.688,10.049,3.083,3.083,0,0,1-2.106,1.952,3.159,3.159,0,0,1-2.293-1.805,6.279,6.279,0,0,1,0-3.545c.745-2.89,1.713-5.723,2.646-8.757-1.805-.584-3.417-1.062-5-1.625a26.461,26.461,0,0,0-16.153-.624A53.952,53.952,0,0,0,20.711,60.1c-4.108,6.256-6.706,13.2-8.966,20.242-1.465,4.565-2.251,9.348-3.437,14.444,1.446-.166,2.262-.225,3.066-.357C17,93.511,22.595,92.272,28.256,91.7,39.832,90.54,51.442,89.729,63.04,88.79a22.426,22.426,0,0,0,2.894-.06c6.437-1.4,13-.884,19.489-1.132,11.35-.433,22.727-.268,34.091-.186,8.92.065,17.839.373,26.757.6,5.337.133,10.672.439,16.008.439,10.391,0,20.783-.264,31.174-.223,7.98.032,15.96.334,23.937.573,6.414.192,12.836.3,19.233.756a135.625,135.625,0,0,0,17.317.162,39.682,39.682,0,0,1,9.779.34c5.8,1.136,11.308-.474,16.933-1.022.2-.019.375-.281,1.1-.856-2.1-4.663-3.876-9.439-6.317-13.846-4.691-8.466-12.272-12.881-21.762-13.806" transform="translate(-2.74 -5.427)" fill="#d8fffa"/><path d="M7.336,95.657l.241-1.036c.372-1.6.708-3.182,1.033-4.712a99.046,99.046,0,0,1,2.421-9.791c2.164-6.743,4.758-13.885,9.053-20.424A55.61,55.61,0,0,1,33.992,45.009,56.905,56.905,0,0,1,52.229,36.4a27.365,27.365,0,0,1,7.287-1,27.718,27.718,0,0,1,9.317,1.64c1.061.378,2.143.719,3.288,1.08.544.172,1.107.349,1.689.537l.7.227-.217.707c-.272.884-.549,1.759-.817,2.6-.666,2.1-1.3,4.087-1.819,6.119a5.513,5.513,0,0,0-.022,3.1,2.557,2.557,0,0,0,1.582,1.318,2.585,2.585,0,0,0,1.393-1.4c1.061-3.794,3.255-7.1,6.907-10.4.165-.15.34-.282.508-.41a2.408,2.408,0,0,0,.646-.608c2.3-4.5,6.232-7.151,10.038-9.713,1-.67,2.025-1.363,3-2.074,5.435-3.961,11.846-6.974,20.177-9.48A59.452,59.452,0,0,1,133.157,15.7c1.284,0,2.567.06,3.813.177a21.637,21.637,0,0,1,8.822,2.575,17.734,17.734,0,0,1,6.605,6.667,38.186,38.186,0,0,1,5.017,13.057,18.575,18.575,0,0,0,1.94,5.569,4.749,4.749,0,0,1,.086,4.8c-.1.2-.2.4-.286.608-.038.093-.078.186-.117.28-.565,1.336-.556,1.653.058,2a.8.8,0,0,0,.374.118c.388,0,.829-.572,1.218-1.077l.107-.138c3.426-4.411,8.128-7.472,14.8-9.632a25.691,25.691,0,0,1,8.11-1.154c2.356,0,4.742.215,7.049.423l.271.024a27.163,27.163,0,0,1,9.862,2.874,41.856,41.856,0,0,1,8.372,5.689,31.757,31.757,0,0,1,6.524,7.8,59.83,59.83,0,0,1,4.418,9.116,3.982,3.982,0,0,1-.495,2.916,6.059,6.059,0,0,1-1,1.247,4.456,4.456,0,0,0-.792.986,3.034,3.034,0,0,0-.137,1.221v.05l.111.013a6.529,6.529,0,0,0,.74.063.94.94,0,0,0,.407-.066c2.093-1.085,4.2-2.244,6.233-3.364,1.895-1.043,3.854-2.122,5.807-3.143a59,59,0,0,1,9.561-4.093,33.729,33.729,0,0,1,10.243-1.669c.956,0,1.921.047,2.868.139a29.9,29.9,0,0,1,13,4.185,26.9,26.9,0,0,1,9.342,10A102.181,102.181,0,0,1,280.54,83.5c.611,1.436,1.242,2.92,1.894,4.368l.24.532-.457.363c-.272.216-.458.382-.608.516a1.531,1.531,0,0,1-.884.5c-1.551.151-3.128.389-4.653.619a54.022,54.022,0,0,1-8.047.8h0a22.909,22.909,0,0,1-4.449-.411,28.631,28.631,0,0,0-5.509-.465c-1.455,0-2.881.07-4.083.138-2.387.136-4.84.2-7.29.2-3.275,0-6.681-.123-10.123-.367-5.155-.364-10.421-.509-15.513-.65-1.209-.033-2.459-.068-3.689-.1-1.527-.046-3.08-.095-4.581-.142-6.339-.2-12.894-.405-19.337-.431-.735,0-1.5,0-2.27,0-4.812,0-9.708.058-14.442.113s-9.638.114-14.459.114c-3.419,0-6.888-.127-10.243-.25-1.9-.069-3.857-.141-5.783-.189-2.325-.058-4.689-.123-6.975-.186-6.48-.178-13.181-.362-19.769-.41l-4.13-.032c-4.119-.034-8.379-.068-12.567-.068-6.735,0-12.252.091-17.36.286-1.863.071-3.759.08-5.592.088a66.026,66.026,0,0,0-13.766,1.027,5.148,5.148,0,0,1-1.115.105c-.259,0-.516-.012-.765-.023s-.474-.022-.7-.022c-.153,0-.288,0-.413.015-3.1.251-6.248.5-9.3.734-8.357.652-17,1.325-25.474,2.177-3.818.384-7.684,1.089-11.422,1.771-1.772.323-3.6.658-5.414.955-.541.089-1.089.146-1.783.219-.38.04-.811.085-1.319.143ZM59.516,36.9a25.865,25.865,0,0,0-6.887.945A55.412,55.412,0,0,0,34.87,46.225,54.117,54.117,0,0,0,21.338,60.517c-4.2,6.39-6.747,13.417-8.878,20.059a97.941,97.941,0,0,0-2.382,9.644c-.257,1.209-.52,2.451-.8,3.711l.283-.03c.7-.073,1.2-.125,1.7-.207,1.8-.295,3.622-.628,5.388-.95,3.768-.687,7.663-1.4,11.541-1.788,8.492-.854,17.142-1.528,25.507-2.18,3.046-.237,6.195-.483,9.291-.734.166-.013.34-.02.534-.02.262,0,.52.012.77.023s.471.022.7.022a3.71,3.71,0,0,0,.8-.071,67.159,67.159,0,0,1,14.079-1.062c1.821-.008,3.7-.016,5.541-.087,5.128-.2,10.663-.287,17.418-.287,4.194,0,8.457.035,12.579.068l4.128.032c6.6.048,13.311.232,19.8.41,2.285.063,4.648.128,6.971.186,1.935.048,3.9.12,5.8.19,3.341.122,6.8.249,10.188.249,4.812,0,9.707-.058,14.441-.113s9.638-.114,14.459-.114c.773,0,1.539,0,2.276,0,6.463.026,13.028.232,19.378.432,1.5.047,3.053.1,4.579.142,1.228.037,2.477.071,3.685.1,5.108.141,10.39.287,15.578.653,3.407.241,6.777.363,10.017.363,2.422,0,4.846-.068,7.2-.2,1.224-.069,2.676-.14,4.169-.14a30.1,30.1,0,0,1,5.8.493,21.426,21.426,0,0,0,4.16.383h0a52.892,52.892,0,0,0,7.823-.786c1.5-.227,3.057-.461,4.605-.617.044-.037.1-.09.158-.139s.137-.122.222-.2c-.575-1.294-1.133-2.6-1.674-3.875a101.046,101.046,0,0,0-4.382-9.395,25.416,25.416,0,0,0-8.821-9.457A28.417,28.417,0,0,0,253.6,61.271c-.9-.088-1.815-.132-2.723-.132-5.819,0-11.712,1.724-19.109,5.591-1.938,1.013-3.89,2.088-5.778,3.128-2.044,1.125-4.157,2.289-6.267,3.382a2.341,2.341,0,0,1-1.1.234,7.706,7.706,0,0,1-.92-.074,6.984,6.984,0,0,0-.708-.063l-.8-.011.062-.8c.016-.208.015-.434.014-.674a4.136,4.136,0,0,1,.295-1.9,5.61,5.61,0,0,1,1.051-1.354,4.889,4.889,0,0,0,.767-.934,2.576,2.576,0,0,0,.415-1.634,58.4,58.4,0,0,0-4.306-8.891A30.287,30.287,0,0,0,208.28,49.7c-5.955-5.069-11.483-7.678-17.4-8.211l-.271-.024c-2.274-.205-4.625-.417-6.914-.417a24.245,24.245,0,0,0-7.648,1.081c-6.369,2.063-10.841,4.962-14.074,9.125l-.1.134a3.256,3.256,0,0,1-2.406,1.661,2.261,2.261,0,0,1-1.105-.309,2.17,2.17,0,0,1-1.237-2.025,5.293,5.293,0,0,1,.529-1.865c.038-.089.075-.178.111-.266.1-.255.223-.493.335-.715a3.261,3.261,0,0,0-.067-3.408,20.1,20.1,0,0,1-2.1-6.024A36.739,36.739,0,0,0,151.1,25.883c-3.041-5.172-7.577-7.875-14.275-8.509-1.2-.113-2.434-.171-3.671-.171a58.021,58.021,0,0,0-16.836,2.865c-8.164,2.456-14.432,5.4-19.725,9.256-1,.728-2.04,1.429-3.047,2.106-3.816,2.568-7.42,4.994-9.539,9.15A3.435,3.435,0,0,1,82.934,41.7c-.149.113-.29.22-.408.327-3.432,3.106-5.488,6.186-6.469,9.7a3.748,3.748,0,0,1-2.823,2.5H73.22a3.861,3.861,0,0,1-2.987-2.293,7.181,7.181,0,0,1-.025-3.995c.533-2.071,1.169-4.075,1.842-6.2.2-.616.4-1.247.594-1.884l-.973-.308c-1.159-.366-2.254-.711-3.341-1.1A26.221,26.221,0,0,0,59.516,36.9Z" transform="translate(-2.74 -5.427)"/><path d="M291.054,80.1a9.837,9.837,0,0,1-3.494-4.917c-1.655-4.416-3.061-9.063-5.535-13.009a35.287,35.287,0,0,0-27.083-16.915,34.809,34.809,0,0,0-21.732,4.391c-1.934,1.131-3.969,2.091-6.176,3.243-5.12-12.136-13.329-21.084-25.52-25.642-12.168-4.55-24.213-3.978-35.691,3.025-.423-.991-.727-1.646-.985-2.319-1.605-4.179-2.942-8.486-4.863-12.514A25.69,25.69,0,0,0,149.136,4.414,35.7,35.7,0,0,0,128.469.138,77.679,77.679,0,0,0,102.675,6.7c-8.769,3.965-16.9,9.159-23.294,16.348-3.207,3.6-5.7,3.734-9.781,2.149A33.5,33.5,0,0,0,52.038,23.1c-16.36,2.673-28.779,11.557-38.327,24.849-4.4,6.122-6.867,13.118-8.948,20.216C3.234,73.383,1.857,78.681,2.216,84.295c.31,4.839.067,4.855-2.216,8.761.953,1.656,2.621,1.454,4.148,1.44,5.578-.049,11.154-.17,16.732-.243q14.715-.193,29.431-.365c8.226-.109,16.453-.2,24.677-.375,5.3-.113,10.6-.521,15.905-.513,12.718.019,25.435.19,38.152.33,4.839.053,9.679.131,14.516.3s9.659.581,14.493.675c5.883.113,11.77-.029,17.655,0,9.1.048,18.2.155,27.3.22a58.356,58.356,0,0,1,7.133,0c12.538,1.649,25.125,1.607,37.725,1.409,1.2-.019,2.393.3,3.6.405,3.366.287,6.765.96,10.094.711a86.455,86.455,0,0,0,13.935-2.214,104.285,104.285,0,0,0,14.495-4.618c4.67-1.893,5.1-7.235,1.067-10.12m-13.141,3.508c-5.625.548-11.136,2.158-16.933,1.022a39.675,39.675,0,0,0-9.779-.339,135.759,135.759,0,0,1-17.318-.162c-6.4-.452-12.819-.564-19.232-.755-7.978-.239-15.958-.542-23.938-.574-10.39-.042-20.782.222-31.174.222-5.336,0-10.671-.306-16.007-.439-8.919-.223-17.837-.531-26.757-.6-11.365-.083-22.742-.247-34.092.186C76.2,82.419,69.631,81.9,63.194,83.3a22.544,22.544,0,0,1-2.894.06c-11.6.938-23.207,1.748-34.783,2.912-5.662.569-11.256,1.809-16.883,2.732-.8.132-1.62.192-3.066.357,1.186-5.1,1.972-9.88,3.437-14.445,2.26-7.042,4.857-13.985,8.966-20.242A53.958,53.958,0,0,1,49.689,31.693a26.468,26.468,0,0,1,16.153.624c1.581.563,3.192,1.041,5,1.625-.934,3.033-1.9,5.865-2.647,8.756a6.281,6.281,0,0,0,0,3.546,3.16,3.16,0,0,0,2.293,1.805A3.085,3.085,0,0,0,72.595,46.1a21.2,21.2,0,0,1,6.688-10.049c.449-.406,1.062-.728,1.32-1.233,2.8-5.492,8.15-8.124,12.811-11.522a65.206,65.206,0,0,1,19.951-9.368c6.761-2.035,13.661-3.4,20.794-2.724,6.345.6,11.429,3.055,14.851,8.875a37.726,37.726,0,0,1,4.924,12.806,19.388,19.388,0,0,0,2.019,5.8,4.007,4.007,0,0,1,.076,4.1c-.11.217-.218.436-.31.661-.464,1.126-1.163,2.415.269,3.215,1.224.684,1.975-.414,2.657-1.291,3.728-4.8,8.758-7.54,14.436-9.379,5.011-1.623,10.066-1.129,15.131-.672,6.94.625,12.705,4.038,17.815,8.387,5.166,4.4,8.241,10.39,10.732,16.626a3.161,3.161,0,0,1-.456,2.276c-.459.832-1.383,1.417-1.8,2.26a6.564,6.564,0,0,0-.232,2.3c.8.011,1.745.31,2.37-.014,4.051-2.1,8-4.4,12.042-6.509,6.963-3.64,14.253-6.321,22.252-5.541,9.491.926,17.071,5.341,21.762,13.807,2.441,4.406,4.217,9.183,6.317,13.846-.722.574-.9.836-1.1.856" transform="translate(0 0)" fill="#fff"/><path d="M260.045,97.853h0a48.641,48.641,0,0,1-5.689-.45c-.971-.115-1.975-.235-2.954-.318-.5-.043-.988-.12-1.463-.194a12.087,12.087,0,0,0-2.057-.208c-3.022.047-6.605.1-10.266.1a207.52,207.52,0,0,1-27.569-1.512,16.808,16.808,0,0,0-2.194-.127c-.757,0-1.539.034-2.3.066-.834.036-1.7.073-2.551.067-3.774-.027-7.611-.062-11.322-.1-5.237-.047-10.652-.1-15.977-.124-.564,0-1.139,0-1.759,0-1.781,0-3.592.012-5.344.024s-3.568.024-5.353.024c-1.943,0-3.647-.015-5.209-.045-2.75-.053-5.536-.212-8.23-.365-2.057-.117-4.185-.238-6.274-.31-5.172-.18-10.231-.252-14.5-.3L122.411,94c-10.331-.118-21.013-.24-31.518-.255h-.141c-3.033,0-6.126.137-9.117.27-2.172.1-4.417.2-6.63.243-6.821.144-13.756.234-20.463.32l-4.22.055c-5.042.067-10.169.128-15.126.188-4.689.056-9.537.114-14.3.177-2.225.029-4.487.066-6.675.1-3.3.054-6.706.111-10.061.14-.137,0-.276,0-.415.007-.192,0-.39.008-.588.008a3.965,3.965,0,0,1-3.8-1.831l-.217-.377.22-.376c.157-.269.3-.52.443-.755,1.835-3.116,1.945-3.3,1.671-7.579C1.1,78.586,2.538,73.091,4.044,67.956c2.014-6.872,4.505-14.1,9.058-20.442A73.126,73.126,0,0,1,20.9,38.3,59.89,59.89,0,0,1,29.9,30.92a54.764,54.764,0,0,1,10.312-5.375,57.55,57.55,0,0,1,11.7-3.183,31.1,31.1,0,0,1,5-.4,35.763,35.763,0,0,1,12.956,2.535,10.861,10.861,0,0,0,3.876.917c1.769,0,3.286-.857,5.073-2.865,5.9-6.626,13.6-12.034,23.545-16.532A78.637,78.637,0,0,1,128.408-.609C129.542-.7,130.683-.75,131.8-.75a35.628,35.628,0,0,1,17.7,4.51,26.354,26.354,0,0,1,11.147,11.358c1.333,2.8,2.4,5.754,3.431,8.616.469,1.3.953,2.645,1.455,3.951.164.427.346.845.577,1.374l.057.131a41.936,41.936,0,0,1,9.535-4.133,37.976,37.976,0,0,1,10.52-1.485,44.437,44.437,0,0,1,15.549,2.973A42.491,42.491,0,0,1,217.462,36.7a50.493,50.493,0,0,1,9.943,15.15q.694-.356,1.362-.693c1.424-.722,2.769-1.4,4.064-2.16a34.748,34.748,0,0,1,17.788-4.732,40.933,40.933,0,0,1,4.4.242A36.036,36.036,0,0,1,282.66,61.773a53.814,53.814,0,0,1,4.625,10.466c.317.882.645,1.794.977,2.678a9.07,9.07,0,0,0,3.228,4.57,6.746,6.746,0,0,1,3.028,6.238,5.991,5.991,0,0,1-1.277,3.031,7.181,7.181,0,0,1-2.973,2.156,105.218,105.218,0,0,1-14.6,4.651A87.139,87.139,0,0,1,261.614,97.8C261.115,97.835,260.587,97.853,260.045,97.853ZM247.97,95.182a14.154,14.154,0,0,1,2.2.227c.47.074.914.143,1.359.182,1,.086,2.019.206,3,.323a47.528,47.528,0,0,0,5.513.439h0c.5,0,.995-.018,1.457-.052a85.633,85.633,0,0,0,13.814-2.194,103.719,103.719,0,0,0,14.39-4.584,4.984,4.984,0,0,0,3.324-3.973,5.272,5.272,0,0,0-2.411-4.842,10.453,10.453,0,0,1-3.76-5.264c-.335-.894-.665-1.811-.984-2.7A52.7,52.7,0,0,0,281.39,62.57,35.516,35.516,0,0,0,270.1,51.107,35.877,35.877,0,0,0,254.861,46a39.421,39.421,0,0,0-4.242-.234A33.268,33.268,0,0,0,233.588,50.3c-1.333.78-2.7,1.472-4.143,2.2-.669.339-1.361.689-2.064,1.057l-.722.377-.316-.75a49.426,49.426,0,0,0-9.954-15.43,40.446,40.446,0,0,0-6.873-5.652,42.321,42.321,0,0,0-8.264-4.149,42.945,42.945,0,0,0-15.024-2.878,36.474,36.474,0,0,0-10.1,1.427,40.758,40.758,0,0,0-9.909,4.414l-.74.452-.34-.8c-.144-.336-.276-.64-.393-.908-.229-.525-.427-.978-.6-1.436-.507-1.321-.995-2.673-1.466-3.98-1.019-2.827-2.073-5.751-3.374-8.479a24.87,24.87,0,0,0-10.529-10.7A34.146,34.146,0,0,0,131.8.75c-1.076,0-2.176.046-3.269.136A77.143,77.143,0,0,0,102.984,7.38c-9.752,4.41-17.289,9.7-23.043,16.163-2.073,2.329-3.983,3.368-6.193,3.368a12.224,12.224,0,0,1-4.419-1.019,34.271,34.271,0,0,0-12.413-2.433,29.589,29.589,0,0,0-4.757.383,56.046,56.046,0,0,0-11.4,3.1,53.259,53.259,0,0,0-10.029,5.228,58.385,58.385,0,0,0-8.78,7.2,71.622,71.622,0,0,0-7.635,9.02C9.9,54.544,7.46,61.633,5.483,68.378,3.955,73.592,2.612,78.729,2.964,84.247a16.289,16.289,0,0,1-.1,4.722,13.408,13.408,0,0,1-1.78,3.714l-.2.342a2.653,2.653,0,0,0,2.265.735c.184,0,.374,0,.558-.007.145,0,.289-.006.431-.007,3.349-.029,6.755-.086,10.049-.14,2.189-.036,4.453-.073,6.68-.1,4.769-.063,9.617-.121,14.306-.177,4.957-.059,10.083-.121,15.124-.188l4.221-.055c6.7-.087,13.636-.176,20.451-.32,2.2-.047,4.432-.146,6.6-.242,3.007-.134,6.117-.272,9.183-.272h.143c10.513.016,21.2.137,31.533.255l6.627.075c4.276.047,9.346.119,14.534.3,2.106.073,4.242.195,6.307.312,2.681.152,5.453.31,8.174.363,1.552.03,3.247.044,5.18.044,1.78,0,3.592-.012,5.343-.024s3.569-.024,5.354-.024c.622,0,1.2,0,1.767,0,5.328.028,10.745.077,15.983.124,3.71.034,7.546.068,11.319.1.816.006,1.659-.031,2.476-.066.772-.033,1.571-.068,2.36-.068a18.277,18.277,0,0,1,2.39.139,206.1,206.1,0,0,0,27.373,1.5c3.651,0,7.226-.048,10.243-.1ZM4.6,90.231,4.837,89.2c.372-1.6.708-3.182,1.033-4.713a99.079,99.079,0,0,1,2.421-9.791c2.164-6.742,4.758-13.883,9.053-20.424A55.613,55.613,0,0,1,31.252,39.582,56.913,56.913,0,0,1,49.489,30.97a27.362,27.362,0,0,1,7.286-1,27.734,27.734,0,0,1,9.318,1.639c1.059.377,2.138.718,3.281,1.078.547.172,1.112.351,1.7.54l.7.228-.218.707c-.27.877-.545,1.745-.811,2.584-.669,2.109-1.3,4.1-1.826,6.138a5.517,5.517,0,0,0-.022,3.1A2.557,2.557,0,0,0,70.48,47.3a2.589,2.589,0,0,0,1.392-1.405c1.061-3.794,3.255-7.1,6.907-10.4.166-.15.34-.282.508-.409a2.409,2.409,0,0,0,.647-.609c2.3-4.5,6.231-7.151,10.037-9.713,1-.67,2.025-1.363,3-2.074,5.433-3.96,11.844-6.972,20.177-9.48a59.441,59.441,0,0,1,17.269-2.929c1.284,0,2.566.06,3.812.177a21.638,21.638,0,0,1,8.822,2.575,17.735,17.735,0,0,1,6.605,6.667,38.184,38.184,0,0,1,5.017,13.057,18.557,18.557,0,0,0,1.94,5.569,4.749,4.749,0,0,1,.085,4.8c-.115.227-.207.417-.286.608-.038.092-.077.185-.117.279-.566,1.336-.557,1.653.058,2a.8.8,0,0,0,.374.119c.388,0,.828-.572,1.217-1.076l.107-.139c3.426-4.412,8.128-7.473,14.8-9.632a25.678,25.678,0,0,1,8.107-1.154c2.356,0,4.74.215,7.046.423l.277.025a27.156,27.156,0,0,1,9.862,2.873,41.865,41.865,0,0,1,8.372,5.689,31.773,31.773,0,0,1,6.523,7.8,59.861,59.861,0,0,1,4.419,9.115,3.989,3.989,0,0,1-.5,2.916,6.048,6.048,0,0,1-1,1.247,4.451,4.451,0,0,0-.792.985,3.035,3.035,0,0,0-.137,1.222q0,.025,0,.05l.111.013a6.528,6.528,0,0,0,.74.063.938.938,0,0,0,.407-.066c2.1-1.087,4.206-2.248,6.246-3.371,1.891-1.041,3.846-2.118,5.794-3.136a59.017,59.017,0,0,1,9.561-4.093,33.729,33.729,0,0,1,10.243-1.669c.956,0,1.921.047,2.868.139a29.9,29.9,0,0,1,13,4.185,26.893,26.893,0,0,1,9.341,10,102.1,102.1,0,0,1,4.449,9.531c.611,1.437,1.243,2.922,1.9,4.37l.24.532-.456.363c-.271.215-.457.381-.606.515a1.535,1.535,0,0,1-.886.5c-1.55.151-3.127.389-4.653.619a54.043,54.043,0,0,1-8.049.8,22.9,22.9,0,0,1-4.449-.411,28.651,28.651,0,0,0-5.508-.465c-1.457,0-2.882.07-4.083.138-2.386.135-4.837.2-7.285.2-3.277,0-6.685-.123-10.128-.367-5.164-.365-10.438-.51-15.539-.65-1.2-.033-2.442-.067-3.663-.1-1.508-.045-3.042-.093-4.525-.14-6.358-.2-12.932-.407-19.394-.433-.735,0-1.5,0-2.27,0-4.812,0-9.707.058-14.441.113s-9.638.114-14.46.114h-.018c-3.421,0-6.892-.127-10.249-.25-1.888-.069-3.84-.141-5.759-.189-2.321-.058-4.681-.123-6.962-.185-6.484-.178-13.189-.362-19.781-.41l-4.076-.032c-4.134-.034-8.409-.069-12.611-.069-6.738,0-12.258.091-17.371.286-1.862.071-3.756.079-5.587.087a66.006,66.006,0,0,0-13.771,1.028,5.142,5.142,0,0,1-1.113.105c-.259,0-.516-.012-.765-.023s-.474-.022-.7-.022c-.154,0-.289,0-.415.015-3.086.25-6.224.494-9.259.731-8.369.652-17.022,1.327-25.51,2.18-3.814.383-7.677,1.088-11.412,1.769-1.776.324-3.612.659-5.425.956-.543.089-1.094.147-1.792.22-.378.04-.806.084-1.31.142ZM56.775,31.47a25.862,25.862,0,0,0-6.887.945A55.421,55.421,0,0,0,32.13,40.8,54.121,54.121,0,0,0,18.6,55.09c-4.2,6.391-6.747,13.418-8.878,20.059a97.981,97.981,0,0,0-2.382,9.644c-.257,1.21-.52,2.452-.8,3.712l.273-.029c.7-.073,1.205-.126,1.705-.208,1.8-.3,3.629-.629,5.4-.952,3.764-.687,7.657-1.4,11.531-1.786,8.5-.855,17.167-1.53,25.543-2.183,3.033-.236,6.17-.481,9.254-.73.166-.014.342-.02.536-.02.262,0,.52.012.77.024s.471.022.7.022a3.7,3.7,0,0,0,.793-.071,67.133,67.133,0,0,1,14.084-1.062c1.819-.008,3.7-.016,5.537-.086,5.133-.2,10.671-.287,17.429-.287,4.208,0,8.486.035,12.623.069l4.074.032c6.607.048,13.32.232,19.811.41,2.281.063,4.639.127,6.959.185,1.927.048,3.884.12,5.776.189,3.343.123,6.8.249,10.194.249h.018c4.813,0,9.708-.058,14.442-.113s9.637-.113,14.458-.113c.774,0,1.539,0,2.276,0,6.482.026,13.067.233,19.435.434,1.482.047,3.015.095,4.523.14,1.219.036,2.459.071,3.659.1,5.117.141,10.407.286,15.6.653,3.409.241,6.781.363,10.023.363,2.42,0,4.842-.068,7.2-.2,1.222-.07,2.674-.141,4.169-.141a30.114,30.114,0,0,1,5.8.493,21.424,21.424,0,0,0,4.161.383,52.914,52.914,0,0,0,7.825-.786c1.5-.227,3.057-.461,4.6-.616.044-.037.1-.091.159-.14s.136-.121.221-.195c-.576-1.295-1.134-2.605-1.675-3.878a100.968,100.968,0,0,0-4.381-9.391,25.412,25.412,0,0,0-8.82-9.457,28.422,28.422,0,0,0-12.358-3.967c-.9-.088-1.815-.132-2.723-.132-5.818,0-11.712,1.724-19.11,5.591-1.934,1.011-3.882,2.084-5.765,3.121-2.048,1.128-4.165,2.294-6.28,3.389a2.339,2.339,0,0,1-1.1.234,7.713,7.713,0,0,1-.92-.074,7,7,0,0,0-.708-.063l-.8-.011.062-.8c.016-.208.015-.434.014-.674a4.138,4.138,0,0,1,.295-1.9,5.6,5.6,0,0,1,1.052-1.354,4.879,4.879,0,0,0,.766-.933,2.584,2.584,0,0,0,.416-1.636,58.423,58.423,0,0,0-4.306-8.89,30.3,30.3,0,0,0-6.215-7.443c-5.956-5.069-11.484-7.678-17.4-8.211l-.277-.025c-2.273-.205-4.623-.417-6.911-.417a24.232,24.232,0,0,0-7.645,1.081c-6.369,2.063-10.842,4.963-14.075,9.126l-.1.134a3.255,3.255,0,0,1-2.405,1.66,2.26,2.26,0,0,1-1.106-.309,2.17,2.17,0,0,1-1.237-2.026,5.293,5.293,0,0,1,.53-1.865c.038-.089.075-.177.111-.264.1-.25.221-.491.335-.715a3.26,3.26,0,0,0-.066-3.408,20.076,20.076,0,0,1-2.1-6.025,36.737,36.737,0,0,0-4.832-12.554c-3.041-5.172-7.577-7.875-14.275-8.509-1.2-.113-2.434-.171-3.671-.171a58.008,58.008,0,0,0-16.837,2.866c-8.165,2.457-14.433,5.4-19.725,9.256-1,.728-2.04,1.429-3.046,2.106-3.816,2.568-7.42,4.994-9.538,9.15a3.438,3.438,0,0,1-1.077,1.122c-.149.113-.29.22-.408.326-3.432,3.105-5.487,6.186-6.468,9.7A3.751,3.751,0,0,1,70.5,48.8H70.48a3.862,3.862,0,0,1-2.988-2.294,6.934,6.934,0,0,1-.025-4c.536-2.077,1.173-4.088,1.848-6.217.193-.609.391-1.234.588-1.864l-.98-.31c-1.156-.365-2.249-.709-3.333-1.1A26.238,26.238,0,0,0,56.775,31.47Z" transform="translate(0 0)"/></g></g></svg>