<svg xmlns="http://www.w3.org/2000/svg" width="489.431" height="100.377" viewBox="0 0 489.431 100.377">
  <g id="Group_259" data-name="Group 259" transform="translate(-228.013 -618.311)">
    <g id="Group_260" data-name="Group 260">
      <g id="Path_264" data-name="Path 264" transform="translate(235.986 642.859) rotate(-2)" fill="#ec385a">
        <path d="M 472.4176940917969 75.12622833251953 L 0.8118504881858826 75.12622833251953 L 6.684671401977539 1.063994169235229 L 478.2904968261719 1.063994169235229 L 472.4176940917969 75.12622833251953 Z" stroke="none"/>
        <path d="M 7.377532958984375 1.813987731933594 L 1.623687744140625 74.37617492675781 L 471.7247619628906 74.37617492675781 L 477.4786071777344 1.813987731933594 L 7.377532958984375 1.813987731933594 M 5.99176025390625 0.3139877319335938 L 479.1022644042969 0.3139877319335938 L 473.1105346679688 75.87617492675781 L 3.0517578125e-05 75.87617492675781 L 5.99176025390625 0.3139877319335938 Z" stroke="none" fill="#000"/>
      </g>
      <g id="Path_263" data-name="Path 263" transform="translate(228.002 634.718) rotate(-2)" fill="#f8c1c6">
        <path d="M 472.4176940917969 75.12622833251953 L 0.8118504881858826 75.12622833251953 L 6.684671401977539 1.063994169235229 L 478.2904968261719 1.063994169235229 L 472.4176940917969 75.12622833251953 Z" stroke="none"/>
        <path d="M 7.377532958984375 1.813987731933594 L 1.623687744140625 74.37617492675781 L 471.7247619628906 74.37617492675781 L 477.4786071777344 1.813987731933594 L 7.377532958984375 1.813987731933594 M 5.99176025390625 0.3139877319335938 L 479.1022644042969 0.3139877319335938 L 473.1105346679688 75.87617492675781 L 3.0517578125e-05 75.87617492675781 L 5.99176025390625 0.3139877319335938 Z" stroke="none" fill="#000"/>
      </g>
      <path id="Path_566" data-name="Path 566" d="M2.17,0H8.96V-6.37L11.445-9.1,17.64,0h8.12L16.17-14l9.275-10.5H17.43L8.96-14.56V-24.5H2.17ZM27.895,0h6.79V-24.5h-6.79Zm11.27,0h6.72V-13.44L56.385,0H62.3V-24.5H55.58v12.95L45.5-24.5H39.165Zm39.97.49a16.318,16.318,0,0,0,10.64-3.815v-10.99H78.54v4.97h4.795V-6.37a6.768,6.768,0,0,1-3.92,1.015,6.48,6.48,0,0,1-6.65-6.825v-.07a6.4,6.4,0,0,1,6.265-6.685,8.58,8.58,0,0,1,5.915,2.31l3.99-4.83A14.272,14.272,0,0,0,79-24.99c-7.56,0-13.16,5.6-13.16,12.74v.07C65.835-4.76,71.505.49,79.135.49Zm36.47,0c7.56,0,13.23-5.705,13.23-12.74v-.07c0-7.035-5.6-12.67-13.16-12.67s-13.23,5.7-13.23,12.74v.07C102.445-5.145,108.045.49,115.605.49Zm.07-6.125a6.367,6.367,0,0,1-6.3-6.615v-.07a6.251,6.251,0,0,1,6.23-6.545,6.318,6.318,0,0,1,6.265,6.615v.07A6.244,6.244,0,0,1,115.675-5.635ZM132.335,0h6.79V-8.75H150.71v-5.635H139.125V-18.55h12.81V-24.5h-19.6Zm32.41,0h6.79V-7h3.395c6.055,0,10.5-3.045,10.5-8.855v-.07c0-5.39-3.99-8.575-10.15-8.575H164.745Zm6.79-12.32V-18.8h3.22c2.415,0,3.92,1.085,3.92,3.185v.07c0,1.925-1.505,3.22-3.885,3.22ZM200.655.49c7.56,0,13.23-5.705,13.23-12.74v-.07c0-7.035-5.6-12.67-13.16-12.67s-13.23,5.7-13.23,12.74v.07C187.5-5.145,193.1.49,200.655.49Zm.07-6.125a6.367,6.367,0,0,1-6.3-6.615v-.07a6.251,6.251,0,0,1,6.23-6.545,6.318,6.318,0,0,1,6.265,6.615v.07A6.244,6.244,0,0,1,200.725-5.635ZM217.385,0h6.79V-7h3.395c6.055,0,10.5-3.045,10.5-8.855v-.07c0-5.39-3.99-8.575-10.15-8.575H217.385Zm6.79-12.32V-18.8h3.22c2.415,0,3.92,1.085,3.92,3.185v.07c0,1.925-1.505,3.22-3.885,3.22ZM262.465.49A12.335,12.335,0,0,0,273.28-5.04l-5.11-3.64C266.7-6.895,265.2-5.7,262.64-5.7c-3.43,0-5.845-2.87-5.845-6.545v-.07c0-3.57,2.415-6.51,5.845-6.51a6.651,6.651,0,0,1,5.355,2.87l5.11-3.955A12.056,12.056,0,0,0,262.71-24.99a12.557,12.557,0,0,0-12.88,12.74v.07A12.441,12.441,0,0,0,262.465.49Zm24.78-.035c6.965,0,11.48-3.5,11.48-11.375V-24.5h-6.86v13.79c0,3.43-1.785,5.04-4.55,5.04-2.73,0-4.515-1.68-4.515-5.215V-24.5h-6.86v13.755C275.94-3.08,280.315.455,287.245.455ZM302.75,0H321.4V-5.95H309.54V-24.5h-6.79Zm24.08,0h6.79V-18.55h7.35V-24.5H319.515v5.95h7.315Zm28.14.455c6.965,0,11.48-3.5,11.48-11.375V-24.5h-6.86v13.79c0,3.43-1.785,5.04-4.55,5.04-2.73,0-4.515-1.68-4.515-5.215V-24.5h-6.86v13.755C343.665-3.08,348.04.455,354.97.455ZM370.475,0h6.79V-7.42h3.01L385.21,0h7.8L387.17-8.54a7.762,7.762,0,0,0,5.04-7.56v-.07a7.65,7.65,0,0,0-2.17-5.7c-1.645-1.645-4.235-2.625-7.98-2.625H370.475Zm6.79-12.74v-5.915h4.48c2.24,0,3.675.98,3.675,2.94v.07c0,1.785-1.365,2.9-3.64,2.9ZM395.64,0h19.88V-5.775H402.36V-9.66h11.76v-5.355H402.36V-18.76h12.985V-24.5h-19.7Z" transform="translate(261.375 684.356) rotate(-2)"/>
    </g>
  </g>
</svg>
