<svg xmlns="http://www.w3.org/2000/svg" xmlns:xlink="http://www.w3.org/1999/xlink" width="38.809" height="40.644" viewBox="0 0 38.809 40.644"><defs><clipPath id="a"><rect width="38.117" height="39.985" transform="translate(0 0)" fill="none" stroke="#000" stroke-width="0.2"/></clipPath></defs><g transform="translate(-328.87 -19.752)"><path d="M332.934,51.79c.858-.22,34.08,0,34.08,0v2.7s.7,3.518-5.1,3.635-27.044-.54-28.186-1.076-1.534-2.023-1.381-3.525S332.075,52.011,332.934,51.79Z" transform="translate(-1.303 0.964)" fill="#fec62e"/><path d="M331.926,35.7c1.2.452,21.514,0,21.514,0s13.639.375,13.986-1.155-2.1-9.5-9.418-11.019-14.84-.225-18.527,1.347a17.526,17.526,0,0,0-7.556,6.767C331.216,33.162,330.73,35.251,331.926,35.7Z" transform="translate(-1.414 -1.891)" fill="#fec62e"/><g transform="matrix(1, -0.017, 0.017, 1, 328.87, 20.417)"><g transform="translate(0 0)" clip-path="url(#a)"><path d="M.457.656a.554.554,0,0,1,.6-.567C2.13.06,3.2.019,4.275,0c.667-.01,1.334.012,2,.025C7.1.044,7.931.054,8.758.09,9.3.113,9.849.176,10.394.222c.056,0,.111.015.166.016,1.073.033,2.145.082,3.219.091C14.754.337,15.729.291,16.7.29c.849,0,1.7.047,2.548.041C20.341.323,21.43.278,22.519.256,23.683.233,24.848.193,26.011.206c1.441.016,2.882.071,4.323.122.884.031,1.766.093,2.65.127.936.036,1.875.111,2.807.065a1.226,1.226,0,0,1,1.25,1.586,7.087,7.087,0,0,0-.137,1.48c-.049.665-.084,1.331-.138,2a2.639,2.639,0,0,1-2.119,2.373c-.72.143-1.448.222-2.178.3-.845.091-1.686.212-2.532.291a8.942,8.942,0,0,1-1.053-.018c-.074,0-.158-.033-.221-.008a6.63,6.63,0,0,1-1.97.08,16.731,16.731,0,0,1-2.156.017c-.6-.019-1.206-.1-1.81-.132-.572-.03-1.147-.02-1.719-.045-.823-.037-1.647-.042-2.471-.116-.927-.083-1.864-.045-2.8-.073-.531-.016-1.061-.068-1.592-.085-.972-.032-1.945-.047-2.917-.074-.588-.016-1.176-.039-1.763-.063S8.292,7.981,7.7,7.943c-.516-.033-1.031-.074-1.544-.134C5.22,7.7,4.282,7.585,3.345,7.453a10.21,10.21,0,0,1-1.354-.269,1.729,1.729,0,0,1-.553-.326,5.3,5.3,0,0,1-.581-.527,1.186,1.186,0,0,1-.3-.4,6.253,6.253,0,0,1-.389-3.8C.21,2,.439.829.457.656M35.018,3.187a.665.665,0,0,0-.656-.709h-.007c-.7.007-1.4.054-2.094.041C31,2.495,29.75,2.437,28.495,2.4c-.346-.011-.693-.01-1.039-.023-.314-.012-.627-.05-.94-.051-.539,0-1.078.026-1.616.024-1.164,0-2.328-.034-3.492-.024-1.77.016-3.541.072-5.311.082-1.032.006-2.064-.05-3.1-.067-.552-.009-1.105.028-1.656,0Q9.5,2.257,7.667,2.127c-.478-.033-.95-.161-1.428-.179A26.007,26.007,0,0,1,2.7,1.669l-.082-.013a.671.671,0,0,0-.748.829c.113.44.222.872.325,1.306.06.252.058.518.113.771a.632.632,0,0,0,.412.551c.209.06.424.1.638.145a27.361,27.361,0,0,0,4.183.511c.81.027,1.62.066,2.43.1s1.606.066,2.409.086c.48.012.962-.021,1.442,0,.887.044,1.773.133,2.66.169,1.2.049,2.393.057,3.589.1.937.034,1.873.1,2.811.145,1.024.044,2.049.083,3.074.1.974.02,1.949.018,2.923.018a37.859,37.859,0,0,0,4.437-.277c.423-.05.841-.142,1.264-.2a.308.308,0,0,0,.3-.333c.047-.813.094-1.627.145-2.5" transform="translate(0.32 31.342)"/><path d="M25.694,8.743c-.331,0-.668-.011-.993-.021l-.166-.005c-.338-.01-.68-.041-1.01-.07-.263-.023-.535-.048-.8-.061-.3-.015-.606-.02-.9-.025-.267,0-.544-.008-.816-.02s-.519-.02-.773-.028c-.558-.018-1.134-.037-1.7-.088-.6-.053-1.212-.056-1.805-.06-.323,0-.657,0-.985-.013-.272-.008-.548-.026-.814-.043s-.519-.033-.778-.042c-.566-.018-1.143-.032-1.7-.044q-.608-.014-1.217-.03c-.512-.014-1.056-.034-1.765-.063L9.3,8.122c-.525-.022-1.067-.044-1.6-.079-.6-.039-1.1-.082-1.549-.134-1.1-.127-1.992-.24-2.817-.356A10.1,10.1,0,0,1,1.964,7.28a1.806,1.806,0,0,1-.587-.343A5.43,5.43,0,0,1,.784,6.4l-.03-.031a1.136,1.136,0,0,1-.293-.412A6.35,6.35,0,0,1,.072,2.1C.113,1.97.34.814.358.645a.653.653,0,0,1,.7-.656L2.127-.042c.7-.022,1.43-.044,2.146-.055l.355,0c.4,0,.81.009,1.205.018l.444.01.5.009c.652.012,1.326.024,1.988.052.381.016.767.052,1.139.087.167.016.334.031.5.045l.07.008c.032,0,.062.008.091.008l.942.031c.746.026,1.517.053,2.275.06.53,0,1.069-.007,1.591-.019C15.808.2,16.26.19,16.7.19h.013c.4,0,.8.011,1.19.021.441.012.9.023,1.344.02.667-.005,1.345-.024,2-.043.414-.012.843-.024,1.264-.032l.837-.019C24.074.121,24.819.1,25.552.1l.46,0C27.3.12,28.6.166,29.862.211l.475.017c.464.016.935.041,1.39.066.413.022.841.045,1.261.061.231.009.465.02.692.031.488.024.994.048,1.488.048.221,0,.423,0,.619-.014l.078,0A1.282,1.282,0,0,1,36.92.933a1.385,1.385,0,0,1,.217,1.2,3.987,3.987,0,0,0-.113,1.007c0,.148-.009.3-.02.452-.021.285-.04.576-.058.857-.024.373-.049.76-.08,1.139a2.748,2.748,0,0,1-2.2,2.463c-.737.146-1.474.226-2.187.3-.347.038-.7.081-1.042.123-.488.06-.993.122-1.491.168-.091.009-.187.013-.295.013-.15,0-.3-.008-.45-.016-.105-.006-.214-.012-.32-.014a.7.7,0,0,1-.092-.01.489.489,0,0,0-.069-.008.056.056,0,0,0-.02,0,1.949,1.949,0,0,1-.751.13c-.172,0-.345-.014-.512-.028s-.333-.027-.5-.027c-.085,0-.163,0-.237.011C26.4,8.728,26.073,8.743,25.694,8.743ZM4.628.1,4.276.1c-.714.011-1.44.033-2.143.055L1.061.189a.456.456,0,0,0-.5.477C.538.846.307,2.02.263,2.161A6.2,6.2,0,0,0,.652,5.9,1,1,0,0,0,.9,6.23l.031.032a5.227,5.227,0,0,0,.57.517,1.625,1.625,0,0,0,.519.309,9.91,9.91,0,0,0,1.341.266c.823.116,1.716.229,2.812.356.449.052.938.094,1.539.133.531.034,1.072.057,1.6.079l.167.007c.707.03,1.251.049,1.762.063q.608.017,1.216.03c.558.013,1.134.026,1.7.044.262.008.528.026.784.042s.539.035.807.043c.326.01.658.011.98.013.6,0,1.216.006,1.822.06.563.05,1.137.069,1.692.087.254.008.516.017.775.028s.544.016.81.02c.3,0,.607.009.91.025.271.014.545.038.809.062.328.029.666.059,1,.07l.166.005c.324.01.658.021.986.021.373,0,.7-.014.991-.043.081-.008.165-.012.257-.012.172,0,.346.014.514.028s.333.027.5.027a1.758,1.758,0,0,0,.676-.116.388.388,0,0,1,.194-.007.549.549,0,0,0,.066.008c.109,0,.219.009.326.014.145.008.294.016.439.016.1,0,.192,0,.276-.012.5-.046,1-.108,1.486-.167.342-.042.7-.085,1.044-.123.708-.077,1.441-.156,2.17-.3a2.547,2.547,0,0,0,2.039-2.283c.031-.378.055-.763.079-1.136.018-.282.037-.573.058-.859.011-.145.015-.3.019-.443a4.134,4.134,0,0,1,.121-1.059,1.181,1.181,0,0,0-.185-1.024,1.087,1.087,0,0,0-.9-.435l-.068,0c-.2.01-.4.015-.629.015-.5,0-1.007-.025-1.5-.048-.226-.011-.46-.022-.69-.031-.422-.016-.85-.039-1.264-.061-.454-.024-.924-.05-1.386-.066L29.855.411c-1.26-.045-2.563-.091-3.845-.1l-.458,0c-.731,0-1.475.017-2.194.034l-.837.019c-.421.008-.849.02-1.263.032-.657.019-1.336.038-2,.043-.451,0-.908-.009-1.35-.02C17.514.4,17.112.39,16.718.39H16.7c-.443,0-.893.01-1.329.02-.523.012-1.064.023-1.6.019C13.018.422,12.245.4,11.5.369L10.558.338c-.038,0-.074-.006-.109-.01L10.386.321c-.168-.014-.335-.03-.5-.045C9.513.241,9.13.206,8.754.189,8.094.161,7.421.149,6.77.137l-.5-.009L5.828.118C5.434.109,5.027.1,4.628.1Zm23.78,6.491c-.788,0-1.627,0-2.458-.018-1.119-.023-2.232-.067-3.076-.1-.427-.018-.861-.043-1.28-.067-.5-.029-1.02-.059-1.53-.077-.557-.02-1.125-.033-1.674-.046-.628-.014-1.277-.029-1.916-.055-.478-.02-.963-.055-1.432-.089-.4-.029-.819-.06-1.229-.08-.116-.006-.242-.008-.387-.008s-.273,0-.406,0c-.212,0-.431.007-.646,0-.642-.016-1.294-.042-1.924-.067l-.486-.019-.946-.039c-.486-.021-.989-.042-1.483-.059a27.3,27.3,0,0,1-4.2-.513c-.194-.037-.422-.082-.647-.147a.731.731,0,0,1-.483-.626A3.608,3.608,0,0,1,2.15,4.2a3.136,3.136,0,0,0-.058-.388c-.1-.412-.2-.819-.324-1.3a.771.771,0,0,1,.747-.961.8.8,0,0,1,.112.008l.086.013a24.306,24.306,0,0,0,3.3.27l.227.008a6.368,6.368,0,0,1,.781.093c.213.035.434.07.65.085,1.244.087,2.48.159,3.674.213.128.006.266.009.421.009.173,0,.349,0,.519-.007.233,0,.475-.009.713-.005.4.007.8.019,1.191.031.624.019,1.269.04,1.9.036.943-.005,1.9-.024,2.829-.042.813-.016,1.654-.032,2.481-.04l.5,0c.535,0,1.078.007,1.6.013.455.006.926.011,1.388.013h.049c.251,0,.507-.006.755-.012s.506-.012.76-.012h.053c.187,0,.375.014.557.027.127.009.258.019.387.024.182.007.368.01.548.012.161,0,.327,0,.491.01q.617.02,1.233.044c.83.031,1.688.063,2.531.079l.254,0c.33,0,.666-.011.992-.022.277-.009.564-.019.846-.021h.007a.741.741,0,0,1,.546.236.781.781,0,0,1,.211.579l-.034.58c-.038.655-.074,1.285-.111,1.915a.4.4,0,0,1-.384.426c-.192.026-.387.059-.576.092-.225.039-.457.079-.689.106a37.7,37.7,0,0,1-4.449.278ZM13.426,5.846c.148,0,.278,0,.4.009.412.02.83.051,1.234.08.467.034.951.069,1.426.089.637.026,1.285.041,1.912.055.549.012,1.117.025,1.676.046.512.019,1.032.049,1.534.077.419.024.851.049,1.277.067.843.036,1.955.081,3.072.1.829.017,1.667.018,2.454.018h.467A37.5,37.5,0,0,0,33.3,6.114c.226-.027.456-.066.678-.1.191-.033.388-.067.584-.093.147-.02.2-.082.211-.239.037-.63.073-1.26.111-1.915l.034-.58a.581.581,0,0,0-.157-.43.541.541,0,0,0-.4-.173h-.011c-.279,0-.564.012-.84.021-.411.014-.837.028-1.256.02-.845-.016-1.7-.048-2.535-.08q-.616-.023-1.232-.044c-.162-.005-.327-.008-.487-.01-.181,0-.368-.006-.552-.012-.132,0-.265-.015-.394-.024-.178-.013-.363-.026-.543-.027h-.052c-.251,0-.507.006-.755.012s-.506.012-.76.012H24.9c-.463,0-.935-.007-1.39-.013-.525-.007-1.068-.013-1.6-.013l-.5,0c-.826.007-1.667.024-2.479.04C18,2.48,17.041,2.5,16.1,2.5c-.637,0-1.285-.016-1.91-.036-.39-.012-.793-.025-1.189-.031-.235,0-.474,0-.705.005-.171,0-.349.007-.523.007-.159,0-.3,0-.43-.009-1.2-.054-2.433-.126-3.679-.213-.225-.016-.45-.052-.668-.087a6.218,6.218,0,0,0-.756-.091l-.226-.008a24.459,24.459,0,0,1-3.331-.273L2.6,1.755a.57.57,0,0,0-.536.217.564.564,0,0,0-.1.489c.124.486.227.894.325,1.308a3.335,3.335,0,0,1,.062.412,3.406,3.406,0,0,0,.052.361c.062.286.161.424.342.476.217.062.44.107.629.142a27.112,27.112,0,0,0,4.168.509c.5.016,1,.038,1.485.059l.945.039.487.019c.63.025,1.281.051,1.921.067.212.005.428,0,.638,0C13.151,5.849,13.289,5.846,13.426,5.846Z" transform="translate(0.32 31.342)"/><path d="M24.722,15.282c-.556-.021-1.113-.036-1.67-.049-.741-.017-1.482-.028-2.222-.043-1.277-.026-2.553-.046-3.83-.081-.943-.026-1.885-.086-2.829-.1-.963-.017-1.927.031-2.889,0-1.574-.057-3.149-.134-4.72-.248-1.184-.086-2.369-.2-3.542-.383a15.788,15.788,0,0,1-2.355-.584c-.654-.207-.615-.263-.652-.95A7.928,7.928,0,0,1,.04,11.566a6.654,6.654,0,0,1,.981-2.81A16.3,16.3,0,0,1,3.539,5.539a15.4,15.4,0,0,1,2.1-1.791,17.219,17.219,0,0,1,4.808-2.363c1.17-.34,2.343-.689,3.534-.936a24.019,24.019,0,0,1,2.7-.3C17.367.085,18.054.023,18.74.016a23.9,23.9,0,0,1,3.817.126c.8.121,1.622.143,2.429.248.494.064.976.21,1.467.3a19.6,19.6,0,0,1,4.512,1.512,16.93,16.93,0,0,1,1.884,1.139,14.371,14.371,0,0,1,1.379.919,7.35,7.35,0,0,1,.91.963,8.175,8.175,0,0,1,1.441,2.4c.437,1.135.82,2.292,1.18,3.454a7.5,7.5,0,0,1,.16,1.262,1.5,1.5,0,0,0,.088.371,1.03,1.03,0,0,1-.638,1.462,10.991,10.991,0,0,1-3.736.7c-1.661.152-3.32.314-4.981.458-.35.03-2.972-.025-3.929-.062M36,12.772A13.447,13.447,0,0,0,34.889,8.8a12.062,12.062,0,0,0-1-1.957A7.1,7.1,0,0,0,31.936,5.07,15.581,15.581,0,0,0,28.845,3.48c-.874-.334-1.78-.585-2.677-.852a32.969,32.969,0,0,0-4.25-.7,16.271,16.271,0,0,0-2.556-.1c-.986,0-1.972.029-2.955.1a20.656,20.656,0,0,0-2.608.326,23.255,23.255,0,0,0-4.67,1.393,14.511,14.511,0,0,0-3.971,2.49A14.787,14.787,0,0,0,2.283,9.495a9.8,9.8,0,0,0-.917,2.071,1,1,0,0,0,.9,1.3c1.124.068,2.742.155,3.647.195.333.015.665.044,1,.05.921.017,1.842.017,2.763.039,1.124.027,2.248.087,3.372.1,1.239.018,2.478-.014,3.717.006,1.127.018,2.253.08,3.38.114.815.025,1.63.036,2.445.056,1.589.04,3.179.117,4.768.114,1.071,0,2.143-.1,3.212-.187,1.143-.091,2.284-.211,3.425-.332.659-.07,1.316-.166,2.007-.254" transform="translate(0 0)"/><path d="M28.2,15.452c-.893,0-2.743-.043-3.477-.07-.487-.018-1-.033-1.668-.049q-.667-.015-1.333-.026l-.889-.017-1.038-.02c-.915-.017-1.862-.035-2.793-.061-.419-.011-.844-.03-1.256-.048-.515-.022-1.048-.046-1.572-.055-.144,0-.295,0-.462,0-.268,0-.542,0-.806.006s-.539.006-.808.006c-.3,0-.572,0-.816-.013-1.752-.063-3.3-.145-4.723-.249-1.338-.1-2.5-.223-3.55-.384a15.591,15.591,0,0,1-2.37-.588c-.661-.209-.685-.316-.716-.922l-.006-.119a8.056,8.056,0,0,1,.027-1.286,6.734,6.734,0,0,1,1-2.852A16.329,16.329,0,0,1,3.469,5.467a15.652,15.652,0,0,1,2.113-1.8,17.088,17.088,0,0,1,4.836-2.376l.245-.071c1.074-.313,2.184-.636,3.3-.866A16.67,16.67,0,0,1,16.03.1c.211-.017.43-.034.644-.053.674-.061,1.372-.125,2.066-.132l.523-.007c.32,0,.65-.009.976-.009a15.889,15.889,0,0,1,2.334.144c.434.065.882.1,1.314.138.365.03.743.062,1.113.11.3.04.607.11.9.179.188.044.382.089.573.126a19.438,19.438,0,0,1,4.535,1.52,10.731,10.731,0,0,1,1.395.82c.164.108.333.219.5.325l.275.171a11,11,0,0,1,1.114.754A6.024,6.024,0,0,1,35.075,5l.138.162a8.27,8.27,0,0,1,1.459,2.433c.383,1,.759,2.095,1.182,3.46a3.768,3.768,0,0,1,.126.855c.01.14.02.285.038.424a1.382,1.382,0,0,0,.081.346,1.13,1.13,0,0,1-.689,1.59,9.436,9.436,0,0,1-3.26.669l-.509.044-1.734.161c-1.064.1-2.165.2-3.248.3C28.589,15.449,28.437,15.452,28.2,15.452ZM13.708,14.9c.168,0,.32,0,.465,0,.526.009,1.061.033,1.577.055.411.018.835.036,1.252.048.93.025,1.876.043,2.791.061l1.038.02.888.017q.667.012,1.334.026c.668.015,1.183.03,1.671.049.733.028,2.579.07,3.47.07.289,0,.4,0,.447-.008,1.083-.094,2.183-.2,3.247-.3l1.734-.161.511-.044a9.284,9.284,0,0,0,3.193-.652.934.934,0,0,0,.587-1.334,1.617,1.617,0,0,1-.095-.4c-.018-.145-.029-.292-.039-.435a3.565,3.565,0,0,0-.117-.81c-.422-1.361-.8-2.457-1.178-3.448a8.071,8.071,0,0,0-1.423-2.375l-.139-.163a5.874,5.874,0,0,0-.757-.787,10.846,10.846,0,0,0-1.094-.74L32.8,3.43c-.169-.107-.34-.219-.5-.327A10.58,10.58,0,0,0,30.924,2.3,19.244,19.244,0,0,0,26.435.792c-.2-.037-.392-.083-.581-.127C25.565.6,25.268.528,24.973.49c-.366-.048-.741-.079-1.1-.109-.436-.036-.887-.074-1.327-.14A15.7,15.7,0,0,0,20.238.1c-.324,0-.654,0-.973.009l-.523.007c-.686.007-1.38.07-2.05.131-.215.02-.434.037-.646.053A16.522,16.522,0,0,0,14,.547c-1.1.229-2.211.551-3.281.862l-.245.071a16.9,16.9,0,0,0-4.78,2.35A15.479,15.479,0,0,0,3.608,5.61a16.132,16.132,0,0,0-2.5,3.2A6.538,6.538,0,0,0,.14,11.576a7.859,7.859,0,0,0-.026,1.255l.006.119c.028.568.039.571.576.741a15.4,15.4,0,0,0,2.34.581c1.045.16,2.2.285,3.534.382,1.424.1,2.967.185,4.716.248.241.009.506.013.808.013.268,0,.541,0,.806-.006S13.439,14.9,13.708,14.9Zm13.536-1.259c-1.058,0-2.134-.035-3.174-.069-.486-.016-.989-.032-1.483-.045-.335-.008-.669-.015-1-.022-.473-.01-.962-.019-1.442-.034-.43-.013-.866-.031-1.289-.048-.685-.027-1.393-.056-2.09-.067-.282,0-.591-.007-.945-.007-.316,0-.632,0-.948,0s-.633,0-.949,0-.612,0-.876-.006c-.647-.009-1.3-.033-1.938-.056-.47-.017-.957-.035-1.435-.046-.522-.013-1.053-.018-1.566-.024-.392,0-.8-.008-1.2-.016-.205,0-.413-.017-.614-.029-.127-.008-.258-.016-.387-.022-.854-.038-2.457-.123-3.648-.195a1.1,1.1,0,0,1-.849-.48,1.089,1.089,0,0,1-.142-.951A9.866,9.866,0,0,1,2.2,9.444,14.613,14.613,0,0,1,5.091,6.072a14.563,14.563,0,0,1,4-2.507,23.383,23.383,0,0,1,4.69-1.4A20.919,20.919,0,0,1,16.4,1.838c.916-.07,1.883-.1,2.957-.1h.005l.451,0,.451,0a10.562,10.562,0,0,1,1.67.1c.456.073.924.13,1.377.184a17.405,17.405,0,0,1,2.886.516l.437.129c.743.219,1.512.445,2.248.726a15.716,15.716,0,0,1,3.111,1.6,7.283,7.283,0,0,1,1.979,1.8,10.227,10.227,0,0,1,.886,1.7l.124.277a13.58,13.58,0,0,1,1.122,4l.012.1-.1.013-.64.084c-.47.063-.915.122-1.369.17-1.27.134-2.329.244-3.428.332l-.387.031c-.928.076-1.887.154-2.833.156Zm-11.426-.491c.354,0,.664,0,.948.007.7.011,1.408.039,2.095.067.422.017.858.034,1.287.047.48.015.968.025,1.44.034.335.007.67.014,1,.022.495.013,1,.029,1.484.045,1.038.034,2.112.069,3.167.069h.114c.938,0,1.893-.08,2.817-.155l.387-.031c1.1-.088,2.154-.2,3.422-.331.451-.048.894-.107,1.364-.169l.543-.072A13.382,13.382,0,0,0,34.8,8.845l-.124-.278A10.079,10.079,0,0,0,33.807,6.9a7.1,7.1,0,0,0-1.926-1.75,15.516,15.516,0,0,0-3.072-1.58c-.728-.278-1.493-.5-2.233-.721l-.437-.129a17.256,17.256,0,0,0-2.853-.509c-.454-.055-.924-.112-1.384-.185a10.385,10.385,0,0,0-1.638-.1l-.45,0-.449,0h-.009c-1.068,0-2.031.034-2.942.1a20.746,20.746,0,0,0-2.6.324A23.2,23.2,0,0,0,9.168,3.747,14.368,14.368,0,0,0,5.225,6.22,14.425,14.425,0,0,0,2.368,9.546a9.669,9.669,0,0,0-.908,2.05.89.89,0,0,0,.117.778.9.9,0,0,0,.7.394c1.191.072,2.792.157,3.645.195.131.006.263.014.391.022.2.012.4.025.6.029.4.007.8.012,1.195.016.514.005,1.046.011,1.569.024.479.012.966.029,1.437.046.634.023,1.29.047,1.934.056.263,0,.548.006.873.006s.632,0,.948,0S15.5,13.153,15.818,13.153Z" transform="translate(0 0)"/><path d="M32.792,2.3c-.718,0-1.437.014-2.155,0-.843-.021-1.684-.086-2.527-.1-.758-.015-1.516.015-2.274.018s-1.516,0-2.274,0c-.908,0-1.816-.015-2.725-.019-1.383-.006-2.767-.018-4.15-.011-.852,0-1.7.045-2.555.06-.442.008-.884-.006-1.326-.01-1.018-.01-2.037-.013-3.055-.033-1.125-.021-2.25-.074-3.376-.081-.881-.006-1.763.045-2.644.054-.256,0-.513-.071-.771-.079-.573-.018-1.146-.009-1.719-.029A1.829,1.829,0,0,1,.7,1.949.945.945,0,0,1,0,.956,1.044,1.044,0,0,1,.95.081C1.709.043,2.469.052,3.229.039S4.736,0,5.489,0c.685,0,1.37.025,2.055.04C8.69.065,9.836.106,10.982.111c1.293.006,2.586-.028,3.879-.029.609,0,1.217.042,1.826.052.645.011,1.291,0,1.936.009,1.351.024,2.7.07,4.052.084C23.618.237,24.562.2,25.506.2c1-.007,2-.053,2.994.008C29.255.252,30,.178,30.751.19c.574.009,1.147.036,1.72.057.13,0,.26.021.39.021.6,0,1.207-.013,1.811,0A.592.592,0,0,1,35,.441c.08.071.1.228.185.27.352.176.291.427.238.748a.85.85,0,0,1-.859.784c-.588.05-1.178.067-1.768.1l0-.042" transform="translate(1.25 17.57)"/><path d="M32.7,2.446l0-.048-.565,0-.662,0c-.322,0-.587,0-.835-.009-.4-.01-.806-.03-1.2-.05-.435-.022-.885-.044-1.327-.053-.138,0-.282,0-.438,0-.325,0-.656.006-.976.011-.281,0-.571.01-.857.011h-.574c-.555,0-1.12,0-1.666-.006H23.56L22.268,2.3q-.716-.006-1.432-.01l-.949,0c-.752,0-1.53-.008-2.294-.008l-.906,0c-.494,0-1,.018-1.484.032-.35.011-.713.021-1.07.028-.312.005-.629,0-.935,0L12.8,2.326l-.91-.008c-.7-.006-1.431-.011-2.146-.025-.46-.009-.928-.023-1.38-.037-.654-.02-1.33-.04-1.995-.044-.5,0-1.016.012-1.512.028-.371.011-.754.023-1.131.027H3.716A2.831,2.831,0,0,1,3.3,2.225a3.015,3.015,0,0,0-.345-.038c-.277-.009-.559-.011-.831-.014-.291,0-.591-.005-.887-.015a1.932,1.932,0,0,1-.571-.115A1.045,1.045,0,0,1-.095.946,1.139,1.139,0,0,1,.945-.019C1.467-.045,2-.049,2.511-.053c.239,0,.478,0,.717-.008l.758-.016c.493-.011,1-.023,1.5-.023H5.5c.484,0,.975.013,1.45.025l.595.015q.54.012,1.08.027c.773.02,1.571.041,2.357.045H11.3C11.9.012,12.516,0,13.11,0c.574-.007,1.167-.014,1.751-.015h.013c.344,0,.692.014,1.029.027.258.01.524.021.786.025.182,0,.378,0,.635,0h.619c.186,0,.432,0,.681.005.545.01,1.1.023,1.636.037.792.019,1.61.039,2.415.048l.36,0c.462,0,.933-.008,1.388-.016C24.778.107,25.145.1,25.505.1c.266,0,.538-.007.8-.011.34-.006.692-.012,1.039-.012.444,0,.814.01,1.162.031.167.01.344.015.543.015.254,0,.512-.008.761-.016.308-.01.627-.02.942-.015.42.007.846.023,1.258.039l.465.017c.055,0,.111.006.166.01.076.005.148.011.22.011l.575,0,.6,0c.244,0,.447,0,.641.007a.648.648,0,0,1,.389.2.491.491,0,0,1,.108.164.3.3,0,0,0,.055.092c.4.2.35.511.3.811l-.007.043a.945.945,0,0,1-.949.867c-.412.035-.832.054-1.238.072l-.533.025Zm.094-.248h.1l0,.037.433-.02c.4-.018.822-.037,1.23-.072a.75.75,0,0,0,.769-.7l.007-.043c.054-.322.068-.469-.191-.6a.357.357,0,0,1-.146-.184.354.354,0,0,0-.06-.1.466.466,0,0,0-.261-.148c-.192,0-.394-.007-.636-.007l-.6,0-.575,0c-.08,0-.159-.006-.235-.011-.053,0-.106-.008-.159-.009L32,.329C31.591.313,31.166.3,30.749.29c-.311-.005-.627,0-.933.015-.251.008-.51.016-.767.016-.2,0-.384-.005-.555-.016-.344-.021-.71-.031-1.15-.031-.345,0-.7.006-1.035.012-.263,0-.535.009-.8.011-.36,0-.726.009-1.079.015-.456.008-.927.016-1.391.016l-.362,0C21.867.319,21.048.3,20.255.279,19.72.266,19.166.253,18.621.243c-.248,0-.492-.005-.678-.005h-.619c-.258,0-.455,0-.638,0-.264,0-.531-.015-.79-.025C15.56.2,15.214.182,14.874.182h-.013c-.583,0-1.175.008-1.749.015C12.518.2,11.9.212,11.3.212h-.316c-.787,0-1.587-.025-2.361-.045Q8.081.152,7.542.14l-.6-.015C6.473.113,5.983.1,5.5.1H5.489c-.5,0-1.008.012-1.5.023L3.231.139c-.239,0-.479.006-.718.008C2,.151,1.473.155.955.181A.942.942,0,0,0,.1.966a.843.843,0,0,0,.629.889,1.73,1.73,0,0,0,.51.1c.294.01.593.013.882.015.274,0,.557,0,.836.014a3.209,3.209,0,0,1,.368.04,2.64,2.64,0,0,0,.386.039h.012c.375,0,.757-.015,1.127-.027.5-.015,1.012-.031,1.519-.028.667,0,1.344.025,2,.045.452.014.918.028,1.377.036.714.013,1.441.019,2.144.025l.91.008.4.006c.3,0,.619.01.928,0,.356-.006.717-.017,1.067-.028.488-.015.992-.03,1.489-.032l.907,0c.765,0,1.543,0,2.3.008l.949,0q.716,0,1.433.01l1.292.009H23.6c.546,0,1.11.006,1.665.006h.573c.285,0,.574-.006.855-.011.321-.006.653-.011.98-.011.158,0,.3,0,.442,0,.445.009.9.031,1.334.053.392.02.8.04,1.194.05.246.006.51.009.83.009l.661,0Z" transform="translate(1.25 17.57)"/><path d="M3.538.08A11.989,11.989,0,0,0,5.478.059,22.674,22.674,0,0,1,7.99.031c1.087-.061,2.183.048,3.275.052s2.167-.047,3.25-.044c.809,0,1.62.091,2.427.068.5-.014.992-.006,1.489,0C19.41.125,20.4-.012,21.365.074c1.144.1,2.278-.061,3.417.014.939.062,1.883.06,2.825.076.295,0,.59-.034.885-.037.72-.007,1.44,0,2.16-.006C31.182.116,31.71.088,32.239.084a12.782,12.782,0,0,1,1.486.03A1.693,1.693,0,0,1,34.6.427a2,2,0,0,1,.382.774c.134.326-.084.486-.3.693A1.45,1.45,0,0,1,33.5,2.35,19.03,19.03,0,0,0,31.134,2.3c-1.639.1-3.27-.1-4.908-.057-1.4.04-2.8-.07-4.2-.1-.537-.011-1.075.029-1.612.024-1.556-.016-3.112-.053-4.669-.063-1.163-.008-2.327.026-3.491.017-1.18-.009-2.361-.05-3.541-.074-.666-.013-1.332-.021-2-.029C5.7,2,4.691,2.013,3.68,1.976q-1.328-.049-2.652-.19a1.057,1.057,0,0,1-.954-.57A.462.462,0,0,1,.2.574,1.607,1.607,0,0,1,.83.262c.695-.1,1.4-.147,2.1-.207.2-.017.408,0,.612,0,0,.009,0,.018,0,.027" transform="translate(1.554 26.721)"/><path d="M33.618,2.454c-.041,0-.083,0-.126,0l-.05,0c-.541-.034-1.1-.07-1.647-.07-.233,0-.448.006-.655.019-.312.019-.639.028-1,.028-.569,0-1.145-.024-1.7-.046s-1.131-.046-1.7-.046c-.18,0-.347,0-.512.007-.2.006-.413.009-.632.009-.7,0-1.416-.029-2.106-.058-.481-.02-.978-.04-1.466-.05-.282-.006-.57,0-.849.011-.249.008-.507.015-.762.013-.687-.007-1.386-.018-2.061-.029-.854-.014-1.738-.028-2.607-.034h-.364c-.451,0-.909.005-1.352.01s-.9.01-1.354.01l-.42,0c-.763-.006-1.538-.026-2.288-.044-.418-.011-.836-.021-1.254-.029-.609-.012-1.228-.019-1.827-.026l-.17,0c-.321,0-.648-.005-.964-.007-.68,0-1.382-.007-2.074-.032-.865-.032-1.759-.1-2.659-.19A1.153,1.153,0,0,1-.017,1.258.554.554,0,0,1,.142.492,1.7,1.7,0,0,1,.816.163C1.4.081,2,.032,2.578-.016l.34-.028c.07-.006.145-.009.235-.009l.195,0,.19,0h.1V-.02c.169,0,.34.009.506.015.2.008.4.016.6.016A4.353,4.353,0,0,0,5.462-.04,4.963,4.963,0,0,1,6.288-.1c.229,0,.46.01.683.02s.45.02.674.02c.122,0,.233,0,.34-.009.224-.013.459-.019.717-.019.438,0,.884.018,1.315.035.41.017.834.034,1.249.035h.123c.5,0,1.018-.011,1.515-.022s1.012-.022,1.519-.022h.094c.355,0,.716.019,1.064.036S16.3.01,16.665.01c.095,0,.187,0,.275,0C17.122,0,17.315,0,17.529,0c.293,0,.591,0,.879.01h.025c.395.006.8-.013,1.189-.031.339-.016.689-.032,1.033-.032.263,0,.5.01.719.029.259.023.541.034.861.034s.625-.01.93-.02.623-.021.935-.021c.252,0,.477.007.689.021.734.048,1.484.058,2.21.067l.61.009c.157,0,.319-.008.476-.018.133-.009.27-.017.407-.019.279,0,.559,0,.8,0h.51c.256,0,.557,0,.855,0,.254,0,.513-.011.764-.018.269-.008.548-.017.823-.019l.268,0c.135,0,.271,0,.406,0a7.413,7.413,0,0,1,.823.037,1.831,1.831,0,0,1,.929.336,1.339,1.339,0,0,1,.332.6c.026.074.05.143.077.209.148.358-.068.564-.258.746l-.06.057A1.55,1.55,0,0,1,33.618,2.454ZM31.8,2.177c.554,0,1.116.036,1.66.07l.05,0a1.347,1.347,0,0,0,1.112-.428l.061-.059c.2-.193.3-.3.212-.525-.029-.071-.056-.146-.081-.219A1.209,1.209,0,0,0,34.536.5a1.637,1.637,0,0,0-.822-.29,7.225,7.225,0,0,0-.8-.036c-.135,0-.269,0-.4,0l-.27,0c-.272,0-.55.011-.818.019-.251.008-.512.016-.768.018-.3,0-.6,0-.857,0h-.51c-.236,0-.515,0-.794,0-.131,0-.265.01-.4.018-.161.01-.327.021-.492.018L27,.256C26.268.246,25.515.237,24.776.188c-.207-.014-.428-.02-.675-.02-.309,0-.624.01-.928.02s-.624.021-.937.021S21.622.2,21.357.174c-.215-.019-.444-.028-.7-.028-.339,0-.687.016-1.023.032-.394.018-.8.038-1.2.031H18.4C18.118.2,17.82.2,17.529.2c-.212,0-.4,0-.583.008-.09,0-.184,0-.281,0-.366,0-.736-.018-1.1-.036s-.7-.035-1.055-.036h-.093c-.5,0-1.018.011-1.515.022S11.9.183,11.388.183h-.123c-.419,0-.845-.019-1.256-.035C9.58.13,9.136.112,8.7.112c-.255,0-.486.006-.706.018-.11.006-.225.009-.351.009-.228,0-.459-.01-.682-.02S6.513.1,6.288.1a4.77,4.77,0,0,0-.793.058,4.545,4.545,0,0,1-.754.054C4.539.212,4.334.2,4.135.2s-.4-.016-.6-.016h-.1V.152l-.095,0-.19,0c-.084,0-.154,0-.218.008l-.34.028C2.018.231,1.423.28.843.361a1.531,1.531,0,0,0-.588.3C.139.736.024.868.165,1.175a.938.938,0,0,0,.874.512c.895.094,1.785.158,2.645.189.688.025,1.389.029,2.067.032.316,0,.644,0,.966.007l.17,0c.6.007,1.219.014,1.829.027.418.008.837.019,1.255.029.749.019,1.523.038,2.285.044l.419,0c.451,0,.909-.005,1.352-.01s.9-.01,1.355-.01h.365c.87.006,1.754.02,2.609.034.675.011,1.373.022,2.06.029.251,0,.506-.005.754-.013.281-.008.573-.017.859-.011.49.01.989.031,1.47.051.688.028,1.4.057,2.1.057.217,0,.428,0,.626-.008.167,0,.336-.007.518-.007.569,0,1.146.024,1.7.046s1.13.046,1.7.046c.358,0,.681-.009.988-.028C31.339,2.183,31.558,2.177,31.8,2.177Z" transform="translate(1.554 26.721)"/><path d="M33.354,2.368c-1.1-.026-2.17-.061-3.241-.075-1.12-.014-2.241,0-3.361-.013-.846-.011-1.691-.056-2.537-.069-1.015-.016-2.031,0-3.046-.022-1.143-.02-2.285-.071-3.427-.088-.7-.011-1.4.024-2.106.025-.535,0-1.07-.031-1.605-.03-.942,0-1.884.03-2.825.018C10.469,2.1,9.734,2.045,9,2.018c-.258-.009-.517.019-.776.015-1.366-.021-2.731-.047-4.1-.071-.828-.014-1.657,0-2.483-.053A4.5,4.5,0,0,1,.462,1.656.59.59,0,0,1,0,.982.8.8,0,0,1,.626.163,10.739,10.739,0,0,1,2.172,0C3.2-.011,4.229.024,5.258.036q.881.01,1.762.011c1.383,0,2.765-.015,4.148,0,.888.008,1.775.072,2.662.078,1.016.006,2.033-.03,3.049-.038.418,0,.836.025,1.255.029.756.007,1.512,0,2.268.01,1.067.013,2.134.046,3.2.051S25.751.148,26.825.158c1.017.009,2.033.053,3.05.073.332.006.665-.026,1-.026q1.2,0,2.408.016c.425.006.85.016,1.274.048a1.163,1.163,0,0,1,1,1.013,1,1,0,0,1-.759.966,3.624,3.624,0,0,1-.746.116c-.24.019-.482,0-.7,0" transform="translate(1.264 22.18)"/><path d="M33.771,2.473l-.221,0-.2,0-1.009-.026c-.767-.02-1.492-.04-2.233-.049-.464-.006-.929-.007-1.363-.007H28.1c-.429,0-.889,0-1.349-.007-.441-.005-.888-.021-1.321-.035-.4-.014-.811-.027-1.216-.034-.487-.008-.982-.009-1.461-.01-.52,0-1.057,0-1.586-.012s-1.1-.026-1.631-.043c-.589-.018-1.2-.036-1.8-.045l-.275,0c-.307,0-.621.007-.924.014s-.6.013-.906.014h-.01c-.266,0-.536-.008-.8-.015s-.528-.015-.791-.015H14.03c-.384,0-.775.005-1.153.01s-.794.01-1.191.01q-.242,0-.483,0c-.45-.006-.906-.03-1.347-.054-.283-.015-.575-.031-.862-.041-.136,0-.275,0-.41.007-.119.005-.242.01-.364.008-.956-.015-1.928-.032-2.867-.049l-1.23-.022c-.245,0-.489-.006-.734-.008-.575,0-1.169-.01-1.753-.045A4.6,4.6,0,0,1,.429,1.751.686.686,0,0,1-.1.975.892.892,0,0,1,.61.064,10.854,10.854,0,0,1,2.171-.1q.248,0,.5,0c.534,0,1.076.01,1.6.02.325.006.66.012.99.016.629.007,1.187.011,1.706.011h.054q.713,0,1.427,0,.761,0,1.521,0c.442,0,.835,0,1.2,0,.435,0,.877.022,1.3.039.445.018.906.036,1.358.039.608,0,1.226-.008,1.824-.02.4-.008.815-.016,1.223-.019.238,0,.479.007.712.015.179.006.364.013.545.014.347,0,.7,0,1.04,0,.4,0,.819,0,1.228.006.444.005.9.015,1.333.023C22.347.057,22.98.07,23.6.073h.269c.419,0,.846,0,1.258-.009s.84-.009,1.26-.009l.436,0c.6.005,1.2.023,1.79.04.413.012.841.025,1.261.033.178,0,.36,0,.537-.012.15-.007.3-.013.458-.013.865,0,1.653.005,2.411.016.384.005.836.015,1.28.048a1.268,1.268,0,0,1,1.092,1.1,1.1,1.1,0,0,1-.83,1.072,3.713,3.713,0,0,1-.766.12C33.972,2.47,33.881,2.473,33.771,2.473Zm-.412-.206.2,0,.217,0c.1,0,.191,0,.271-.009a3.545,3.545,0,0,0,.725-.113.9.9,0,0,0,.688-.86,1.058,1.058,0,0,0-.908-.923C34.11.336,33.68.326,33.28.32,32.523.31,31.735.3,30.873.3c-.15,0-.3.007-.45.013-.18.008-.366.016-.55.012C29.452.322,29.024.31,28.61.3,28.025.28,27.419.263,26.824.258l-.434,0c-.419,0-.846,0-1.258.009-.5.005-1.02.011-1.53.008-.623,0-1.257-.016-1.87-.028C21.3.236,20.844.227,20.4.222c-.408-.005-.824-.006-1.226-.006-.341,0-.695,0-1.042,0-.184,0-.37-.008-.55-.015-.231-.008-.469-.016-.7-.015-.407,0-.821.011-1.221.019-.6.011-1.219.023-1.829.02-.456,0-.918-.021-1.365-.039-.425-.017-.865-.035-1.3-.038-.365,0-.757,0-1.2,0q-.76,0-1.521,0-.714,0-1.428,0H6.965c-.52,0-1.079,0-1.708-.011-.331,0-.667-.01-.991-.016C3.741.11,3.2.1,2.668.1q-.247,0-.494,0A10.676,10.676,0,0,0,.642.262.705.705,0,0,0,.1.99a.493.493,0,0,0,.391.572,4.4,4.4,0,0,0,1.154.248c.579.034,1.171.039,1.743.044.245,0,.49,0,.736.008l1.23.022c.94.017,1.911.034,2.867.049.116,0,.236,0,.352-.008.139-.006.283-.012.426-.007.289.011.582.026.866.041.439.023.893.048,1.338.053q.24,0,.48,0c.4,0,.8-.005,1.188-.01s.77-.01,1.155-.01h.007c.266,0,.536.008.8.015s.528.015.791.015h.01c.3,0,.606-.007.9-.014.395-.009.8-.018,1.206-.012.6.009,1.21.027,1.8.045.534.016,1.086.033,1.628.043.527.009,1.064.011,1.583.012.479,0,.975,0,1.463.01.407.006.82.02,1.22.034.432.015.878.03,1.317.035.458.006.918.006,1.346.006h.649c.435,0,.9,0,1.366.007.743.009,1.468.029,2.236.049l1.006.026Z" transform="translate(1.264 22.18)"/><path d="M4.589,3.346a.867.867,0,0,1-1.248.731A8.187,8.187,0,0,1,.457,1.809,2.784,2.784,0,0,1,0,.463C-.025.2.111.086.4.032A2.863,2.863,0,0,1,2.295.525,3.718,3.718,0,0,1,4.548,3.2a1.366,1.366,0,0,0,.041.144" transform="translate(22.473 4.264)"/><path d="M3.71,4.272a.832.832,0,0,1-.418-.109l-.063-.036A8.145,8.145,0,0,1,.375,1.867,2.89,2.89,0,0,1-.1.474c-.044-.4.251-.5.477-.54A1.922,1.922,0,0,1,.737-.1a3.448,3.448,0,0,1,1.58.524l.023.012a5.158,5.158,0,0,1,1.5,1.094,3.27,3.27,0,0,1,.8,1.654.76.76,0,0,0,.026.095l.012.04,0,.012v.012a.842.842,0,0,1-.25.613A1.038,1.038,0,0,1,3.71,4.272ZM.737.1A1.721,1.721,0,0,0,.419.13C.129.185.085.285.1.451a2.706,2.706,0,0,0,.436,1.3,7.993,7.993,0,0,0,2.789,2.2l.063.036a.634.634,0,0,0,.319.083A.834.834,0,0,0,4.3,3.817a.647.647,0,0,0,.194-.455L4.482,3.34a.93.93,0,0,1-.033-.12A3.574,3.574,0,0,0,2.249.613L2.225.6A3.3,3.3,0,0,0,.737.1Z" transform="translate(22.473 4.264)"/><path d="M4.475.108A7.858,7.858,0,0,1,4.5.895a1.682,1.682,0,0,1-.132.695,5.145,5.145,0,0,1-1.44,1.582c-.326.236-.626.511-.967.721a2.983,2.983,0,0,1-.9.4A.834.834,0,0,1,.048,3.169,4.073,4.073,0,0,1,1.236,1.447,5.341,5.341,0,0,1,3.853.049c.257-.056.519-.1.622.058" transform="translate(11.677 4.051)"/><path d="M.82,4.415a.894.894,0,0,1-.738-.352,1.036,1.036,0,0,1-.13-.923A4.167,4.167,0,0,1,1.166,1.375,5.419,5.419,0,0,1,3.832-.048,1.847,1.847,0,0,1,4.206-.1a.394.394,0,0,1,.351.152l.016.024V.1c0,.116.01.219.016.31A3.564,3.564,0,0,1,4.6.9c0,.033,0,.067-.007.1a1.467,1.467,0,0,1-.138.635A5.252,5.252,0,0,1,2.985,3.253c-.122.088-.243.184-.36.277a6.527,6.527,0,0,1-.613.448,3.038,3.038,0,0,1-.933.408A1.213,1.213,0,0,1,.82,4.415ZM4.206.1a1.707,1.707,0,0,0-.332.047A5.222,5.222,0,0,0,1.305,1.518,3.992,3.992,0,0,0,.144,3.2a.839.839,0,0,0,.1.746.7.7,0,0,0,.578.272,1.014,1.014,0,0,0,.216-.024,2.847,2.847,0,0,0,.871-.383A6.378,6.378,0,0,0,2.5,3.373c.119-.094.241-.191.367-.282A5.053,5.053,0,0,0,4.28,1.539,1.308,1.308,0,0,0,4.391.991c0-.035,0-.07.007-.1A3.43,3.43,0,0,0,4.391.426c0-.083-.01-.177-.015-.281A.24.24,0,0,0,4.206.1Z" transform="translate(11.677 4.051)"/><path d="M0,2.531A4.519,4.519,0,0,1,.5.5.824.824,0,0,1,1.943.359a2.308,2.308,0,0,1,.464,1.4,5.564,5.564,0,0,1-.268,1.969,2.333,2.333,0,0,1-.2.454.734.734,0,0,1-1.092.269A1.745,1.745,0,0,1,.006,2.864a2.99,2.99,0,0,1,0-.333" transform="translate(18.294 3.936)"/><path d="M1.317,4.683A1.142,1.142,0,0,1,.8,4.538,1.821,1.821,0,0,1-.093,2.875a1.689,1.689,0,0,1,0-.242c0-.034,0-.068,0-.1A4.641,4.641,0,0,1,.414.457.92.92,0,0,1,1.252-.1a.962.962,0,0,1,.771.4,2.4,2.4,0,0,1,.484,1.455,5.721,5.721,0,0,1-.274,2,2.439,2.439,0,0,1-.214.474A.824.824,0,0,1,1.317,4.683ZM1.252.1A.713.713,0,0,0,.6.54,4.462,4.462,0,0,0,.1,2.527c0,.04,0,.076,0,.112a1.517,1.517,0,0,0,0,.213c.075.665.181,1.2.783,1.507a.965.965,0,0,0,.428.123.63.63,0,0,0,.533-.357,2.268,2.268,0,0,0,.195-.435,5.535,5.535,0,0,0,.262-1.934A2.2,2.2,0,0,0,1.863.419.764.764,0,0,0,1.252.1Z" transform="translate(18.294 3.936)"/></g></g></g></svg>