<?xml version="1.0" encoding="UTF-8"?>
<svg id="Capa_1" xmlns="http://www.w3.org/2000/svg" version="1.1" viewBox="0 0 148.7 153.1">
  <!-- Generator: Adobe Illustrator 29.1.0, SVG Export Plug-In . SVG Version: 2.1.0 Build 142)  -->
  <defs>
    <style>
      .st0 {
        fill: #fff;
        fill-rule: evenodd;
        stroke: #000;
        stroke-miterlimit: 10;
      }

      .st1 {
        fill: #fec62e;
      }
    </style>
  </defs>
  <g>
    <path class="st1" d="M10,106.7C-2.9,48.8,4.3,33.2,29.4,13.8c25.1-19.4,104.7-6.7,112.1,34.3s-1.6,65.7-20,84.8-98.6,31.7-111.5-26.2Z"/>
    <path d="M3.2,67.6c-.4-6.1-.1-12.2.8-18.2.8-4.9,2.4-9.7,4.6-14.1,2.2-4.2,5.1-8.1,8.4-11.5,3.7-3.8,7.7-7.3,11.9-10.5,7.3-5.6,19.3-8.8,33.9-9,7.2,0,14.4.5,21.4,1.7,7.2,1.2,14.3,3.2,21.2,5.8,4.5,1.7,8.9,3.8,13.1,6.3,4,2.3,7.7,5,11.1,8.1,6.9,6.4,11.2,13.8,12.6,21.9,1.2,6.7,2,13.4,2.4,20.2.4,6.8.2,13.6-.7,20.4-.8,5.9-2.2,11.7-4.3,17.3-3.9,10.3-9.9,19.7-17.6,27.5-5.8,6-17.4,11.3-31,14.1-15.1,3.1-30.5,2.8-43.5-.8-9-2.4-17.2-6.9-24-13.3-7.1-6.9-11.9-15.8-14.3-26.6-1.8-8.1-3.2-15.2-4.2-21.7-1-5.8-1.6-11.7-1.9-17.6ZM143.2,68.3c-.4-6.7-1.2-13.4-2.4-20-1.4-7.8-5.5-14.8-12.2-21.1-3.3-3-6.9-5.7-10.8-7.9-4.1-2.4-8.4-4.5-12.9-6.2-6.8-2.6-13.8-4.5-20.9-5.7-7-1.2-14.1-1.8-21.2-1.7-6.4,0-12.7.8-18.9,2.3-5.1,1.2-9.9,3.3-14.1,6.4-4.2,3.1-8.1,6.6-11.8,10.4-3.2,3.3-6,7.1-8.1,11.2-2.2,4.3-3.7,8.9-4.5,13.7-.9,5.9-1.2,11.9-.8,17.9.3,5.8,1,11.7,1.9,17.5,1,6.4,2.4,13.5,4.2,21.6,2.3,10.4,7,19.1,13.9,25.8,6.6,6.2,14.6,10.6,23.3,12.9,7,1.9,14.3,2.9,21.5,2.9,7.1,0,14.2-.7,21.2-2.1,6.2-1.2,12.3-3.2,18.1-5.7,4.5-1.9,8.6-4.6,12.1-7.9,7.6-7.7,13.5-16.8,17.3-26.9,2-5.5,3.4-11.2,4.2-17,.9-6.7,1.1-13.4.7-20.1h0Z"/>
  </g>
  <path class="st0" d="M82.9,64.8c3.2-1.6,7.3-3.9,11.3-7.2.9,1.8,1,3.3.5,4.6-.3.9-.9,1.7-1.7,2.3-.8.7-1.9,1.1-3.1,1.4-2.2.5-4.8.2-7.1-1.1M83.5,81.2l4.2,2.4c-8.6,4.8-11,13.8-13.8,22.6-2.8-8.8-5.1-17.7-13.8-22.6l4.2-2.4c.8-.3,1.4-1.1,1.3-2-.4-8.2,1.8-11.8,4.8-14.1,1.1-.8,2.2-1.2,3.4-1.2s2.3.4,3.4,1.2c3,2.3,5.2,5.9,4.8,14.1,0,.9.5,1.7,1.3,2h0ZM73.9,27.6c4.9.1,9.8,1.1,14,2.9,2.9,1.3,5.7,3,8.2,5,1.1.9,2,1.8,3.1,2.8,2.7,0,6.8-3,8.6-5.8-3.2,10.5-17.9,23-28,27.7,0,0,0,0,0,0-1.8-1.4-3.9-2.1-5.9-2.1s-4.1.7-5.9,2.1c0,0,0,0,0,0-10.1-4.8-24.8-17.2-28-27.7,1.9,2.9,5.9,5.9,8.6,5.8,1-1,1.9-1.9,3.1-2.8,2.5-2,5.2-3.7,8.2-5,4.3-1.8,9.2-2.8,14-2.9M64.9,64.8c-3.2-1.6-7.3-3.9-11.3-7.2-.9,1.8-1,3.3-.5,4.6.3.9.9,1.7,1.7,2.3.8.7,1.9,1.1,3.1,1.4,2.2.5,4.8.2,7.1-1.1"/>
  <path class="st0" d="M98.7,53.7c2.2-2.3,4.2-4.8,5.8-7l.8,1.5c2.6,5.2,3.9,10.4,3.9,16.2v9.2s0,4.8,0,4.8c.2,11.8,2.7,23.7,8.5,34.5l-12.1-9.7-8.5,13.8-9-8.4-14.3,23.2-14.3-23.2-9,8.4-8.5-13.8-12.1,9.7c5.8-10.9,8.3-22.8,8.5-34.5v-4.8s0-9.2,0-9.2c0-5.8,1.3-11,3.9-16.2l.8-1.5c1.6,2.2,3.6,4.7,5.8,7l-.7,1.5c-1.4,2.8-1.8,6-.8,9,.7,1.9,1.9,3.6,3.5,4.9,1.6,1.2,3.4,2.1,5.3,2.5,1.3.3,2.5.4,3.8.4-.3,1.7-.4,3.4-.4,5.2l-11.4,6.6,8.8,4.9c.7.4,1.4.8,2,1.3,7.2,6.5,11.6,25.7,14.6,35.1,3-9.4,7.3-28.6,14.6-35.1.6-.5,1.3-1,2-1.3l8.8-4.9-11.4-6.6c0-1.8-.1-3.5-.4-5.2,1.3,0,2.6,0,3.8-.4,1.9-.4,3.8-1.3,5.3-2.5,1.6-1.3,2.9-2.9,3.5-4.9,1.1-3,.6-6.2-.8-9l-.7-1.5h0Z"/>
</svg>