<svg xmlns="http://www.w3.org/2000/svg" width="280.473" height="145.616" viewBox="0 0 280.473 145.616">
  <g id="Group_248" data-name="Group 248" transform="translate(-87.745 -3554.665)">
    <path id="Path_431" data-name="Path 431" d="M26.534.708,18.114,80.282l265.653-.041L294.231.472Z" transform="translate(70.485 3565.242) rotate(-2)" fill="#fec62e" stroke="#000" stroke-width="1.5"/>
    <path id="Path_555" data-name="Path 555" d="M-90.475-1.7a.575.575,0,0,0,.7-.55,17.984,17.984,0,0,0,.4-2.8,59.333,59.333,0,0,1-.2-7.3c.05-.75.25-1.05.95-.9a12.469,12.469,0,0,0,3.35-.2c.55,0,.8-.3.8-.85l.05-2.4c-.05-.7-.25-.9-.95-1.05a8.967,8.967,0,0,0-3.65.2c-.5.15-.65-.05-.65-.5l-.05-1.35c.1-2.9.4-5.8.35-8.7,0-1.1.2-1.3,1.25-1.45l3-.3a1,1,0,0,0,1.05-.9,4.116,4.116,0,0,1,.35-1.4,3.392,3.392,0,0,0,.4-2.1c-.1-1.25-.4-1.6-1.65-1.8a14.566,14.566,0,0,0-3.9.1,6.639,6.639,0,0,1-3.55-.15,1.59,1.59,0,0,0-2.25,1.75,9.455,9.455,0,0,1-.15,2.65c-.25,1.9-.3,3.85-.45,5.8l-.2,3.9c.05,3.25.05,6.45.05,9.7l.35,5.9a13.714,13.714,0,0,0,.45,3.5c.2.6.5,1.2,1.25,1.15A14.06,14.06,0,0,1-90.475-1.7Zm18.8,3a3.71,3.71,0,0,0,1.05-.35,6.494,6.494,0,0,1,1.45-.7,3.818,3.818,0,0,0,1.85-2,13.491,13.491,0,0,0,.75-4c0-.85.1-1.7.1-2.5a39.226,39.226,0,0,0,0-4.2c-.05-.65-.3-1.25-.35-1.9a38.954,38.954,0,0,0-.65-7.2c-.4-1.5-.4-3.15-.7-4.75-.35-2.05-.95-2.65-2.6-3.25-1.5-.5-3-.65-4.55-1.15-.8-.2-1.15,0-1.55.8a3.682,3.682,0,0,1-1.4,1.85c-.15.05-.25.3-.35.45a6.956,6.956,0,0,0-1.05,2.6,38.26,38.26,0,0,1-1.1,5.4c0,.05-.05.1-.05.15a74.255,74.255,0,0,0-.45,8v1.4a20.536,20.536,0,0,0,1.75,8.6,4.652,4.652,0,0,0,3.15,2.65A12.393,12.393,0,0,0-71.675,1.3Zm-1.4-2.45a4.352,4.352,0,0,1-.8-1.5,29.351,29.351,0,0,1-.95-4.15,42.332,42.332,0,0,1-.4-5.65c0-.6-.05-1.25-.1-1.85a30.45,30.45,0,0,1,.4-4.75,13.437,13.437,0,0,1,.25-2.85l.3-1.15c.2-1.05.75-1.95.9-3.1a.506.506,0,0,1,.2-.35c.1-.2.2-.5.45-.45.25,0,.25.3.35.5.8,1.5.65,3.2.8,5.5,0,1.75.05,4.15,0,6.55-.05,1.1-.2,2.2-.2,3.3-.05,2.95-.35,5.8-.6,8.7a7.859,7.859,0,0,1-.2,1.15C-72.725-.95-72.925-.95-73.075-1.15Zm13.05,2.45a1.57,1.57,0,0,0,1.35-.25,2.915,2.915,0,0,1,2-.55,14.542,14.542,0,0,0,1.5.05A15.978,15.978,0,0,0-52.125.4c.75-.15,1-.45.65-1.15a15.977,15.977,0,0,0-1.3-2.4,1.354,1.354,0,0,0-1.75-.65,7.017,7.017,0,0,1-2.5.1c-.5,0-.65-.2-.6-.7.2-1.25.35-2.45.45-3.7.15-1.5.35-3,.45-4.45.1-1.1.15-2.15.3-3.2a14.812,14.812,0,0,0,.35-3.3,9.9,9.9,0,0,1,.15-2.1,31.65,31.65,0,0,0,.65-5.75,27.88,27.88,0,0,0-.55-4.1,2.558,2.558,0,0,0-1.15-1.75,4.748,4.748,0,0,0-2.95-.85c-.75.05-.9.15-1,.95-.15,1.25-.25,2.5-.4,3.7-.25,2.05-.65,4.1-.8,6.15-.2,2.4-.5,4.8-.75,7.2-.35,3.35-.85,6.7-1.25,10.05a23.692,23.692,0,0,0-.25,4.2,2.331,2.331,0,0,0,2,2.3A12.71,12.71,0,0,1-60.025,1.3Zm15.05,0a1.57,1.57,0,0,0,1.35-.25,2.915,2.915,0,0,1,2-.55,14.542,14.542,0,0,0,1.5.05A15.978,15.978,0,0,0-37.075.4c.75-.15,1-.45.65-1.15a15.977,15.977,0,0,0-1.3-2.4,1.354,1.354,0,0,0-1.75-.65,7.017,7.017,0,0,1-2.5.1c-.5,0-.65-.2-.6-.7.2-1.25.35-2.45.45-3.7.15-1.5.35-3,.45-4.45.1-1.1.15-2.15.3-3.2a14.812,14.812,0,0,0,.35-3.3,9.9,9.9,0,0,1,.15-2.1,31.65,31.65,0,0,0,.65-5.75,27.88,27.88,0,0,0-.55-4.1,2.558,2.558,0,0,0-1.15-1.75,4.748,4.748,0,0,0-2.95-.85c-.75.05-.9.15-1,.95-.15,1.25-.25,2.5-.4,3.7-.25,2.05-.65,4.1-.8,6.15-.2,2.4-.5,4.8-.75,7.2-.35,3.35-.85,6.7-1.25,10.05a23.692,23.692,0,0,0-.25,4.2,2.331,2.331,0,0,0,2,2.3A12.71,12.71,0,0,1-44.975,1.3Zm20.35,0a3.71,3.71,0,0,0,1.05-.35,6.494,6.494,0,0,1,1.45-.7,3.818,3.818,0,0,0,1.85-2,13.491,13.491,0,0,0,.75-4c0-.85.1-1.7.1-2.5a39.228,39.228,0,0,0,0-4.2c-.05-.65-.3-1.25-.35-1.9a38.954,38.954,0,0,0-.65-7.2c-.4-1.5-.4-3.15-.7-4.75-.35-2.05-.95-2.65-2.6-3.25-1.5-.5-3-.65-4.55-1.15-.8-.2-1.15,0-1.55.8a3.682,3.682,0,0,1-1.4,1.85c-.15.05-.25.3-.35.45a6.955,6.955,0,0,0-1.05,2.6,38.259,38.259,0,0,1-1.1,5.4c0,.05-.05.1-.05.15a74.256,74.256,0,0,0-.45,8v1.4a20.536,20.536,0,0,0,1.75,8.6,4.652,4.652,0,0,0,3.15,2.65A12.393,12.393,0,0,0-24.625,1.3Zm-1.4-2.45a4.352,4.352,0,0,1-.8-1.5,29.351,29.351,0,0,1-.95-4.15,42.332,42.332,0,0,1-.4-5.65c0-.6-.05-1.25-.1-1.85a30.45,30.45,0,0,1,.4-4.75,13.437,13.437,0,0,1,.25-2.85l.3-1.15c.2-1.05.75-1.95.9-3.1a.506.506,0,0,1,.2-.35c.1-.2.2-.5.45-.45.25,0,.25.3.35.5.8,1.5.65,3.2.8,5.5,0,1.75.05,4.15,0,6.55-.05,1.1-.2,2.2-.2,3.3-.05,2.95-.35,5.8-.6,8.7a7.859,7.859,0,0,1-.2,1.15C-25.675-.95-25.875-.95-26.025-1.15Zm13.95,1.9a.953.953,0,0,1,.65-.1,1.521,1.521,0,0,0,1.6-1.2,2.888,2.888,0,0,1,.3-.85,8.531,8.531,0,0,0,.65-1.9c.25-1.05.3-2.1.55-3.15a13.8,13.8,0,0,0,.3-2,7.3,7.3,0,0,1,.15-1.1c0-.05.05-.1.1-.15l.1.15a2.166,2.166,0,0,0,.05.25c.25,1.35.65,2.65.9,3.95a2.929,2.929,0,0,0,1.6,2.05,7.365,7.365,0,0,0,2.3.55c1.45.2,2.1-.4,2.3-1.6.45-2.5.95-5,1.4-7.5.15-.8.35-1.55.45-2.35a15.525,15.525,0,0,1,.4-2.1,20.106,20.106,0,0,0,.5-2.5,34.84,34.84,0,0,1,.55-3.9,10.037,10.037,0,0,0,.25-2.1,14.608,14.608,0,0,1,.75-4.65,19.733,19.733,0,0,0,.55-2.9c.15-.75,0-.9-.7-1.25a4.171,4.171,0,0,0-2.7-.1.5.5,0,0,0-.35.5,1.765,1.765,0,0,1-.15.7,19.637,19.637,0,0,0-1.15,3.8c-.65,3.25-1.3,6.5-1.75,9.8-.25,1.6-.5,3.2-.8,4.8,0,.05.05.2-.1.15-.05,0-.1-.1-.1-.15-.15-1.15-.55-2.25-.65-3.4a1.276,1.276,0,0,0-.75-1.1,4.083,4.083,0,0,0-3.25-.25,2.888,2.888,0,0,1-.85.3.789.789,0,0,0-.8.8c-.05.55-.15,1.1-.15,1.65a21.219,21.219,0,0,1-.75,5c-.05.1-.05.2-.15.2-.05,0-.05-.1-.05-.2-.2-2.15-.35-4.3-.35-6.45,0-.8.05-1.6,0-2.35q-.225-3.375-.6-6.75a5.017,5.017,0,0,0-2.15-3.7c-.45-.3-.9-.55-1.35-.8a1.9,1.9,0,0,0-1.15-.15.708.708,0,0,0-.7.65c-.05.55-.05,1.05-.1,1.6-.1,2.45.1,4.9.1,7.4a108.872,108.872,0,0,0,.55,12.1c.25,2.05.3,4.15.65,6.25a23.812,23.812,0,0,0,.5,2.6A1.321,1.321,0,0,0-14.325.35a3.1,3.1,0,0,1,.95.35A1.48,1.48,0,0,0-12.075.75Zm37.2.5a11.977,11.977,0,0,0,8.3-2.4,9.117,9.117,0,0,0,3.6-5c.15-.55.25-1.1.4-1.7a16.25,16.25,0,0,0,.75-6,1.023,1.023,0,0,1,0-.55c.4-1.45.3-2.95.65-4.35a8.131,8.131,0,0,0-.1-3.95,13.518,13.518,0,0,1-.4-2.05,3.934,3.934,0,0,0-1.05-2.2,5.432,5.432,0,0,1-1.15-1.25,5.7,5.7,0,0,0-3.25-2.25c-2.65-.75-5.1-1.95-7.75-2.75-1.05-.3-1.55-.15-1.9.9-.15.45-.4.65-.85.55a2.026,2.026,0,0,0-.55,0c-.85,0-1.05.3-.8,1.1a2.691,2.691,0,0,1,.2,1.1c-.15,1.5-.25,2.95-.5,4.4-.45,3-.75,6-1.1,9a91.371,91.371,0,0,0-.7,9.95,13.465,13.465,0,0,0,.1,2.8A4.235,4.235,0,0,0,21.975.55,9.912,9.912,0,0,0,25.125,1.25Zm1.45-3.15a1.425,1.425,0,0,1-1.3-1.45,7.49,7.49,0,0,1-.1-1.1,7.359,7.359,0,0,1,0-1.05c.15-2.3.2-4.55.55-6.8.15-1.05.2-2.05.25-3.1,0-1.25.05-2.45.1-3.7a12.9,12.9,0,0,0-.15-2.4c-.15-1.45.05-2.9,0-4.35a9.05,9.05,0,0,0-.2-2,1.334,1.334,0,0,1,.45-1.45,1.62,1.62,0,0,1,1.7-.25,13.651,13.651,0,0,1,4.45,3.8c.6.8,1.15,1.65,1.7,2.45a1.746,1.746,0,0,1,.4,1.2,10.686,10.686,0,0,0,.15,3.1,3.347,3.347,0,0,1,0,1c-.55,2.85-1.05,5.65-1.6,8.45a27.254,27.254,0,0,1-1.85,5.25C30.275-2.3,28.475-1.75,26.575-1.9Zm24.1,3.2a3.71,3.71,0,0,0,1.05-.35,6.494,6.494,0,0,1,1.45-.7,3.818,3.818,0,0,0,1.85-2,13.491,13.491,0,0,0,.75-4c0-.85.1-1.7.1-2.5a39.226,39.226,0,0,0,0-4.2c-.05-.65-.3-1.25-.35-1.9a38.954,38.954,0,0,0-.65-7.2c-.4-1.5-.4-3.15-.7-4.75-.35-2.05-.95-2.65-2.6-3.25-1.5-.5-3-.65-4.55-1.15-.8-.2-1.15,0-1.55.8a3.682,3.682,0,0,1-1.4,1.85c-.15.05-.25.3-.35.45a6.955,6.955,0,0,0-1.05,2.6,38.259,38.259,0,0,1-1.1,5.4c0,.05-.05.1-.05.15a74.256,74.256,0,0,0-.45,8v1.4a20.536,20.536,0,0,0,1.75,8.6,4.652,4.652,0,0,0,3.15,2.65A12.393,12.393,0,0,0,50.675,1.3Zm-1.4-2.45a4.352,4.352,0,0,1-.8-1.5,29.351,29.351,0,0,1-.95-4.15,42.332,42.332,0,0,1-.4-5.65c0-.6-.05-1.25-.1-1.85a30.45,30.45,0,0,1,.4-4.75,13.437,13.437,0,0,1,.25-2.85l.3-1.15c.2-1.05.75-1.95.9-3.1a.506.506,0,0,1,.2-.35c.1-.2.2-.5.45-.45.25,0,.25.3.35.5.8,1.5.65,3.2.8,5.5,0,1.75.05,4.15,0,6.55-.05,1.1-.2,2.2-.2,3.3-.05,2.95-.35,5.8-.6,8.7a7.859,7.859,0,0,1-.2,1.15C49.625-.95,49.425-.95,49.275-1.15Zm16.55-.65c.6-.05,1.25,0,1.85-.1a3.315,3.315,0,0,0,2.45-.9,7.221,7.221,0,0,0,2.25-4.4c.2-2.15.15-4.2.55-6.25a5.714,5.714,0,0,0,0-1.6,7.633,7.633,0,0,1,0-1.85,20.851,20.851,0,0,0,.1-4.65,8.21,8.21,0,0,1,.1-2.25c.45-2.3.3-4.65.55-7a2.241,2.241,0,0,0-1.65-2.3c-.35-.1-.75-.3-1.15-.4-1.95-.4-2.85.5-2.9,2v.3a13.738,13.738,0,0,1,.1,2.05c.2,1.45.15,2.9.35,4.4a14.73,14.73,0,0,1,.05,2.1,28.4,28.4,0,0,0-.05,5.05,14.147,14.147,0,0,1-.05,3.55c-.35,1.95-.75,3.95-.9,5.9a4.708,4.708,0,0,1-.8,2.25c-.05.05-.1.3-.3.25-.15-.05-.2-.2-.2-.4,0-.1-.05-.15-.05-.25a24.8,24.8,0,0,1-.55-6.05c-.05-3.25-.45-6.55-.15-9.75a63.387,63.387,0,0,0-.4-7.6,4.355,4.355,0,0,0-2.5-3.65l-.85-.45a1.623,1.623,0,0,0-2.4,1.1c-.15.85-.2,1.65-.35,2.45-.4,2.85-.65,5.55-.8,8.35a53.142,53.142,0,0,0,.2,10.15,16.575,16.575,0,0,0,1.5,6.1c.85,1.55,1.9,2.95,3.9,3.3a1.747,1.747,0,0,1,.65.25A3.587,3.587,0,0,0,65.825-1.8Zm15.3.45a9.207,9.207,0,0,0,5.45,0,2.815,2.815,0,0,0,2.15-2.05,10.12,10.12,0,0,0,.35-2.75,19.114,19.114,0,0,0-.55-3.45c-.15-.55-.45-1.15-.05-1.65a1.36,1.36,0,0,0,.1-1.65,8.089,8.089,0,0,1-.5-.9c-.5-.8-.75-.95-1.7-.8a11.639,11.639,0,0,1-2.65.3,1.6,1.6,0,0,0-1.2,1.5,4.086,4.086,0,0,1-.05,1.35,1.144,1.144,0,0,0,1.15,1.3h.3c.75,0,.9.1.9.9V-7.7a13.1,13.1,0,0,1-.35,3.7c-.15.4-.3.85-.7.95s-.6-.4-.85-.65a8.594,8.594,0,0,1-1.65-5.35c-.1-2.3.1-4.55.05-6.85,0-1.2.35-2.35.35-3.55a25.967,25.967,0,0,1,.5-5.25,5.671,5.671,0,0,0,.15-1.25,18.682,18.682,0,0,1,.75-3.7c.05-.05.05-.1.05-.2q.15-.225.3,0a3.891,3.891,0,0,0,3.4,1.55c.65,0,.9-.25,1.1-.9a7.624,7.624,0,0,0,.2-3,2.8,2.8,0,0,0-1.95-2.4c-.7-.2-1.35-.5-2.05-.75a2.639,2.639,0,0,0-3.2.8c-.5.65-.95,1.3-1.5,1.95a11.191,11.191,0,0,0-2.25,5.3c-.5,2.3-.45,4.7-.8,7-.2,1.6-.2,3.2-.35,4.75a28.577,28.577,0,0,0-.2,6.85,10.433,10.433,0,0,0,2.5,5.6A6.824,6.824,0,0,0,81.125-1.35Zm12-7.7a1.286,1.286,0,0,1,.75-.05c.75.05,1.05-.3,1-1.2-.05-1.1.15-2.2,0-3.25v-.15a16.265,16.265,0,0,0,.15-2.2,2.073,2.073,0,0,1,.15-.8,9.838,9.838,0,0,0,.25-1.75c.05-2.25.1-4.5.05-6.75a34.7,34.7,0,0,0-.5-5.55,3.751,3.751,0,0,0-1.7-2.85,5.3,5.3,0,0,1-.6-.5,1.28,1.28,0,0,0-.95-.2.575.575,0,0,0-.45.65c-.05,1.1-.2,2.2-.2,3.3v8c0,2,.05,4,.1,6,0,1.45,0,2.9.1,4.35a4.834,4.834,0,0,0,.75,2.35A.981.981,0,0,0,93.125-9.05Zm1.3,7.2c.6,0,.9-.25.85-.85a12.852,12.852,0,0,0-.4-3.1,1.6,1.6,0,0,0-.7-.9l-1.05-.55a1.926,1.926,0,0,0-1.3-.05.709.709,0,0,0-.55.8c0,.4.05.8.05,1.2.05.65.05,1.3.15,1.95A1.593,1.593,0,0,0,92.875-2C93.375-1.9,93.925-1.9,94.425-1.85Z" transform="matrix(1, -0.017, 0.017, 1, 239, 3617)"/>
    <path id="Path_384" data-name="Path 384" d="M5.075,0,0,58.754l221.732.147L228.393,0Z" transform="translate(110.506 3640.638) rotate(-2)" fill="#a9ebe2" stroke="#000" stroke-width="1.5"/>
    <path id="Path_556" data-name="Path 556" d="M61.428,16.916a8.823,8.823,0,0,0,4.77-1.35l-.36-.576a8.092,8.092,0,0,1-4.41,1.206A7,7,0,0,1,54.156,9.05a7.053,7.053,0,0,1,7.218-7.182c4.086,0,7,2.952,7,6.282,0,2.394-.954,3.654-2.142,3.654a1.062,1.062,0,0,1-1.17-1.062,5.886,5.886,0,0,1,.072-.792l.828-4.644-2.772-.432-.216,1.1A2.764,2.764,0,0,0,60.564,4.64c-2.142,0-4,2.106-4,4.68a3.3,3.3,0,0,0,3.294,3.6,3.4,3.4,0,0,0,2.646-1.314,2.983,2.983,0,0,0,2.79,1.368c1.962,0,3.834-1.566,3.834-4.824,0-3.69-3.312-7-7.758-7A7.86,7.86,0,0,0,53.4,9.05,7.8,7.8,0,0,0,61.428,16.916Zm-.666-6.408a1.273,1.273,0,0,1-1.314-1.4,2.2,2.2,0,0,1,.612-1.566,1.6,1.6,0,0,1,1.134-.486,1.286,1.286,0,0,1,1.314,1.386,2.272,2.272,0,0,1-.63,1.6A1.579,1.579,0,0,1,60.762,10.508ZM71.148,14H74.64V1.4H71.148Zm8.874,0h3.492V4.46h3.78V1.4H76.26V4.46h3.762Zm13.482.216c3.06,0,5.094-1.53,5.094-4.1v-.036c0-2.358-1.8-3.294-4.68-3.924-1.764-.4-2.2-.648-2.2-1.224V4.892c0-.468.414-.81,1.26-.81A6.185,6.185,0,0,1,96.51,5.324l1.746-2.466a7.93,7.93,0,0,0-5.184-1.674c-3.024,0-4.878,1.692-4.878,4.032v.036c0,2.574,2.07,3.33,4.752,3.942,1.728.414,2.142.684,2.142,1.224v.036c0,.54-.5.864-1.458.864a6.528,6.528,0,0,1-4.086-1.512L87.6,12.128A8.834,8.834,0,0,0,93.5,14.216ZM100.29,14H105.1c4.518,0,7.164-2.7,7.164-6.336V7.628c0-3.636-2.61-6.228-7.092-6.228H100.29ZM105.2,4.478c2.106,0,3.492,1.188,3.492,3.2v.036c0,2.034-1.386,3.186-3.492,3.186h-1.422V4.478Zm15.228,9.774a6.6,6.6,0,0,0,6.8-6.552V7.664a6.791,6.791,0,0,0-13.572.036v.036A6.54,6.54,0,0,0,120.432,14.252Zm.036-3.15a3.274,3.274,0,0,1-3.24-3.4V7.664a3.215,3.215,0,0,1,3.2-3.366,3.249,3.249,0,0,1,3.222,3.4v.036A3.211,3.211,0,0,1,120.468,11.1Zm14.238,3.132c3.582,0,5.9-1.8,5.9-5.85V1.4h-3.528V8.492c0,1.764-.918,2.592-2.34,2.592-1.4,0-2.322-.864-2.322-2.682v-7h-3.528V8.474C128.892,12.416,131.142,14.234,134.706,14.234Zm14.4.018a8.392,8.392,0,0,0,5.472-1.962V6.638H148.8V9.194h2.466v1.53a3.481,3.481,0,0,1-2.016.522,3.333,3.333,0,0,1-3.42-3.51V7.7a3.294,3.294,0,0,1,3.222-3.438,4.413,4.413,0,0,1,3.042,1.188l2.052-2.484a7.34,7.34,0,0,0-5.112-1.818A6.537,6.537,0,0,0,142.266,7.7v.036C142.266,11.552,145.182,14.252,149.106,14.252ZM159.42,14h3.492V4.46h3.78V1.4H155.658V4.46h3.762Zm8.8,0h3.492V9.212H176.2V14h3.492V1.4H176.2V6.116h-4.482V1.4h-3.492Zm13.7,0h10.224V11.03h-6.768v-2h6.048V6.278h-6.048V4.352h6.678V1.4H181.92Zm12.024,0h3.492V10.4h1.746c3.114,0,5.4-1.566,5.4-4.554V5.81c0-2.772-2.052-4.41-5.22-4.41h-5.418Zm3.492-6.336V4.334h1.656c1.242,0,2.016.558,2.016,1.638v.036c0,.99-.774,1.656-2,1.656Zm14.292,6.57c3.582,0,5.9-1.8,5.9-5.85V1.4H214.1V8.492c0,1.764-.918,2.592-2.34,2.592-1.4,0-2.322-.864-2.322-2.682v-7h-3.528V8.474C205.914,12.416,208.164,14.234,211.728,14.234Zm14.4.018A8.392,8.392,0,0,0,231.6,12.29V6.638h-5.778V9.194h2.466v1.53a3.481,3.481,0,0,1-2.016.522,3.333,3.333,0,0,1-3.42-3.51V7.7a3.294,3.294,0,0,1,3.222-3.438,4.413,4.413,0,0,1,3.042,1.188l2.052-2.484a7.34,7.34,0,0,0-5.112-1.818A6.537,6.537,0,0,0,219.288,7.7v.036C219.288,11.552,222.2,14.252,226.128,14.252Z" transform="matrix(0.999, -0.035, 0.035, 0.999, 81, 3664.073)"/>
  </g>
</svg>
