<svg xmlns="http://www.w3.org/2000/svg" xmlns:xlink="http://www.w3.org/1999/xlink" width="379.346" height="121.818" viewBox="0 0 379.346 121.818">
  <defs>
    <clipPath id="clip-path">
      <path id="Path_551" data-name="Path 551" d="M0,0H290.235V94.629H0Z" fill="none"/>
    </clipPath>
    <clipPath id="clip-path-2">
      <rect id="Rectangle_865" data-name="Rectangle 865" width="7.947" height="7.991" fill="none"/>
    </clipPath>
  </defs>
  <g id="Group_249" data-name="Group 249" transform="translate(-6.29 -175.093)">
    <path id="Path_398" data-name="Path 398" d="M8.1,0-3,97.511l353.939.244L364.573,0Z" transform="matrix(0.999, -0.044, 0.044, 0.999, 16.253, 198.332)" fill="#ec385a" stroke="#000" stroke-width="1.5"/>
    <path id="Path_321" data-name="Path 321" d="M8.1,0-3,97.511l353.939.244L364.573,0Z" transform="matrix(0.999, -0.044, 0.044, 0.999, 10.157, 191.782)" fill="#fec62e" stroke="#000" stroke-width="1.5"/>
    <g id="Group_126" data-name="Group 126" transform="matrix(0.999, -0.035, 0.035, 0.999, 43.628, 195.004)">
      <g id="Group_30" data-name="Group 30">
        <g id="Mask_Group_174" data-name="Mask Group 174" clip-path="url(#clip-path)">
          <path id="Path_552" data-name="Path 552" d="M12.47,2.15A20.6,20.6,0,0,0,26.746-1.978a15.681,15.681,0,0,0,6.192-8.6c.258-.946.43-1.892.688-2.924.774-3.354,1.806-6.794,1.29-10.32a1.759,1.759,0,0,1,0-.946c.688-2.494.516-5.074,1.118-7.482a13.985,13.985,0,0,0-.172-6.794,23.25,23.25,0,0,1-.688-3.526,6.767,6.767,0,0,0-1.806-3.784A9.344,9.344,0,0,1,31.39-48.5a9.81,9.81,0,0,0-5.59-3.87c-4.558-1.29-8.772-3.354-13.33-4.73C10.664-57.62,9.8-57.362,9.2-55.556c-.258.774-.688,1.118-1.462.946a3.485,3.485,0,0,0-.946,0c-1.462,0-1.806.516-1.376,1.892a4.628,4.628,0,0,1,.344,1.892c-.258,2.58-.43,5.074-.86,7.568-.774,5.16-1.29,10.32-1.892,15.48a157.157,157.157,0,0,0-1.2,17.114,23.159,23.159,0,0,0,.172,4.816A7.285,7.285,0,0,0,7.052.946,17.048,17.048,0,0,0,12.47,2.15Zm2.494-5.418a2.451,2.451,0,0,1-2.236-2.494,12.882,12.882,0,0,1-.172-1.892,12.658,12.658,0,0,1,0-1.806c.258-3.956.344-7.826.946-11.7.258-1.806.344-3.526.43-5.332,0-2.15.086-4.214.172-6.364a22.193,22.193,0,0,0-.258-4.128c-.258-2.494.086-4.988,0-7.482A15.566,15.566,0,0,0,13.5-47.9a2.294,2.294,0,0,1,.774-2.494,2.786,2.786,0,0,1,2.924-.43,23.48,23.48,0,0,1,7.654,6.536c1.032,1.376,1.978,2.838,2.924,4.214a3,3,0,0,1,.688,2.064,18.379,18.379,0,0,0,.258,5.332,5.757,5.757,0,0,1,0,1.72c-.946,4.9-1.806,9.718-2.752,14.534A46.876,46.876,0,0,1,22.79-7.4C21.328-3.956,18.232-3.01,14.964-3.268Zm41.452,5.5a6.381,6.381,0,0,0,1.806-.6A11.169,11.169,0,0,1,60.716.43,6.567,6.567,0,0,0,63.9-3.01a23.2,23.2,0,0,0,1.29-6.88c0-1.462.172-2.924.172-4.3-.086-2.408.344-4.816,0-7.224-.086-1.118-.516-2.15-.6-3.268-.258-4.128-.086-8.256-1.118-12.384-.688-2.58-.688-5.418-1.2-8.17-.6-3.526-1.634-4.558-4.472-5.59-2.58-.86-5.16-1.118-7.826-1.978-1.376-.344-1.978,0-2.666,1.376-.6,1.2-1.118,2.494-2.408,3.182-.258.086-.43.516-.6.774A11.964,11.964,0,0,0,42.656-43c-.688,3.1-.774,6.364-1.892,9.288,0,.086-.086.172-.086.258-.258,4.73-1.032,9.374-.774,13.76v2.408a35.322,35.322,0,0,0,3.01,14.792,8,8,0,0,0,5.418,4.558A21.316,21.316,0,0,0,56.416,2.236ZM54.008-1.978a7.485,7.485,0,0,1-1.376-2.58A50.483,50.483,0,0,1,51-11.7a72.81,72.81,0,0,1-.688-9.718c0-1.032-.086-2.15-.172-3.182-.258-2.752.516-5.418.688-8.17.172-1.634-.086-3.354.43-4.9l.516-1.978c.344-1.806,1.29-3.354,1.548-5.332a.87.87,0,0,1,.344-.6c.172-.344.344-.86.774-.774.43,0,.43.516.6.86,1.376,2.58,1.118,5.5,1.376,9.46,0,3.01.086,7.138,0,11.266-.086,1.892-.344,3.784-.344,5.676-.086,5.074-.6,9.976-1.032,14.964A13.519,13.519,0,0,1,54.7-2.15C54.61-1.634,54.266-1.634,54.008-1.978ZM82.044.86A4.846,4.846,0,0,0,86-1.118a15.526,15.526,0,0,0,2.924-7.224c.344-2.15.258-4.386.516-6.536a18.153,18.153,0,0,0,.344-4.3c-.344-4.3.516-8.428.774-12.728.258-4.472,1.032-8.944.6-13.416,0-.774-.172-1.548-.172-2.408.086-2.666.086-5.332.086-8,0-1.376-.258-1.634-1.806-1.72-2.15-.086-3.1.344-3.1,1.634,0,2.236-.172,4.472-.258,6.794a127.526,127.526,0,0,1-1.892,16.168c-1.462,7.31-3.1,14.62-3.1,22.016a24.208,24.208,0,0,1-.6,5.59c-.172.258-.258.6-.344.6-.344,0-.344-.344-.516-.516-.086-.172-.086-.344-.172-.516-1.72-4.73-1.72-9.718-1.118-14.534a262.286,262.286,0,0,0,2.58-27.09,59.743,59.743,0,0,0-.172-6.794,4.827,4.827,0,0,0-4.9-4.816c-1.806,0-2.236.258-2.236,1.892,0,.516-.086,1.032-.086,1.462-.43,2.58-.774,5.246-.946,7.826-.172,3.01-.43,5.934-.774,8.944-.516,3.87-1.2,7.74-1.978,11.7a71.246,71.246,0,0,0-.688,11.352c0,1.978,0,4.042.172,6.02a16.718,16.718,0,0,0,1.72,6.364,5.06,5.06,0,0,0,3.1,2.666A23.281,23.281,0,0,0,82.044.86Zm29.412.086a8.552,8.552,0,0,0,5.5-2.064c2.666-2.58,4.558-5.59,4.73-9.46a50.113,50.113,0,0,1,.516-6.278,52.659,52.659,0,0,0,.258-12.212,1.293,1.293,0,0,0-1.118-1.29,23.172,23.172,0,0,0-7.654-.516,10.583,10.583,0,0,0-2.838.258,2.1,2.1,0,0,0-1.634,1.892c-.172,1.2.086,1.634,1.2,2.322,1.29.774,2.752,1.462,4.042,2.236a2.31,2.31,0,0,1,1.2,2.408,72.278,72.278,0,0,1-1.118,12.126,22.325,22.325,0,0,1-.774,4.042c-.43,1.2-1.032,1.462-2.236,1.032a3.827,3.827,0,0,1-1.806-1.032,11.567,11.567,0,0,1-3.87-6.966c-.43-2.752-.946-5.5-1.118-8.256a44.328,44.328,0,0,1-.258-9.546,81.771,81.771,0,0,1,2.666-13.674c.516-1.634,1.29-3.268,1.72-4.988.43-1.978,1.806-3.44,2.924-4.988.43-.516.774-.43,1.032.172a8.661,8.661,0,0,1,.774,3.268c.086,1.2,0,2.408,0,3.526h.258v3.612a3.262,3.262,0,0,0,.86,2.666,30.078,30.078,0,0,0,3.7,2.838c.086.086.258,0,.43,0,1.118.086,3.01-1.806,3.1-3.1a5.871,5.871,0,0,0-.43-3.182,3.565,3.565,0,0,1-.258-1.376c.086-.946.086-1.892.086-2.924a11.129,11.129,0,0,0-2.752-6.88,4.873,4.873,0,0,0-2.924-1.892,3,3,0,0,1-1.118-.43c-1.806-1.29-3.87-1.2-5.934-.946-1.634.172-3.44.258-4.644,1.72a27.283,27.283,0,0,0-4.042,5.848,58.368,58.368,0,0,0-4.644,16.512,54.131,54.131,0,0,0-.6,9.116c.086,3.268.43,6.536.774,9.8A28.548,28.548,0,0,0,99.846-3.1,8.207,8.207,0,0,0,105.522.688,17.145,17.145,0,0,0,111.456.946Z" transform="translate(0 72.541)"/>
          <path id="Path_557" data-name="Path 557" d="M5.208,2.52c.084,0,.168-.084.252-.084,1.848,0,3.192-1.176,4.62-2.016a4.516,4.516,0,0,0,2.268-3.36,8.726,8.726,0,0,1,.588-2.94,10.836,10.836,0,0,0,.84-6.888,28.3,28.3,0,0,1-.5-5.88,36.529,36.529,0,0,0,.168-4.284v-2.352c0-.5.168-.756.672-.588a4.216,4.216,0,0,1,1.008.168c3.528.5,6.972.336,10.08-1.848a46.907,46.907,0,0,0,7.9-6.8A35.267,35.267,0,0,0,36.2-38.472a4.644,4.644,0,0,0,.588-2.1c.252-3.024-1.008-5.46-2.772-7.644C29.4-53.844,23.184-56.28,15.96-56.2A7.663,7.663,0,0,0,11.928-55.1a16.077,16.077,0,0,0-7.56,10.332c-.5,2.016-.42,4.116-.924,6.216a18.576,18.576,0,0,0-.5,5.292A58.677,58.677,0,0,1,2.6-22.428,106.286,106.286,0,0,0,1.848-3.78a13.506,13.506,0,0,1-.084,2.6C1.512,1.932,1.6,2.436,5.208,2.52Zm10-36.792c-1.512.168-1.764,0-1.764-1.512l.084-.588A11.294,11.294,0,0,1,14.2-40.4c.42-1.6.42-3.36,1.092-4.956a9.227,9.227,0,0,1,5.628-5.292,2.94,2.94,0,0,1,2.352.42,4.6,4.6,0,0,1,2.6,6.216c-.588,1.428-1.26,2.688-1.932,4.032A10.982,10.982,0,0,1,15.2-34.272ZM51.24.84A4.734,4.734,0,0,0,55.1-1.092,15.165,15.165,0,0,0,57.96-8.148c.336-2.1.252-4.284.5-6.384a17.73,17.73,0,0,0,.336-4.2c-.336-4.2.5-8.232.756-12.432.252-4.368,1.008-8.736.588-13.1,0-.756-.168-1.512-.168-2.352.084-2.6.084-5.208.084-7.812,0-1.344-.252-1.6-1.764-1.68-2.1-.084-3.024.336-3.024,1.6,0,2.184-.168,4.368-.252,6.636a124.56,124.56,0,0,1-1.848,15.792c-1.428,7.14-3.024,14.28-3.024,21.5a23.644,23.644,0,0,1-.588,5.46c-.168.252-.252.588-.336.588-.336,0-.336-.336-.5-.5-.084-.168-.084-.336-.168-.5-1.68-4.62-1.68-9.492-1.092-14.2A256.187,256.187,0,0,0,49.98-46.2a58.353,58.353,0,0,0-.168-6.636,4.714,4.714,0,0,0-4.788-4.7c-1.764,0-2.184.252-2.184,1.848,0,.5-.084,1.008-.084,1.428-.42,2.52-.756,5.124-.924,7.644-.168,2.94-.42,5.8-.756,8.736-.5,3.78-1.176,7.56-1.932,11.424a69.589,69.589,0,0,0-.672,11.088c0,1.932,0,3.948.168,5.88a16.329,16.329,0,0,0,1.68,6.216,4.943,4.943,0,0,0,3.024,2.6A22.74,22.74,0,0,0,51.24.84ZM79.968.924a8.353,8.353,0,0,0,5.376-2.016c2.6-2.52,4.452-5.46,4.62-9.24a48.948,48.948,0,0,1,.5-6.132,51.435,51.435,0,0,0,.252-11.928,1.262,1.262,0,0,0-1.092-1.26,22.633,22.633,0,0,0-7.476-.5,10.337,10.337,0,0,0-2.772.252,2.05,2.05,0,0,0-1.6,1.848c-.168,1.176.084,1.6,1.176,2.268,1.26.756,2.688,1.428,3.948,2.184a2.257,2.257,0,0,1,1.176,2.352A70.6,70.6,0,0,1,82.992-9.408a21.806,21.806,0,0,1-.756,3.948c-.42,1.176-1.008,1.428-2.184,1.008A3.738,3.738,0,0,1,78.288-5.46a11.3,11.3,0,0,1-3.78-6.8c-.42-2.688-.924-5.376-1.092-8.064a43.3,43.3,0,0,1-.252-9.324,79.87,79.87,0,0,1,2.6-13.356c.5-1.6,1.26-3.192,1.68-4.872.42-1.932,1.764-3.36,2.856-4.872.42-.5.756-.42,1.008.168a8.46,8.46,0,0,1,.756,3.192c.084,1.176,0,2.352,0,3.444h.252v3.528a3.186,3.186,0,0,0,.84,2.6,29.378,29.378,0,0,0,3.612,2.772c.084.084.252,0,.42,0,1.092.084,2.94-1.764,3.024-3.024a5.734,5.734,0,0,0-.42-3.108,3.482,3.482,0,0,1-.252-1.344c.084-.924.084-1.848.084-2.856A10.87,10.87,0,0,0,86.94-54.1a4.759,4.759,0,0,0-2.856-1.848,2.935,2.935,0,0,1-1.092-.42c-1.764-1.26-3.78-1.176-5.8-.924-1.6.168-3.36.252-4.536,1.68A26.649,26.649,0,0,0,68.712-49.9a57.01,57.01,0,0,0-4.536,16.128,52.872,52.872,0,0,0-.588,8.9c.084,3.192.42,6.384.756,9.576A27.884,27.884,0,0,0,68.628-3.024a8.016,8.016,0,0,0,5.544,3.7A16.746,16.746,0,0,0,79.968.924Z" transform="translate(193.469 70.541)"/>
        </g>
      </g>
      <path id="Path_550" data-name="Path 550" d="M4.895,3.025l1.815-.33A4.3,4.3,0,0,0,10.01-.44a5.521,5.521,0,0,0,.22-1.32,2.256,2.256,0,0,1,.055-.6A11.6,11.6,0,0,1,10.56-4.29c.055,0,.88-3.135.88-3.135.6-1.87,1.815-3.575,1.925-5.5,0-.495-.55-1.76-1.375-1.7-.495.055-1.32,1.43-1.54,1.76l-1.485,3.9-2.7,5.28c-.055.165-.055.5-.275.5s-.165-.33-.22-.5c-.88-2.585-.055-4.18-.385-6.875-.22-1.815-.165-3.685-.55-5.5-.55-2.42-.275-4.9-.66-7.315-.055-.385.165-.55.5-.495a3.937,3.937,0,0,0,2.7-.715.911.911,0,0,0,.275-.715c-.055-.275-.275-.33-.5-.385a8.864,8.864,0,0,0-2.09.055c-1.045,0-1.21-.165-1.265-1.155A12.914,12.914,0,0,0,3.52-28.82a.966.966,0,0,0-1.21-.88A1.648,1.648,0,0,0,.99-28.435l-.33,1.87c-.11.825-.22.88-1.1.77a2.913,2.913,0,0,0-1.375.055.488.488,0,0,0-.33.55c0,.275.165.385.385.5l1.375.385a.823.823,0,0,1,.715,1.1,14.209,14.209,0,0,0-.11,3.74c.055.22-.055,3.08,0,3.795C.44-13.53.44-11.44.66-9.3c.22,2.475.33,5.005.495,7.48a21.856,21.856,0,0,0,1.1,3.19A2.249,2.249,0,0,0,4.895,3.025ZM12.65,1.21A1.226,1.226,0,0,0,13.97.11a5.981,5.981,0,0,0,0-1.98,4.173,4.173,0,0,1,.22-2.145c.165-.66.385-1.375.495-2.09a18.268,18.268,0,0,1,1.87-5.17,11.093,11.093,0,0,0,.99-1.98c.055-.11.055-.385.165-.385.22.055.165.275.11.385-.165,2.09-.33,4.125-.44,6.16a8.536,8.536,0,0,0,.66,3.74,2.627,2.627,0,0,0,1.32,1.54,4.279,4.279,0,0,0,2.2.44,3.119,3.119,0,0,0,2.2-1.32c1.1-1.485,5.335-6.6,5.94-7.7a4.884,4.884,0,0,0,.715-2.64c-.165-.935-.935-1.65-1.815-1.21-.825.44-1.43,1.32-2.365,3.08-1.155,1.65-2.31,3.3-3.3,5-.11.165-.165.44-.385.385-.275-.055-.11-.33-.11-.55.165-1.76.385-3.465.5-5.28.22-2.695.6-5.445,0-8.25-.275-.88-.275-1.1-1.155-1.32a30.919,30.919,0,0,0-3.135-.11,1.294,1.294,0,0,0-.44.11,13.77,13.77,0,0,0-2.53,2.53,17.508,17.508,0,0,0-1.265,2.2c-.055.11-.055.22-.22.22,0,0-.11-.11-.11-.165a5.6,5.6,0,0,1,.22-2.145c.6-1.65,1.1-3.3,1.65-4.95.715-2.42,1.32-4.785.275-7.26a1.241,1.241,0,0,0-1.32-.99,14.494,14.494,0,0,1-1.54.11,2.3,2.3,0,0,0-1.76.88,1.7,1.7,0,0,1-.99.88c-.275.055-.33.275-.385.55A59.245,59.245,0,0,0,8.91-16.06v4.29c0,2.035.055,4.015.11,6.05a5.032,5.032,0,0,1-.055.935c.33,1.32-.275,2.695.165,3.96A4.971,4.971,0,0,0,10.285.825h.055A4.209,4.209,0,0,0,12.65,1.21ZM13.255-23.7c-.385,0-.275-.77-.385-1.43v-.385c.22-.66.6-1.705,1.045-1.54.77.11,0,1.045.11,1.54a1.4,1.4,0,0,1-.11.66C13.75-24.475,13.915-23.7,13.255-23.7ZM33.88-2.42a10.392,10.392,0,0,0,7.7-3.63,52.939,52.939,0,0,0,4.125-6.215,5.406,5.406,0,0,0,.275-.88.79.79,0,0,0-.275-.825,1.688,1.688,0,0,0-1.76,0,6.9,6.9,0,0,0-2.695,2.475A26.465,26.465,0,0,1,38.83-8.36a9.532,9.532,0,0,1-2.42,2.035,3.054,3.054,0,0,1-3.96-.715A10.245,10.245,0,0,1,31.4-8.91a.729.729,0,0,1,.275-.88l.88-.6a11.9,11.9,0,0,0,2.2-2.2,26.184,26.184,0,0,0,3.41-4.4,24.917,24.917,0,0,0,1.43-3.3,5.259,5.259,0,0,0-.11-4.455,1.678,1.678,0,0,0-.88-1.045,8.471,8.471,0,0,0-3.08-.77.842.842,0,0,1-.715-.11,1.5,1.5,0,0,0-1.815.22,22.7,22.7,0,0,0-4.785,4.95A12.19,12.19,0,0,0,25.85-15.73,11.149,11.149,0,0,0,25.8-12.7c.275,4.895.6,5.17.77,5.72A6.906,6.906,0,0,0,30.25-3.3l.385.165A6.806,6.806,0,0,0,33.88-2.42ZM31.4-16.335c-.055-.055,0-.11,0-.165l.44-1.375a17.983,17.983,0,0,1,3.08-4.9c.33-.385.385-.33.6.11a4.122,4.122,0,0,1,.275.88,6.253,6.253,0,0,1-.715,1.65,22.891,22.891,0,0,1-3.3,3.63l-.165.11C31.57-16.39,31.515-16.28,31.4-16.335Z" transform="translate(138.685 55.308)"/>
    </g>
    <g id="Group_127" data-name="Group 127" transform="matrix(0.998, -0.07, 0.07, 0.998, 333.953, 198.525)">
      <g id="Group_115" data-name="Group 115" transform="translate(0 0)" clip-path="url(#clip-path-2)">
        <path id="Path_397" data-name="Path 397" d="M0,4.018V4a3.974,3.974,0,1,1,7.947-.022V4A3.974,3.974,0,1,1,0,4.018M7.486,4V3.974A3.513,3.513,0,1,0,.461,4v.022a3.474,3.474,0,0,0,3.5,3.523A3.5,3.5,0,0,0,7.486,4M2.228,1.767H4.2a1.924,1.924,0,0,1,1.416.472,1.3,1.3,0,0,1,.362.966v.022a1.32,1.32,0,0,1-.867,1.284l1.01,1.482H4.775L3.919,4.709H3.4V5.993H2.228ZM4.171,3.8c.406,0,.637-.2.637-.5V3.271c0-.329-.252-.5-.637-.5H3.4V3.8Z" transform="translate(0 0)"/>
      </g>
    </g>
  </g>
</svg>
