<svg xmlns="http://www.w3.org/2000/svg" width="788.623" height="265.371" viewBox="0 0 788.623 265.371">
  <g id="Group_265" data-name="Group 265" transform="translate(-423.913 -1701.731)">
    <g id="Group_263" data-name="Group 263">
      <path id="Path_283" data-name="Path 283" d="M14.577,0,0,142.389l636.852.357L655.986,0Z" transform="translate(551.084 1823.664) rotate(-2)" fill="#ec385a" stroke="#000" stroke-width="1.5"/>
      <path id="Path_284" data-name="Path 284" d="M14.577,0,0,142.389l636.852.357L655.986,0Z" transform="translate(542.797 1814.846) rotate(-2)" fill="#a9ebe2" stroke="#000" stroke-width="1.5"/>
      <path id="Path_568" data-name="Path 568" d="M-236.138,3.535c.4,0,.808.1,1.111-.1,1.717-1.212,3.232-2.525,3.232-4.848a21.061,21.061,0,0,1,0-2.525,43.161,43.161,0,0,0,.707-11.413,17.7,17.7,0,0,1,.4-4.646c.1-.707.4-1.212,1.111-1.212a53.5,53.5,0,0,1,5.555-1.01c.808,0,1.212.2,1.313.909l.3,2.02c.2,1.717.3,9.09,1.111,10.706.808,1.919,1.818,2.626,3.838,2.323,1.818-.2,3.636-.2,5.454-.4,1.111-.1,1.515-.505,1.616-1.515a34.149,34.149,0,0,0-.1-4.545c-.606-6.262-2.323-17.877-2.828-24.139-.1-2.323-1.414-4.343-1.616-6.767-.2-3.333-1.313-6.565-1.717-10a25.863,25.863,0,0,0-3.636-10.1c-.909-1.515-1.919-2.828-3.737-3.03s-3.737-.2-5.555-.3a2.152,2.152,0,0,0-2.121,1.313,14.556,14.556,0,0,0-1.313,4.04c-.707,3.939-1.313,7.878-1.919,11.817-.808,4.949-1.717,9.9-2.323,14.847-.808,7.272-1.818,14.544-2.323,21.816-.2,3.232-.3,6.363-.606,9.494a29.516,29.516,0,0,1-.4,5.151c-.3,1.313.1,1.717,1.515,1.919C-238.057,3.434-237.047,3.434-236.138,3.535Zm8.282-34.744q-.909.151-.909-.909v-.505c.808-3.939.707-8.08,1.616-12.12a1.281,1.281,0,0,0,.1-.606c.1-.2.1-.606.3-.606.3,0,.3.4.3.606l.909,5.959.909,5.353a2.815,2.815,0,0,1,.1,1.01,1.07,1.07,0,0,1-.909,1.212A21.256,21.256,0,0,1-227.856-31.209ZM-171.3.3c1.515-.1,2.929-.3,4.444-.4a4.112,4.112,0,0,0,2.525-1.313,8.805,8.805,0,0,0,1.818-3.131,57.913,57.913,0,0,0,1.313-7.07c.4-2.727.707-5.454,1.111-8.181l.909-6.767c.4-2.929.808-5.858,1.111-8.686.2-1.717.707-3.333,1.01-5.05.808-4.343,2.02-8.484,3.232-12.726a67.259,67.259,0,0,0,2.222-8.888,5.5,5.5,0,0,0-.1-2.222c-.2-1.111-.707-1.515-1.818-1.414a19.867,19.867,0,0,0-2.424.3,3.212,3.212,0,0,0-2.525,1.515,10.029,10.029,0,0,0-1.717,3.636c-.4,1.414-.606,2.929-.909,4.343-.606,2.828-1.313,7.878-1.818,10.706-.5,2.727-2.323,10.807-3.03,13.534-1.01,3.737-1.616,7.474-2.323,11.312l-.606,3.636c0,.1,0,.4-.2.4-.1,0-.1-.3-.1-.4-.1-1.414-.2-2.828-.2-4.242,0-2.121-.4-4.343-.1-6.464a17.769,17.769,0,0,0-.4-5.151c-.4-2.222,1.212-9.6,1.212-11.817.1-3.232.3-8.686-.3-11.817a5.69,5.69,0,0,1,0-1.313c.1-2.525.2-5.05-.808-7.373a24.272,24.272,0,0,1-1.111-2.323,4.793,4.793,0,0,0-3.434-2.626,10.656,10.656,0,0,0-5.353.2c-1.212.3-1.616.808-1.313,2.02a6.543,6.543,0,0,1,.2,2.02c-.2,3.939-.1,7.878-.1,12.12.2,2.626.1,5.555.2,8.484.1,3.03.3,5.959.505,8.989.2,3.333.2,6.767.3,10.2a24.613,24.613,0,0,0,.1,2.727c.3,2.727.606,5.454,1.01,8.181.505,3.535.606,7.272,1.717,10.807C-176.245-1.111-174.326.5-171.3.3ZM-131.5,3.939c3.939.4,5.05-.808,5.151-4.545v-.606c0-1.515-.3-1.818-1.818-1.919-1.616-.1-3.232-.2-4.848-.2a5.443,5.443,0,0,1-3.03-1.01,2.259,2.259,0,0,1-1.01-2.323,16.316,16.316,0,0,0,.2-3.131c.3-4.545.2-8.989.808-13.433.2-.909.505-1.414,1.414-1.313,2.222.3,4.343-.3,6.464-.707a2.628,2.628,0,0,0,2.323-2.626,11.129,11.129,0,0,0-.2-1.818,1.7,1.7,0,0,0-1.717-1.717,27.2,27.2,0,0,0-4.04-.3h-2.424c-1.212-.1-1.515-.4-1.616-1.616-.1-2.02-.1-4.04-.1-6.06-.1-6.565.808-13.029-.1-19.594a1.039,1.039,0,0,1,1.111-1.313c1.919-.2,3.939-.707,5.858-.3a14.217,14.217,0,0,0,5.05-.3,1.318,1.318,0,0,0,1.313-1.212,1.908,1.908,0,0,0-.909-2.121,2.8,2.8,0,0,0-1.313-.3c-2.323-.4-4.646-.808-6.969-1.313a30.149,30.149,0,0,0-7.373-.4c-.909,0-1.818.1-2.02,1.212-.4,3.535-1.313,6.868-1.818,10.4-.808,5.757-1.414,11.514-2.02,17.271-.707,6.464-1.313,13.029-2.02,19.493a69.258,69.258,0,0,0-.1,11.211c.3,4.04,1.919,6.666,5.757,7.979A41.658,41.658,0,0,0-131.5,3.939Zm20.2-.808c1.515.2,2.02-.2,2.02-1.717-.2-4.04.1-7.979-.3-12.019-.1-1.111-.2-2.222-.2-3.333.4-4.848-.1-9.595-.1-14.342,0-1.717-.1-3.434-.2-5.05,0-.4-.2-1.111.1-1.111.5-.1.606.606.707,1.01,2.323,5.353,4.545,10.706,6.666,16.16A46.449,46.449,0,0,0-99.485-10.4,11.29,11.29,0,0,0-96.657-7.07c1.818,1.313,3.737.707,4.141-1.515a6.69,6.69,0,0,0-.707-5.151,134.061,134.061,0,0,1-6.464-11.817l-6.969-13.938-1.212-2.222c-.3-.606-.2-1.01.4-1.212,2.02-.606,3.636-2.02,5.656-2.525,2.424-.707,4.444-1.919,4.949-4.747a3.21,3.21,0,0,1,.3-.909c1.01-3.232.909-6.363-1.414-9.09-1.111-1.414-2.323-2.727-3.535-4.04a8.109,8.109,0,0,0-4.848-2.525,16.667,16.667,0,0,0-7.07-.1,7.7,7.7,0,0,1-3.03.2c-1.414-.1-1.818.3-1.515,1.717a3.58,3.58,0,0,0,.3,1.111,6.324,6.324,0,0,1,.3,2.727,36.287,36.287,0,0,0-.3,4.747c-.1,4.343-.3,8.686-.1,12.928.1,3.131-.4,6.262-.3,9.393,0,3.636.1,7.373-.2,11.009a40.99,40.99,0,0,0-.3,7.07c.3,2.525.2,5.151.3,7.777,0,2.222.2,4.444.3,6.666.2,2.424,1.212,3.434,3.636,3.737a4.235,4.235,0,0,1,1.616.4A5.84,5.84,0,0,0-111.3,3.131Zm1.616-54.237c-.505.3-.909.2-1.01-.4-.2-1.111-.505-2.121-.606-3.232a31.078,31.078,0,0,0-.2-3.333c-.1-1.515,0-1.616,1.212-1.717,1.01,0,2.02-.1,3.03-.2a5.59,5.59,0,0,1,5.454,2.323c.606.909.606,1.414-.3,1.717a38.707,38.707,0,0,0-6.767,4.343A3.544,3.544,0,0,1-109.686-51.106ZM-76.457,3.232a5.709,5.709,0,0,1,1.313,0A7.276,7.276,0,0,0-68.882.4,24.138,24.138,0,0,0-64.034-10.6c1.111-5.656.808-11.514,1.111-17.271.1-3.838-.1-7.676.2-11.514a70.162,70.162,0,0,0,.2-7.979,60.479,60.479,0,0,0-.505-9.6,28.1,28.1,0,0,1-.505-5.858c.1-1.919-1.717-2.727-2.727-4.04,0-.1-.2-.1-.4-.1-1.414,0-2.828-.1-4.242-.2-1.111-.1-1.414.4-1.414,1.515a5.011,5.011,0,0,0,.3,1.313A23.022,23.022,0,0,1-70.9-60.2c.2,2.727.808,5.353.4,7.979a29.55,29.55,0,0,1-.808,8.484,34.361,34.361,0,0,0-.707,3.434,61.138,61.138,0,0,1-2.929,10.4,5.8,5.8,0,0,1-1.515,2.323,4.14,4.14,0,0,1-.909-2.828,57.091,57.091,0,0,1-.606-10.2c.1-1.919-.3-3.737,0-5.656a53.553,53.553,0,0,0,.2-6.969c0-1.818-.3-3.535-.3-5.353A7.474,7.474,0,0,0-80.3-63.226,5.774,5.774,0,0,1-81-64.034c-1.111-2.02-3.03-2.525-5.151-2.424-1.111.1-1.515.4-1.414,1.616a32.747,32.747,0,0,1-.1,8.888c-.3,2.828-.2,5.555-.4,8.383a78.252,78.252,0,0,0,.1,11.918,19.965,19.965,0,0,0,2.727,8.484c1.313,2.121,3.03,3.838,5.555,4.242a18.517,18.517,0,0,1,5.757,1.414c1.515.606,1.616.606,1.313,2.222a57.021,57.021,0,0,1-2.323,7.373,25.163,25.163,0,0,1-2.121,4.747c-.2.3-.4.808-.808.606-.4-.1-.3-.606-.2-.909.1-2.121-.2-4.141-.1-6.262a3.158,3.158,0,0,0-.4-1.919A27.017,27.017,0,0,1-80.4-18.483a1.656,1.656,0,0,0-1.212-.707,13.656,13.656,0,0,0-4.04-.3c-1.717.2-2.222.707-1.818,2.323a11,11,0,0,1,.1,3.636c-.5,3.737.4,7.373.5,11.11,0,1.717.3,1.919,2.02,2.323a4.221,4.221,0,0,1,1.01.4,38.5,38.5,0,0,0,4.545,2.323A5.511,5.511,0,0,0-76.457,3.232ZM-22.22-2.727a18.6,18.6,0,0,0,11.009,0A5.687,5.687,0,0,0-6.868-6.868a20.443,20.443,0,0,0,.707-5.555,38.61,38.61,0,0,0-1.111-6.969c-.3-1.111-.909-2.323-.1-3.333a2.746,2.746,0,0,0,.2-3.333,16.341,16.341,0,0,1-1.01-1.818c-1.01-1.616-1.515-1.919-3.434-1.616a23.511,23.511,0,0,1-5.353.606c-1.111,0-2.626,1.919-2.424,3.03a8.255,8.255,0,0,1-.1,2.727A2.311,2.311,0,0,0-17.17-20.5h.606c1.515,0,1.818.2,1.818,1.818v3.131c-.1,2.525.1,5.05-.707,7.474-.3.808-.606,1.717-1.414,1.919s-1.212-.808-1.717-1.313c-2.626-3.131-3.131-6.969-3.333-10.807-.2-4.646.2-9.191.1-13.837,0-2.424.707-4.747.707-7.171a52.455,52.455,0,0,1,1.01-10.6,11.455,11.455,0,0,0,.3-2.525,37.738,37.738,0,0,1,1.515-7.474c.1-.1.1-.2.1-.4q.3-.455.606,0c1.717,2.323,4.04,3.131,6.868,3.131,1.313,0,1.818-.5,2.222-1.818a15.4,15.4,0,0,0,.4-6.06,5.655,5.655,0,0,0-3.939-4.848c-1.414-.4-2.727-1.01-4.141-1.515a5.33,5.33,0,0,0-6.464,1.616c-1.01,1.313-1.919,2.626-3.03,3.939-2.626,3.03-3.737,6.767-4.545,10.706-1.01,4.646-.909,9.494-1.616,14.14-.4,3.232-.4,6.464-.707,9.6-.505,4.646-1.01,9.191-.4,13.837a21.076,21.076,0,0,0,5.05,11.312A13.784,13.784,0,0,0-22.22-2.727ZM17.372,2.626a7.494,7.494,0,0,0,2.121-.707A13.117,13.117,0,0,1,22.422.5a7.713,7.713,0,0,0,3.737-4.04,27.251,27.251,0,0,0,1.515-8.08c0-1.717.2-3.434.2-5.05-.1-2.828.4-5.656,0-8.484-.1-1.313-.606-2.525-.707-3.838-.3-4.848-.1-9.7-1.313-14.544-.808-3.03-.808-6.363-1.414-9.6-.707-4.141-1.919-5.353-5.252-6.565C16.16-60.7,13.13-61,10-62.014c-1.616-.4-2.323,0-3.131,1.616-.707,1.414-1.313,2.929-2.828,3.737-.3.1-.505.606-.707.909A14.05,14.05,0,0,0,1.212-50.5C.4-46.864.3-43.026-1.01-39.592c0,.1-.1.2-.1.3-.3,5.555-1.212,11.009-.909,16.16V-20.3c.1,5.959.909,11.817,3.535,17.372A9.4,9.4,0,0,0,7.878,2.424,25.034,25.034,0,0,0,17.372,2.626ZM14.544-2.323a8.79,8.79,0,0,1-1.616-3.03,59.289,59.289,0,0,1-1.919-8.383A85.51,85.51,0,0,1,10.2-25.149c0-1.212-.1-2.525-.2-3.737-.3-3.232.606-6.363.808-9.6.2-1.919-.1-3.939.505-5.757l.606-2.323c.4-2.121,1.515-3.939,1.818-6.262a1.022,1.022,0,0,1,.4-.707c.2-.4.4-1.01.909-.909.5,0,.5.606.707,1.01,1.616,3.03,1.313,6.464,1.616,11.11,0,3.535.1,8.383,0,13.231-.1,2.222-.4,4.444-.4,6.666-.1,5.959-.707,11.716-1.212,17.574a15.876,15.876,0,0,1-.4,2.323C15.251-1.919,14.847-1.919,14.544-2.323ZM51.611,2.626a7.493,7.493,0,0,0,2.121-.707A13.117,13.117,0,0,1,56.661.5,7.713,7.713,0,0,0,60.4-3.535a27.251,27.251,0,0,0,1.515-8.08c0-1.717.2-3.434.2-5.05-.1-2.828.4-5.656,0-8.484-.1-1.313-.606-2.525-.707-3.838-.3-4.848-.1-9.7-1.313-14.544-.808-3.03-.808-6.363-1.414-9.6-.707-4.141-1.919-5.353-5.252-6.565C50.4-60.7,47.369-61,44.238-62.014c-1.616-.4-2.323,0-3.131,1.616-.707,1.414-1.313,2.929-2.828,3.737-.3.1-.505.606-.707.909A14.05,14.05,0,0,0,35.451-50.5c-.808,3.636-.909,7.474-2.222,10.908,0,.1-.1.2-.1.3-.3,5.555-1.212,11.009-.909,16.16V-20.3c.1,5.959.909,11.817,3.535,17.372a9.4,9.4,0,0,0,6.363,5.353A25.034,25.034,0,0,0,51.611,2.626ZM48.783-2.323a8.79,8.79,0,0,1-1.616-3.03,59.288,59.288,0,0,1-1.919-8.383,85.51,85.51,0,0,1-.808-11.413c0-1.212-.1-2.525-.2-3.737-.3-3.232.606-6.363.808-9.6.2-1.919-.1-3.939.505-5.757l.606-2.323c.4-2.121,1.515-3.939,1.818-6.262a1.022,1.022,0,0,1,.4-.707c.2-.4.4-1.01.909-.909.5,0,.5.606.707,1.01,1.616,3.03,1.313,6.464,1.616,11.11,0,3.535.1,8.383,0,13.231-.1,2.222-.4,4.444-.4,6.666-.1,5.959-.707,11.716-1.212,17.574a15.876,15.876,0,0,1-.4,2.323C49.49-1.919,49.086-1.919,48.783-2.323ZM78.78.3A27.636,27.636,0,0,0,84.537-.808a46.016,46.016,0,0,0,8.08-3.939,9,9,0,0,0,2.828-3.03,33.547,33.547,0,0,0,3.434-8.08c1.01-3.838,1.818-7.676,2.929-11.514,1.818-6.262,2.121-12.726,2.525-19.695a20.077,20.077,0,0,0-.808-5.151,33.629,33.629,0,0,1-1.313-4.545,10.2,10.2,0,0,0-.707-2.323,23.018,23.018,0,0,0-4.444-5.858,11.463,11.463,0,0,0-3.636-2.424,39.8,39.8,0,0,0-6.969-2.121,17.321,17.321,0,0,0-4.545-.4,2.726,2.726,0,0,0-2.222,1.313,9.5,9.5,0,0,0-1.212,2.222c-.2.606-.606.707-1.212.505a8.277,8.277,0,0,0-3.131-.3c-1.212.1-1.616.606-1.616,1.717a42.959,42.959,0,0,1-.606,7.171,74.766,74.766,0,0,0-.808,8.181,90.392,90.392,0,0,1-.909,10.4,47.388,47.388,0,0,0-.505,9.292c.3,3.636-.2,7.171-.4,10.706a47.722,47.722,0,0,1-2.525,10.6,7.6,7.6,0,0,0-.2,4.242,9.17,9.17,0,0,1,.3,2.323.708.708,0,0,0,.707.909C68.579-.5,69.488,0,70.4.1A38.8,38.8,0,0,0,78.78.3Zm-.707-5.656c-.1-.1,0-.3.1-.5.3-1.313.606-2.626.808-3.838a5.327,5.327,0,0,1,.3-1.212C80.6-13.736,80.8-16.766,81-19.8c.1-1.414.1-2.727.1-4.141a8.714,8.714,0,0,1,.4-2.828,33.716,33.716,0,0,0,1.212-6.363c.1-1.111.4-2.121.5-3.131a24.375,24.375,0,0,0-.2-6.06,8.933,8.933,0,0,1,0-2.323,55.2,55.2,0,0,0-.3-7.07c-.1-.606-.3-1.111-.4-1.717-.3-1.212-.3-2.323,1.01-3.03a3.074,3.074,0,0,0,.808-.808c.606-1.414,1.515-2.626,2.121-4.04a11.622,11.622,0,0,1,1.212-2.525c.808-1.111,1.212-1.111,1.919,0a19.673,19.673,0,0,1,2.424,4.545,17.091,17.091,0,0,1,.707,3.838,19.243,19.243,0,0,0,.808,5.454,13.857,13.857,0,0,1,.5,4.04c-.1,2.323-.2,4.646-.4,6.969-.2,2.828-.4,5.555-.808,8.383a45.044,45.044,0,0,1-2.02,8.08c-.909,2.828-1.818,5.656-2.929,8.484l-.606,1.414a12.58,12.58,0,0,1-8.383,7.272C78.477-5.353,78.275-5.151,78.073-5.353ZM147.864.606a17.5,17.5,0,0,0,5.151-.4c3.939-.909,6.464-3.535,7.979-7.171.5-1.212.909-2.525,1.313-3.737a40.808,40.808,0,0,0,1.212-15.251c-.3-2.828-.808-5.656-1.212-8.585-.4-2.525-1.01-4.949-2.929-6.969-.4-.4-.4-.808.1-1.212a5.626,5.626,0,0,0,1.919-3.03,1.612,1.612,0,0,1,.3-.808,11.909,11.909,0,0,0,.909-4.646c.1-1.515-.2-3.03.5-4.545v-.505a15.391,15.391,0,0,0-.707-6.06,6.788,6.788,0,0,0-1.717-3.131,11.207,11.207,0,0,0-4.848-3.131,19.485,19.485,0,0,0-10.2-.707,3.554,3.554,0,0,1-2.02.3,9.588,9.588,0,0,0-4.141.1c-1.717.2-2.121.707-2.424,2.424-.606,4.545-1.01,8.989-1.313,13.534-.2,3.535-.505,7.07-.606,10.5-.1,3.737-.505,7.474-.808,11.11-.2,1.919-.1,3.838-.3,5.757-.3,3.737-.3,7.575-.4,10.5v6.666a32.849,32.849,0,0,0,.2,5.454c.3,2.02,1.111,2.727,3.131,2.727,1.515,0,3.131.1,4.646.2A62.624,62.624,0,0,1,147.864.606Zm1.818-47.773c-.3.2-.5.1-.4-.3.1-1.111.1-2.222.3-3.333a34.245,34.245,0,0,0,.1-9.09c-.1-.909-.1-1.919-.2-2.828a1.305,1.305,0,0,1,1.414-1.616l1.919.3a2.091,2.091,0,0,1,1.313,1.111,6.881,6.881,0,0,1,.808,3.434,17.911,17.911,0,0,1-.808,4.04c-.4,1.414-.808,2.828-1.313,4.242A7.3,7.3,0,0,1,149.682-47.167ZM146.349-4.848a11.129,11.129,0,0,1-1.818-.2c-1.919-.4-1.919-.4-1.515-2.323a44.451,44.451,0,0,0,.505-5.151c.2-1.313.4-2.727.707-4.04a20.405,20.405,0,0,0,.808-6.06,13.442,13.442,0,0,1,.505-4.04,2.964,2.964,0,0,0,.3-1.01,61.951,61.951,0,0,1,1.414-8.484l.3-1.717a1.629,1.629,0,0,1,.3-.909c.4-.4.707-.505,1.111-.1a2.113,2.113,0,0,1,.4.606,21.2,21.2,0,0,1,1.515,3.03q.909,3.03,2.121,6.06a10.867,10.867,0,0,1,1.01,4.444,50.525,50.525,0,0,1-3.03,16.16c-.707,1.818-2.323,2.828-3.939,3.737A.863.863,0,0,1,146.349-4.848Zm40.9,7.474a7.494,7.494,0,0,0,2.121-.707A13.117,13.117,0,0,1,192.3.5a7.713,7.713,0,0,0,3.737-4.04,27.251,27.251,0,0,0,1.515-8.08c0-1.717.2-3.434.2-5.05-.1-2.828.4-5.656,0-8.484-.1-1.313-.606-2.525-.707-3.838-.3-4.848-.1-9.7-1.313-14.544-.808-3.03-.808-6.363-1.414-9.6-.707-4.141-1.919-5.353-5.252-6.565-3.03-1.01-6.06-1.313-9.191-2.323-1.616-.4-2.323,0-3.131,1.616-.707,1.414-1.313,2.929-2.828,3.737-.3.1-.505.606-.707.909a14.05,14.05,0,0,0-2.121,5.252c-.808,3.636-.909,7.474-2.222,10.908,0,.1-.1.2-.1.3-.3,5.555-1.212,11.009-.909,16.16V-20.3c.1,5.959.909,11.817,3.535,17.372a9.4,9.4,0,0,0,6.363,5.353A25.034,25.034,0,0,0,187.254,2.626Zm-2.828-4.949a8.79,8.79,0,0,1-1.616-3.03,59.29,59.29,0,0,1-1.919-8.383,85.512,85.512,0,0,1-.808-11.413c0-1.212-.1-2.525-.2-3.737-.3-3.232.606-6.363.808-9.6.2-1.919-.1-3.939.505-5.757l.606-2.323c.4-2.121,1.515-3.939,1.818-6.262a1.022,1.022,0,0,1,.4-.707c.2-.4.4-1.01.909-.909.505,0,.505.606.707,1.01,1.616,3.03,1.313,6.464,1.616,11.11,0,3.535.1,8.383,0,13.231-.1,2.222-.4,4.444-.4,6.666-.1,5.959-.707,11.716-1.212,17.574a15.874,15.874,0,0,1-.4,2.323C185.133-1.919,184.729-1.919,184.426-2.323Zm29.391,5.555a5.708,5.708,0,0,1,1.313,0A7.276,7.276,0,0,0,221.392.4,24.138,24.138,0,0,0,226.24-10.6c1.111-5.656.808-11.514,1.111-17.271.1-3.838-.1-7.676.2-11.514a70.16,70.16,0,0,0,.2-7.979,60.48,60.48,0,0,0-.5-9.6,28.1,28.1,0,0,1-.505-5.858c.1-1.919-1.717-2.727-2.727-4.04,0-.1-.2-.1-.4-.1-1.414,0-2.828-.1-4.242-.2-1.111-.1-1.414.4-1.414,1.515a5.01,5.01,0,0,0,.3,1.313,23.023,23.023,0,0,1,1.111,4.141c.2,2.727.808,5.353.4,7.979a29.55,29.55,0,0,1-.808,8.484,34.357,34.357,0,0,0-.707,3.434,61.14,61.14,0,0,1-2.929,10.4,5.8,5.8,0,0,1-1.515,2.323,4.14,4.14,0,0,1-.909-2.828,57.092,57.092,0,0,1-.606-10.2c.1-1.919-.3-3.737,0-5.656a53.554,53.554,0,0,0,.2-6.969c0-1.818-.3-3.535-.3-5.353a7.474,7.474,0,0,0-2.222-4.646,5.775,5.775,0,0,1-.707-.808c-1.111-2.02-3.03-2.525-5.151-2.424-1.111.1-1.515.4-1.414,1.616a32.748,32.748,0,0,1-.1,8.888c-.3,2.828-.2,5.555-.4,8.383a78.251,78.251,0,0,0,.1,11.918,19.965,19.965,0,0,0,2.727,8.484c1.313,2.121,3.03,3.838,5.555,4.242a18.517,18.517,0,0,1,5.757,1.414c1.515.606,1.616.606,1.313,2.222a57.022,57.022,0,0,1-2.323,7.373,25.163,25.163,0,0,1-2.121,4.747c-.2.3-.4.808-.808.606-.4-.1-.3-.606-.2-.909.1-2.121-.2-4.141-.1-6.262a3.158,3.158,0,0,0-.4-1.919,27.019,27.019,0,0,1-1.818-2.828,1.656,1.656,0,0,0-1.212-.707,13.656,13.656,0,0,0-4.04-.3c-1.717.2-2.222.707-1.818,2.323a11,11,0,0,1,.1,3.636c-.505,3.737.4,7.373.505,11.11,0,1.717.3,1.919,2.02,2.323a4.221,4.221,0,0,1,1.01.4,38.5,38.5,0,0,0,4.545,2.323A5.511,5.511,0,0,0,213.817,3.232Zm22.119-21.513a2.6,2.6,0,0,1,1.515-.1c1.515.1,2.121-.606,2.02-2.424-.1-2.222.3-4.444,0-6.565v-.3a32.855,32.855,0,0,0,.3-4.444,4.187,4.187,0,0,1,.3-1.616,19.876,19.876,0,0,0,.505-3.535c.1-4.545.2-9.09.1-13.635a70.09,70.09,0,0,0-1.01-11.211c-.5-2.626-1.414-4.646-3.434-5.757a10.7,10.7,0,0,1-1.212-1.01,2.586,2.586,0,0,0-1.919-.4,1.162,1.162,0,0,0-.909,1.313c-.1,2.222-.4,4.444-.4,6.666v16.16c0,4.04.1,8.08.2,12.12,0,2.929,0,5.858.2,8.787a9.764,9.764,0,0,0,1.515,4.747A1.982,1.982,0,0,0,235.936-18.281Zm2.626,14.544c1.212,0,1.818-.505,1.717-1.717a25.96,25.96,0,0,0-.808-6.262,3.224,3.224,0,0,0-1.414-1.818l-2.121-1.111a3.89,3.89,0,0,0-2.626-.1A1.431,1.431,0,0,0,232.2-13.13c0,.808.1,1.616.1,2.424.1,1.313.1,2.626.3,3.939a3.218,3.218,0,0,0,2.828,2.727C236.441-3.838,237.552-3.838,238.562-3.737Z" transform="matrix(0.999, -0.035, 0.035, 0.999, 917.377, 1908.189)"/>
    </g>
    <g id="Group_264" data-name="Group 264">
      <path id="Path_285" data-name="Path 285" d="M48.251,3.939.092,84l520.057-3.717L531.6.565Z" transform="translate(514.361 1727.378) rotate(-2)" fill="#ec385a" stroke="#000" stroke-width="1.5"/>
      <path id="Path_286" data-name="Path 286" d="M0,3.038l62.371,80.43,539.549-2.626L613.516.922Z" transform="translate(425.428 1723.004) rotate(-2)" fill="#fec62e" stroke="#000" stroke-width="1.5"/>
      <path id="Path_567" data-name="Path 567" d="M.224,0h6.5l1.6-4.032h8.672L18.592,0h6.656L15.712-22.56H9.728Zm9.92-8.864L12.672-15.2l2.5,6.336ZM27.424,0h6.144V-12.288L43.168,0h5.408V-22.4H42.432v11.84L33.216-22.4H27.424Zm25.12,0h8.544C69.12,0,73.824-4.8,73.824-11.264v-.064c0-6.464-4.64-11.072-12.608-11.072H52.544ZM61.28-16.928c3.744,0,6.208,2.112,6.208,5.7v.064c0,3.616-2.464,5.664-6.208,5.664H58.752V-16.928ZM97.216.448a11.734,11.734,0,0,0,12.1-11.648v-.064c0-6.432-5.12-11.584-12.032-11.584A11.734,11.734,0,0,0,85.184-11.2v.064C85.184-4.7,90.3.448,97.216.448Zm.064-5.6A5.821,5.821,0,0,1,91.52-11.2v-.064a5.715,5.715,0,0,1,5.7-5.984,5.776,5.776,0,0,1,5.728,6.048v.064A5.709,5.709,0,0,1,97.28-5.152ZM112.512,0h6.208V-8h10.592v-5.152H118.72V-16.96h11.712V-22.4h-17.92ZM152.96.448a11.278,11.278,0,0,0,9.888-5.056l-4.672-3.328c-1.344,1.632-2.72,2.72-5.056,2.72-3.136,0-5.344-2.624-5.344-5.984v-.064c0-3.264,2.208-5.952,5.344-5.952a6.081,6.081,0,0,1,4.9,2.624l4.672-3.616a11.023,11.023,0,0,0-9.5-4.64A11.48,11.48,0,0,0,141.408-11.2v.064A11.375,11.375,0,0,0,152.96.448Zm23.232,0a11.734,11.734,0,0,0,12.1-11.648v-.064c0-6.432-5.12-11.584-12.032-11.584A11.734,11.734,0,0,0,164.16-11.2v.064C164.16-4.7,169.28.448,176.192.448Zm.064-5.6A5.821,5.821,0,0,1,170.5-11.2v-.064a5.715,5.715,0,0,1,5.7-5.984A5.776,5.776,0,0,1,181.92-11.2v.064A5.708,5.708,0,0,1,176.256-5.152ZM201.568.416c6.368,0,10.5-3.2,10.5-10.4V-22.4h-6.272V-9.792c0,3.136-1.632,4.608-4.16,4.608-2.5,0-4.128-1.536-4.128-4.768V-22.4h-6.272V-9.824C191.232-2.816,195.232.416,201.568.416ZM215.744,0h6.208V-6.784H224.7L229.216,0h7.136l-5.344-7.808a7.1,7.1,0,0,0,4.608-6.912v-.064A6.994,6.994,0,0,0,233.632-20c-1.5-1.5-3.872-2.4-7.3-2.4H215.744Zm6.208-11.648v-5.408h4.1c2.048,0,3.36.9,3.36,2.688v.064c0,1.632-1.248,2.656-3.328,2.656ZM247.552.384c5.44,0,9.056-2.72,9.056-7.3v-.064c0-4.192-3.2-5.856-8.32-6.976-3.136-.7-3.9-1.152-3.9-2.176v-.064c0-.832.736-1.44,2.24-1.44a11,11,0,0,1,6.272,2.208l3.1-4.384a14.1,14.1,0,0,0-9.216-2.976c-5.376,0-8.672,3.008-8.672,7.168v.064c0,4.576,3.68,5.92,8.448,7.008,3.072.736,3.808,1.216,3.808,2.176V-6.3c0,.96-.9,1.536-2.592,1.536a11.6,11.6,0,0,1-7.264-2.688l-3.456,4.128A15.706,15.706,0,0,0,247.552.384ZM259.616,0h18.176V-5.28H265.76V-8.832h10.752v-4.9H265.76v-3.424h11.872V-22.4H259.616Zm38.72,0h6.176V-6.144h-6.176Zm-8.96,0h6.176V-6.144h-6.176Zm-8.96,0h6.176V-6.144h-6.176Z" transform="translate(684 1768) rotate(-2)"/>
    </g>
  </g>
</svg>
