<svg xmlns="http://www.w3.org/2000/svg" xmlns:xlink="http://www.w3.org/1999/xlink" width="62.625" height="62.556" viewBox="0 0 62.625 62.556">
  <defs>
    <clipPath id="clip-path">
      <rect id="Rectangle_1036" data-name="Rectangle 1036" width="62.625" height="62.556" fill="none"/>
    </clipPath>
  </defs>
  <g id="Group_253" data-name="Group 253" transform="translate(0)">
    <g id="Group_252" data-name="Group 252" transform="translate(0)" clip-path="url(#clip-path)">
      <path id="Path_562" data-name="Path 562" d="M63.536,33.092A30.733,30.733,0,1,1,32.8,2.359,30.733,30.733,0,0,1,63.536,33.092" transform="translate(-1.488 -1.696)" fill="#f595bc"/>
      <path id="Path_563" data-name="Path 563" d="M83.5,60.465c0,1.2,0,2.4,0,3.594a5.39,5.39,0,0,0,.053,1.129,22.407,22.407,0,0,1,.258,3.409,12.7,12.7,0,0,1-.282,3.959,17.4,17.4,0,0,0-.308,2.333,12.3,12.3,0,0,0-.193,2.368,15.887,15.887,0,0,1-.024,2.311,7.36,7.36,0,0,1-.427,2.379c-.179.444-.3.911-.451,1.367a5.086,5.086,0,0,1-1.029,1.77,14.139,14.139,0,0,1-2.344,2.179,5.1,5.1,0,0,1-3.351.872c-1.07-.049-2.144-.022-3.216-.026a21.284,21.284,0,0,1-3.458-.052c-1.152-.2-2.286.015-3.419-.13-.834-.107-1.672-.184-2.507-.279a2.2,2.2,0,0,0-.321-.075,19.469,19.469,0,0,1-6.464-.816,12.589,12.589,0,0,1-2.055-.723,4.42,4.42,0,0,1-.747-.483,1.356,1.356,0,0,0-.27-.183,3.871,3.871,0,0,1-2.775-2.829,12.261,12.261,0,0,1-.649-3.565c-.132-1.623-.015-3.236-.03-4.853-.02-2.092.018-4.184.016-6.276,0-.753-.055-1.505-.065-2.258a9.447,9.447,0,0,1,.045-1.419c.158-1.142.32-2.286.555-3.414a8.3,8.3,0,0,1,1.445-3.5c.32-.413.542-.891.854-1.323a4.975,4.975,0,0,1,2.621-1.6,8.442,8.442,0,0,1,3.489-.452,6.949,6.949,0,0,0,1.078-.078c1.057-.1,2.113-.2,3.172-.29.478-.039.961-.051,1.441-.047,1.66.013,3.32.025,4.98.065,1.155.027,2.311.065,3.461.158A22.45,22.45,0,0,1,78.3,54.752a5.346,5.346,0,0,0,1.246.183,4.389,4.389,0,0,1,3.013,1.854,5.133,5.133,0,0,1,.945,3.676M71.108,64.81l-.019-.015c.034.072.048.173.1.213a7.414,7.414,0,0,1,1.973,1.683,1.109,1.109,0,0,0,1.114.426,20.039,20.039,0,0,1,4.628-.25,2.673,2.673,0,0,0,.591-.048.346.346,0,0,0,.317-.489c-.486-1.428-.248-2.915-.365-4.372-.058-.728-.006-1.463-.046-2.193-.045-.836-.238-1.08-1.041-1.285-.9-.231-1.809-.423-2.718-.612a14.118,14.118,0,0,0-2.538-.346c-.947-.023-1.889-.214-2.837-.257-1.128-.051-2.259-.035-3.388-.021-.744.009-1.486.1-2.229.091-.656-.006-1.3.1-1.934.15-.585.044-1.247.382-1.86-.051a.659.659,0,0,0-.574.033,4.01,4.01,0,0,1-1.861.264,9.047,9.047,0,0,0-3.33.553c-.174.084-.417.161-.486.308a11.923,11.923,0,0,0-1.071,2.555c-.3,1.5-.4,3.045-.569,4.572a2.244,2.244,0,0,0,.095.572c1.133.041,2.2.093,3.276.116a7.234,7.234,0,0,1,2.678.112c.11.044.426-.168.494-.326a4.454,4.454,0,0,1,2.04-2.143,5.389,5.389,0,0,1,2.985-1.007,28.3,28.3,0,0,1,3.261.348,5.036,5.036,0,0,1,3,1.286c.07.075.2.09.31.133M58.054,69.1c-.791,0-1.6.044-2.41-.012a9,9,0,0,0-2.611.245c-.35.079-.486.241-.483.571,0,.508,0,1.017.014,1.524.114,3.1-.167,6.209.4,9.3a3.1,3.1,0,0,0,1.871,2.42A13.164,13.164,0,0,0,58.5,84.285a33.334,33.334,0,0,0,3.5.494,6.559,6.559,0,0,1,1.569.191,1.023,1.023,0,0,0,.33.016c.664-.027,1.33-.1,1.992-.077.862.026,1.721.148,2.583.181.82.031,1.644-.023,2.465.005a5.935,5.935,0,0,0,1.562.146,6.933,6.933,0,0,1,2.167.009A3.87,3.87,0,0,0,78.111,84c.231-.285.52-.524.746-.812a2.767,2.767,0,0,0,.336-.64c.761-1.809.482-3.714.419-5.577a25.5,25.5,0,0,1,.378-5.051,2.9,2.9,0,0,0,0-1.746l-5.277-.64c0,.457-.008.844,0,1.23a8.144,8.144,0,0,1-2.2,5.519A24.876,24.876,0,0,1,69.512,79a2.734,2.734,0,0,1-2.279.743,15.617,15.617,0,0,1-2.525-.463,18.346,18.346,0,0,1-3.084-1.091,12.94,12.94,0,0,1-2.844-2.521,2.7,2.7,0,0,1-.689-1.109,7.163,7.163,0,0,1-.274-1.985c.019-1.15.151-2.3.237-3.472m12.42.579c-.493-.456-.909-.855-1.341-1.237a3.088,3.088,0,0,0-1.8-1.063c-.684-.053-1.352-.279-2.033-.387a2.075,2.075,0,0,0-2.158.84,11.657,11.657,0,0,0-1.048,2.457,7.8,7.8,0,0,0-.156,3.066,1.4,1.4,0,0,0,.975,1.352,3.581,3.581,0,0,1,1.332.845,2.782,2.782,0,0,0,1.387.567,3.8,3.8,0,0,0,1.9.073,5.37,5.37,0,0,0,1.5-1.343,1.729,1.729,0,0,0,.366-.547c.163-.387.268-.8.431-1.184a7.437,7.437,0,0,0,.639-3.441" transform="translate(-35.551 -38.449)"/>
      <path id="Path_564" data-name="Path 564" d="M128.257,79.183a2.72,2.72,0,0,1-.455-1.919,6.331,6.331,0,0,1,.329-1.438,1.857,1.857,0,0,1,1.545-1.248,5.13,5.13,0,0,1,1.9-.287c.19.036.417-.008.571.082a13.719,13.719,0,0,1,1.343.893,1.673,1.673,0,0,1,.541,1.94,5.588,5.588,0,0,1-1,2.009,2.9,2.9,0,0,1-1.532,1.008,2.715,2.715,0,0,1-1.2-.088,4.344,4.344,0,0,1-1.721-.836,1.207,1.207,0,0,0-.332-.13l.016.013m3.251-2.149a5.579,5.579,0,0,0-.925.015.485.485,0,0,0-.331.314.571.571,0,0,0,.246.4,1.969,1.969,0,0,0,.536.181l.473-.909" transform="translate(-91.888 -53.399)"/>
      <path id="Path_565" data-name="Path 565" d="M25.648.39c1.143-.11,2-.21,2.86-.271a25.205,25.205,0,0,1,5.619.075c1.265.192,2.553.267,3.8.534a12.142,12.142,0,0,1,2.47.684c.885.395,1.854.6,2.769.933.63.23,1.235.532,1.841.821a16.436,16.436,0,0,1,1.5.774c1,.607,1.975,1.244,2.957,1.875.417.268.832.54,1.23.835.564.419,1.126.844,1.658,1.3a3.448,3.448,0,0,1,.5.687c.055.08.082.221.152.244a2.035,2.035,0,0,1,1.337,1.278.287.287,0,0,0,.156.165c.561.148.7.755,1.147,1.029a.216.216,0,0,1,.051.06c.668.916,1.362,1.815,2,2.754a26.635,26.635,0,0,1,2.879,5.447,31.567,31.567,0,0,1,1.6,5.777,28.548,28.548,0,0,1,.448,4.374c.027,1.342-.026,2.688-.1,4.029a20.13,20.13,0,0,1-.713,4.257,49.069,49.069,0,0,1-1.535,4.84,33.183,33.183,0,0,1-1.8,3.721,4.945,4.945,0,0,1-1.261,1.91c-.24.172-.258.552-.47.83q-1.127,1.48-2.382,2.844a7.069,7.069,0,0,1-1.781,1.775c-.214.112-.326.405-.52.573-.467.4-.985.752-1.43,1.177a17.993,17.993,0,0,1-2.315,1.663,12.842,12.842,0,0,1-2.579,1.488c-.564.221-1.058.617-1.618.85a33.063,33.063,0,0,1-3.257,1.218c-.762.226-1.518.448-2.27.713a14.657,14.657,0,0,1-2.425.459,7.8,7.8,0,0,1-1.311.181,16.313,16.313,0,0,0-2.681.175,9.486,9.486,0,0,1-2.636-.022,3.835,3.835,0,0,1-1.571-.246c-.317-.177-.791-.067-1.193-.1a13.657,13.657,0,0,1-3.343-.63,23.455,23.455,0,0,1-2.613-.7c-.788-.378-1.622-.609-2.413-.947a28.95,28.95,0,0,1-3.026-1.575,24.444,24.444,0,0,1-2.185-1.434c-.795-.577-1.574-1.181-2.319-1.82a31.08,31.08,0,0,1-4.338-4.572A29.692,29.692,0,0,1,3.99,46.615a35.587,35.587,0,0,1-1.945-4.254A31.029,31.029,0,0,1,0,31.418,29.833,29.833,0,0,1,.8,24.1a51.691,51.691,0,0,1,1.7-5.247c.392-1.032,1.062-1.955,1.539-2.96a19.947,19.947,0,0,1,1.89-3.033A24.889,24.889,0,0,1,9.633,8.65c.764-.674,1.5-1.377,2.3-2.007a23.842,23.842,0,0,1,4.135-2.8c1.357-.67,2.686-1.4,4.076-1.995A9.862,9.862,0,0,1,23.092.94,2.646,2.646,0,0,0,24.17.612,3.211,3.211,0,0,1,25.648.39m-1.9,4.119c-.345.152-.553.246-.764.335a5.043,5.043,0,0,1-.689.277,15.052,15.052,0,0,0-3.72,1.46c-.651.369-1.353.647-2.03.97a1.389,1.389,0,0,0-.185.139c-.526.375-1.056.746-1.58,1.124a24.12,24.12,0,0,0-2.118,1.563c-.8.725-1.523,1.539-2.256,2.336A21.264,21.264,0,0,0,7.749,16.2c-.415.7-1.141,1.193-1.256,2.1-.044.352-.443.644-.588,1-.361.884-.685,1.783-.994,2.687-.369,1.084-.68,2.188-1.067,3.265-.242.673-.25,1.384-.435,2.071a23.961,23.961,0,0,0-.187,2.754,16.946,16.946,0,0,0,.115,4.451A26.314,26.314,0,0,0,5.02,41.322a25.268,25.268,0,0,0,1.6,3.476,30.561,30.561,0,0,0,1.661,2.689,31.724,31.724,0,0,0,3.379,3.959,30.056,30.056,0,0,0,4.535,3.561c.537.349,1.091.675,1.653.985.424.234.87.428,1.309.635q1.156.544,2.317,1.078a1.548,1.548,0,0,0,.232.044c.424.116.854.218,1.271.357a9.05,9.05,0,0,0,1.509.542,39.918,39.918,0,0,0,4.87.652c1.168.019,2.336.11,3.5.123.324,0,.65-.22.977-.225a19.987,19.987,0,0,0,5.129-.9,31.236,31.236,0,0,0,3.5-1.277,26.661,26.661,0,0,0,7.535-4.824,31.826,31.826,0,0,0,3.2-3.483,19.777,19.777,0,0,0,2.22-3.31,29.283,29.283,0,0,0,2.246-5.036,30.316,30.316,0,0,0,1.211-5.507,24.044,24.044,0,0,0-.028-6.4,22.974,22.974,0,0,0-.457-2.915c-.449-1.57-.991-3.119-1.587-4.64a22.729,22.729,0,0,0-3.368-6.037,3.408,3.408,0,0,1-.8-1.13c-.176-.752-1.044-.886-1.222-1.579-.574-.21-.81-.76-1.178-1.177-.085-.1-.126-.31-.2-.318-.6-.065-.908-.555-1.275-.912-.53-.514-1.33-.715-1.661-1.47-.062-.14-.357-.182-.548-.259a1.714,1.714,0,0,1-.363-.117,19.367,19.367,0,0,0-3.357-2.017A8.09,8.09,0,0,0,40,4.867a4.435,4.435,0,0,1-1.332-.516c-.577-.247-1.213-.229-1.812-.48a2.223,2.223,0,0,0-1.686-.214c-.151.059-.36-.048-.543-.054a29.165,29.165,0,0,0-2.942-.226c-.847.056-1.7.095-2.543.127a3.739,3.739,0,0,0-.744-.037c-.932.245-1.85.547-2.781.8-.233.063-.578-.087-.729.035a1.179,1.179,0,0,1-1.147.209" transform="translate(0 0)"/>
    </g>
  </g>
</svg>
