<svg xmlns="http://www.w3.org/2000/svg" width="95.115" height="51.387" viewBox="0 0 95.115 51.387">
  <g id="Group_245" data-name="Group 245" transform="translate(-147.442 -141.796)">
    <g id="Path_262" data-name="Path 262" transform="matrix(0.999, -0.035, 0.035, 0.999, 152.54, 150.376)" fill="#ec385a">
      <path d="M 0.8609704971313477 42.07846450805664 L 6.530912399291992 0.9169992208480835 L 87.71387481689453 0.7517572641372681 L 81.96555328369141 41.68868255615234 L 0.8609704971313477 42.07846450805664 Z" stroke="none"/>
      <path d="M 86.85096740722656 1.503520965576172 L 7.184852600097656 1.665660858154297 L 1.721923828125 41.32430648803711 L 81.31307983398438 40.94180297851562 L 86.85096740722656 1.503520965576172 M 88.57680511474609 3.814697265625e-06 L 82.6180419921875 42.43555450439453 L 0 42.83260345458984 L 5.876953125 0.1683158874511719 L 88.57680511474609 3.814697265625e-06 Z" stroke="none" fill="#000"/>
    </g>
    <g id="Path_261" data-name="Path 261" transform="matrix(0.999, -0.035, 0.035, 0.999, 147.442, 144.887)" fill="#fd7757">
      <path d="M 0.8609704971313477 42.07846450805664 L 6.530912399291992 0.9169992208480835 L 87.71387481689453 0.7517572641372681 L 81.96555328369141 41.68868255615234 L 0.8609704971313477 42.07846450805664 Z" stroke="none"/>
      <path d="M 86.85096740722656 1.503520965576172 L 7.184852600097656 1.665660858154297 L 1.721923828125 41.32430648803711 L 81.31307983398438 40.94180297851562 L 86.85096740722656 1.503520965576172 M 88.57680511474609 3.814697265625e-06 L 82.6180419921875 42.43555450439453 L 0 42.83260345458984 L 5.876953125 0.1683158874511719 L 88.57680511474609 3.814697265625e-06 Z" stroke="none" fill="#000"/>
    </g>
    <path id="Path_549" data-name="Path 549" d="M1.742,0H6.786V-18.2H1.742ZM14.56,0H19.6V-13.78h5.46V-18.2H9.126v4.42H14.56ZM26.676-8.788c3.25-.1,5.33-1.43,5.33-5.278V-18.2H26.884v5.07h2c.052,1.4-.858,2.236-2.6,2.444ZM41.808.312c4.42,0,7.358-2.21,7.358-5.928v-.052c0-3.406-2.6-4.758-6.76-5.668-2.548-.572-3.172-.936-3.172-1.768v-.052c0-.676.6-1.17,1.82-1.17a8.934,8.934,0,0,1,5.1,1.794l2.522-3.562a11.455,11.455,0,0,0-7.488-2.418c-4.368,0-7.046,2.444-7.046,5.824v.052c0,3.718,2.99,4.81,6.864,5.694,2.5.6,3.094.988,3.094,1.768v.052c0,.78-.728,1.248-2.106,1.248a9.429,9.429,0,0,1-5.9-2.184L33.28-2.7A12.761,12.761,0,0,0,41.808.312Z" transform="matrix(0.999, -0.035, 0.035, 0.999, 169.801, 174.48)"/>
  </g>
</svg>
