<?xml version="1.0" encoding="UTF-8"?>
<svg id="Capa_1" xmlns="http://www.w3.org/2000/svg" version="1.1" viewBox="0 0 143.6 146.1">
  <!-- Generator: Adobe Illustrator 29.1.0, SVG Export Plug-In . SVG Version: 2.1.0 Build 142)  -->
  <defs>
    <style>
      .st0 {
        fill: #fcfdfc;
      }

      .st1 {
        fill: #a9ebe2;
        stroke: #000;
        stroke-miterlimit: 4;
        stroke-width: 1.5px;
      }

      .st2 {
        fill: #b8cdce;
      }

      .st3 {
        fill: #1e4941;
      }

      .st4 {
        fill: #52d290;
      }

      .st5 {
        fill: #278c66;
      }
    </style>
  </defs>
  <g id="Group_262">
    <path id="Path_294" class="st1" d="M137.2,45.6c10.8,57.4,3.1,72.5-22.6,90.7-25.8,18.2-104.9,3-110.8-37.6S7.6,34.1,26.7,16C45.8-2.1,126.4-11.8,137.2,45.6Z"/>
  </g>
  <g>
    <path class="st3" d="M87,21.1c28.5-3.7,44.5,29.1,27.1,51-9.7,12.2-25.4,28.7-36.6,39.9-2.5,2.5-5.5,5.7-8.4,7.6-29.5,19.5-63.6-18.3-37.5-48.8,10.2-11.9,27-31.3,38.5-41.2,4.7-4,10.5-7.6,16.8-8.5ZM85.8,82.8c1.3,1.1,5.3,5.8,6.7,5,6.6-9.7,20.4-17.8,23.1-29.5s-.9-21-9.8-27.4-2.9-2.6-6-3.6c-21.3-7-31.8,13.1-44.5,25.9,10.3,9.7,20,20.2,30.6,29.6ZM29.9,103.4s-.7,0-.6.4c1.9,7.2,10,13.8,17.1,15.4,20,4.4,29-13.9,41.1-25.8,1.1-2.2-4-3.6-5-4.6-9-8.6-17.5-19.4-27.2-27.6-.7-.6-3.7-3-4.2-2.9-4.9,6.1-11.9,11.4-16.7,17.2-4.9,6-7.9,13-7,21s1.9,4.5,2.7,7Z"/>
    <path class="st0" d="M105.7,30.9c0,2.7,2.1,4.3,3,6.7,2.4,6.2,2.4,14.2-.3,20.3s-14.8,18.5-19.9,23.3-1.4,1.7-2.7,1.6c-10.5-9.4-20.2-19.9-30.6-29.6,12.7-12.8,23.1-32.9,44.5-25.9,3.1,1,3.7,2,6,3.6Z"/>
    <path class="st4" d="M82.5,88.8c-8.6,6-16,20.7-26.3,23.2-10.4,2.6-19.1-1.2-26.2-8.6-.7-2.5-2.3-3.9-2.7-7-.9-7.9,2-15,7-21,4.8-5.8,11.8-11.2,16.7-17.2.6,0,3.5,2.3,4.2,2.9,9.7,8.2,18.3,19,27.2,27.6ZM41.2,83.5c-1.1-.2-1.8.6-2.4,1.3-3.5,4.2,3.3,3.3,2.4-1.3ZM37.9,90.8h-2c.4,2.6-1.5,11.3,2.7,9.6l-.7-9.6ZM42.6,107.4c1.1-1.1-2.2-4.4-3.3-3.3s2.2,4.4,3.3,3.3Z"/>
    <path class="st5" d="M29.9,103.4c7.1,7.4,15.8,11.2,26.2,8.6,10.3-2.6,17.7-17.2,26.3-23.2,1,1,6.1,2.4,5,4.6-12.1,11.9-21.1,30.2-41.1,25.8-7.1-1.6-15.2-8.3-17.1-15.4s.6-.3.6-.4Z"/>
    <path class="st2" d="M85.8,82.8c1.3,0,1.8-.9,2.7-1.6,5.2-4.8,17.3-17.3,19.9-23.3s2.7-14.1.3-20.3-3-4-3-6.7c8.9,6.4,12.3,16.5,9.8,27.4s-16.5,19.8-23.1,29.5c-1.4.7-5.4-3.9-6.7-5Z"/>
    <path class="st0" d="M37.9,90.8l.7,9.6c-4.2,1.7-2.2-7-2.7-9.6h2Z"/>
    <path class="st2" d="M41.2,83.5c.9,4.6-5.8,5.5-2.4,1.3.6-.7,1.3-1.5,2.4-1.3Z"/>
    <path class="st0" d="M42.6,107.4c-1.1,1.1-4.4-2.2-3.3-3.3s4.4,2.2,3.3,3.3Z"/>
  </g>
</svg>