<svg xmlns="http://www.w3.org/2000/svg" xmlns:xlink="http://www.w3.org/1999/xlink" width="42.133" height="53.958" viewBox="0 0 42.133 53.958"><defs><clipPath id="a"><rect width="42.133" height="53.959" fill="#fec62e" stroke="#000" stroke-width="1.5"/></clipPath></defs><g transform="translate(-137.137 -416.164)"><path d="M5960.561,474.077h23.791l10.378-.865,1.065,22.088.868,16.15-9.32,2.29-29.29-3.66.875-20.483.863-14.4Z" transform="translate(-5819.353 -44.151)" fill="#fd7757"/><g transform="translate(137.137 416.164)"><g clip-path="url(#a)"><path d="M14.245,52.695l.048,0c1.1.107,2.289.218,3.5.306.481.035.971.056,1.444.077.492.022,1,.044,1.5.081s.984.091,1.463.144c.39.043.794.087,1.193.122,1.159.1,2.314.184,3.493.268.653.047,1.347.089,2.251.136.471.025.951.043,1.414.06l.4.015c.133.005.266.013.4.022.22.014.446.027.672.027.092,0,.185,0,.277-.008a29.785,29.785,0,0,0,5.648-.874,16.363,16.363,0,0,1,2.392-.469,2.589,2.589,0,0,0,1.43-.673,1.081,1.081,0,0,0,.333-1.09c-.054-.286-.112-.572-.17-.858-.084-.415-.172-.845-.243-1.269l-.151-.895c-.253-1.5-.515-3.044-.734-4.571-.222-1.551-.43-3.223-.673-5.421-.23-2.081-.447-4.311-.471-6.51-.005-.474-.025-.955-.044-1.42-.017-.426-.035-.867-.042-1.3-.006-.4,0-.806,0-1.2.006-.571.012-1.161-.014-1.741-.045-1.024-.127-2.063-.207-3.068q-.03-.383-.06-.766c-.037-.479-.078-.957-.12-1.435-.059-.676-.12-1.374-.165-2.062-.071-1.08-.124-2.209-.157-3.356-.01-.334,0-.676.008-1.006.01-.382.02-.778,0-1.168a1.58,1.58,0,0,0-1.816-1.59c-.359.029-.72.089-1.068.146-.246.04-.5.082-.75.113-1.935.236-3.917.467-5.666.671h-.013q-.066-.31-.129-.613c-.1-.5-.2-.972-.316-1.449q-.1-.426-.2-.853c-.209-.908-.424-1.847-.694-2.756a6.406,6.406,0,0,0-2.438-3.682A4.275,4.275,0,0,0,22.24,1.99a.6.6,0,0,1-.628-.215A6.086,6.086,0,0,0,19.553.392a5.4,5.4,0,0,0-4.535.234,6.887,6.887,0,0,0-3.5,4.254,11.168,11.168,0,0,0-.549,2.93c-.054,1.075-.03,2.143,0,3.273.01.445.02.9.026,1.37l-.085.01c-.148.017-.3.035-.451.039q-.932.028-1.865.052c-.954.025-1.941.052-2.912.085-.709.025-1.355.07-1.973.139-.7.078-.958.365-.978,1.094l-.01.4c-.013.539-.027,1.1-.054,1.643l-.032.666c-.045.953-.092,1.938-.173,2.9-.068.811-.157,1.635-.244,2.432-.065.6-.133,1.223-.19,1.836s-.106,1.219-.153,1.813c-.056.713-.115,1.45-.188,2.172-.081.8-.177,1.62-.27,2.409s-.187,1.591-.268,2.389c-.182,1.79-.338,3.576-.5,5.4q-.051.594-.1,1.188c-.135,1.534-.276,3.12-.371,4.684C.115,44.846.087,45.9.06,46.928.043,47.542.026,48.177,0,48.8a1.686,1.686,0,0,0,1.512,1.912q.908.176,1.816.355c1.258.247,2.559.5,3.843.736.968.176,2.009.331,3.277.488s2.55.281,3.795.4M4.38,18.786v-.075a19.427,19.427,0,0,0-.228-2.467c-.047-.343-.095-.7-.134-1.047-.017-.156-.043-.312-.073-.491-.008-.049-.016-.1-.025-.152l.421,0c.394,0,.766,0,1.139,0,1.96.048,3.569.095,5.063.146a2.514,2.514,0,0,1,.48.08l.121.028q.114.413.224.814c.216.787.42,1.53.642,2.279a2.74,2.74,0,0,0,.283.59c.036.061.071.122.1.183a.659.659,0,0,0,1.268-.311c0-.149,0-.3,0-.446,0-.294.009-.6,0-.9-.022-.542-.055-1.075-.09-1.639q-.018-.295-.036-.6l.405-.031c.376-.03.731-.058,1.087-.063.426-.005.86,0,1.28.013.339.007.689.009,1.034.015.716,0,1.433-.005,2.149-.01.621,0,1.242-.009,1.864-.01a.584.584,0,0,1,.325.055.646.646,0,0,1,.044.357l-.008.238a11.913,11.913,0,0,0,.022,1.672,1.67,1.67,0,0,0,.486.911,1,1,0,0,0,1.485-.066,2.281,2.281,0,0,0,.585-1.638c.018-.322.014-.644.009-.984,0-.115,0-.232,0-.352l5.394-.124q-.025.149-.051.3c-.055.323-.112.656-.16.986-.084.577-.173,1.155-.261,1.732-.217,1.412-.442,2.873-.587,4.319a41.442,41.442,0,0,0-.248,5.054c.042,1.743.055,3.516.067,5.231.007,1,.015,2.026.028,3.038.007.555.024,1.119.041,1.664.02.652.041,1.326.044,1.988,0,.575-.012,1.161-.026,1.728s-.028,1.138-.026,1.708c0,1.177.024,2.373.044,3.529q.014.867.027,1.733.011.842.019,1.684.005.526.011,1.053c0,.059,0,.24-.032.275a.8.8,0,0,1-.327.027c-.529-.013-1.065-.013-1.586-.013h-.037c-.48,0-.979,0-1.467-.01-1.331-.027-2.522-.065-3.643-.117-.789-.037-1.59-.1-2.366-.17l-.366-.031c-1.946-.163-3.959-.332-5.937-.512q-1.457-.133-2.913-.276c-1.2-.116-2.435-.235-3.654-.342-.654-.057-1.32-.091-1.963-.125-.352-.018-.7-.036-1.056-.058-.151-.009-.3-.027-.472-.047l-.15-.018c0-.129,0-.255,0-.379,0-.348,0-.676,0-1.007q.007-.385.012-.77c.011-.781.022-1.59.063-2.381.082-1.576.192-3.178.3-4.727l.026-.382c.112-1.634.211-3.008.329-4.4.058-.687.126-1.384.191-2.059.088-.91.18-1.85.249-2.778.062-.842.109-1.7.155-2.528.067-1.215.135-2.47.254-3.7a50.975,50.975,0,0,0,.145-5.2m14.007-6.808c.084-.365.162-.738.238-1.1a23.183,23.183,0,0,1,.7-2.778,7.412,7.412,0,0,1,1.715-2.7,13.956,13.956,0,0,1,.8,6.978H18.383c0-.037,0-.072,0-.106a1.16,1.16,0,0,1,.008-.3m1.028-8.207c-.243.285-.493.581-.722.886a8.978,8.978,0,0,0-1.586,3.386c-.3,1.3-.539,2.634-.772,3.924l0,.017c-.058.318-.122.4-.328.4-.59,0-1.179,0-1.812,0H13.5q.012-.423.023-.836c.02-.738.038-1.436.069-2.144.035-.81.086-1.633.152-2.446a5.68,5.68,0,0,1,1.885-3.841,2.973,2.973,0,0,1,1.943-.631,2.544,2.544,0,0,1,2.105.975q-.132.158-.265.313m5.645,8.742c-.172-.012-.349-.023-.525-.031,0-.346,0-.688.008-1.027.009-.9.018-1.746-.024-2.607A13.341,13.341,0,0,0,24.148,6.4a15.467,15.467,0,0,0-.5-1.592c-.064-.18-.128-.362-.192-.547a1.716,1.716,0,0,1,1.172.729,10.33,10.33,0,0,1,1.042,1.947,12.933,12.933,0,0,1,.551,1.934l.03.131c.19.826.36,1.64.54,2.5q.1.477.2.961a7.251,7.251,0,0,1-1.928.046m11.433,6.4c.038,1.226.1,2.47.158,3.674.054,1.1.11,2.229.148,3.344.035,1.016.051,2.05.067,3.05.018,1.12.037,2.279.081,3.418.032.84.115,1.69.2,2.512.04.415.082.843.117,1.265.031.376.058.752.085,1.127.044.612.09,1.245.152,1.866.051.506.12,1.017.187,1.511.05.37.1.752.145,1.128.027.231.042.47.058.7.021.32.043.651.095.975.118.738.253,1.485.384,2.208.084.463.168.926.248,1.389a3.532,3.532,0,0,1,.036.455l0,.1-.157-.1a6,6,0,0,1-.537-.382c-.234-.195-.466-.4-.691-.6-.241-.214-.49-.435-.743-.645a.855.855,0,0,1-.355-.679q-.014-.424-.027-.848c-.034-1.105-.07-2.248-.137-3.371-.032-.536-.1-1.078-.161-1.6-.045-.369-.091-.749-.124-1.124-.141-1.554-.274-3.134-.4-4.662l-.1-1.191c-.029-.339-.06-.679-.091-1.018-.077-.838-.156-1.7-.2-2.557-.073-1.487-.123-3.064-.163-5.112-.019-.954-.027-1.925-.035-2.863-.009-1.042-.018-2.119-.041-3.178-.012-.523-.072-1.052-.13-1.563-.021-.183-.042-.367-.061-.55-.051-.5-.051-.5.355-.684l.292-.135c.278-.13.565-.263.853-.38a1.747,1.747,0,0,1,.359-.084l.128-.022c0,.466,0,.924-.008,1.378-.008,1.122-.016,2.181.017,3.256m1.239,31.645a49.217,49.217,0,0,1-5.652,1.692l3.154-3.88Zm-4.79-34.391c-.091.944-.176,1.835-.252,2.739l-.048.573c-.11,1.3-.223,2.652-.289,3.982-.068,1.381-.087,2.649-.057,3.876.048,1.97.13,3.716.25,5.336.081,1.1.2,2.207.316,3.281.071.665.145,1.352.209,2.028.058.615.1,1.242.133,1.85q.02.334.042.668.042.637.08,1.273.047.764.1,1.527c.018.267.04.534.062.8.046.557.094,1.133.1,1.7a1.892,1.892,0,0,1-.278.922c-.506.856-1.045,1.712-1.567,2.54l-.391.621v-.408c0-.528,0-1.046,0-1.564V46.753c0-1.04,0-2.08-.006-3.12,0-.6-.011-1.2-.018-1.8-.009-.7-.018-1.424-.02-2.136,0-.485.005-.978.011-1.455.01-.735.019-1.494,0-2.242-.027-1.1-.075-2.209-.122-3.286-.029-.676-.059-1.352-.083-2.029l-.019-.5c-.037-.981-.074-2-.073-2.991,0-1.485.043-2.975.088-4.5.038-1.267.084-2.627.166-3.991.057-.94.133-1.859.215-2.832q.048-.577.1-1.162a2.742,2.742,0,0,1,1.473.26q-.057.609-.114,1.2" transform="translate(0 0)"/></g></g></g></svg>