<?xml version="1.0" encoding="utf-8"?>
<!-- Generator: Adobe Illustrator 27.7.0, SVG Export Plug-In . SVG Version: 6.00 Build 0)  -->
<svg version="1.1" id="Layer_0_xA0_Image_00000094615370646078487600000003410112933154936234_"
	 xmlns="http://www.w3.org/2000/svg" xmlns:xlink="http://www.w3.org/1999/xlink" x="0px" y="0px" viewBox="0 0 411.3 422.4"
	 style="enable-background:new 0 0 411.3 422.4;" xml:space="preserve">
<style type="text/css">
	.st0{fill:#EB7F60;}
</style>
<g>
	<path class="st0" d="M122.9,110.6c1.4,2.1,2.5,4.4,2.8,7c0.8,8.7,5,16,11.1,21.8c5.8,5.6,7.8,5.3,13.3,0.3c1.3-1.2,1.8-2.6,1.9-4.3
		c0.1-1.8-0.2-3.8,0.5-5.4c2.9-6.7,2.1-13.8,2.5-20.8c0.8-13.2-2.2-26.2-2.4-39.3c-0.1-4.4-1.8-8.6-1.4-12.9c0.4-4.9-1.5-9.2-3-13.5
		c-2.3-6.5-4.4-7.7-11.3-7.6c-6.2,0.1-6.8,0-9.4,3.6c-3.6,5.1-7.2,10.2-9.6,16.1c-4,9.9-2,20.3-3.7,30.4c-0.1,0.5,0.3,1,0.4,1.6
		C115.5,95.8,118.3,103.5,122.9,110.6z"/>
	<path class="st0" d="M69.3,191.7c-1.9-5.4-3.9-10.8-4.2-16.7c-0.3-6.4-2.8-12.1-5.9-17.5c-1.3-2.2-2.5-4.4-3.5-6.7
		c-2.1-4.6-4.7-8.9-8.6-12.2c-2.6-2.1-2.7-2.1-4.5,0.5c-1.2,1.7-1.8,3.6-1.5,5.6c0.3,2.6,0,5.1-0.2,7.6c-0.6,5-0.9,10.3,0.7,14.9
		c1.7,4.8,0.9,10.5,5.2,14.3c0.8,6.4,4.5,11.7,6.1,17.9c1.5,5.5,4.4,10.6,8.1,15.1c2.9,3.5,6.4,3.2,9.1-0.5c1.7-2.4,2.6-5.1,2.3-8.2
		C71.9,201,70.9,196.3,69.3,191.7z"/>
	<path class="st0" d="M231,114.7c1.7,6.4,5.3,11.3,9.5,16c2.9,3.2,5.5,3.1,8.2-0.1c4.9-5.7,9.4-11.8,11.6-19.1
		c1.6-5.2,3-10.4,6.9-14.5c0.4-0.5,0.6-1.3,0.7-2c0.1-2.8,1.2-5.2,2.2-7.7c1.3-3,2.8-6.1,3-9.3c0.5-8.4,4-16.5,2.3-25.1
		c-0.6-6.8-2.1-13.4-5.4-19.6c-1.6-3-4.2-4.2-7.7-4.1c-5,0.1-8.3,3.2-11.5,6.4c-2,2.1-3.6,4.7-5.8,6.5c-4.4,3.5-6.6,8.3-9,13.2
		c-3,5.9-3.9,12.4-6.7,18.3c-1.7,3.7-3.1,7.9-2.7,11.9C227.4,95.3,228.4,105.1,231,114.7z"/>
	<path class="st0" d="M321,299.2c-0.5-0.9,0.1-1.9-0.2-2.6c-1.6-3.7-2.4-7.5-3.5-11.3c-0.7-2.3-1.1-5.1-2.6-7
		c-3.5-4.3-5.2-9.4-7.3-14.4c-0.4-1-0.5-2.1-1.2-3c-8.3-10.1-13.7-22.5-24.4-30.6c-0.7-3.1-3.5-4-5.9-5.3c-2.1-1.1-4.4-1.8-5.8-3.9
		c-0.7-1-1.8-1.2-2.9-1.1c-1.4,0.2-2.4-0.7-3.4-1.4c-2.8-2-7.2-3.4-11.3-3.6c-0.5,0-1.1-0.3-1.5-0.5c-6.3-3.4-13.3-3-20.1-3.4
		c-1.2-0.1-2.8-0.8-3.7-0.3c-6.2,3.3-13.1,1.5-19.5,2.9c-7,1.5-14.1,2.1-20.6,5.7c-5.1,2.9-9.7,6.5-14.7,9.6
		c-1.1,0.6-2.4,1.5-2.7,2.6c-0.8,2.5-2.9,3-4.7,4.1c-8.5,5.1-17.1,10.2-22,19.4c-1,1.8-2.2,3.3-3.4,4.9
		c-5.5,7.2-10.1,14.9-14.5,22.8c-1.7,3.1-3.1,6.5-4.1,9.7c-0.9,2.6-1.8,5.3-2.8,7.9c-3.1,7.9-8,15-10.1,23.5
		c-1.5,5.9-3.8,11.7-2.3,18.7c-1.3,4.1-0.1,8.7,0.5,13.4c0.8,6.6,2.2,12.9,5.6,18.9c3.7,6.3,14.5,10.5,21.1,4.3
		c0.5-0.4,1.3-0.7,2-0.7c4.8-0.2,7.7-3.3,10.6-6.7c3-3.6,5.5-7.7,10-10c2.6-1.3,4.3-4.3,7.7-4.3c2-4.1,6.7-5.4,9.3-8.9
		c3.1-4.3,7.7-7,12-9.7c4.6-2.8,9.7-4.8,14.3-7.8c3.8-2.5,8.3-3.5,12.6-3.9c9.7-0.9,19.5-1.1,29.2-1.5c2.7-0.1,5.5,0.3,8.1,0.9
		c5.1,1.2,9.7,3.4,14.4,6c6.6,3.7,13.3,7,18.3,12.9c0.4,0.5,1.3,1.2,1.8,1c3-0.6,4.3,1.1,6.2,3.1c1.5,1.6,3.6,3,6.5,3.4
		c2.8,0.3,5.9,1,8.4,3c1.7,1.3,4.2,2.4,6.5,0.6c3.1-2.4,7.1-3.3,10-6.2c1.1-1.1,2.1-2,2.5-3.4c1.1-4.1,3.3-8.1,1.7-12.7
		c-0.4-1,0.1-2.2,0.7-3.1c1.5-2,1.2-4.1,0.9-6.3C325.4,316.2,325.7,307.1,321,299.2z"/>
	<path class="st0" d="M369.7,102.5c-0.3-1.4-0.6-2.9-1.1-4.2c-1.2-2.8-4.3-3.4-6-1.1c-1.1,1.6-2.6,2.5-3.9,3.7
		c-2.5,2.3-4.9,4.7-6.3,7.9c-2,4.9-4.9,9.2-9.1,12.6c-1.5,1.2-2.5,2.6-2.8,4.5c-1,6.6-0.8,13.2,0,19.8c0.9,8.2-0.2,16.6,1.4,24.7
		c0,0.2-0.1,0.4-0.2,1.1c0,0.9-0.1,2.3,0,3.7c0.5,4.7,1.8,5.8,6.3,4.9c1.9-0.4,3.9-0.7,5.8-1.1c2.1-0.4,4.6-1,6-2.3
		c5.5-5.3,9.7-11.6,10.3-19.5c0.2-3.3,0.8-6.4,1.6-9.6c1.9-8.1,2.1-16.4,1.6-24.6C372.9,116.3,371,109.5,369.7,102.5z"/>
	<path d="M365.8,323.7c-2.3-2.5-1.2-5.4-1.7-8.2c0.9-6.2-1-12.2-2.7-18c-1.3-4.4-3.6-8.5-4.4-13.2c-0.8-4.4-4.9-7.9-3.9-12.9
		c0.1-0.3-0.1-0.7-0.3-1c-4.5-6.1-5.6-13.9-9.6-20.3c-3.4-5.5-5.6-11.7-9.5-17.1c-3.4-4.8-7-9.3-11.3-13.3c-4-3.7-8.4-7.2-11.7-11.3
		c-2.9-3.6-6.4-6.2-9.4-9.5c-2.5-2.8-6.1-3.8-9-6c-7.1-5.5-15.7-8.2-24-11.1c-3.9-1.3-8.2-3.8-12.8-1.7c-0.4,0.2-1-0.2-1.5-0.4
		c-9.1-3.2-18.6-2.7-27.8-1.3c-6.5,1-13.2,1.6-19.6,3.9c-2,0.8-4.5,1.4-6.9,1.3c-4.6-0.3-8.9,1.3-13.3,1.9
		c-4.5,0.6-9.3,2.3-13.1,4.7c-3.5,2.2-7.2,4.2-10.4,6.7c-2.7,2.1-6.6,1.8-8.5,4.3c-2.8,3.6-7.4,5-10.1,8.7c-0.7,0.9-2.1,1.3-3.3,1.7
		c-3.8,1.3-7.2,3.2-9.2,7c-0.6,1.2-1.8,2.3-3,3c-1.5,0.9-2.6,2.2-3.1,3.7c-1.5,4.6-3.6,8.7-7.9,11.3c-0.6,0.3-0.9,1.1-1.3,1.8
		c-8.3,12.8-16.1,25.8-22.1,39.9c-2.9,6.9-5.9,14-9.8,20.4c-7,11.6-10.4,24.1-12.1,37.4c-1.3,9.9-1.2,19.9,0.8,29.5
		c1.6,7.6,2.2,15.6,6.4,22.8c2.5,4.3,4.9,8.6,8.1,12.4c3.1,3.7,7.5,5.6,10.8,8.9c2.7,2.7,6.4,3.8,9.5,5.5c2.7,1.4,6.7,1.5,10.1,2.2
		c9.9,2.1,19.3,2.2,27.7-4.4c1-0.8,2.2-1.1,3.5-1.3c3.8-0.5,7.7-2.1,10.1-4.3c3.4-3.2,7.2-5.8,10.6-9c4.2-3.8,7.6-8.4,12.8-11.4
		c5-2.9,9.2-7.2,13.5-11.1c3.4-3.1,7.5-4.9,11.2-7.4c5-3.4,10.7-6,17.3-4.8c2.8,0.5,5.7-0.2,8.6-0.6c4.7-0.5,8.5,0.5,10.9,4.9
		c0.4,0.8,1.1,1.8,2,1.6c2.3-0.5,3.3,1.3,4.5,2.5c3.8,3.7,9,5.8,12.6,9.9c1.1,1.3,3,2.2,4.7,2.6c4.9,1.2,8.8,4.2,13.2,6.3
		c4.1,2,9,2.1,13,5c1.6,1.2,3.8,1.7,6.2,1.2c1.9-0.4,4.1-0.4,5.9,0.3c4.8,1.6,9.4,0.7,13.6-1.2c6-2.7,12.4-4.9,17.8-8.9
		c2.8-2,6.1-3.4,8.2-6.1c2.8-3.6,4.1-8.3,7.8-11.3c0.6-0.5,0.9-1.6,1.2-2.4c1.7-3.8,3.4-7.7,5.4-11.2c2.5-4.4,3-8.7,3.3-13.4
		c0.3-4.3-1.8-8.9,0.8-13.1C363.1,327.2,367.5,325.6,365.8,323.7z M325.9,331.1c-0.7,0.9-1.1,2-0.7,3.1c1.7,4.5-0.6,8.5-1.7,12.7
		c-0.4,1.4-1.4,2.4-2.5,3.4c-2.9,2.9-6.9,3.7-10,6.2c-2.3,1.8-4.8,0.7-6.5-0.6c-2.6-2-5.6-2.7-8.4-3c-2.9-0.3-5-1.8-6.5-3.4
		c-1.9-2-3.2-3.7-6.2-3.1c-0.5,0.1-1.4-0.5-1.8-1c-5-5.9-11.7-9.2-18.3-12.9c-4.6-2.6-9.2-4.9-14.4-6c-2.6-0.6-5.4-0.9-8.1-0.9
		c-9.7,0.3-19.5,0.6-29.2,1.5c-4.3,0.4-8.8,1.4-12.6,3.9c-4.6,3-9.7,5-14.3,7.8c-4.4,2.7-9,5.4-12,9.7c-2.6,3.6-7.3,4.8-9.3,8.9
		c-3.4,0-5.1,2.9-7.7,4.3c-4.5,2.3-7,6.4-10,10c-2.9,3.4-5.8,6.5-10.6,6.7c-0.7,0-1.5,0.2-2,0.7c-6.6,6.2-17.5,2-21.1-4.3
		c-3.5-6-4.8-12.3-5.6-18.9c-0.6-4.7-1.8-9.3-0.5-13.4c-1.5-7,0.8-12.7,2.3-18.7c2.1-8.4,7-15.5,10.1-23.5c1-2.6,1.9-5.3,2.8-7.9
		c1.1-3.2,2.4-6.6,4.1-9.7c4.4-7.9,9-15.6,14.5-22.8c1.2-1.6,2.5-3.1,3.4-4.9c4.9-9.2,13.6-14.2,22-19.4c1.8-1.1,3.9-1.7,4.7-4.1
		c0.3-1,1.7-1.9,2.7-2.6c5-3,9.6-6.7,14.7-9.6c6.4-3.6,13.6-4.2,20.6-5.7c6.4-1.4,13.3,0.5,19.5-2.9c0.9-0.5,2.4,0.2,3.7,0.3
		c6.8,0.4,13.8-0.1,20.1,3.4c0.5,0.3,1,0.5,1.5,0.5c4.1,0.3,8.5,1.6,11.3,3.6c1,0.7,2,1.6,3.4,1.4c1.1-0.1,2.3,0,2.9,1.1
		c1.4,2.1,3.7,2.7,5.8,3.9c2.3,1.3,5.1,2.2,5.9,5.3c10.8,8.1,16.2,20.5,24.4,30.6c0.7,0.9,0.8,2,1.2,3c2,5,3.8,10.1,7.3,14.4
		c1.6,2,2,4.7,2.6,7c1.1,3.8,1.9,7.7,3.5,11.3c0.3,0.7-0.3,1.7,0.2,2.6c4.6,7.9,4.4,17,5.8,25.7C327.1,327,327.4,329.1,325.9,331.1z
		"/>
	<path d="M102.5,134.8c1.3,6.5,5,12.4,8.4,18c4.6,7.6,11.8,12.8,19.6,16.6c5,2.4,10.8,3.8,16.7,1.9c1.7-0.6,3.6-0.6,5.3-1.2
		c5.7-2,11.1-4.5,15-9.3c3.3-4.1,5.5-8.7,7.1-13.7c2.6-8.1,4-16.4,5.1-24.7c1-7.3,0.3-14.9,0.9-22.3c0.6-7.4,0.5-14.9-0.8-22.1
		c-1.7-10.1,0-20.3-1.8-30.3c-0.8-4.4-0.9-9-2.2-13.4c-2.1-7.2-6.6-12.7-10.8-18.5c-0.2-0.3-0.5-0.6-0.8-0.7
		c-8.4-4.5-16.4-10.2-26.4-8.6c-1.1,0-1.8,0-2.6,0c-7.2-0.3-13.8,1.1-18.7,7.1c-0.4,0.5-1.1,0.9-1.7,1.3
		c-3.1,2.2-9.8,11.5-12.1,14.9c-2.5,3.6-3.6,7.8-5.8,11.6C93.2,48,90.9,55.3,90.4,63C90.1,68.3,89,73.6,88,78.8
		c-2.6,13.9-0.5,27,6.7,39.1C98,123.2,101.2,128.4,102.5,134.8z M117.8,55.4c2.4-6,6-11,9.6-16.1c2.5-3.6,3.2-3.5,9.4-3.6
		c6.9-0.1,9,1.1,11.3,7.6c1.5,4.3,3.4,8.6,3,13.5c-0.3,4.3,1.4,8.5,1.4,12.9c0.2,13.1,3.2,26.1,2.4,39.3c-0.4,7,0.4,14.1-2.5,20.8
		c-0.7,1.6-0.4,3.6-0.5,5.4c-0.1,1.7-0.7,3.2-1.9,4.3c-5.5,5.1-7.5,5.3-13.3-0.3c-6.1-5.8-10.2-13.1-11.1-21.8
		c-0.2-2.6-1.4-4.9-2.8-7c-4.6-7.1-7.3-14.8-8.4-23.2c-0.1-0.5-0.5-1.1-0.4-1.6C115.8,75.8,113.8,65.3,117.8,55.4z"/>
	<path d="M201.4,110.8c-1,8.7,2.8,16.2,5.7,23.9c0.4,1,0.8,2,1.7,2.8c2.9,2.7,4.4,6.6,7.1,9.4c4.3,4.5,6.6,11.7,14.6,11.8
		c6.2,3.9,12.9,2.3,19.4,1.4c2.3-0.3,5.1-0.7,7.1-2.5c4.9-4.4,10.4-8.1,15.4-12.6c6.7-6.1,9.2-14.5,14.2-21.5
		c3.7-5.1,4.8-11.7,7.5-17.5c5.4-11.6,8.8-23.9,10.2-36.7c0.5-5.2,1.4-10.4,0.5-15.6c-1-5.7-2.5-11.2-3.4-16.9
		c-1.2-8.3-5.6-15.5-10.8-21.5c-4.7-5.5-10.8-10.7-19.4-10.1c-2,0.1-4.3-0.1-7-0.5c-8.3-0.6-16.5,1.8-23.2,7.1
		c-10.1,8.1-18.1,18.2-24.5,29.5c-6.3,11.2-12.2,22.5-16.9,34.5c-2.5,6.4-2.8,13-0.8,19.7C200.2,100.4,202,105.4,201.4,110.8z
		 M229.3,73.6c2.7-5.9,3.7-12.5,6.7-18.3c2.4-4.8,4.6-9.7,9-13.2c2.2-1.8,3.8-4.4,5.8-6.5c3.2-3.2,6.4-6.3,11.5-6.4
		c3.4-0.1,6.1,1.1,7.7,4.1c3.3,6.1,4.8,12.7,5.4,19.6c1.7,8.6-1.7,16.7-2.3,25.1c-0.2,3.1-1.7,6.3-3,9.3c-1.1,2.5-2.1,5-2.2,7.7
		c0,0.7-0.2,1.5-0.7,2c-3.9,4.1-5.3,9.3-6.9,14.5c-2.2,7.3-6.7,13.4-11.6,19.1c-2.7,3.2-5.4,3.3-8.2,0.1c-4.2-4.7-7.8-9.6-9.5-16
		c-2.5-9.6-3.6-19.3-4.4-29.1C226.3,81.5,227.6,77.3,229.3,73.6z"/>
	<path d="M80.6,243.7c7-2.7,12-7.9,15.9-13.9c3.6-5.6,4.7-12,4.6-18.6c0-1.6-0.7-3.3-0.4-4.8c1.6-7.1-1.2-13.3-3.1-19.8
		c-1.4-4.9-2.7-10-3.7-14.9c-1.4-6.6-3-13.3-4.4-19.9c-0.1-0.5-0.2-1.1-0.5-1.5c-4.1-6.1-7.4-12.7-10.1-19.5
		c-1.4-3.4-3.1-6.7-5.8-9.1c-5.6-5-11.1-10.1-18.2-13.4c-5.5-2.6-10.9-3.8-16.6-3.2c-5.8,0.5-11.7,1.6-15.2,7.3
		c-0.2,0.3-0.5,0.5-0.8,0.7c-3.7,1.9-5.2,5.3-6.7,8.8c-3.1,7.2-4.3,14.9-5.6,22.6c-0.4,2.3-1.1,4.7-0.2,7c1.3,3.2,0.7,6.5,1.2,9.8
		c1,6.3,0.5,12.9,2.8,19.1c1.3,3.5,0.9,7.9,2.8,11c3.4,5.6,3.4,12,6.1,17.8c3.6,7.8,5.8,16.1,11.8,22.7c4.9,5.4,11.5,8.5,16.8,13.4
		c0.1,0.1,0.3,0.2,0.5,0.2c5.6-0.2,10.9,2.2,16.5,1.7c1.8-0.1,3.7,0.1,5.4-0.4C76.1,246.1,78.2,244.7,80.6,243.7z M70,214.1
		c-2.6,3.7-6.2,3.9-9.1,0.5c-3.7-4.4-6.6-9.5-8.1-15.1c-1.6-6.1-5.3-11.5-6.1-17.9c-4.3-3.8-3.4-9.6-5.2-14.3
		c-1.7-4.6-1.3-9.9-0.7-14.9c0.3-2.5,0.5-5,0.2-7.6c-0.2-2,0.3-3.9,1.5-5.6c1.8-2.6,2-2.6,4.5-0.5c4,3.3,6.5,7.5,8.6,12.2
		c1,2.3,2.3,4.5,3.5,6.7c3.1,5.4,5.6,11.2,5.9,17.5c0.3,5.9,2.3,11.2,4.2,16.7c1.6,4.6,2.6,9.3,3,14.1C72.6,209,71.7,211.7,70,214.1
		z"/>
	<path d="M400.4,98.4c-0.5-2.8-3.9-14-5-16.6c-1.8-4.3-5.6-6.3-8.9-9c-5-4.1-10.3-7.8-16.9-8.9c-3.1-0.5-6,0.7-9,0.7
		c-4.9,0-9.3,1.7-12.9,4.7c-4.3,3.5-8.2,7.4-11.8,11.8c-5,6.2-8,13.1-10,20.4c-2,7.4-4.9,14.4-7.3,21.6c-2.2,6.6-3.8,13.4-3.6,20.2
		c0.2,7.2,0.2,14.3-0.3,22.7c-1,5.9-0.1,12.9,0.5,19.9c0.1,1.3,0.3,2.6,1.3,3.5c2.8,2.4,4.4,5.8,6,8.9c4.8,9.4,13.7,10.3,22.2,10.1
		c6.5-0.2,13.2-2,19.7-3.9c11-3.2,18.6-10,24.5-19.2c1.6-2.6,3.8-4.8,4.8-7.8c2.3-6.7,4.8-13.2,5.2-20.4c0.1-2.1,0.5-4.3,1.2-6.4
		c2.8-9.1,3.6-18.3,2.9-27.8C402.4,114.8,401.9,106.5,400.4,98.4z M371.8,147.9c-0.8,3.2-1.4,6.3-1.6,9.6
		c-0.6,7.9-4.8,14.1-10.3,19.5c-1.4,1.4-3.9,1.9-6,2.3c-1.9,0.4-3.9,0.7-5.8,1.1c-4.5,0.8-5.8-0.2-6.3-4.9c-0.1-1.4,0-2.9,0-3.7
		c0.1-0.8,0.2-1,0.2-1.1c-1.6-8.2-0.5-16.5-1.4-24.7c-0.7-6.6-0.9-13.2,0-19.8c0.3-1.9,1.3-3.3,2.8-4.5c4.2-3.4,7.1-7.7,9.1-12.6
		c1.3-3.3,3.8-5.6,6.3-7.9c1.3-1.2,2.8-2.1,3.9-3.7c1.7-2.4,4.8-1.7,6,1.1c0.6,1.3,0.9,2.8,1.1,4.2c1.3,6.9,3.3,13.7,3.7,20.8
		C373.8,131.6,373.7,139.8,371.8,147.9z"/>
</g>
</svg>
