<svg xmlns="http://www.w3.org/2000/svg" xmlns:xlink="http://www.w3.org/1999/xlink" width="42.737" height="47.47" viewBox="0 0 42.737 47.47"><defs><clipPath id="a"><rect width="42.737" height="47.47" fill="none" stroke="#000" stroke-width="1"/></clipPath></defs><g transform="translate(-63.387 -608.53)"><path d="M3915.157,653.445s1.151-8.777,8-8.981,30.77.711,31.087-2.438.808-27.129,0-28.659-3.289-3.581-9-3.241-25.685,0-25.685,0-4.167,2.556-4.411,5.4S3915.157,653.445,3915.157,653.445Z" transform="translate(-3850)" fill="#fff9de"/><path d="M3933.954,638s11.065-7.764,11.39-12.362-.417-7.277-3.452-7.526-7.937,4.45-7.937,4.45-2.2-3.755-4.423-4.45a4.507,4.507,0,0,0-5.61,4.45c-.114,3.6,3.676,9.93,5.61,12.049A17.609,17.609,0,0,0,3933.954,638Z" transform="translate(-3850)" fill="#fd7757"/><g transform="translate(63.387 608.53)"><g clip-path="url(#a)"><path d="M14.174.121a41.365,41.365,0,0,1,6.7.033c1.089.088,2.172.237,3.258.358.1.011.2.03.3.034C25.781.6,27.125.67,28.47.705c2.31.061,4.621.087,6.93.157a13.611,13.611,0,0,1,2.274.224,4.175,4.175,0,0,1,2.6,1.74A10.142,10.142,0,0,1,41.969,7.2q.048.3.115.6a22.5,22.5,0,0,1,.456,4.241c.032.988.136,1.974.16,2.961.033,1.367.051,2.736.022,4.1-.042,1.932-.134,3.862-.2,5.794a14.52,14.52,0,0,0-.042,2.351,17.677,17.677,0,0,1,.005,2.961,6.185,6.185,0,0,1-1.052,3.378,4.855,4.855,0,0,1-1.868,1.517,13.286,13.286,0,0,1-4.257,1.339c-1.26.18-2.519.384-3.784.52-.855.092-1.721.095-2.583.115-1.795.043-3.59.1-5.385.093-1.144-.006-2.287-.162-3.431-.182-1.322-.023-2.646.005-3.967.056-1.42.055-2.838.152-4.256.248-1.012.068-2.021.181-3.033.243a3.035,3.035,0,0,0-1.89.893,8.726,8.726,0,0,0-1.614,1.887,37.958,37.958,0,0,0-2.432,4.909,4.8,4.8,0,0,0-.3,1.025,1.463,1.463,0,0,1-.81,1.046A1.061,1.061,0,0,1,.2,46.584,2.82,2.82,0,0,1,.172,45.9c.013-.481.067-.963.055-1.443-.069-2.749-.19-5.5-.219-8.246-.028-2.691.035-5.383.056-8.074.016-2.089.015-4.177.046-6.266.04-2.749.1-5.5.156-8.246C.3,11.9.369,10.17.358,8.443A8.274,8.274,0,0,1,1.8,3.622,5.236,5.236,0,0,1,3.613,2.268a13.708,13.708,0,0,1,2.043-.833A31.576,31.576,0,0,1,14.174.121M2.34,40.108l.188.034c.136-.212.258-.435.411-.635a12.922,12.922,0,0,1,1.568-2.216c.307-.266.591-.558.884-.84a5.444,5.444,0,0,1,3.326-1.534c1.569-.154,3.145-.23,4.717-.348,1.031-.077,2.061-.227,3.092-.241,1.291-.017,2.582.089,3.874.111q3.433.058,6.867.073c.784,0,1.569-.067,2.353-.1,1.011-.047,2.028-.045,3.032-.154.981-.107,1.95-.332,2.925-.5a10.261,10.261,0,0,0,2.979-.927,2.454,2.454,0,0,0,1.386-1.72,18.394,18.394,0,0,0,.128-3.89c-.034-1.618-.029-3.237,0-4.855.022-1.241.132-2.481.156-3.722.019-1.012-.034-2.025-.052-3.038-.02-1.14-.022-2.28-.061-3.419-.029-.837-.12-1.672-.157-2.509a13.376,13.376,0,0,0-.946-4.608,2.66,2.66,0,0,0-2.224-1.933C35.545,3.031,34.3,3,33.054,2.946c-1.091-.048-2.183-.079-3.275-.126-.988-.042-1.979-.171-2.962-.126a29.531,29.531,0,0,1-3.663-.207c-1.47-.114-2.936-.315-4.407-.351-1.679-.041-3.362.07-5.043.093a34.51,34.51,0,0,0-6.868.928,5.743,5.743,0,0,0-3.494,2.3,2.621,2.621,0,0,0-.636,1.677c.046,1.393.04,2.788.014,4.182-.037,2.007-.115,4.013-.168,6.019-.031,1.164-.036,2.328-.073,3.491-.034,1.09-.108,2.179-.14,3.27-.054,1.8-.093,3.608-.129,5.412-.029,1.428-.076,2.857-.054,4.284.022,1.4.13,2.8.18,4.2.025.705,0,1.412,0,2.118" transform="translate(0 0)"/><path d="M1.223,47.97A1.558,1.558,0,0,1-.292,46.693a2.733,2.733,0,0,1-.039-.705c0-.034,0-.067,0-.1.005-.191.017-.381.027-.565.018-.3.034-.575.027-.851-.025-1-.057-2.007-.089-2.987-.055-1.725-.112-3.509-.131-5.267-.019-1.842,0-3.713.028-5.522.011-.84.022-1.708.028-2.562q.009-1.1.013-2.2c.007-1.332.013-2.71.033-4.066.028-1.954.069-3.94.108-5.861q.024-1.194.048-2.387c.01-.537.025-1.081.038-1.608.03-1.169.062-2.378.055-3.563A8.754,8.754,0,0,1,1.389,3.339,5.278,5.278,0,0,1,3.255,1.9l.114-.064A11.292,11.292,0,0,1,5.134,1.09L5.486.965A32.309,32.309,0,0,1,14.146-.378C15.1-.459,16.124-.5,17.181-.5c1.2,0,2.453.052,3.733.155.761.061,1.527.153,2.268.242.33.039.671.08,1.006.118L24.3.03c.056.008.11.015.153.017L25.614.1c.941.041,1.914.084,2.869.109,1.014.027,2.046.047,3.044.067C32.8.3,34.118.323,35.415.363A14.3,14.3,0,0,1,37.773.6a4.687,4.687,0,0,1,2.912,1.94,10.576,10.576,0,0,1,1.778,4.59c.031.192.067.384.109.57a22.922,22.922,0,0,1,.468,4.334c.015.459.046.929.077,1.384.035.516.07,1.05.083,1.582.04,1.668.047,2.94.022,4.125-.028,1.292-.079,2.6-.129,3.871-.025.632-.05,1.286-.073,1.929-.008.235-.024.471-.039.7a8.111,8.111,0,0,0-.007,1.569,13.884,13.884,0,0,1,.034,2.473c-.009.19-.018.381-.025.571a6.641,6.641,0,0,1-1.141,3.644,5.4,5.4,0,0,1-2.05,1.678,13.845,13.845,0,0,1-4.416,1.39q-.485.069-.969.142c-.926.137-1.883.278-2.833.38-.737.079-1.482.094-2.2.109l-.421.009-1.065.027c-1.29.033-2.623.067-3.938.067h-.4c-.616,0-1.234-.049-1.831-.093-.529-.039-1.075-.08-1.606-.089-.3-.005-.622-.008-.942-.008-.9,0-1.877.021-3,.064-1.364.052-2.754.146-4.1.237l-.144.01c-.468.032-.947.074-1.409.115-.532.047-1.081.1-1.626.129a2.525,2.525,0,0,0-1.582.761A8.286,8.286,0,0,0,5.79,40.583a37.8,37.8,0,0,0-2.4,4.845,4.292,4.292,0,0,0-.264.918,1.955,1.955,0,0,1-1.056,1.392A1.729,1.729,0,0,1,1.223,47.97ZM17.181.5c-1.034,0-2.031.04-2.965.119l-.027,0A31.3,31.3,0,0,0,5.827,1.9l-.358.128A10.387,10.387,0,0,0,3.857,2.7l-.116.065A4.516,4.516,0,0,0,2.213,3.905,7.772,7.772,0,0,0,.858,8.44c.007,1.2-.024,2.418-.055,3.6C.79,12.56.775,13.1.765,13.637Q.742,14.831.717,16.025c-.039,1.919-.08,3.9-.108,5.855-.02,1.351-.026,2.726-.033,4.056q-.005,1.1-.013,2.206C.557,29,.545,29.868.535,30.709c-.023,1.8-.047,3.668-.028,5.5.018,1.747.075,3.525.13,5.245.031.981.064,1.995.089,2.993.008.318-.011.632-.029.936-.011.184-.021.358-.026.534,0,.036,0,.072,0,.108a1.942,1.942,0,0,0,.016.452.558.558,0,0,0,.539.495.73.73,0,0,0,.355-.1.967.967,0,0,0,.565-.7,5.29,5.29,0,0,1,.328-1.133,38.718,38.718,0,0,1,2.465-4.973,9.213,9.213,0,0,1,1.7-2,3.512,3.512,0,0,1,2.2-1.024c.532-.033,1.075-.081,1.6-.127.468-.041.951-.084,1.43-.116l.144-.01c1.351-.091,2.747-.186,4.126-.239,1.133-.044,2.126-.065,3.036-.065.326,0,.649,0,.96.008.559.01,1.12.051,1.663.091.58.043,1.181.087,1.763.091h.391c1.3,0,2.629-.034,3.913-.067l1.067-.027.424-.009c.7-.014,1.423-.029,2.117-.1.93-.1,1.877-.24,2.793-.375q.487-.072.973-.142a12.848,12.848,0,0,0,4.1-1.288,4.3,4.3,0,0,0,1.686-1.357,5.672,5.672,0,0,0,.964-3.112c.007-.194.016-.388.025-.581a12.929,12.929,0,0,0-.026-2.3,8.978,8.978,0,0,1,0-1.765c.015-.22.03-.448.038-.667.022-.645.048-1.3.073-1.934.05-1.264.1-2.57.128-3.853.025-1.169.018-2.428-.022-4.079-.012-.51-.047-1.033-.081-1.539-.031-.463-.063-.942-.079-1.418A22.024,22.024,0,0,0,41.6,7.916c-.047-.207-.087-.42-.121-.633a9.6,9.6,0,0,0-1.6-4.167,3.656,3.656,0,0,0-2.3-1.54,13.376,13.376,0,0,0-2.19-.214c-1.291-.039-2.606-.065-3.878-.09-1-.02-2.033-.04-3.05-.067-.964-.025-1.941-.068-2.887-.11l-1.154-.049c-.091,0-.174-.015-.247-.025l-.091-.012C23.738.971,23.4.93,23.063.89,22.332.8,21.576.712,20.834.652,19.581.552,18.352.5,17.181.5ZM2.768,40.693l-.928-.167v-.418c0-.221,0-.443,0-.664,0-.473.009-.961-.008-1.436-.02-.561-.05-1.133-.079-1.686-.043-.825-.088-1.678-.1-2.523-.017-1.129.009-2.273.034-3.379q.011-.462.02-.923c.032-1.614.073-3.52.129-5.417.017-.562.045-1.132.072-1.682.026-.521.052-1.06.069-1.589.02-.634.031-1.281.041-1.907.009-.518.018-1.054.032-1.582.02-.766.045-1.544.068-2.3.038-1.219.077-2.48.1-3.718.031-1.636.026-2.957-.013-4.156a3.116,3.116,0,0,1,.734-1.99A6.26,6.26,0,0,1,6.73,2.668,35.351,35.351,0,0,1,13.7,1.728c.613-.008,1.238-.029,1.843-.049.8-.026,1.62-.053,2.434-.053.276,0,.534,0,.786.009.978.024,1.962.121,2.913.214.5.049,1.015.1,1.521.139.31.024.622.053.924.081.719.067,1.462.136,2.188.136.167,0,.332,0,.488-.011s.3-.01.456-.01c.532,0,1.066.038,1.582.075.319.023.648.047.968.06.53.023,1.069.042,1.591.061.552.02,1.123.041,1.685.065l.912.037c.93.036,1.892.074,2.84.155a3.161,3.161,0,0,1,2.643,2.239,13.845,13.845,0,0,1,.984,4.778c.017.381.046.772.074,1.15.033.445.067.906.083,1.364.026.764.036,1.538.045,2.287,0,.38.009.76.016,1.14.006.327.016.661.025.984.02.677.04,1.377.027,2.071-.012.624-.046,1.254-.078,1.863s-.066,1.241-.077,1.858c-.031,1.761-.031,3.343,0,4.836,0,.211.01.421.017.632a15.279,15.279,0,0,1-.153,3.364,2.931,2.931,0,0,1-1.65,2.07,10.721,10.721,0,0,1-3.123.975c-.324.055-.654.118-.974.179-.644.123-1.309.25-1.98.323-.716.078-1.441.1-2.142.123-.3.01-.615.019-.921.034-.244.011-.494.026-.736.041-.522.031-1.061.063-1.6.063h-.043c-2.131-.007-4.38-.031-6.874-.073-.53-.009-1.066-.032-1.584-.055-.654-.028-1.331-.058-1.99-.058l-.285,0c-.652.009-1.324.076-1.975.141-.355.035-.722.072-1.087.1-.554.042-1.117.079-1.662.114-1,.066-2.034.133-3.044.233a4.951,4.951,0,0,0-3.027,1.4l-.225.22c-.216.213-.44.432-.679.639A4.761,4.761,0,0,0,3.921,38.9a8.983,8.983,0,0,1-.585.907,4.61,4.61,0,0,0-.256.39c-.043.071-.086.142-.131.211ZM17.973,2.626c-.8,0-1.612.027-2.4.053-.61.02-1.24.041-1.862.049a34.441,34.441,0,0,0-6.768.917,5.219,5.219,0,0,0-3.2,2.11,2.136,2.136,0,0,0-.539,1.363c.04,1.217.045,2.554.014,4.208-.023,1.245-.063,2.509-.1,3.731-.023.751-.048,1.528-.068,2.292-.014.523-.023,1.056-.031,1.572-.01.629-.021,1.28-.041,1.922-.017.537-.044,1.081-.069,1.606-.027.546-.054,1.11-.071,1.663-.056,1.892-.1,3.795-.129,5.407q-.009.463-.02.926c-.025,1.1-.051,2.231-.034,3.341.013.826.057,1.669.1,2.485.029.557.06,1.134.08,1.7.009.259.012.519.013.777.071-.115.14-.233.212-.354a5.591,5.591,0,0,1,1.119-1.483c.215-.186.418-.386.633-.6l.23-.225a5.928,5.928,0,0,1,3.625-1.672c1.026-.1,2.068-.169,3.076-.235.542-.036,1.1-.072,1.652-.114.352-.026.713-.062,1.063-.1.671-.067,1.366-.136,2.06-.145.78-.011,1.57.024,2.332.057.511.022,1.04.045,1.557.054,2.49.042,4.734.066,6.861.073h.04c.508,0,1.032-.031,1.539-.062.245-.015.5-.03.749-.041.313-.015.629-.025.936-.034.682-.021,1.387-.044,2.065-.118.631-.069,1.277-.192,1.9-.311.325-.062.661-.126.995-.183a9.747,9.747,0,0,0,2.835-.879,1.942,1.942,0,0,0,1.123-1.369,14.307,14.307,0,0,0,.136-3.145c-.006-.213-.012-.427-.017-.64-.031-1.506-.031-3.1,0-4.874.011-.634.046-1.275.079-1.894.032-.6.065-1.222.077-1.829.013-.67-.007-1.358-.027-2.024-.009-.326-.019-.663-.025-1-.007-.382-.012-.764-.016-1.146-.009-.743-.019-1.512-.045-2.265-.015-.439-.049-.889-.081-1.324-.029-.385-.058-.784-.076-1.18a12.869,12.869,0,0,0-.908-4.437C38.1,4.191,37.562,3.7,36.743,3.634c-.925-.079-1.875-.116-2.794-.152l-.917-.037c-.558-.024-1.127-.045-1.677-.065-.523-.019-1.065-.038-1.6-.061-.335-.014-.671-.039-1-.062-.5-.036-1.014-.073-1.51-.073-.142,0-.28,0-.41.009-.172.008-.352.012-.535.012-.773,0-1.54-.071-2.281-.141-.3-.028-.607-.057-.909-.08-.516-.04-1.037-.091-1.541-.141-.933-.092-1.9-.186-2.84-.209C18.49,2.629,18.241,2.626,17.973,2.626Z" transform="translate(0 0)"/><path d="M79.161,61.121a4.652,4.652,0,0,1,1.715-1.789,6.779,6.779,0,0,1,3.291-1.321,4.746,4.746,0,0,1,1.877.212,7.175,7.175,0,0,1,3.764,2.726,6.141,6.141,0,0,1,1.331,2.938,6.063,6.063,0,0,1-.163,2.4,22.529,22.529,0,0,1-3.317,6.3A11.784,11.784,0,0,1,86.042,74.3c-.8.776-1.582,1.568-2.435,2.279-.8.663-1.669,1.233-2.512,1.838-.392.281-.788.558-1.194.817a3.866,3.866,0,0,1-3.119.665,4.086,4.086,0,0,1-1.8-1.11c-1.34-1.283-2.665-2.585-3.936-3.936a21.223,21.223,0,0,1-1.824-2.337,12.747,12.747,0,0,1-2.255-8.453,6.349,6.349,0,0,1,1.347-3.506,8.238,8.238,0,0,1,2.694-2.294,4.355,4.355,0,0,1,3.909-.153,9.934,9.934,0,0,1,2.776,1.724c.467.419.942.829,1.468,1.291m9.623,3.724a5.233,5.233,0,0,0-2.9-4.113,2.67,2.67,0,0,0-1.987-.261,5.448,5.448,0,0,0-3.242,2.712c-.083.186-.188.362-.269.549-.194.449-.495.844-.995.843-.542,0-1.135-.038-1.369-.729a2.528,2.528,0,0,0-.441-.622A8.658,8.658,0,0,0,73.9,60.257a1.961,1.961,0,0,0-1.405-.121,4.811,4.811,0,0,0-2.335,1.633A3.6,3.6,0,0,0,69.4,65.2a14.5,14.5,0,0,1,.392,1.632,9.382,9.382,0,0,0,1.279,3.162,27.506,27.506,0,0,0,1.877,2.583c.774,1.008,1.559,2.009,2.37,2.988a16.482,16.482,0,0,0,1.462,1.545.925.925,0,0,0,1.374.15,21.426,21.426,0,0,0,2.68-1.712,35.829,35.829,0,0,0,3.756-3.317,20.784,20.784,0,0,0,2.317-3.2,11.231,11.231,0,0,0,1.311-2.557c.169-.549.378-1.085.569-1.627" transform="translate(-57.518 -49.6)"/><path d="M77.6,80.5a3.883,3.883,0,0,1-.944-.118,4.6,4.6,0,0,1-2.025-1.233c-1.622-1.552-2.841-2.772-3.954-3.955A21.936,21.936,0,0,1,68.812,72.8a13.252,13.252,0,0,1-2.345-8.775,6.889,6.889,0,0,1,1.452-3.779,8.705,8.705,0,0,1,2.857-2.43,5,5,0,0,1,2.329-.6,5.106,5.106,0,0,1,2.009.431,10.374,10.374,0,0,1,2.914,1.812c.319.287.643.57.986.869l.015.014a5.519,5.519,0,0,1,1.3-1.22c.083-.062.165-.123.246-.186a7.322,7.322,0,0,1,3.531-1.42,5.177,5.177,0,0,1,2.081.228,7.626,7.626,0,0,1,4.026,2.909,6.617,6.617,0,0,1,1.426,3.18,6.507,6.507,0,0,1-.18,2.6,22.866,22.866,0,0,1-3.384,6.441,8.747,8.747,0,0,1-1.3,1.424c-.125.118-.254.239-.377.359l-.346.339c-.675.662-1.374,1.346-2.117,1.966-.594.5-1.232.941-1.848,1.372-.228.159-.464.324-.693.488-.377.27-.785.558-1.217.833A4.747,4.747,0,0,1,77.6,80.5ZM73.1,58.215a4.009,4.009,0,0,0-1.865.486,7.727,7.727,0,0,0-2.532,2.159,5.813,5.813,0,0,0-1.242,3.232,12.276,12.276,0,0,0,2.165,8.13,20.462,20.462,0,0,0,1.78,2.283c1.1,1.17,2.309,2.378,3.917,3.918a3.678,3.678,0,0,0,1.577.986,2.882,2.882,0,0,0,.7.088,3.74,3.74,0,0,0,2.028-.69c.412-.262.806-.54,1.172-.8.233-.167.472-.334.7-.5.6-.419,1.22-.852,1.78-1.32.713-.595,1.4-1.265,2.058-1.913l.348-.34c.129-.126.262-.251.39-.371a7.887,7.887,0,0,0,1.161-1.256,22.062,22.062,0,0,0,3.251-6.157,5.544,5.544,0,0,0,.147-2.209,5.715,5.715,0,0,0-1.237-2.7A6.649,6.649,0,0,0,85.9,58.7a4.22,4.22,0,0,0-1.673-.2,6.236,6.236,0,0,0-3.05,1.221c-.085.065-.171.129-.257.194a3.574,3.574,0,0,0-1.3,1.4l-.273.631-.516-.453-.476-.416c-.346-.3-.672-.587-1-.879a9.393,9.393,0,0,0-2.638-1.637A4.114,4.114,0,0,0,73.1,58.215Zm4.4,19.778h0a1.594,1.594,0,0,1-1.066-.521A17,17,0,0,1,74.93,75.88c-.706-.851-1.463-1.805-2.382-3q-.19-.248-.383-.494a21.225,21.225,0,0,1-1.527-2.137A9.784,9.784,0,0,1,69.3,66.916a14.052,14.052,0,0,0-.379-1.575,4.084,4.084,0,0,1,.853-3.883,5.315,5.315,0,0,1,2.574-1.8,2.168,2.168,0,0,1,.667-.105,2.812,2.812,0,0,1,1.076.239,9.13,9.13,0,0,1,3.891,3.131c.036.047.079.1.125.152a1.871,1.871,0,0,1,.39.61c.1.308.289.388.9.389.075,0,.3,0,.535-.541.049-.114.1-.219.155-.32.042-.082.082-.16.116-.235a5.949,5.949,0,0,1,3.51-2.972,2.034,2.034,0,0,1,.771-.151,3.807,3.807,0,0,1,1.345.32l.228.084a4.945,4.945,0,0,1,2.161,1.787,5.289,5.289,0,0,1,1.072,2.774l0,.1-.032.091c-.06.17-.122.34-.184.51-.131.36-.266.732-.379,1.1a10.948,10.948,0,0,1-1.272,2.525l-.091.148a21.353,21.353,0,0,1-2.374,3.274,29.014,29.014,0,0,1-3.148,2.826q-.33.269-.659.538a15.678,15.678,0,0,1-2.132,1.4c-.2.116-.408.237-.609.357A1.794,1.794,0,0,1,77.5,77.993ZM73.011,60.554a1.183,1.183,0,0,0-.364.058,4.332,4.332,0,0,0-2.1,1.468,3.1,3.1,0,0,0-.677,2.973,15.056,15.056,0,0,1,.406,1.688A8.833,8.833,0,0,0,71.5,69.734a20.48,20.48,0,0,0,1.457,2.035q.195.25.388.5c.924,1.2,1.651,2.12,2.359,2.973a16,16,0,0,0,1.418,1.5c.181.168.311.254.386.254h0a.974.974,0,0,0,.391-.167c.206-.123.416-.245.62-.363a14.707,14.707,0,0,0,2-1.305q.331-.272.664-.542a28.26,28.26,0,0,0,3.042-2.727,20.46,20.46,0,0,0,2.26-3.123l.092-.149a10.039,10.039,0,0,0,1.166-2.293c.12-.39.26-.774.4-1.145.049-.135.1-.27.147-.405A4.8,4.8,0,0,0,85.713,61.2l-.24-.089a3.033,3.033,0,0,0-1-.257,1.025,1.025,0,0,0-.394.077,4.985,4.985,0,0,0-2.974,2.453c-.045.1-.094.2-.141.286s-.09.175-.126.257a1.577,1.577,0,0,1-1.452,1.145,1.7,1.7,0,0,1-1.845-1.068,1.2,1.2,0,0,0-.2-.283c-.053-.063-.109-.127-.162-.2a8.163,8.163,0,0,0-3.466-2.806A1.88,1.88,0,0,0,73.011,60.554Z" transform="translate(-57.518 -49.6)"/></g></g></g></svg>