<svg xmlns="http://www.w3.org/2000/svg" xmlns:xlink="http://www.w3.org/1999/xlink" width="67.619" height="59.329" viewBox="0 0 67.619 59.329"><defs><clipPath id="a"><rect width="61.718" height="52.197" stroke="#000" stroke-width="0.3"/></clipPath></defs><g transform="translate(6.361) rotate(7)"><path d="M21.127,0l7.163,14.68h14.6l-2.473,4.113-8.78,7.776,7.456,13.011L22.213,31.832l-6.531,6.785L10.5,43.25A94.2,94.2,0,0,1,12.755,30.4c1.437-5,0-5.9,0-5.9L0,17.591l5.267-1.42H15.682Z" transform="translate(6.433 3.434)" fill="#fff9de"/><path d="M21.1-.394,28.383,14.53H43.152l-2.621,4.36L31.825,26.6l7.628,13.312-17.206-7.9L15.79,38.721l-.008.008L10.308,43.62l.04-.386a94.984,94.984,0,0,1,2.263-12.875c1.343-4.675.134-5.682.065-5.734L-.4,17.544l5.649-1.523H15.575ZM42.622,14.83H28.2L21.152.394,15.79,16.321H5.287L.4,17.638,12.835,24.37c.063.039,1.516,1.019.065,6.072a91.2,91.2,0,0,0-2.21,12.434l4.889-4.368,6.453-6.7c.1-.105.144-.149.238-.111l.007,0,16.452,7.553L31.444,26.538,40.3,18.7Z" transform="translate(6.433 3.434)"/><g clip-path="url(#a)"><path d="M24.976,35.777c-.489.512-.971.955-1.383,1.457a31.144,31.144,0,0,1-4.968,4.919c-1.815,1.407-3.79,2.609-5.705,3.885a4.322,4.322,0,0,1-.817.323.618.618,0,0,1-.9-.348,1.774,1.774,0,0,0-.442-.574c-.294-.247-.779-.379-.911-.68a2.532,2.532,0,0,1-.186-1.494c.386-1.631.829-3.252,1.343-4.846.706-2.191,1.492-4.356,2.255-6.528.362-1.03.756-2.049,1.118-3.079a1.962,1.962,0,0,0,.069-.5c-3.028-1.743-5.97-3.434-8.909-5.131-1.234-.712-2.465-1.426-3.685-2.162a7.252,7.252,0,0,1-1.147-.847,1.568,1.568,0,0,1-.6-1.839,2.081,2.081,0,0,1,1.868-1.3c2.709-.03,5.419-.025,8.127-.09,2.336-.056,4.67-.187,7.094-.289.424-1.524.827-3.11,1.308-4.672.742-2.411,1.533-4.807,2.312-7.206.441-1.356.9-2.7,1.352-4.057.266-.8.669-.957,1.255-.355A17.4,17.4,0,0,1,25.463,2.81a37.474,37.474,0,0,1,3.761,7.413c.669,1.754,1.354,3.5,2.1,5.418a5.568,5.568,0,0,0,.873.085c2.959-.083,5.917-.223,8.876-.256a21.962,21.962,0,0,1,3.914.305c1.622.277,2.029,1.53,1.009,2.79s-2,2.519-3.041,3.743a14.63,14.63,0,0,1-1.519,1.434c-1.674,1.475-3.339,2.962-5.051,4.392A12.573,12.573,0,0,1,34.551,29.2c.691.771,1.347,1.453,1.946,2.182q2.606,3.171,5.173,6.375c.892,1.111,1.738,2.259,2.638,3.364a1.851,1.851,0,0,1,.213,2.156,1.964,1.964,0,0,1-2.049,1.005,10.217,10.217,0,0,1-2-.553c-1.061-.388-2.118-.8-3.145-1.267C34.67,41.248,32,40.047,29.391,38.738a30.574,30.574,0,0,1-3.2-2.094c-.391-.262-.767-.547-1.214-.867m12.571,2.6.2-.248c-.156-.276-.294-.564-.469-.827-1.087-1.635-2.191-3.26-3.273-4.9-.643-.975-1.22-2-1.895-2.947s-.707-1.4.1-2.293a5.37,5.37,0,0,1,.99-.8c.543-.37,1.134-.672,1.66-1.064q2.487-1.854,4.939-3.757c1.063-.822,2.1-1.676,3.289-2.628-.844-.111-1.481-.234-2.124-.274-2.946-.183-5.893-.357-8.842-.5a2.724,2.724,0,0,0-1.239.274,1.807,1.807,0,0,1-2.72-1.21c-.173-.593-.3-1.2-.455-1.8-.895-3.479-2.368-6.757-3.527-10.145a18.445,18.445,0,0,0-.853-1.8,5.835,5.835,0,0,0-.258.73q-.675,4-1.337,8.007c-.151.9-.259,1.816-.479,2.7-.3,1.2-.7,2.366-1.029,3.553a1.885,1.885,0,0,1-1.917,1.6c-.91.013-1.821-.147-2.732-.152-2.3-.014-4.6-.032-6.9.057-.67.026-1.427-.267-2.167.316,1.878.993,3.665,1.963,5.476,2.888,1.687.862,3.407,1.658,5.1,2.516a2.283,2.283,0,0,1,1.184,2.761c-.35,1.113-.73,2.218-1.127,3.315-.522,1.442-1.1,2.864-1.6,4.312-.635,1.825-1.23,3.664-1.823,5.5-.216.669-.378,1.356-.6,2.173a60.907,60.907,0,0,0,7.406-7.843c.628-.8,1.214-1.644,1.882-2.414a5.515,5.515,0,0,1,1.523-1.361,2.217,2.217,0,0,1,2.32.482,34.855,34.855,0,0,0,6.6,3.861c.88.344,1.693.856,2.567,1.217.693.287,1.432.461,2.15.685" transform="translate(4.299 1.206)"/><path d="M11.763,46.586a.762.762,0,0,1-.692-.508,1.632,1.632,0,0,0-.4-.524,2.383,2.383,0,0,0-.361-.229,1.247,1.247,0,0,1-.591-.505,2.7,2.7,0,0,1-.2-1.589c.4-1.7.856-3.338,1.346-4.858.55-1.707,1.158-3.425,1.746-5.086q.256-.723.51-1.445c.184-.525.38-1.054.569-1.567.183-.495.372-1.007.55-1.512A1.322,1.322,0,0,0,14.3,28.4l-2.307-1.327c-2.242-1.29-4.36-2.509-6.522-3.757-1.19-.687-2.454-1.419-3.688-2.163a7.393,7.393,0,0,1-1.171-.865,1.719,1.719,0,0,1-.64-2,2.229,2.229,0,0,1,2.006-1.4c.894-.01,1.8-.016,2.683-.022,1.784-.012,3.629-.025,5.442-.068,1.613-.038,3.195-.112,4.869-.189.689-.032,1.4-.065,2.113-.1.12-.432.24-.875.356-1.305.29-1.071.589-2.178.924-3.266.607-1.971,1.257-3.965,1.885-5.893l.428-1.315c.279-.86.572-1.731.855-2.573q.249-.742.5-1.485c.182-.547.439-.824.766-.824a1.093,1.093,0,0,1,.738.412,17.192,17.192,0,0,1,2.055,2.465,37.33,37.33,0,0,1,3.776,7.443c.46,1.205.924,2.4,1.416,3.665.212.545.427,1.1.648,1.669l.082.012a3.849,3.849,0,0,0,.68.059c1.034-.029,2.085-.065,3.1-.1,1.893-.066,3.85-.134,5.777-.155h.244a22.034,22.034,0,0,1,3.7.309,1.921,1.921,0,0,1,1.6,1.094,1.986,1.986,0,0,1-.5,1.938c-.305.377-.614.763-.912,1.136-.69.862-1.4,1.754-2.131,2.609a11.681,11.681,0,0,1-1.259,1.209l-.275.24-.9.792c-1.351,1.193-2.749,2.427-4.156,3.6a6.5,6.5,0,0,1-1.225.745c-.153.078-.309.159-.466.245.178.2.354.389.525.576.457.5.89.972,1.3,1.471,1.567,1.907,3.212,3.933,5.174,6.376.413.514.822,1.044,1.217,1.556.46.6.936,1.213,1.42,1.806a2,2,0,0,1,.228,2.324,2.109,2.109,0,0,1-1.863,1.106,2.334,2.334,0,0,1-.339-.025,10.526,10.526,0,0,1-2.027-.56c-.873-.319-2.02-.753-3.156-1.271l-.858-.391c-2.336-1.065-4.751-2.166-7.084-3.336a17.887,17.887,0,0,1-2.29-1.457c-.3-.215-.616-.437-.928-.647-.267-.179-.528-.369-.8-.57l-.308-.224c-.128.132-.256.26-.38.385-.324.326-.631.634-.905.969a31.045,31.045,0,0,1-4.992,4.943c-1.336,1.035-2.779,1.974-4.175,2.882-.506.329-1.029.669-1.539,1.009a2.237,2.237,0,0,1-.572.244c-.1.03-.186.059-.272.094A1.071,1.071,0,0,1,11.763,46.586ZM22.8.15c-.228,0-.388.336-.481.618q-.247.743-.5,1.486c-.283.841-.575,1.712-.854,2.57L20.534,6.14c-.628,1.927-1.277,3.92-1.883,5.889-.333,1.083-.632,2.187-.921,3.256-.126.465-.256.946-.386,1.412l-.029.105-.109,0c-.748.031-1.5.066-2.221.1-1.676.078-3.259.151-4.875.189-1.816.043-3.662.056-5.447.068-.879.006-1.788.012-2.682.022a1.923,1.923,0,0,0-1.73,1.2c-.233.6-.065,1.1.563,1.674a7.092,7.092,0,0,0,1.123.829c1.231.742,2.494,1.474,3.683,2.16C7.78,24.3,9.9,25.518,12.14,26.809l2.388,1.374.087.05-.013.1c0,.015,0,.045,0,.076a1.581,1.581,0,0,1-.072.454c-.179.508-.368,1.02-.551,1.516-.189.511-.384,1.04-.567,1.562q-.254.723-.51,1.446c-.587,1.66-1.194,3.376-1.743,5.078-.488,1.513-.939,3.14-1.34,4.835a2.391,2.391,0,0,0,.178,1.4,1.054,1.054,0,0,0,.462.364,2.6,2.6,0,0,1,.408.261,1.916,1.916,0,0,1,.48.624c.144.3.3.338.422.338a.792.792,0,0,0,.285-.064c.1-.038.2-.07.292-.1a1.987,1.987,0,0,0,.5-.208c.511-.341,1.035-.681,1.542-1.011,1.39-.9,2.828-1.84,4.155-2.868a30.75,30.75,0,0,0,4.944-4.9c.284-.346.595-.659.924-.99.152-.153.31-.311.466-.475l.09-.094.106.076c.145.1.282.2.415.3.274.2.533.388.795.563.315.211.63.435.935.651A17.664,17.664,0,0,0,29.459,38.6c2.329,1.167,4.741,2.267,7.074,3.331l.858.391c1.126.514,2.266.945,3.134,1.262a10.086,10.086,0,0,0,1.968.545,2.032,2.032,0,0,0,.3.022,1.813,1.813,0,0,0,1.6-.952,1.709,1.709,0,0,0-.2-1.989c-.486-.6-.963-1.215-1.425-1.813-.395-.511-.8-1.04-1.214-1.552-1.962-2.442-3.605-4.467-5.172-6.374-.4-.493-.834-.962-1.289-1.459-.212-.232-.431-.471-.652-.718l-.124-.138.161-.092c.217-.124.432-.234.64-.341a6.283,6.283,0,0,0,1.169-.709c1.4-1.173,2.8-2.406,4.149-3.6l.9-.792.276-.241a11.458,11.458,0,0,0,1.227-1.177c.726-.852,1.437-1.742,2.125-2.6.3-.373.607-.76.913-1.138a1.706,1.706,0,0,0,.452-1.644,1.641,1.641,0,0,0-1.37-.9,21.734,21.734,0,0,0-3.646-.3h-.241c-1.923.021-3.878.089-5.77.155-1.017.035-2.069.072-3.1.1a4.114,4.114,0,0,1-.733-.063c-.064-.01-.119-.018-.159-.022l-.091-.009L31.18,15.7c-.232-.6-.458-1.181-.68-1.752-.492-1.265-.956-2.46-1.416-3.667a37.035,37.035,0,0,0-3.746-7.384A16.91,16.91,0,0,0,23.318.471.862.862,0,0,0,22.8.15ZM12.827,44.2l.133-.482c.073-.267.14-.519.2-.763.131-.495.254-.962.4-1.417.55-1.7,1.172-3.635,1.824-5.507.286-.822.6-1.647.905-2.446.233-.611.474-1.243.7-1.868.437-1.209.805-2.291,1.125-3.309a2.141,2.141,0,0,0-1.109-2.582c-.815-.414-1.652-.821-2.461-1.214-.866-.421-1.762-.856-2.635-1.3-1.257-.642-2.479-1.293-3.774-1.983q-.842-.449-1.7-.905l-.2-.108.181-.143a1.868,1.868,0,0,1,1.226-.4c.172,0,.34.014.5.028a4.373,4.373,0,0,0,.526.024c1.216-.047,2.552-.068,4.2-.068.841,0,1.7.005,2.522.011h.18c.436,0,.876.04,1.3.077.469.04.954.082,1.427.075a1.742,1.742,0,0,0,1.774-1.493c.133-.474.278-.951.418-1.414.212-.7.431-1.419.61-2.135.158-.633.259-1.3.357-1.936.038-.247.077-.5.119-.754q.239-1.431.477-2.862c.281-1.686.571-3.43.86-5.145a2.033,2.033,0,0,1,.131-.4c.036-.092.081-.207.133-.351l.121-.337.155.323c.115.24.225.454.332.661a8.676,8.676,0,0,1,.527,1.153c.408,1.192.862,2.392,1.3,3.552a63.229,63.229,0,0,1,2.228,6.6c.056.217.109.439.161.653.09.376.184.764.293,1.139a1.643,1.643,0,0,0,1.568,1.348,2.216,2.216,0,0,0,.943-.232A2.839,2.839,0,0,1,32.123,18c3.167.15,6.248.336,8.844.5.434.027.859.09,1.351.163.247.037.5.075.783.112l.349.046-.275.22c-.375.3-.735.591-1.086.874-.759.613-1.477,1.192-2.2,1.755-1.794,1.388-3.41,2.617-4.941,3.758-.305.227-.635.427-.953.619-.237.143-.482.291-.712.448a5.2,5.2,0,0,0-.963.778c-.766.854-.7,1.236-.086,2.106.405.572.78,1.176,1.143,1.76.244.393.5.8.755,1.191.619.937,1.255,1.886,1.871,2.8.46.686.936,1.4,1.4,2.1.124.186.23.384.333.576.047.087.094.175.142.261l.05.088-.325.407-.1-.031c-.219-.068-.444-.133-.662-.2a14.174,14.174,0,0,1-1.5-.494c-.42-.174-.829-.383-1.226-.586-.434-.222-.883-.452-1.339-.63a30.522,30.522,0,0,1-5.882-3.375l-.742-.5a2.871,2.871,0,0,0-1.531-.631,1.375,1.375,0,0,0-.637.158A5.307,5.307,0,0,0,22.505,33.6c-.439.506-.851,1.054-1.25,1.584-.2.271-.415.551-.627.824A60.865,60.865,0,0,1,13.2,43.866ZM6.8,20.269q.75.4,1.484.789c1.293.689,2.515,1.34,3.769,1.981.87.444,1.764.879,2.629,1.3.81.394,1.649.8,2.466,1.216a2.437,2.437,0,0,1,1.259,2.94c-.321,1.022-.691,2.108-1.129,3.321-.227.627-.468,1.26-.7,1.872-.3.8-.617,1.62-.9,2.438-.65,1.868-1.273,3.8-1.822,5.5-.144.446-.266.91-.4,1.4l-.075.282a60.841,60.841,0,0,0,7.013-7.491c.211-.27.421-.549.624-.819.4-.534.817-1.086,1.263-1.6A5.732,5.732,0,0,1,23.847,32a1.691,1.691,0,0,1,.773-.191,3.2,3.2,0,0,1,1.7.682l.743.5a30.3,30.3,0,0,0,5.823,3.344c.47.184.925.417,1.366.643.391.2.8.407,1.2.576a13.95,13.95,0,0,0,1.469.483c.187.054.38.11.571.168l.071-.089-.1-.178c-.1-.185-.2-.377-.318-.552-.465-.7-.941-1.408-1.4-2.094-.616-.918-1.253-1.867-1.872-2.8-.261-.395-.514-.8-.759-1.2-.36-.581-.733-1.181-1.133-1.745-.733-1.035-.71-1.568.107-2.48a5.442,5.442,0,0,1,1.017-.826c.237-.162.486-.312.726-.457.312-.189.635-.384.929-.6,1.529-1.14,3.144-2.368,4.937-3.755.726-.562,1.442-1.14,2.2-1.751l.815-.657-.442-.065c-.485-.072-.9-.134-1.325-.16-2.595-.162-5.674-.347-8.839-.5l-.084,0a2.644,2.644,0,0,0-1.084.261,2.512,2.512,0,0,1-1.072.261,1.925,1.925,0,0,1-1.856-1.564c-.112-.382-.206-.774-.3-1.153-.051-.213-.1-.433-.159-.649A63.009,63.009,0,0,0,25.34,8.879c-.441-1.162-.9-2.364-1.306-3.562a8.468,8.468,0,0,0-.51-1.113c-.06-.116-.12-.234-.183-.357l-.013.034a1.827,1.827,0,0,0-.115.344c-.289,1.714-.579,3.458-.86,5.144q-.238,1.431-.477,2.863c-.042.249-.081.5-.119.75-.1.647-.2,1.316-.363,1.963-.18.724-.4,1.449-.614,2.15-.14.461-.285.937-.416,1.407a2.031,2.031,0,0,1-2.059,1.712c-.488.007-.981-.035-1.457-.076-.42-.036-.854-.073-1.278-.076h-.18c-.826-.005-1.681-.011-2.521-.011-1.648,0-2.98.022-4.192.068a4.694,4.694,0,0,1-.562-.024c-.157-.013-.318-.027-.478-.027A1.638,1.638,0,0,0,6.8,20.269Z" transform="translate(4.299 1.206)"/><path d="M1.217,7.732C.962,7.584.475,7.456.261,7.142A1.579,1.579,0,0,1,.213,5.477a5.371,5.371,0,0,1,2.5-2.343C4.779,2.126,6.913,1.261,9.028.358A8.2,8.2,0,0,1,10.191.049c.344-.09.673-.087.864.265.225.412-.028.705-.32.944-.54.44-1.083.877-1.652,1.278C7.147,3.905,5.2,5.259,3.253,6.615c-.473.33-.948.656-1.434.966a2.562,2.562,0,0,1-.6.15" transform="translate(0 33.903)"/><path d="M1.193,7.891l-.052-.03c-.066-.038-.154-.077-.248-.119a1.71,1.71,0,0,1-.756-.516A1.718,1.718,0,0,1,.08,5.408,5.487,5.487,0,0,1,2.649,3C4.279,2.2,5.98,1.485,7.624.79Q8.3.506,8.969.22A4.422,4.422,0,0,1,9.78-.01c.124-.027.251-.054.373-.086a1.474,1.474,0,0,1,.37-.054.709.709,0,0,1,.663.393.87.87,0,0,1-.357,1.132c-.548.446-1.087.88-1.66,1.285C7.525,3.822,5.844,4.993,4.218,6.125l-.88.613c-.453.316-.941.652-1.439.969a.97.97,0,0,1-.361.111c-.081.015-.173.032-.287.059ZM10.524.15a1.184,1.184,0,0,0-.295.044C10.1.228,9.97.256,9.843.283A4.135,4.135,0,0,0,9.087.5q-.672.287-1.346.571C6.1,1.76,4.4,2.476,2.78,3.268A5.194,5.194,0,0,0,.346,5.545,1.43,1.43,0,0,0,.385,7.058a1.476,1.476,0,0,0,.63.41c.08.035.156.069.224.1.1-.022.178-.037.246-.049a.8.8,0,0,0,.254-.069c.493-.314.978-.648,1.429-.962l.88-.613C5.672,4.747,7.352,3.576,9,2.414c.565-.4,1.1-.83,1.643-1.272.351-.286.428-.491.283-.756A.413.413,0,0,0,10.524.15Z" transform="translate(0 33.903)"/><path d="M0,1.824A1.651,1.651,0,0,1,1.914.05a2.956,2.956,0,0,1,1.4.8A42.713,42.713,0,0,1,7.957,7.332c.2.364.441.7.042,1.079-.383.36-.764.144-1.111-.048a10.582,10.582,0,0,1-1-.675A25.471,25.471,0,0,1,.819,3.365,7.312,7.312,0,0,1,0,1.824" transform="translate(9.627 3.355)"/><path d="M7.551,8.755A1.56,1.56,0,0,1,6.825,8.5l-.01-.005A8.019,8.019,0,0,1,6,7.953L5.8,7.81,5.78,7.794A25.608,25.608,0,0,1,.7,3.46,4.956,4.956,0,0,1,.025,2.242c-.059-.137-.11-.255-.158-.349l-.018-.034V1.821A1.9,1.9,0,0,1,1.565-.15a1.386,1.386,0,0,1,.391.056A3.153,3.153,0,0,1,3.424.754a43.536,43.536,0,0,1,4.664,6.5l.04.071c.193.339.433.76-.026,1.19A.791.791,0,0,1,7.551,8.755ZM.151,1.791C.2,1.886.246,2,.3,2.123A4.718,4.718,0,0,0,.935,3.269,25.382,25.382,0,0,0,5.954,7.55l.022.016.2.144a7.793,7.793,0,0,0,.784.522l.01.005a1.328,1.328,0,0,0,.581.218A.489.489,0,0,0,7.9,8.3c.274-.257.178-.459-.029-.823L7.826,7.4A43.256,43.256,0,0,0,3.194.947,2.791,2.791,0,0,0,1.871.194,1.086,1.086,0,0,0,1.565.15,1.589,1.589,0,0,0,.151,1.791Z" transform="translate(9.627 3.355)"/><path d="M9.528,4.25A22.612,22.612,0,0,1,6.8,3.7C4.86,3.07,2.952,2.343,1.034,1.644a1.89,1.89,0,0,1-.756-.423A.952.952,0,0,1,.016.471.888.888,0,0,1,.672.019,6.531,6.531,0,0,1,2.2.09,46.268,46.268,0,0,1,9.21,1.222a11.035,11.035,0,0,1,1.737.63,1.085,1.085,0,0,1,.716,1.226,1.37,1.37,0,0,1-1.2,1.1c-.253.036-.51.04-.933.071" transform="translate(50.029 29.445)"/><path d="M9.519,4.4l-.02,0C9.26,4.351,9,4.309,8.735,4.265a13.518,13.518,0,0,1-1.98-.427c-1.521-.49-3.045-1.051-4.519-1.594Q1.61,2.014.983,1.785a2.016,2.016,0,0,1-.816-.463,1.08,1.08,0,0,1-.294-.9A1.024,1.024,0,0,1,.658-.13c.143-.013.295-.02.45-.02a7.7,7.7,0,0,1,1.116.091C2.911.042,3.615.122,4.3.2a27.23,27.23,0,0,1,4.959.879l.164.05a10.046,10.046,0,0,1,1.6.589,1.211,1.211,0,0,1,.8,1.391,1.514,1.514,0,0,1-1.329,1.219c-.171.024-.342.035-.558.047-.113.007-.239.014-.385.025ZM1.108.15C.962.15.82.156.685.169a.753.753,0,0,0-.527.35.831.831,0,0,0,.232.6,1.78,1.78,0,0,0,.7.383q.628.229,1.255.46c1.471.542,2.992,1.1,4.507,1.59a13.086,13.086,0,0,0,1.936.416c.265.043.516.084.754.13.139-.01.26-.017.369-.024.209-.013.374-.022.533-.045a1.225,1.225,0,0,0,1.077-.983c.093-.452-.115-.8-.637-1.062a9.821,9.821,0,0,0-1.549-.57l-.164-.05A27,27,0,0,0,4.262.5C3.579.42,2.872.34,2.18.238A7.4,7.4,0,0,0,1.108.15Z" transform="translate(50.029 29.445)"/><path d="M0,7.746A17.094,17.094,0,0,1,1,5.917Q2.585,3.689,4.27,1.532A6.992,6.992,0,0,1,5.552.347,1.064,1.064,0,0,1,7.044.269a1.206,1.206,0,0,1,.332,1.664,7.085,7.085,0,0,1-1.232,1.8C4.7,5.075,3.2,6.346,1.676,7.593A1.188,1.188,0,0,1,0,7.746" transform="translate(38.939 0)"/><path d="M.758,8.18a1.449,1.449,0,0,1-.845-.312l-.107-.077.063-.116c.109-.2.21-.406.309-.6a9.044,9.044,0,0,1,.7-1.241c1.05-1.475,2.152-2.952,3.275-4.39A7.181,7.181,0,0,1,5.461.228,1.53,1.53,0,0,1,6.376-.15a1.215,1.215,0,0,1,.76.3A1.361,1.361,0,0,1,7.507,2l-.054.1A6.782,6.782,0,0,1,6.245,3.845C4.7,5.288,3.114,6.608,1.772,7.709A1.626,1.626,0,0,1,.758,8.18ZM.2,7.7a1.067,1.067,0,0,0,.562.183,1.347,1.347,0,0,0,.824-.4C2.92,6.379,4.5,5.063,6.041,3.625A6.565,6.565,0,0,0,7.19,1.959l.054-.1A1.06,1.06,0,0,0,6.951.386.918.918,0,0,0,6.376.15a1.253,1.253,0,0,0-.733.316A6.927,6.927,0,0,0,4.388,1.625C3.268,3.059,2.169,4.533,1.121,6A8.824,8.824,0,0,0,.445,7.2C.365,7.366.283,7.531.2,7.7Z" transform="translate(38.939 0)"/><path d="M.016,4.605A11.339,11.339,0,0,1,.794.439c.073-.2.35-.448.522-.439a.725.725,0,0,1,.506.467,12.9,12.9,0,0,1,.25,5.86,2.3,2.3,0,0,1-.253.6A.741.741,0,0,1,.44,6.936,6.322,6.322,0,0,1,.024,5.367a3.9,3.9,0,0,1-.009-.762" transform="translate(29.604 44.794)"/><path d="M1.1,7.553A.9.9,0,0,1,.306,7,4.968,4.968,0,0,1-.065,5.694c-.019-.1-.037-.2-.057-.3a2.239,2.239,0,0,1-.019-.559c0-.081.008-.157.008-.232A11.429,11.429,0,0,1,.653.387a.878.878,0,0,1,.67-.537.864.864,0,0,1,.646.586,12.913,12.913,0,0,1,.249,5.927,2.448,2.448,0,0,1-.269.645A1.02,1.02,0,0,1,1.1,7.553ZM1.308.15A.64.64,0,0,0,.934.491,11.139,11.139,0,0,0,.166,4.6c0,.086,0,.169-.008.25a1.988,1.988,0,0,0,.014.485c.02.1.039.2.058.3A4.75,4.75,0,0,0,.575,6.869a.608.608,0,0,0,.526.384.727.727,0,0,0,.59-.4,2.144,2.144,0,0,0,.236-.564A12.671,12.671,0,0,0,1.675.5.6.6,0,0,0,1.308.15Z" transform="translate(29.604 44.794)"/></g></g></svg>