<svg xmlns="http://www.w3.org/2000/svg" xmlns:xlink="http://www.w3.org/1999/xlink" width="64.068" height="93.307" viewBox="0 0 64.068 93.307">
  <defs>
    <clipPath id="clip-path">
      <rect id="Rectangle_841" data-name="Rectangle 841" width="64.068" height="93.307" fill="none" stroke="#000" stroke-width="1.5"/>
    </clipPath>
  </defs>
  <g id="Group_87" data-name="Group 87" transform="translate(0)">
    <g id="Group_86" data-name="Group 86" transform="translate(-0.001)">
      <g id="Group_78" data-name="Group 78" transform="translate(0)">
        <g id="Group_77" data-name="Group 77" clip-path="url(#clip-path)">
          <path id="Path_318" data-name="Path 318" d="M41.088,16.008s3.133,17.046,11.015,25.8S66.049,58.315,66.049,58.315,45.434,65.2,43.615,77.586L41.8,89.975S41.19,62.429,23,58.315c0,0,17.381-26.538,18.088-42.307" transform="translate(-9.055 -6.302)" fill="#fdc541" stroke="#000" stroke-width="1.5"/>
        </g>
      </g>
      <g id="Group_80" data-name="Group 80" transform="translate(0 0)">
        <g id="Group_124" data-name="Group 124" transform="translate(0)">
          <path id="Path_319" data-name="Path 319" d="M4.217,48.957a38.18,38.18,0,0,1,8.84-5.6A20.108,20.108,0,0,0,23.418,32.594c1.779-4.588,6.626-24.35,6.96-25.229.37-.976.7-1.967,1.062-2.947A3.175,3.175,0,0,1,34.8,2.281a3.329,3.329,0,0,1,3.358,2.128,47.661,47.661,0,0,1,1.5,4.858c.636,2.749,1.073,5.544,1.713,8.292A35.457,35.457,0,0,0,42.73,21.5c1.832,5.062,3.4,10.267,6.581,14.694a24.721,24.721,0,0,0,4.553,4.6c2.057,1.661,4.382,2.99,6.5,4.584,1.339,1.008,2.651,2.059,3.016,3.941.691,3.591.032,5.25-3.307,6.9-3.641,1.8-7.313,3.539-11.04,5.15a11.742,11.742,0,0,0-6.859,7.547,125.776,125.776,0,0,0-2.658,12.4c-.466,2.4-.636,4.87-1.168,7.256-.607,2.7-1.952,3.715-4.09,4.124-2.693.516-5.063-1.664-5.682-4.4-.85-3.757-1.174-7.631-1.808-11.441A49.854,49.854,0,0,0,22.65,63.664c-1.542-3.254-4.748-4.439-7.971-5.452-2.513-.791-5.012-1.632-7.5-2.5-2.269-.793-3.429-2.268-2.882-4.8a7.694,7.694,0,0,0-.082-1.95m15.624,1.475a20.275,20.275,0,0,1,3.106,1.414c2.02,1.359,4.3,2.569,5.813,4.389a22.839,22.839,0,0,1,4.6,8.669c.129.483.708.848,1.2,1.408.34-.662.531-.987.681-1.328A22.575,22.575,0,0,1,47.883,52.647a38.629,38.629,0,0,0,3.75-2.009c-1.886-1.643-3.579-3.112-5.266-4.59-4.15-3.623-6.668-8.386-9.034-13.212A75.378,75.378,0,0,1,34.747,25.7a13.373,13.373,0,0,0-1.124-1.87c-.747,3.707-1.086,7.106-2.163,10.251-1.085,3.167-1.681,6.672-4.207,9.194-2.376,2.375-4.832,4.667-7.415,7.152" transform="translate(-1.639 -0.89)" fill="#fff" stroke="#000" stroke-width="1.5"/>
        </g>
      </g>
    </g>
  </g>
</svg>
