<svg xmlns="http://www.w3.org/2000/svg" width="74.838" height="51.369" viewBox="0 0 74.838 51.369"><g transform="translate(0.75 0.75)"><path d="M16.689,12.294c2.2-2.079,4.23-4.248,6.518-6.1A69.619,69.619,0,0,1,30.749.956,8.383,8.383,0,0,1,34.4.014a2.7,2.7,0,0,1,2.96,1.552,3.688,3.688,0,0,1-.464,4.009,16.978,16.978,0,0,1-4.653,3.493A38.769,38.769,0,0,0,21.192,19.09c-2.746,3.631-6.275,3.437-8.649-.432A93.531,93.531,0,0,0,2.872,4.915,21.208,21.208,0,0,0,.554,2.962C-.184,2.345-.2,1.6.59,1.078A3.4,3.4,0,0,1,4.475.953,43.008,43.008,0,0,1,10.336,5.4c2.261,2.146,4.249,4.581,6.353,6.889" transform="translate(0 0)" fill="#fd7757"/><path d="M16.919,22.441c-1.892,0-3.673-1.2-5.015-3.391A92.435,92.435,0,0,0,2.313,5.415,10.341,10.341,0,0,0,.872,4.169c-.263-.2-.536-.411-.8-.631A2.016,2.016,0,0,1-.748,1.9,1.888,1.888,0,0,1,.176.453a4.571,4.571,0,0,1,2.51-.8,3.918,3.918,0,0,1,2.2.677A43.711,43.711,0,0,1,10.852,4.86c1.6,1.523,3.086,3.2,4.519,4.828.444.5.9,1.02,1.357,1.53.481-.463.957-.93,1.421-1.386C19.61,8.4,21.12,6.917,22.735,5.61A70.127,70.127,0,0,1,30.358.316,9.17,9.17,0,0,1,34.339-.734c.131-.01.263-.015.393-.015a3.3,3.3,0,0,1,3.33,2.062,4.418,4.418,0,0,1-.595,4.742,16.056,16.056,0,0,1-4.408,3.4l-.435.26a37.763,37.763,0,0,0-10.834,9.832C20.356,21.439,18.672,22.441,16.919,22.441ZM2.687,1.151A3.081,3.081,0,0,0,1,1.7c-.183.121-.252.228-.255.282s.053.206.286.4.487.39.75.592A11.617,11.617,0,0,1,3.431,4.415a93.642,93.642,0,0,1,9.752,13.851c1.059,1.725,2.386,2.675,3.736,2.675,1.265,0,2.535-.8,3.675-2.3a41.7,41.7,0,0,1,5.126-5.647,38.519,38.519,0,0,1,6.132-4.567l.44-.262a14.683,14.683,0,0,0,4.023-3.068,2.957,2.957,0,0,0,.334-3.276A1.893,1.893,0,0,0,34.732.751c-.092,0-.186,0-.28.011A7.818,7.818,0,0,0,31.14,1.6a68.659,68.659,0,0,0-7.461,5.18C22.12,8.038,20.7,9.43,19.2,10.9c-.648.636-1.317,1.293-2,1.935l-.555.525-.515-.565c-.638-.7-1.274-1.421-1.888-2.118-1.411-1.6-2.871-3.255-4.426-4.732a42.449,42.449,0,0,0-5.76-4.371A2.443,2.443,0,0,0,2.687,1.151Z" transform="translate(0 0)"/><path d="M110.945,74.521c1.419-2.191,2.5-4.12,3.84-5.858a30.6,30.6,0,0,1,4.58-5.063c2.056-1.7,4.1-1.116,5.345,1.067a2.112,2.112,0,0,1,.1,2.394c-.609.923-1.184,1.872-1.84,2.76-2.57,3.48-5.4,6.792-7.679,10.452-1.984,3.188-6.352,3.961-8.767.248-1.8-2.773-3.284-5.755-4.96-8.613-.9-1.536-1.875-3.032-2.886-4.5-.561-.814-1.163-1.643-.434-2.536a1.934,1.934,0,0,1,2.791-.157,65.984,65.984,0,0,1,5.548,4.86c1.441,1.413,2.686,3.026,4.362,4.944" transform="translate(-51.803 -33.13)" fill="#fd7757"/><path d="M110.709,83.749A5.7,5.7,0,0,1,105.9,80.93c-1.139-1.752-2.162-3.606-3.151-5.4-.591-1.07-1.2-2.177-1.827-3.244-.817-1.393-1.751-2.849-2.856-4.452l-.035-.051a5.088,5.088,0,0,1-.776-1.43,2.041,2.041,0,0,1,.414-1.955,2.5,2.5,0,0,1,1.96-.952,3.078,3.078,0,0,1,1.874.678,66.877,66.877,0,0,1,5.611,4.915c1,.983,1.884,2.027,2.9,3.235.273.324.552.653.842.993.246-.39.485-.772.718-1.147.865-1.388,1.682-2.7,2.617-3.916a31.428,31.428,0,0,1,4.7-5.184,4.5,4.5,0,0,1,2.864-1.157,4.224,4.224,0,0,1,3.61,2.431,3.7,3.7,0,0,1,.518,1.49,2.581,2.581,0,0,1-.443,1.688c-.177.268-.355.545-.527.813-.422.656-.858,1.334-1.336,1.98-.834,1.13-1.708,2.257-2.553,3.348a85.774,85.774,0,0,0-5.093,7.055A6.3,6.3,0,0,1,110.709,83.749Zm-11.085-18.8a.987.987,0,0,0-.8.4c-.3.364-.224.631.435,1.584l.036.052c1.126,1.633,2.079,3.12,2.915,4.544.636,1.084,1.251,2.2,1.847,3.278.976,1.769,1.986,3.6,3.1,5.305a4.246,4.246,0,0,0,3.555,2.137,4.791,4.791,0,0,0,3.947-2.372,86.9,86.9,0,0,1,5.181-7.181c.84-1.084,1.708-2.2,2.532-3.32.449-.607.872-1.265,1.281-1.9.174-.271.355-.551.536-.827.262-.4.332-.806-.126-1.61a2.807,2.807,0,0,0-2.307-1.674,3.058,3.058,0,0,0-1.909.814,29.73,29.73,0,0,0-4.463,4.941c-.89,1.159-1.688,2.439-2.533,3.8-.4.646-.819,1.315-1.271,2.013l-.54.834-.654-.748c-.543-.622-1.036-1.205-1.513-1.77-1-1.18-1.857-2.2-2.809-3.132a65.369,65.369,0,0,0-5.484-4.8A1.6,1.6,0,0,0,99.623,64.948Z" transform="translate(-51.803 -33.13)"/></g></svg>