<svg xmlns="http://www.w3.org/2000/svg" xmlns:xlink="http://www.w3.org/1999/xlink" width="61.645" height="61.577" viewBox="0 0 61.645 61.577">
  <defs>
    <clipPath id="clip-path">
      <rect id="Rectangle_1033" data-name="Rectangle 1033" width="61.645" height="61.577" fill="none"/>
    </clipPath>
  </defs>
  <g id="Group_247" data-name="Group 247" transform="translate(0)">
    <g id="Group_246" data-name="Group 246" transform="translate(0)" clip-path="url(#clip-path)">
      <path id="Path_551" data-name="Path 551" d="M62.574,30.252A30.252,30.252,0,1,1,32.322,0,30.252,30.252,0,0,1,62.574,30.252" transform="translate(-1.498)" fill="#fdc62e"/>
      <path id="Path_552" data-name="Path 552" d="M73,68.411c-.457-.306-.671.329-1.024.221l-1.326-.387A3.649,3.649,0,0,0,67.871,67.2c-.838-.041-1.408.585-2.174.651-.041,0-.087.051-.113.089-.47.672-1.146,1.233-1.205,2.13-.034.521-.028,1.044-.028,1.567a8.886,8.886,0,0,0,.453,1.983,8.607,8.607,0,0,0,1.037,2.125,7.525,7.525,0,0,0,.751,1.044,3.733,3.733,0,0,0,2.286,1.38,3.242,3.242,0,0,0,1.149-.009,7.318,7.318,0,0,0,3.99-2.124,3.909,3.909,0,0,0,1.2-2.851c-.047-1.2.144-2.4.079-3.6-.035-.663-.127-1.309-.189-1.962a10.664,10.664,0,0,1,.174-2A20.935,20.935,0,0,0,75.5,63.1c-.041-1.745.06-3.486.129-5.225a9.382,9.382,0,0,1,.17-2.592,4.617,4.617,0,0,0-.071-1.654,29.348,29.348,0,0,1,.4-5.366,2.449,2.449,0,0,1,.7-1.162c.541-.619.567-.6,1.489-.648.279.659.935,1.04,1.377,1.606a13.623,13.623,0,0,1,.718,1.277,2.8,2.8,0,0,0,.575.7,33.547,33.547,0,0,0,3.066,2.211,8.221,8.221,0,0,0,1.8.769c.369.13.712.33,1.07.489.28.124.566.235.977.4.036.252.087.59.131.929a1.182,1.182,0,0,1-.01.229c-.109,1.609-.641,1.611-2.075,1.677a4.187,4.187,0,0,1-2.245-.617c-.571-.319-1.246-.466-1.787-.822-.412-.271-.977-.41-1.168-1-.042-.131-.378-.166-.636-.269a4.8,4.8,0,0,0-.063.595c.035,1.1.085,2.2.117,3.307.019.643.009,1.286.023,1.93s.045,1.3.057,1.946q.027,1.445.035,2.891a9.892,9.892,0,0,1-.041,1.875c-.085.449-.019.891-.11,1.33a38.792,38.792,0,0,0-.515,4.406,10.557,10.557,0,0,1-.848,3.474A7.393,7.393,0,0,1,78,77.443c-.313.4-.545.869-1.15.9-.1.006-.2.146-.3.223-.47.367-.947.726-1.409,1.1-.214.175-.429.576-.588.549-.545-.094-.682.38-1.008.574-.218.13-.539.215-.628.407-.159.34-.477.157-.649.3a3.058,3.058,0,0,1-1.461.553,8.976,8.976,0,0,1-2.116.231c-.457-.015-.922.086-1.375.042A4.436,4.436,0,0,1,65.859,82a8.4,8.4,0,0,1-2.453-1.83A15.164,15.164,0,0,1,60.688,75.9a6.687,6.687,0,0,1-.5-3.129,4.3,4.3,0,0,0-.045-.437c-.02-.367-.047-.735-.045-1.1,0-.257.143-.557.053-.764a2.964,2.964,0,0,1,.244-2.155,6.783,6.783,0,0,1,2.491-3.32,7.021,7.021,0,0,1,3.943-1.527,2.231,2.231,0,0,1,1.494.226.731.731,0,0,0,.364.076,8.683,8.683,0,0,1,3.873,1.061,1.9,1.9,0,0,1,1.147,2.249c-.063.242-.056.478-.311.665-.186.137-.257.43-.391.673" transform="translate(-43.419 -33.611)"/>
      <path id="Path_553" data-name="Path 553" d="M25.247.384C26.372.276,27.215.178,28.062.117a24.811,24.811,0,0,1,5.531.074c1.246.189,2.513.263,3.741.526a11.952,11.952,0,0,1,2.431.673c.871.389,1.825.589,2.725.919.62.227,1.215.523,1.812.808a16.179,16.179,0,0,1,1.473.762c.981.6,1.945,1.224,2.911,1.846.41.264.819.532,1.21.822.555.412,1.108.83,1.632,1.281a3.394,3.394,0,0,1,.491.676c.054.079.081.217.15.24A2,2,0,0,1,53.485,10a.283.283,0,0,0,.154.163c.552.146.692.744,1.129,1.013a.212.212,0,0,1,.05.059c.657.9,1.341,1.786,1.966,2.711a26.218,26.218,0,0,1,2.834,5.362A31.072,31.072,0,0,1,61.2,25a28.1,28.1,0,0,1,.441,4.305c.026,1.321-.025,2.646-.1,3.966a19.814,19.814,0,0,1-.7,4.19,48.3,48.3,0,0,1-1.511,4.764,32.663,32.663,0,0,1-1.774,3.663,4.867,4.867,0,0,1-1.241,1.88c-.236.17-.254.543-.463.817q-1.11,1.457-2.345,2.8a6.958,6.958,0,0,1-1.753,1.747c-.211.11-.321.4-.512.564-.46.4-.97.74-1.408,1.159a17.711,17.711,0,0,1-2.279,1.637,12.641,12.641,0,0,1-2.539,1.465c-.555.218-1.041.607-1.593.836a32.543,32.543,0,0,1-3.206,1.2c-.75.222-1.494.441-2.234.7a14.428,14.428,0,0,1-2.387.452,7.673,7.673,0,0,1-1.291.179,16.058,16.058,0,0,0-2.64.172,9.337,9.337,0,0,1-2.595-.021,3.775,3.775,0,0,1-1.547-.242c-.312-.174-.778-.066-1.174-.1a13.444,13.444,0,0,1-3.29-.62,23.088,23.088,0,0,1-2.572-.689c-.775-.372-1.6-.6-2.375-.932a28.5,28.5,0,0,1-2.979-1.551,24.063,24.063,0,0,1-2.151-1.412c-.782-.568-1.549-1.162-2.283-1.792a30.594,30.594,0,0,1-4.27-4.5,29.227,29.227,0,0,1-2.5-3.753A35.031,35.031,0,0,1,2.013,41.7,30.543,30.543,0,0,1,0,30.926a29.367,29.367,0,0,1,.786-7.2,50.882,50.882,0,0,1,1.67-5.165c.386-1.016,1.046-1.925,1.515-2.913a19.635,19.635,0,0,1,1.86-2.985A24.5,24.5,0,0,1,9.482,8.515c.752-.663,1.481-1.356,2.267-1.975A23.469,23.469,0,0,1,15.82,3.788c1.335-.659,2.644-1.381,4.012-1.963a9.708,9.708,0,0,1,2.9-.9A2.6,2.6,0,0,0,23.791.6,3.161,3.161,0,0,1,25.247.384M23.374,4.438c-.34.149-.544.242-.752.33a4.964,4.964,0,0,1-.678.273,14.817,14.817,0,0,0-3.662,1.437c-.641.363-1.332.637-2,.955a1.367,1.367,0,0,0-.182.137c-.518.369-1.039.734-1.555,1.107a23.742,23.742,0,0,0-2.085,1.539c-.789.713-1.5,1.515-2.22,2.3a20.931,20.931,0,0,0-2.614,3.436c-.408.687-1.123,1.174-1.236,2.068-.044.346-.436.634-.579.984-.355.87-.675,1.755-.978,2.645-.363,1.067-.669,2.154-1.051,3.214-.238.662-.246,1.362-.428,2.039a23.586,23.586,0,0,0-.184,2.711,16.681,16.681,0,0,0,.113,4.381,25.9,25.9,0,0,0,1.657,6.683A24.873,24.873,0,0,0,6.512,44.1a30.083,30.083,0,0,0,1.635,2.647,31.228,31.228,0,0,0,3.326,3.9,29.586,29.586,0,0,0,4.464,3.505c.529.344,1.074.665,1.627.969.418.23.857.421,1.289.625q1.138.535,2.28,1.061a1.525,1.525,0,0,0,.228.043c.418.114.84.215,1.251.352a8.908,8.908,0,0,0,1.486.533,39.291,39.291,0,0,0,4.794.642c1.15.019,2.3.108,3.449.121.319,0,.64-.217.961-.222a19.674,19.674,0,0,0,5.049-.888,30.747,30.747,0,0,0,3.441-1.257,26.244,26.244,0,0,0,7.417-4.749,31.329,31.329,0,0,0,3.153-3.429,19.468,19.468,0,0,0,2.186-3.259,28.825,28.825,0,0,0,2.211-4.958,29.841,29.841,0,0,0,1.192-5.421,23.668,23.668,0,0,0-.027-6.3,22.613,22.613,0,0,0-.45-2.87c-.442-1.545-.975-3.07-1.562-4.567A22.373,22.373,0,0,0,52.6,14.634a3.355,3.355,0,0,1-.788-1.112c-.174-.741-1.028-.872-1.2-1.554-.566-.206-.8-.748-1.159-1.158-.083-.094-.124-.3-.2-.313-.593-.064-.893-.546-1.255-.9-.522-.506-1.31-.7-1.635-1.447-.061-.138-.351-.179-.54-.255a1.688,1.688,0,0,1-.358-.116,19.064,19.064,0,0,0-3.3-1.986,7.964,7.964,0,0,0-2.776-1.005,4.366,4.366,0,0,1-1.311-.508c-.568-.243-1.194-.226-1.784-.472a2.188,2.188,0,0,0-1.66-.21c-.148.058-.355-.047-.535-.053a28.709,28.709,0,0,0-2.9-.222c-.834.055-1.669.093-2.5.125a3.681,3.681,0,0,0-.732-.037c-.918.241-1.821.538-2.737.786-.229.062-.569-.086-.718.035a1.161,1.161,0,0,1-1.129.205" transform="translate(0 0)"/>
    </g>
  </g>
</svg>
