<svg xmlns="http://www.w3.org/2000/svg" xmlns:xlink="http://www.w3.org/1999/xlink" width="57.992" height="58" viewBox="0 0 57.992 58"><defs><clipPath id="a"><rect width="57.992" height="58" fill="none"/></clipPath></defs><g transform="translate(-166 -318.124)"><g transform="translate(166 318.124)"><g clip-path="url(#a)"><path d="M90.735,217.078l-.4-2.849c2.837,0,5.57.017,8.3-.006,1.659-.014,3.318-.095,4.977-.138,1.3-.034,2.6-.039,3.9-.086,2.271-.082,4.541-.2,6.813-.276,2.014-.066,4.032-.048,6.043-.148a30.74,30.74,0,0,0,6.538-.719c1.1-.3,2.2-.583,3.434-.908a10.956,10.956,0,0,1-.32,1.67c-.448,1.257-.909,2.515-1.472,3.73-.865,1.867-1.8,3.707-2.742,5.541a40.586,40.586,0,0,1-2.157,3.915,12.451,12.451,0,0,1-4.355,3.814,25.939,25.939,0,0,1-5.712,2.369,27.727,27.727,0,0,1-4.147.728,45.1,45.1,0,0,1-7.89.18,38.6,38.6,0,0,1-6.718-1c-.543-.124-1.086-.253-1.628-.38,0-.067,0-.134,0-.2a6.935,6.935,0,0,1,.749-.142c.821-.068,1.652-.067,2.464-.186a1.88,1.88,0,0,0,1.653-2.362c-.389-1.893-.768-3.789-1.069-5.694a14.585,14.585,0,0,1-.168-2.975,2.32,2.32,0,0,0-1.379-2.3,12.634,12.634,0,0,0-4.018-1.417c-.21-.035-.415-.092-.694-.155" transform="translate(-81 -177.512)" fill="#a9ebe2"/><path d="M34.061,186.2c-.051-.3-.074-.5-.123-.7-.276-1.1-1.185-1.35-2.023-.552a1.99,1.99,0,0,0-.414.476c-.326.624-.879.648-1.468.6-.778-.06-1.556-.153-2.335-.178a24.444,24.444,0,0,1-4.945-.955,4.926,4.926,0,0,1-1.029-.588c.88-.178,1.578-.375,2.289-.453,2.363-.259,4.729-.487,7.1-.7,2.6-.24,5.208-.477,7.815-.671.986-.074,1.981-.02,2.971-.034,1.563-.023,3.126-.076,4.689-.079,2.767,0,5.534,0,8.3.039q2.427.033,4.851.182a17.476,17.476,0,0,1,4.811,1.079c.475.17.942.364,1.484.575a2.8,2.8,0,0,1-1.642,1.02,22.78,22.78,0,0,1-3.1.566c-1.647.144-3.3.182-4.957.237-1.167.039-2.335.034-3.5.047-.9.009-1.8.009-2.7.024-1.834.031-3.667.092-5.5.1-1.135,0-2.27-.075-3.406-.106-.3-.008-.592.039-.887.03a45.712,45.712,0,0,1-5.207-.019,5.283,5.283,0,0,0-1.069.064" transform="translate(-18.114 -152.066)" fill="#81cccf"/><path d="M72.8,257.506l-6.674.214c-.156-1.545-.252-2.982-.458-4.4a4.16,4.16,0,0,1,.769-3.2c.678-.948,1.237-2,1.882-3.06.487.395.856.725,1.253,1.01.676.485,1.356.967,2.059,1.4.573.354.6.441.587,1.158a21.652,21.652,0,0,0,.1,2.651c.128,1.242.335,2.474.5,3.711a3.8,3.8,0,0,1-.018.519" transform="translate(-54.711 -206.015)" fill="#f494bc"/><path d="M23.205,213.423c-.094.843-.249,1.648-.258,2.455a3.981,3.981,0,0,1-1.339,2.784,37.078,37.078,0,0,0-2.836,3.567,3.2,3.2,0,0,0-.375,2.363,22.037,22.037,0,0,1,.083,4.216c-.271-.27-.553-.529-.811-.812a21.081,21.081,0,0,1-3.444-5.55,62.82,62.82,0,0,1-2.977-7.59c-.428-1.371-.641-2.812-.983-4.363a3.01,3.01,0,0,1,.709.2,8.688,8.688,0,0,0,3.35,1.3c1.333.257,2.651.6,3.991.811,1.408.22,2.835.321,4.252.48.177.02.35.075.636.139" transform="translate(-9.542 -177.101)" fill="#a9ebe2"/><path d="M51.252,172.785a12.468,12.468,0,0,1,1.983.016,5.422,5.422,0,0,1,4.144,2.867,2.668,2.668,0,0,1,.3.935c.129,1.254.26,2.511.31,3.77a4.745,4.745,0,0,1-1.6,3.785,14.142,14.142,0,0,1-4.768,2.81c-1.773.648-3.524,1.356-5.283,2.041-.834.325-1.672.64-2.492,1a2.84,2.84,0,0,0-.72.529,23.494,23.494,0,0,1-6.3,3.8,26.565,26.565,0,0,1-13.141,2.029,44.5,44.5,0,0,1-10.473-2.192c-.886-.29-1.773-.581-2.635-.934a13.59,13.59,0,0,1-4.045-2.782,16.684,16.684,0,0,1-2.553-2.982,17.6,17.6,0,0,1-1.122-2.039,38.747,38.747,0,0,1-2-5.592A16.945,16.945,0,0,1,0,175.156c-.022-1.169.061-2.339.1-3.509a2.775,2.775,0,0,0,.014-.622,2.322,2.322,0,0,1,1.639-2.493c1.311-.33,2.613-.715,3.94-.959a30.866,30.866,0,0,1,5.488-.439c1.191,0,2.38-.238,3.572-.348,1.673-.155,3.347-.308,5.023-.429q1.84-.133,3.687-.176c2.116-.047,4.232-.066,6.348-.081,2.614-.019,5.229,0,7.844-.039a26.433,26.433,0,0,1,8.364,1.122,28.184,28.184,0,0,1,2.786,1.007,3.665,3.665,0,0,1,2.054,2.246,11.871,11.871,0,0,1,.394,2.348m-35.913,5.536c.232.057.4.109.578.141a9.979,9.979,0,0,1,3.345,1.282,2.127,2.127,0,0,1,1.148,2.079,14.324,14.324,0,0,0,.14,2.692c.251,1.724.566,3.439.89,5.151a1.691,1.691,0,0,1-1.376,2.137c-.675.108-1.367.107-2.051.169a5.406,5.406,0,0,0-.624.129c0,.06,0,.121,0,.182.452.115.9.231,1.355.344a29.752,29.752,0,0,0,5.592.908,34.564,34.564,0,0,0,6.568-.162,21.416,21.416,0,0,0,3.452-.658,20.669,20.669,0,0,0,4.754-2.143,10.685,10.685,0,0,0,3.625-3.451,37.817,37.817,0,0,0,1.8-3.541c.785-1.66,1.563-3.324,2.282-5.013.468-1.1.852-2.238,1.225-3.374a10.684,10.684,0,0,0,.267-1.51c-1.026.295-1.944.553-2.859.822a23.617,23.617,0,0,1-5.442.651c-1.674.091-3.354.075-5.03.134-1.891.067-3.78.176-5.671.25-1.081.042-2.163.047-3.244.078-1.381.039-2.761.112-4.143.125-2.275.021-4.55.006-6.911.006l.333,2.577m.607-5.72a5.285,5.285,0,0,1,1.069-.064,45.751,45.751,0,0,0,5.207.019c.3.009.592-.038.887-.03,1.135.031,2.271.11,3.406.106,1.834-.006,3.667-.067,5.5-.1.9-.015,1.8-.014,2.7-.024,1.167-.012,2.336-.008,3.5-.047,1.653-.055,3.31-.093,4.957-.237a22.782,22.782,0,0,0,3.1-.566,2.8,2.8,0,0,0,1.642-1.02c-.542-.211-1.009-.4-1.484-.575a17.482,17.482,0,0,0-4.811-1.079q-2.422-.149-4.851-.182c-2.767-.038-5.534-.043-8.3-.039-1.563,0-3.126.056-4.689.079-.991.015-1.985-.04-2.971.034-2.607.195-5.211.431-7.815.671-2.367.218-4.733.446-7.1.705-.711.078-1.409.275-2.289.453a4.94,4.94,0,0,0,1.029.588,24.456,24.456,0,0,0,4.945.955c.78.025,1.557.118,2.335.178.589.046,1.142.021,1.469-.6a1.992,1.992,0,0,1,.414-.476c.838-.8,1.747-.55,2.023.552.05.2.072.4.123.7m-3.677,3.192c-.233-.051-.375-.1-.519-.112-1.158-.128-2.322-.21-3.472-.386-1.094-.168-2.17-.445-3.258-.652A7.161,7.161,0,0,1,2.284,173.6a2.48,2.48,0,0,0-.579-.163c.279,1.247.453,2.4.8,3.507a50.036,50.036,0,0,0,2.431,6.1,16.9,16.9,0,0,0,2.812,4.46c.211.227.441.435.662.652a17.431,17.431,0,0,0-.068-3.388,2.537,2.537,0,0,1,.306-1.9A29.883,29.883,0,0,1,10.966,180a3.18,3.18,0,0,0,1.093-2.237,19.8,19.8,0,0,1,.21-1.973m5.8,13.873a3,3,0,0,0,.018-.46c-.167-1.127-.357-2.9-.485-4.028a16.6,16.6,0,0,1-.185-2.315,2.188,2.188,0,0,0-.037-.564c-.033-.172-.174-.279-.551-.491-.7-.4-1.294-.934-1.97-1.376-.4-.259-.767-.56-1.253-.92-.645.967-1.2,1.923-1.882,2.786a3.535,3.535,0,0,0-.769,2.918c.206,1.291.285,3.249.441,4.656l6.674-.195m28.409-4.143c.916-.284,1.629-.479,2.324-.725a18.842,18.842,0,0,0,5.328-2.577,2.263,2.263,0,0,0,.554-.681,5.142,5.142,0,0,0,.187-3.762,1.011,1.011,0,0,0-.943-.924c-1.045-.117-2.092-.215-3.139-.319a.554.554,0,0,0-.62.414c-.207.592-.364,1.205-.61,1.78-.554,1.294-1.147,2.571-1.729,3.853-.42.924-.848,1.845-1.353,2.94" transform="translate(0 -138.472)"/><path d="M137.186,20.567a4.887,4.887,0,0,1,1-2.942c.933-1.14,1.9-2.252,2.811-3.411.592-.755,1.107-1.571,1.654-2.362a2.677,2.677,0,0,0-.219-3.342c-.539-.755-1.15-1.46-1.684-2.219a5.571,5.571,0,0,1-.879-4.555A2.622,2.622,0,0,1,140.929.224a.738.738,0,0,1,1.27.491,6.217,6.217,0,0,1,.073.809,5.909,5.909,0,0,0,1.164,3.348,13.33,13.33,0,0,1,1.164,1.6c.929,1.679,1.711,3.422.854,5.371a12.74,12.74,0,0,1-1.255,2.077,23.236,23.236,0,0,1-3.514,3.834,8.346,8.346,0,0,0-1.288,1.506,2.4,2.4,0,0,0-.344,1.818,10,10,0,0,0,1.281,3.17c.06.1.175.183.21.292.041.131.082.351.017.406a.726.726,0,0,1-.473.129.813.813,0,0,1-.4-.183,6.1,6.1,0,0,1-2.5-4.32" transform="translate(-114.397 0)"/><path d="M69.966,75.941a5.048,5.048,0,0,1,1.263-3.2c.985-1,1.948-2.033,2.968-3a2.748,2.748,0,0,0,.782-1.486,14.1,14.1,0,0,1,.356-1.4c.232-.694.762-.824,1.32-.33a2.648,2.648,0,0,1,.878,2.189,3.915,3.915,0,0,1-1.525,2.854c-.8.68-1.648,1.3-2.474,1.948A3.4,3.4,0,0,0,72.168,77a7.242,7.242,0,0,0,.912,2.9.607.607,0,0,1,.024.559.6.6,0,0,1-.551.142,3.242,3.242,0,0,1-.981-.611,5.506,5.506,0,0,1-1.366-2.712c-.118-.461-.17-.939-.239-1.339" transform="translate(-58.343 -55.228)"/><path d="M205.2,64.71a5.771,5.771,0,0,1,1.677-4.1A6.5,6.5,0,0,0,208.6,57.6c.056-.324.086-.654.156-.974.172-.789.343-1.58.551-2.36.1-.39.322-.751.8-.733a.9.9,0,0,1,.848.71,8.371,8.371,0,0,1,.373,1.936,7.024,7.024,0,0,1-2.212,5.2,7.445,7.445,0,0,0-1.709,2.512,2.856,2.856,0,0,0-.145.792c-.1,1.168-.18,2.338-.262,3.508-.019.271-.113.519-.4.5a.882.882,0,0,1-.585-.308,1.89,1.89,0,0,1-.278-.754c-.192-.971-.361-1.947-.538-2.921" transform="translate(-171.106 -44.639)"/></g></g></g></svg>