<svg xmlns="http://www.w3.org/2000/svg" xmlns:xlink="http://www.w3.org/1999/xlink" width="59.727" height="59.661" viewBox="0 0 59.727 59.661">
  <defs>
    <clipPath id="clip-path">
      <rect id="Rectangle_1032" data-name="Rectangle 1032" width="59.727" height="59.661" fill="none"/>
    </clipPath>
  </defs>
  <g id="Group_245" data-name="Group 245" transform="translate(0)">
    <g id="Group_244" data-name="Group 244" transform="translate(0)" clip-path="url(#clip-path)">
      <path id="Path_548" data-name="Path 548" d="M60.692,30.833A29.311,29.311,0,1,1,31.381,1.522,29.311,29.311,0,0,1,60.692,30.833" transform="translate(-1.515 -1.114)" fill="#81cccf"/>
      <path id="Path_549" data-name="Path 549" d="M24.461.372c1.09-.1,1.907-.2,2.728-.259a24.039,24.039,0,0,1,5.359.072c1.207.183,2.435.255,3.625.509a11.58,11.58,0,0,1,2.356.652c.844.376,1.768.571,2.64.89.6.22,1.178.507,1.756.783a15.676,15.676,0,0,1,1.427.738c.951.579,1.884,1.186,2.82,1.788.4.256.794.515,1.173.8.538.4,1.074.8,1.581,1.241a3.288,3.288,0,0,1,.475.655c.053.076.079.21.145.232A1.94,1.94,0,0,1,51.821,9.69a.274.274,0,0,0,.149.158c.535.141.671.72,1.094.981a.206.206,0,0,1,.049.057c.637.874,1.3,1.731,1.9,2.626a25.4,25.4,0,0,1,2.745,5.2,30.1,30.1,0,0,1,1.531,5.51,27.226,27.226,0,0,1,.427,4.171c.025,1.28-.024,2.564-.1,3.843a19.2,19.2,0,0,1-.68,4.06,46.8,46.8,0,0,1-1.464,4.616,31.65,31.65,0,0,1-1.719,3.549,4.716,4.716,0,0,1-1.2,1.822c-.229.164-.246.526-.448.792q-1.075,1.412-2.272,2.713a6.742,6.742,0,0,1-1.7,1.693c-.2.107-.311.387-.5.547-.446.385-.939.717-1.364,1.123a17.16,17.16,0,0,1-2.208,1.586,12.248,12.248,0,0,1-2.46,1.419c-.538.211-1.009.588-1.544.81a31.532,31.532,0,0,1-3.106,1.162c-.727.215-1.448.427-2.165.68a13.98,13.98,0,0,1-2.313.438,7.435,7.435,0,0,1-1.25.173,15.559,15.559,0,0,0-2.557.167,9.046,9.046,0,0,1-2.514-.021,3.658,3.658,0,0,1-1.5-.234c-.3-.169-.754-.064-1.138-.094a13.025,13.025,0,0,1-3.188-.6,22.371,22.371,0,0,1-2.492-.668c-.751-.361-1.546-.581-2.3-.9a27.612,27.612,0,0,1-2.886-1.5,23.315,23.315,0,0,1-2.084-1.368c-.758-.551-1.5-1.126-2.212-1.736a29.642,29.642,0,0,1-4.137-4.361,28.318,28.318,0,0,1-2.42-3.636A33.94,33.94,0,0,1,1.951,40.4,29.593,29.593,0,0,1,0,29.964a28.453,28.453,0,0,1,.762-6.977,49.3,49.3,0,0,1,1.618-5C2.755,17,3.394,16.117,3.849,15.16a19.024,19.024,0,0,1,1.8-2.893A23.737,23.737,0,0,1,9.187,8.25c.728-.642,1.434-1.313,2.2-1.914A22.739,22.739,0,0,1,15.328,3.67c1.294-.639,2.562-1.338,3.888-1.9A9.406,9.406,0,0,1,22.023.9,2.523,2.523,0,0,0,23.051.583a3.062,3.062,0,0,1,1.41-.211M22.647,4.3c-.329.145-.528.234-.728.319a4.809,4.809,0,0,1-.657.264,14.356,14.356,0,0,0-3.548,1.392c-.621.352-1.29.617-1.936.925a1.325,1.325,0,0,0-.176.133c-.5.358-1.007.712-1.507,1.072A23,23,0,0,0,12.074,9.9c-.764.691-1.453,1.468-2.151,2.228A20.28,20.28,0,0,0,7.39,15.455c-.4.666-1.088,1.137-1.2,2-.042.335-.422.614-.561.954-.344.843-.654,1.7-.948,2.563-.352,1.034-.648,2.087-1.018,3.114-.231.641-.238,1.32-.414,1.975a22.853,22.853,0,0,0-.179,2.627,16.162,16.162,0,0,0,.11,4.245A25.1,25.1,0,0,0,4.788,39.41,24.1,24.1,0,0,0,6.31,42.725,29.148,29.148,0,0,0,7.894,45.29a30.257,30.257,0,0,0,3.222,3.776,28.666,28.666,0,0,0,4.325,3.4c.512.333,1.041.644,1.576.939.4.223.83.408,1.249.605q1.1.518,2.209,1.028a1.476,1.476,0,0,0,.221.042c.4.11.814.208,1.212.341a8.631,8.631,0,0,0,1.44.517,38.069,38.069,0,0,0,4.645.622c1.114.018,2.228.1,3.342.117.309,0,.62-.21.931-.215a19.062,19.062,0,0,0,4.892-.861,29.791,29.791,0,0,0,3.334-1.218,25.427,25.427,0,0,0,7.186-4.6,30.355,30.355,0,0,0,3.055-3.322A18.862,18.862,0,0,0,52.852,43.3a27.929,27.929,0,0,0,2.142-4.8,28.913,28.913,0,0,0,1.155-5.252,22.932,22.932,0,0,0-.027-6.1,21.911,21.911,0,0,0-.436-2.781c-.428-1.5-.945-2.974-1.513-4.425a21.677,21.677,0,0,0-3.212-5.757A3.25,3.25,0,0,1,50.2,13.1c-.168-.718-1-.845-1.165-1.506-.548-.2-.772-.725-1.123-1.122-.081-.091-.121-.3-.195-.3-.575-.062-.866-.529-1.216-.87-.506-.491-1.269-.682-1.584-1.4-.059-.133-.34-.174-.523-.247a1.635,1.635,0,0,1-.346-.112,18.471,18.471,0,0,0-3.2-1.924,7.716,7.716,0,0,0-2.69-.974,4.23,4.23,0,0,1-1.27-.492c-.551-.236-1.157-.219-1.728-.458a2.12,2.12,0,0,0-1.608-.2c-.144.056-.343-.046-.518-.051a27.816,27.816,0,0,0-2.805-.215c-.808.053-1.617.091-2.425.121a3.566,3.566,0,0,0-.709-.036c-.889.234-1.764.522-2.652.761-.222.06-.551-.083-.7.034a1.125,1.125,0,0,1-1.094.2" transform="translate(0 0)"/>
      <path id="Path_550" data-name="Path 550" d="M81.3,86.468c-.444-.245-.7.083-.983.383-.3-.313-.575-.291-.766.013-.248-.068-.454-.118-.656-.182a.458.458,0,0,1-.226-.124,6.287,6.287,0,0,1-1.1-1.968,7.547,7.547,0,0,1,.079-2.933,4.848,4.848,0,0,0-.1-1.991,2.686,2.686,0,0,1-.076-.9c.026-1.061.078-2.121.109-3.183.057-1.984.094-3.969.162-5.953.024-.714.125-1.426.164-2.14a2.946,2.946,0,0,0-.078-.622c-.524-.072-.939-.143-1.357-.18a1.183,1.183,0,0,0-.53.071,1.69,1.69,0,0,1-1.209,0,2.834,2.834,0,0,0-1.274-.05,1.087,1.087,0,0,1-.976-.355,5.063,5.063,0,0,0-.666-.434,1.7,1.7,0,0,1-.407-1.159,2.9,2.9,0,0,1,2.126-1.808,8.085,8.085,0,0,1,2.306-.219A5.392,5.392,0,0,0,77.7,62.5a11.029,11.029,0,0,0,.6-3.63,25.639,25.639,0,0,1,.386-4.333,1.444,1.444,0,0,1,.7-1.019,7.38,7.38,0,0,1,2.012-1.065,6.916,6.916,0,0,1,3.175-.353,5.074,5.074,0,0,0,1.29.073,6.75,6.75,0,0,1,2.347.488c.044.012.109,0,.135.024.671.7,1.731.959,2.142,1.974a4.242,4.242,0,0,1,.2,2.892c-.037.126-.018.268-.043.4a2.19,2.19,0,0,1-.131.494c-.053.117-.183.2-.249.31-.416.72-.724.71-1.56.436a1.728,1.728,0,0,1-1.242-1.512,3.81,3.81,0,0,0-1.5-2.1,2.442,2.442,0,0,0-1.036-.343,9.594,9.594,0,0,0-1.512-.161c-.54-.011-.98.454-1.1,1.2a9.919,9.919,0,0,0-.251,2.448c.087,1.1-.061,2.21-.076,3.316a3.249,3.249,0,0,0,.185.784c.8.038,1.541.081,2.284.1a7.151,7.151,0,0,0,.734-.06A10.325,10.325,0,0,1,88.4,63.4c.307.1.55.2.642.535a.52.52,0,0,0,.147.233c.329.3.611.595.185,1.039-.053.055.006.219.015.348-.194.138-.457.107-.524.5-.1.615-.732.868-1.377.839a15.4,15.4,0,0,0-3.172-.1,2.6,2.6,0,0,1-.872-.112c-.55-.109-.548-.117-1.211.19-.032.49-.069,1.027-.1,1.565-.064,1.1-.138,2.191-.184,3.287a19.07,19.07,0,0,1-.1,2.64,7.279,7.279,0,0,0-.061,1.38,8.062,8.062,0,0,1-.093,2.562c.2.539,0,1.116.2,1.678.119.338.327.813-.116,1.112a2.857,2.857,0,0,1,.252,1.759,1.337,1.337,0,0,0,.006.4,4.394,4.394,0,0,1-.108,1.984,2.37,2.37,0,0,1-.622,1.223" transform="translate(-52.266 -38.092)"/>
    </g>
  </g>
</svg>
