<svg xmlns="http://www.w3.org/2000/svg" xmlns:xlink="http://www.w3.org/1999/xlink" width="57.962" height="53.519" viewBox="0 0 57.962 53.519"><defs><clipPath id="a"><rect width="56.196" height="51.589"/></clipPath></defs><g transform="translate(-6.179 -338.919)"><path d="M1682.849,1316.344c-2.347-2.712-7.407-8.947-11.88-7.1s-9.174,7.608-4.386,18.266,16.267,15.784,16.267,15.784,12.1-5.1,16.367-15.784,2.382-16.015-1.022-17.2-8.065-1.845-11.475,2.182a51.442,51.442,0,0,0-3.87,4.838Z" transform="translate(-1646.738 -958.428)" fill="#f494bc"/><g transform="translate(7.98 338.919) rotate(2)" clip-path="url(#a)"><path d="M20.416,6.449a14.621,14.621,0,0,1,4.211-4.309A12.569,12.569,0,0,1,32.68.065a9.22,9.22,0,0,1,3.489,1.31A10.346,10.346,0,0,1,40.65,7.036a13.545,13.545,0,0,1,.46,7.134,25.34,25.34,0,0,1-1.683,5.077,35.735,35.735,0,0,1-4.594,7.659,43.493,43.493,0,0,1-4.724,5.456c-.88.884-1.932,1.6-2.815,2.476a18.26,18.26,0,0,1-3.526,2.579,8.736,8.736,0,0,1-2.177.824,1.319,1.319,0,0,1-1.033-.1c-1.167-.955-2.642-1.248-3.934-1.929A28.386,28.386,0,0,1,11.378,32.5a45.069,45.069,0,0,1-4.8-4.7,28.444,28.444,0,0,1-3.528-5.223A26.988,26.988,0,0,1,.982,17.9a20.5,20.5,0,0,1-.975-5.474A13.964,13.964,0,0,1,.7,7.368,9.8,9.8,0,0,1,6.873,1.28a10.088,10.088,0,0,1,7.978.5A14.991,14.991,0,0,1,19.8,5.74c.194.208.374.431.614.709M3.085,11.737a19.381,19.381,0,0,0,1.177,5.61A26.316,26.316,0,0,0,8.82,25.167c.867,1.039,1.694,2.113,2.6,3.12a13.7,13.7,0,0,0,3.633,3.121,36.355,36.355,0,0,0,6.414,2.643,1.26,1.26,0,0,0,1.292-.218c1.165-.938,2.351-1.85,3.512-2.794A11.571,11.571,0,0,0,27.6,29.8c1.044-1.167,2.048-2.368,3.077-3.548a34.525,34.525,0,0,0,3.984-5.663,22.553,22.553,0,0,0,2.589-5.845,17.536,17.536,0,0,0,.559-3.579,9,9,0,0,0-.731-3.75,6.444,6.444,0,0,0-6.345-4.029,9.774,9.774,0,0,0-5.79,2.722,5.708,5.708,0,0,0-.958,1.26,13.726,13.726,0,0,0-1.462,3.546,1.8,1.8,0,0,1-2.359,1.425c-.85-.194-1.195-.947-1.461-1.608a14.883,14.883,0,0,0-2.12-3.556,9.513,9.513,0,0,0-4.9-3.195c-2.918-.945-6.42.9-7.705,3.381a10.543,10.543,0,0,0-.893,4.376" transform="translate(8.651 8.404)"/><path d="M1.377,12.565C.3,12.423.086,12.236.024,11.234A12.441,12.441,0,0,1,.735,6.258a11.65,11.65,0,0,1,2.2-4.12A6.064,6.064,0,0,1,6.789.009a1.6,1.6,0,0,1,.639.06C8,.253,8.536.587,8.588,1.213a1.748,1.748,0,0,1-.781,1.562c-.493.349-1.027.642-1.553.943A6.186,6.186,0,0,0,3.7,6.382a27.9,27.9,0,0,0-2.141,5.836,2,2,0,0,1-.178.347" transform="translate(1.183 5.579)"/><path d="M12.646,10.12a9.324,9.324,0,0,1-.187,1.137.837.837,0,0,1-1.351.472,2.924,2.924,0,0,1-.748-.743C9.68,9.936,9.052,8.853,8.38,7.8A15.746,15.746,0,0,0,2.421,2.372C1.792,2.033,1.153,1.709.5,1.41A.7.7,0,0,1,0,.676.708.708,0,0,1,.726.012,2.965,2.965,0,0,1,1.68.079,14.976,14.976,0,0,1,9.2,4.594a16.047,16.047,0,0,1,2.942,4.07,13.278,13.278,0,0,1,.5,1.456" transform="translate(43.55 1.77)"/><path d="M.276,0A2.038,2.038,0,0,1,.721.34,83.888,83.888,0,0,0,8.938,9.247c1.246,1.245,2.572,2.4,3.85,3.616a6.179,6.179,0,0,1,.7.841,1.033,1.033,0,0,1,.092,1.26,1.066,1.066,0,0,1-1.182.353,8.676,8.676,0,0,1-4.466-2.659A40.239,40.239,0,0,1,1.9,4.768,41.327,41.327,0,0,1,.114,1.021,3.173,3.173,0,0,1,0,.107L.276,0" transform="translate(3.838 32.449)"/><path d="M0,12.1a5.858,5.858,0,0,1,.572-1.027C2.825,8.412,5.1,5.765,7.365,3.111c.65-.762,1.261-1.553,1.952-2.282a2.976,2.976,0,0,1,1.11-.682C11.634-.3,12.48.3,12.31,1.46a4.79,4.79,0,0,1-1.6,2.756C8.746,6.073,6.8,7.944,4.768,9.737A26.859,26.859,0,0,1,1.55,12.049a4.331,4.331,0,0,1-1.32.325L0,12.1" transform="translate(42.194 34.258)"/><path d="M0,4.473A4.971,4.971,0,0,1,1.171,1.086,2.511,2.511,0,0,1,3.708.048a.805.805,0,0,1,.557.4.688.688,0,0,1-.3.584c-1.651.874-1.669,2.375-1.469,3.906.12.916.447,1.8.645,2.71.212.974-.466,1.8-1.31,1.528A2.091,2.091,0,0,1,.757,8.218,8.485,8.485,0,0,1,0,4.473" transform="translate(14.304 15.329)"/><path d="M0,1.226A1.164,1.164,0,0,1,1.907.267a4.073,4.073,0,0,1,1.487,2.41c.161.628-.674,1.268-1.36,1.128A3.871,3.871,0,0,1,0,1.226" transform="translate(16.575 26.281)"/></g></g></svg>